<?xml version="1.0" encoding="UTF-8" standalone="no"?>
<!DOCTYPE svg PUBLIC "-//W3C//DTD SVG 1.1//EN"
 "http://www.w3.org/Graphics/SVG/1.1/DTD/svg11.dtd">
<!-- Generated by graphviz version 2.40.1 (20161225.0304)
 -->
<!-- Title: G Pages: 1 -->
<svg width="867pt" height="308pt"
 viewBox="0.00 0.00 866.95 308.40" xmlns="http://www.w3.org/2000/svg" xmlns:xlink="http://www.w3.org/1999/xlink">
<g id="graph0" class="graph" transform="scale(1 1) rotate(0) translate(4 304.399)">
<title>G</title>
<polygon fill="#ffffff" stroke="transparent" points="-4,4 -4,-304.399 862.9526,-304.399 862.9526,4 -4,4"/>
<!-- Automated Testing -->
<g id="node1" class="node">
<title>Automated Testing</title>
<polygon fill="#2f28d7" stroke="#000000" stroke-width="3" points="208.3394,-252.3153 219.642,-252.4472 230.8278,-252.6447 241.8509,-252.9071 252.6669,-253.2338 263.2323,-253.6238 273.5054,-254.0761 283.4463,-254.5895 293.0171,-255.1625 302.1824,-255.7936 310.909,-256.481 319.1667,-257.2229 326.928,-258.0172 334.1682,-258.8617 340.8659,-259.7542 347.0027,-260.6921 352.5635,-261.673 357.5363,-262.6941 361.9123,-263.7527 365.686,-264.8457 368.8549,-265.9703 371.4198,-267.1233 373.384,-268.3017 374.754,-269.502 375.5388,-270.7212 375.7499,-271.9557 375.4013,-273.2024 374.5089,-274.4576 373.0906,-275.718 371.166,-276.9802 368.7562,-278.2406 365.8836,-279.4958 362.5715,-280.7425 358.844,-281.977 354.7257,-283.1962 350.2417,-284.3966 345.417,-285.5749 340.2767,-286.7279 334.8452,-287.8525 329.147,-288.9456 323.2054,-290.0041 317.0431,-291.0252 310.6821,-292.0061 304.1429,-292.944 297.4452,-293.8365 290.6073,-294.6811 283.6464,-295.4754 276.5781,-296.2172 269.417,-296.9046 262.1763,-297.5357 254.868,-298.1087 247.5027,-298.6221 240.0901,-299.0744 232.6387,-299.4644 225.1562,-299.7911 217.6494,-300.0535 210.1244,-300.251 202.5868,-300.3829 195.0418,-300.449 187.4944,-300.449 179.9494,-300.3829 172.4119,-300.251 164.8869,-300.0535 157.3801,-299.7911 149.8976,-299.4644 142.4462,-299.0744 135.0336,-298.6221 127.6683,-298.1087 120.3599,-297.5357 113.1192,-296.9046 105.9581,-296.2172 98.8899,-295.4754 91.9289,-294.6811 85.091,-293.8365 78.3933,-292.944 71.8542,-292.0061 65.4931,-291.0252 59.3309,-290.0041 53.3893,-288.9456 47.691,-287.8525 42.2596,-286.7279 37.1192,-285.5749 32.2945,-284.3966 27.8105,-283.1962 23.6922,-281.977 19.9647,-280.7425 16.6526,-279.4958 13.78,-278.2406 11.3702,-276.9802 9.4457,-275.718 8.0274,-274.4576 7.1349,-273.2024 6.7863,-271.9557 6.9975,-270.7212 7.7823,-269.502 9.1523,-268.3017 11.1165,-267.1233 13.6813,-265.9703 16.8502,-264.8457 20.624,-263.7527 25,-262.6941 29.9727,-261.673 35.5335,-260.6921 41.6703,-259.7542 48.368,-258.8617 55.6083,-258.0172 63.3695,-257.2229 71.6272,-256.481 80.3539,-255.7936 89.5191,-255.1625 99.09,-254.5895 109.0308,-254.0761 119.3039,-253.6238 129.8693,-253.2338 140.6853,-252.9071 151.7085,-252.6447 162.8942,-252.4472 174.1968,-252.3153 185.5698,-252.2493 196.9664,-252.2493 208.3394,-252.3153"/>
<text text-anchor="middle" x="191.2681" y="-270.1491" font-family="Times,serif" font-size="24.00" fill="#ffffff">Automated Testing</text>
</g>
<!-- Exploratory Testing -->
<g id="node2" class="node">
<title>Exploratory Testing</title>
<polygon fill="#2f28d7" stroke="#000000" stroke-width="3" points="208.946,-168.2156 220.6502,-168.3475 232.2333,-168.5449 243.6482,-168.8074 254.8484,-169.134 265.7892,-169.5241 276.4273,-169.9764 286.7214,-170.4897 296.6323,-171.0627 306.1232,-171.6938 315.1599,-172.3812 323.711,-173.1231 331.748,-173.9174 339.2455,-174.762 346.1812,-175.6544 352.536,-176.5924 358.2944,-177.5733 363.4438,-178.5944 367.9753,-179.6529 371.8831,-180.746 375.1647,-181.8706 377.8206,-183.0236 379.8546,-184.2019 381.2733,-185.4023 382.086,-186.6214 382.3046,-187.856 381.9436,-189.1026 381.0195,-190.3579 379.5508,-191.6183 377.5578,-192.8804 375.0625,-194.1409 372.0878,-195.3961 368.658,-196.6427 364.798,-197.8773 360.5335,-199.0964 355.8901,-200.2968 350.894,-201.4751 345.571,-202.6282 339.9466,-203.7528 334.0458,-204.8458 327.8931,-205.9043 321.512,-206.9254 314.9249,-207.9063 308.1534,-208.8443 301.2177,-209.7368 294.1369,-210.5813 286.9286,-211.3756 279.6092,-212.1175 272.1937,-212.8049 264.6957,-213.436 257.1277,-214.009 249.5007,-214.5223 241.8247,-214.9747 234.1086,-215.3647 226.3602,-215.6914 218.5867,-215.9538 210.7943,-216.1512 202.989,-216.2832 195.1759,-216.3492 187.3603,-216.3492 179.5473,-216.2832 171.7419,-216.1512 163.9495,-215.9538 156.176,-215.6914 148.4276,-215.3647 140.7115,-214.9747 133.0355,-214.5223 125.4085,-214.009 117.8405,-213.436 110.3426,-212.8049 102.927,-212.1175 95.6076,-211.3756 88.3993,-210.5813 81.3185,-209.7368 74.3828,-208.8443 67.6113,-207.9063 61.0243,-206.9254 54.6431,-205.9043 48.4904,-204.8458 42.5897,-203.7528 36.9652,-202.6282 31.6422,-201.4751 26.6461,-200.2968 22.0028,-199.0964 17.7382,-197.8773 13.8782,-196.6427 10.4484,-195.3961 7.4738,-194.1409 4.9784,-192.8804 2.9854,-191.6183 1.5167,-190.3579 .5926,-189.1026 .2316,-187.856 .4503,-186.6214 1.2629,-185.4023 2.6816,-184.2019 4.7156,-183.0236 7.3716,-181.8706 10.6531,-180.746 14.5609,-179.6529 19.0924,-178.5944 24.2418,-177.5733 30.0002,-176.5924 36.3551,-175.6544 43.2907,-174.762 50.7882,-173.9174 58.8252,-173.1231 67.3763,-172.3812 76.4131,-171.6938 85.904,-171.0627 95.8148,-170.4897 106.1089,-169.9764 116.747,-169.5241 127.6878,-169.134 138.8881,-168.8074 150.3029,-168.5449 161.8861,-168.3475 173.5903,-168.2156 185.3674,-168.1495 197.1689,-168.1495 208.946,-168.2156"/>
<text text-anchor="middle" x="191.2681" y="-186.0494" font-family="Times,serif" font-size="24.00" fill="#ffffff">Exploratory Testing</text>
</g>
<!-- Automated Testing&#45;&gt;Exploratory Testing -->
<g id="edge2" class="edge">
<title>Automated Testing&#45;&gt;Exploratory Testing</title>
<g id="a_edge2"><a xlink:title="Automated Testing &#160;better together with &#160;Exploratory Testing">
<path fill="none" stroke="#d0d728" d="M185.0821,-252.024C184.5466,-244.0916 184.3924,-235.1292 184.6196,-226.6037"/>
<polygon fill="#d0d728" stroke="#d0d728" points="188.1202,-226.6708 185.0858,-216.5198 181.1276,-226.3475 188.1202,-226.6708"/>
</a>
</g>
</g>
<!-- Continuous Integration -->
<g id="node3" class="node">
<title>Continuous Integration</title>
<polygon fill="#2f28d7" stroke="#000000" stroke-width="3" points="647.1642,-168.2156 660.9991,-168.3475 674.691,-168.5449 688.1839,-168.8074 701.4231,-169.134 714.3557,-169.5241 726.9304,-169.9764 739.0985,-170.4897 750.8137,-171.0627 762.0324,-171.6938 772.7143,-172.3812 782.8221,-173.1231 792.3222,-173.9174 801.1846,-174.762 809.3829,-175.6544 816.8947,-176.5924 823.7013,-177.5733 829.7882,-178.5944 835.1447,-179.6529 839.7639,-180.746 843.6428,-181.8706 846.7823,-183.0236 849.1866,-184.2019 850.8635,-185.4023 851.8241,-186.6214 852.0826,-187.856 851.6559,-189.1026 850.5635,-190.3579 848.8274,-191.6183 846.4717,-192.8804 843.522,-194.1409 840.0058,-195.3961 835.9516,-196.6427 831.389,-197.8773 826.348,-199.0964 820.8594,-200.2968 814.9537,-201.4751 808.6616,-202.6282 802.0133,-203.7528 795.0384,-204.8458 787.7656,-205.9043 780.2227,-206.9254 772.4365,-207.9063 764.4322,-208.8443 756.2339,-209.7368 747.864,-210.5813 739.3435,-211.3756 730.6916,-212.1175 721.9261,-212.8049 713.0631,-213.436 704.1174,-214.009 695.1019,-214.5223 686.0285,-214.9747 676.9076,-215.3647 667.7487,-215.6914 658.56,-215.9538 649.3491,-216.1512 640.1227,-216.2832 630.8873,-216.3492 621.6489,-216.3492 612.4135,-216.2832 603.1872,-216.1512 593.9762,-215.9538 584.7875,-215.6914 575.6286,-215.3647 566.5077,-214.9747 557.4343,-214.5223 548.4189,-214.009 539.4731,-213.436 530.6101,-212.8049 521.8446,-212.1175 513.1928,-211.3756 504.6722,-210.5813 496.3023,-209.7368 488.104,-208.8443 480.0997,-207.9063 472.3135,-206.9254 464.7707,-205.9043 457.4979,-204.8458 450.5229,-203.7528 443.8746,-202.6282 437.5825,-201.4751 431.6769,-200.2968 426.1882,-199.0964 421.1473,-197.8773 416.5846,-196.6427 412.5304,-195.3961 409.0142,-194.1409 406.0646,-192.8804 403.7088,-191.6183 401.9727,-190.3579 400.8804,-189.1026 400.4536,-187.856 400.7121,-186.6214 401.6727,-185.4023 403.3497,-184.2019 405.754,-183.0236 408.8934,-181.8706 412.7724,-180.746 417.3916,-179.6529 422.748,-178.5944 428.8349,-177.5733 435.6416,-176.5924 443.1533,-175.6544 451.3516,-174.762 460.214,-173.9174 469.7141,-173.1231 479.822,-172.3812 490.5038,-171.6938 501.7225,-171.0627 513.4377,-170.4897 525.6058,-169.9764 538.1805,-169.5241 551.1131,-169.134 564.3523,-168.8074 577.8452,-168.5449 591.5371,-168.3475 605.372,-168.2156 619.2932,-168.1495 633.2431,-168.1495 647.1642,-168.2156"/>
<text text-anchor="middle" x="626.2681" y="-186.0494" font-family="Times,serif" font-size="24.00" fill="#ffffff">Continuous Integration</text>
</g>
<!-- Automated Testing&#45;&gt;Continuous Integration -->
<g id="edge1" class="edge">
<title>Automated Testing&#45;&gt;Continuous Integration</title>
<g id="a_edge1"><a xlink:title="Automated Testing &#160;reduces the failure rate of &#160;Continuous Integration">
<path fill="none" stroke="#d72879" d="M298.7962,-255.5604C363.8882,-242.976 446.813,-226.9439 512.928,-214.1617"/>
<polygon fill="#d72879" stroke="#d72879" points="513.8186,-217.5544 522.9724,-212.2198 512.4898,-210.6817 513.8186,-217.5544"/>
</a>
</g>
</g>
<!-- Exploratory Testing&#45;&gt;Automated Testing -->
<g id="edge3" class="edge">
<title>Exploratory Testing&#45;&gt;Automated Testing</title>
<g id="a_edge3"><a xlink:title="Exploratory Testing &#160;better together with &#160;Automated Testing">
<path fill="none" stroke="#d0d728" d="M197.4504,-216.5198C197.9877,-224.4475 198.1436,-233.4085 197.9182,-241.936"/>
<polygon fill="#d0d728" stroke="#d0d728" points="194.4174,-241.8737 197.4541,-252.024 201.41,-242.1954 194.4174,-241.8737"/>
</a>
</g>
</g>
<!-- Continuous Delivery -->
<g id="node4" class="node">
<title>Continuous Delivery</title>
<polygon fill="#2f28d7" stroke="#000000" stroke-width="3" points="644.6456,-84.1158 656.813,-84.2478 668.8546,-84.4452 680.7211,-84.7076 692.3647,-85.0343 703.7384,-85.4243 714.7975,-85.8766 725.499,-86.39 735.8021,-86.963 745.6686,-87.5941 755.063,-88.2815 763.9525,-89.0234 772.3076,-89.8177 780.1018,-90.6622 787.312,-91.5547 793.9183,-92.4927 799.9046,-93.4735 805.2578,-94.4946 809.9687,-95.5532 814.0311,-96.6462 817.4425,-97.7708 820.2036,-98.9238 822.3181,-100.1022 823.7929,-101.3025 824.6377,-102.5217 824.865,-103.7563 824.4897,-105.0029 823.529,-106.2581 822.0022,-107.5185 819.9304,-108.7807 817.3363,-110.0411 814.2439,-111.2964 810.6783,-112.543 806.6656,-113.7775 802.2323,-114.9967 797.4052,-116.1971 792.2113,-117.3754 786.6776,-118.5284 780.8306,-119.653 774.6964,-120.7461 768.3002,-121.8046 761.6665,-122.8257 754.8187,-123.8066 747.7792,-124.7445 740.5691,-125.637 733.208,-126.4816 725.7144,-127.2759 718.1054,-128.0177 710.3964,-128.7052 702.6017,-129.3362 694.7341,-129.9092 686.8053,-130.4226 678.8255,-130.8749 670.804,-131.2649 662.749,-131.5916 654.6679,-131.854 646.5671,-132.0515 638.4528,-132.1834 630.3306,-132.2495 622.2057,-132.2495 614.0834,-132.1834 605.9691,-132.0515 597.8684,-131.854 589.7872,-131.5916 581.7322,-131.2649 573.7107,-130.8749 565.7309,-130.4226 557.8021,-129.9092 549.9346,-129.3362 542.1399,-128.7052 534.4309,-128.0177 526.8218,-127.2759 519.3282,-126.4816 511.9672,-125.637 504.757,-124.7445 497.7175,-123.8066 490.8698,-122.8257 484.2361,-121.8046 477.8399,-120.7461 471.7056,-119.653 465.8586,-118.5284 460.3249,-117.3754 455.1311,-116.1971 450.304,-114.9967 445.8706,-113.7775 441.8579,-112.543 438.2924,-111.2964 435.2,-110.0411 432.6058,-108.7807 430.534,-107.5185 429.0072,-106.2581 428.0465,-105.0029 427.6712,-103.7563 427.8985,-102.5217 428.7434,-101.3025 430.2182,-100.1022 432.3327,-98.9238 435.0937,-97.7708 438.5051,-96.6462 442.5676,-95.5532 447.2784,-94.4946 452.6317,-93.4735 458.6179,-92.4927 465.2243,-91.5547 472.4344,-90.6622 480.2286,-89.8177 488.5837,-89.0234 497.4732,-88.2815 506.8676,-87.5941 516.7341,-86.963 527.0372,-86.39 537.7387,-85.8766 548.7978,-85.4243 560.1716,-85.0343 571.8151,-84.7076 583.6817,-84.4452 595.7233,-84.2478 607.8907,-84.1158 620.1339,-84.0498 632.4024,-84.0498 644.6456,-84.1158"/>
<text text-anchor="middle" x="626.2681" y="-101.9496" font-family="Times,serif" font-size="24.00" fill="#ffffff">Continuous Delivery</text>
</g>
<!-- Continuous Integration&#45;&gt;Continuous Delivery -->
<g id="edge4" class="edge">
<title>Continuous Integration&#45;&gt;Continuous Delivery</title>
<g id="a_edge4"><a xlink:title="Continuous Integration &#160;enables &#160;&#160;Continuous Delivery">
<path fill="none" stroke="#28d786" d="M626.2681,-167.9242C626.2681,-159.9919 626.2681,-151.0294 626.2681,-142.504"/>
<polygon fill="#28d786" stroke="#28d786" points="629.7682,-142.42 626.2681,-132.4201 622.7682,-142.4201 629.7682,-142.42"/>
</a>
</g>
</g>
<!-- Continuous Deployment -->
<g id="node5" class="node">
<title>Continuous Deployment</title>
<polygon fill="#2f28d7" stroke="#000000" stroke-width="3" points="647.817,-.0161 662.0841,-.148 676.2038,-.3455 690.1182,-.6079 703.771,-.9345 717.1076,-1.3246 730.0752,-1.7769 742.6234,-2.2902 754.7046,-2.8633 766.2737,-3.4943 777.2893,-4.1817 787.7129,-4.9236 797.5098,-5.7179 806.6491,-6.5625 815.1035,-7.4549 822.8499,-8.3929 829.8692,-9.3738 836.1463,-10.3949 841.6701,-11.4534 846.4336,-12.5465 850.4337,-13.6711 853.6712,-14.8241 856.1506,-16.0024 857.88,-17.2028 858.8706,-18.4219 859.1372,-19.6565 858.6971,-20.9031 857.5706,-22.1584 855.7803,-23.4188 853.3509,-24.6809 850.3091,-25.9414 846.6831,-27.1966 842.5022,-28.4432 837.797,-29.6778 832.5986,-30.8969 826.9385,-32.0973 820.8483,-33.2756 814.3597,-34.4287 807.5037,-35.5533 800.3108,-36.6463 792.8108,-37.7049 785.0323,-38.726 777.0029,-39.7068 768.7485,-40.6448 760.2941,-41.5373 751.6628,-42.3818 742.876,-43.1761 733.9538,-43.918 724.9145,-44.6054 715.7747,-45.2365 706.5494,-45.8095 697.2523,-46.3229 687.8954,-46.7752 678.4896,-47.1652 669.0446,-47.4919 659.5688,-47.7543 650.0701,-47.9517 640.5555,-48.0837 631.0316,-48.1497 621.5046,-48.1497 611.9807,-48.0837 602.4661,-47.9517 592.9674,-47.7543 583.4917,-47.4919 574.0466,-47.1652 564.6408,-46.7752 555.284,-46.3229 545.9868,-45.8095 536.7616,-45.2365 527.6217,-44.6054 518.5824,-43.918 509.6602,-43.1761 500.8735,-42.3818 492.2421,-41.5373 483.7877,-40.6448 475.5334,-39.7068 467.5039,-38.726 459.7254,-37.7049 452.2254,-36.6463 445.0326,-35.5533 438.1765,-34.4287 431.6879,-33.2756 425.5977,-32.0973 419.9376,-30.8969 414.7392,-29.6778 410.034,-28.4432 405.8532,-27.1966 402.2271,-25.9414 399.1853,-24.6809 396.756,-23.4188 394.9657,-22.1584 393.8392,-20.9031 393.3991,-19.6565 393.6656,-18.4219 394.6563,-17.2028 396.3856,-16.0024 398.865,-14.8241 402.1025,-13.6711 406.1027,-12.5465 410.8662,-11.4534 416.39,-10.3949 422.667,-9.3738 429.6863,-8.3929 437.4327,-7.4549 445.8872,-6.5625 455.0264,-5.7179 464.8233,-4.9236 475.2469,-4.1817 486.2625,-3.4943 497.8317,-2.8633 509.9128,-2.2902 522.4611,-1.7769 535.4287,-1.3246 548.7652,-.9345 562.4181,-.6079 576.3325,-.3455 590.4521,-.148 604.7192,-.0161 619.0753,.05 633.461,.05 647.817,-.0161"/>
<text text-anchor="middle" x="626.2681" y="-17.8499" font-family="Times,serif" font-size="24.00" fill="#ffffff">Continuous Deployment</text>
</g>
<!-- Continuous Delivery&#45;&gt;Continuous Deployment -->
<g id="edge5" class="edge">
<title>Continuous Delivery&#45;&gt;Continuous Deployment</title>
<g id="a_edge5"><a xlink:title="Continuous Delivery &#160;enables &#160;&#160;Continuous Deployment">
<path fill="none" stroke="#28d786" d="M626.2681,-83.8245C626.2681,-75.8921 626.2681,-66.9297 626.2681,-58.4042"/>
<polygon fill="#28d786" stroke="#28d786" points="629.7682,-58.3203 626.2681,-48.3203 622.7682,-58.3204 629.7682,-58.3203"/>
</a>
</g>
</g>
</g>
</svg>
