<?xml version="1.0" encoding="UTF-8" standalone="no"?>
<!DOCTYPE svg PUBLIC "-//W3C//DTD SVG 1.1//EN"
 "http://www.w3.org/Graphics/SVG/1.1/DTD/svg11.dtd">
<!-- Generated by graphviz version 2.40.1 (20161225.0304)
 -->
<!-- Title: G Pages: 1 -->
<svg width="848pt" height="188pt"
 viewBox="0.00 0.00 848.00 188.00" xmlns="http://www.w3.org/2000/svg" xmlns:xlink="http://www.w3.org/1999/xlink">
<g id="graph0" class="graph" transform="scale(1 1) rotate(0) translate(4 184)">
<title>G</title>
<polygon fill="#ffffff" stroke="transparent" points="-4,4 -4,-184 844,-184 844,4 -4,4"/>
<!-- Automated Testing -->
<g id="node1" class="node">
<title>Automated Testing</title>
<polygon fill="#d3d3d3" stroke="#000000" stroke-width="3" points="245,-180 0,-180 0,-144 245,-144 245,-180"/>
<text text-anchor="middle" x="122.5" y="-155.8" font-family="Times,serif" font-size="24.00" fill="#000000">Automated Testing</text>
</g>
<!-- Exploratory Testing -->
<g id="node2" class="node">
<title>Exploratory Testing</title>
<polygon fill="#d3d3d3" stroke="#000000" stroke-width="3" points="517.5,-180 263.5,-180 263.5,-144 517.5,-144 517.5,-180"/>
<text text-anchor="middle" x="390.5" y="-155.8" font-family="Times,serif" font-size="24.00" fill="#000000">Exploratory Testing</text>
</g>
<!-- Continuous Integration -->
<g id="node3" class="node">
<title>Continuous Integration</title>
<polygon fill="#d3d3d3" stroke="#000000" stroke-width="3" points="835.5,-180 535.5,-180 535.5,-144 835.5,-144 835.5,-180"/>
<text text-anchor="middle" x="685.5" y="-155.8" font-family="Times,serif" font-size="24.00" fill="#000000">Continuous Integration</text>
</g>
<!-- Continuous Delivery -->
<g id="node4" class="node">
<title>Continuous Delivery</title>
<polygon fill="#d3d3d3" stroke="#000000" stroke-width="3" points="817.5,-108 553.5,-108 553.5,-72 817.5,-72 817.5,-108"/>
<text text-anchor="middle" x="685.5" y="-83.8" font-family="Times,serif" font-size="24.00" fill="#000000">Continuous Delivery</text>
</g>
<!-- Continuous Integration&#45;&gt;Continuous Delivery -->
<g id="edge1" class="edge">
<title>Continuous Integration&#45;&gt;Continuous Delivery</title>
<path fill="none" stroke="#000000" d="M685.5,-143.8314C685.5,-136.131 685.5,-126.9743 685.5,-118.4166"/>
<polygon fill="#000000" stroke="#000000" points="689.0001,-118.4132 685.5,-108.4133 682.0001,-118.4133 689.0001,-118.4132"/>
</g>
<!-- Continuous Deployment -->
<g id="node5" class="node">
<title>Continuous Deployment</title>
<polygon fill="#d3d3d3" stroke="#000000" stroke-width="3" points="840,-36 531,-36 531,0 840,0 840,-36"/>
<text text-anchor="middle" x="685.5" y="-11.8" font-family="Times,serif" font-size="24.00" fill="#000000">Continuous Deployment</text>
</g>
<!-- Continuous Delivery&#45;&gt;Continuous Deployment -->
<g id="edge2" class="edge">
<title>Continuous Delivery&#45;&gt;Continuous Deployment</title>
<path fill="none" stroke="#000000" d="M685.5,-71.8314C685.5,-64.131 685.5,-54.9743 685.5,-46.4166"/>
<polygon fill="#000000" stroke="#000000" points="689.0001,-46.4132 685.5,-36.4133 682.0001,-46.4133 689.0001,-46.4132"/>
</g>
</g>
</svg>
