<?xml version="1.0" encoding="UTF-8" standalone="no"?>
<!DOCTYPE svg PUBLIC "-//W3C//DTD SVG 1.1//EN"
 "http://www.w3.org/Graphics/SVG/1.1/DTD/svg11.dtd">
<!-- Generated by graphviz version 2.40.1 (20161225.0304)
 -->
<!-- Title: G Pages: 1 -->
<svg width="4914pt" height="313pt"
 viewBox="0.00 0.00 4913.69 313.10" xmlns="http://www.w3.org/2000/svg" xmlns:xlink="http://www.w3.org/1999/xlink">
<g id="graph0" class="graph" transform="scale(1 1) rotate(0) translate(4 309.0997)">
<title>G</title>
<polygon fill="#ffffff" stroke="transparent" points="-4,4 -4,-309.0997 4909.6889,-309.0997 4909.6889,4 -4,4"/>
<!-- Automated Testing -->
<g id="node1" class="node">
<title>Automated Testing</title>
<polygon fill="#2f28d7" stroke="#000000" stroke-width="3" points="1326.2899,-.0161 1337.5925,-.148 1348.7782,-.3455 1359.8014,-.6079 1370.6174,-.9345 1381.1828,-1.3246 1391.4558,-1.7769 1401.3967,-2.2902 1410.9676,-2.8633 1420.1328,-3.4943 1428.8595,-4.1817 1437.1172,-4.9236 1444.8784,-5.7179 1452.1187,-6.5625 1458.8164,-7.4549 1464.9532,-8.3929 1470.514,-9.3738 1475.4867,-10.3949 1479.8627,-11.4534 1483.6364,-12.5465 1486.8054,-13.6711 1489.3702,-14.8241 1491.3344,-16.0024 1492.7044,-17.2028 1493.4892,-18.4219 1493.7004,-19.6565 1493.3518,-20.9031 1492.4593,-22.1584 1491.041,-23.4188 1489.1165,-24.6809 1486.7067,-25.9414 1483.8341,-27.1966 1480.522,-28.4432 1476.7945,-29.6778 1472.6762,-30.8969 1468.1922,-32.0973 1463.3675,-33.2756 1458.2271,-34.4287 1452.7957,-35.5533 1447.0974,-36.6463 1441.1558,-37.7049 1434.9936,-38.726 1428.6325,-39.7068 1422.0934,-40.6448 1415.3957,-41.5373 1408.5578,-42.3818 1401.5968,-43.1761 1394.5286,-43.918 1387.3675,-44.6054 1380.1268,-45.2365 1372.8184,-45.8095 1365.4531,-46.3229 1358.0405,-46.7752 1350.5891,-47.1652 1343.1066,-47.4919 1335.5998,-47.7543 1328.0748,-47.9517 1320.5373,-48.0837 1312.9923,-48.1497 1305.4449,-48.1497 1297.8999,-48.0837 1290.3623,-47.9517 1282.8373,-47.7543 1275.3305,-47.4919 1267.848,-47.1652 1260.3966,-46.7752 1252.984,-46.3229 1245.6187,-45.8095 1238.3104,-45.2365 1231.0697,-44.6054 1223.9086,-43.918 1216.8403,-43.1761 1209.8794,-42.3818 1203.0415,-41.5373 1196.3438,-40.6448 1189.8046,-39.7068 1183.4436,-38.726 1177.2813,-37.7049 1171.3397,-36.6463 1165.6415,-35.5533 1160.21,-34.4287 1155.0697,-33.2756 1150.245,-32.0973 1145.761,-30.8969 1141.6427,-29.6778 1137.9152,-28.4432 1134.6031,-27.1966 1131.7305,-25.9414 1129.3207,-24.6809 1127.3961,-23.4188 1125.9778,-22.1584 1125.0854,-20.9031 1124.7368,-19.6565 1124.9479,-18.4219 1125.7327,-17.2028 1127.1027,-16.0024 1129.0669,-14.8241 1131.6318,-13.6711 1134.8007,-12.5465 1138.5744,-11.4534 1142.9504,-10.3949 1147.9232,-9.3738 1153.484,-8.3929 1159.6208,-7.4549 1166.3185,-6.5625 1173.5587,-5.7179 1181.32,-4.9236 1189.5777,-4.1817 1198.3043,-3.4943 1207.4696,-2.8633 1217.0404,-2.2902 1226.9813,-1.7769 1237.2544,-1.3246 1247.8198,-.9345 1258.6358,-.6079 1269.6589,-.3455 1280.8447,-.148 1292.1473,-.0161 1303.5203,.05 1314.9169,.05 1326.2899,-.0161"/>
<text text-anchor="middle" x="1309.2186" y="-17.8499" font-family="Times,serif" font-size="24.00" fill="#ffffff">Automated Testing</text>
</g>
<!-- Exploratory Testing -->
<g id="node10" class="node">
<title>Exploratory Testing</title>
<polygon fill="#2f28d7" stroke="#000000" stroke-width="3" points="1784.5899,-.0161 1796.2941,-.148 1807.8773,-.3455 1819.2921,-.6079 1830.4924,-.9345 1841.4332,-1.3246 1852.0713,-1.7769 1862.3653,-2.2902 1872.2762,-2.8633 1881.7671,-3.4943 1890.8039,-4.1817 1899.355,-4.9236 1907.392,-5.7179 1914.8895,-6.5625 1921.8251,-7.4549 1928.18,-8.3929 1933.9383,-9.3738 1939.0878,-10.3949 1943.6193,-11.4534 1947.5271,-12.5465 1950.8086,-13.6711 1953.4646,-14.8241 1955.4986,-16.0024 1956.9172,-17.2028 1957.7299,-18.4219 1957.9486,-19.6565 1957.5876,-20.9031 1956.6634,-22.1584 1955.1947,-23.4188 1953.2018,-24.6809 1950.7064,-25.9414 1947.7317,-27.1966 1944.3019,-28.4432 1940.442,-29.6778 1936.1774,-30.8969 1931.5341,-32.0973 1926.538,-33.2756 1921.2149,-34.4287 1915.5905,-35.5533 1909.6898,-36.6463 1903.5371,-37.7049 1897.1559,-38.726 1890.5689,-39.7068 1883.7974,-40.6448 1876.8617,-41.5373 1869.7809,-42.3818 1862.5726,-43.1761 1855.2531,-43.918 1847.8376,-44.6054 1840.3397,-45.2365 1832.7717,-45.8095 1825.1447,-46.3229 1817.4687,-46.7752 1809.7525,-47.1652 1802.0042,-47.4919 1794.2306,-47.7543 1786.4383,-47.9517 1778.6329,-48.0837 1770.8199,-48.1497 1763.0043,-48.1497 1755.1912,-48.0837 1747.3858,-47.9517 1739.5935,-47.7543 1731.82,-47.4919 1724.0716,-47.1652 1716.3555,-46.7752 1708.6795,-46.3229 1701.0525,-45.8095 1693.4845,-45.2365 1685.9865,-44.6054 1678.571,-43.918 1671.2516,-43.1761 1664.0433,-42.3818 1656.9624,-41.5373 1650.0268,-40.6448 1643.2553,-39.7068 1636.6682,-38.726 1630.287,-37.7049 1624.1343,-36.6463 1618.2336,-35.5533 1612.6092,-34.4287 1607.2862,-33.2756 1602.2901,-32.0973 1597.6467,-30.8969 1593.3821,-29.6778 1589.5222,-28.4432 1586.0924,-27.1966 1583.1177,-25.9414 1580.6223,-24.6809 1578.6294,-23.4188 1577.1607,-22.1584 1576.2366,-20.9031 1575.8755,-19.6565 1576.0942,-18.4219 1576.9069,-17.2028 1578.3256,-16.0024 1580.3596,-14.8241 1583.0155,-13.6711 1586.2971,-12.5465 1590.2048,-11.4534 1594.7363,-10.3949 1599.8858,-9.3738 1605.6441,-8.3929 1611.999,-7.4549 1618.9347,-6.5625 1626.4322,-5.7179 1634.4692,-4.9236 1643.0203,-4.1817 1652.057,-3.4943 1661.5479,-2.8633 1671.4588,-2.2902 1681.7529,-1.7769 1692.391,-1.3246 1703.3318,-.9345 1714.532,-.6079 1725.9469,-.3455 1737.53,-.148 1749.2342,-.0161 1761.0113,.05 1772.8128,.05 1784.5899,-.0161"/>
<text text-anchor="middle" x="1766.9121" y="-17.8499" font-family="Times,serif" font-size="24.00" fill="#ffffff">Exploratory Testing</text>
</g>
<!-- Automated Testing&#45;&gt;Exploratory Testing -->
<g id="edge2" class="edge">
<title>Automated Testing&#45;&gt;Exploratory Testing</title>
<g id="a_edge2"><a xlink:title="Automated Testing &#160;better together with &#160;Exploratory Testing">
<path fill="none" stroke="#d0d728" d="M1493.0722,-17.4172C1517.2111,-17.2898 1542.0454,-17.2662 1566.4427,-17.3462"/>
<polygon fill="#d0d728" stroke="#d0d728" points="1566.4855,-20.8463 1576.499,-17.3852 1566.5127,-13.8464 1566.4855,-20.8463"/>
</a>
</g>
</g>
<!-- Continuous Integration -->
<g id="node11" class="node">
<title>Continuous Integration</title>
<polygon fill="#2f28d7" stroke="#000000" stroke-width="3" points="1787.8082,-66.0161 1801.6431,-66.148 1815.335,-66.3455 1828.8278,-66.6079 1842.0671,-66.9345 1854.9996,-67.3246 1867.5744,-67.7769 1879.7425,-68.2902 1891.4576,-68.8633 1902.6764,-69.4943 1913.3582,-70.1817 1923.466,-70.9236 1932.9662,-71.7179 1941.8286,-72.5625 1950.0269,-73.4549 1957.5386,-74.3929 1964.3453,-75.3738 1970.4322,-76.3949 1975.7886,-77.4534 1980.4078,-78.5465 1984.2868,-79.6711 1987.4262,-80.8241 1989.8305,-82.0024 1991.5075,-83.2028 1992.4681,-84.4219 1992.7266,-85.6565 1992.2998,-86.9031 1991.2075,-88.1584 1989.4714,-89.4188 1987.1156,-90.6809 1984.166,-91.9414 1980.6498,-93.1966 1976.5956,-94.4432 1972.0329,-95.6778 1966.992,-96.8969 1961.5033,-98.0973 1955.5977,-99.2756 1949.3056,-100.4287 1942.6573,-101.5533 1935.6823,-102.6463 1928.4095,-103.7049 1920.8667,-104.726 1913.0804,-105.7068 1905.0762,-106.6448 1896.8779,-107.5373 1888.508,-108.3818 1879.9874,-109.1761 1871.3355,-109.918 1862.57,-110.6054 1853.7071,-111.2365 1844.7613,-111.8095 1835.7458,-112.3229 1826.6724,-112.7752 1817.5516,-113.1652 1808.3927,-113.4919 1799.204,-113.7543 1789.993,-113.9517 1780.7667,-114.0837 1771.5313,-114.1497 1762.2929,-114.1497 1753.0575,-114.0837 1743.8311,-113.9517 1734.6202,-113.7543 1725.4315,-113.4919 1716.2725,-113.1652 1707.1517,-112.7752 1698.0783,-112.3229 1689.0628,-111.8095 1680.117,-111.2365 1671.2541,-110.6054 1662.4886,-109.918 1653.8367,-109.1761 1645.3161,-108.3818 1636.9463,-107.5373 1628.7479,-106.6448 1620.7437,-105.7068 1612.9575,-104.726 1605.4146,-103.7049 1598.1418,-102.6463 1591.1669,-101.5533 1584.5185,-100.4287 1578.2265,-99.2756 1572.3208,-98.0973 1566.8322,-96.8969 1561.7912,-95.6778 1557.2286,-94.4432 1553.1744,-93.1966 1549.6582,-91.9414 1546.7085,-90.6809 1544.3528,-89.4188 1542.6167,-88.1584 1541.5243,-86.9031 1541.0976,-85.6565 1541.356,-84.4219 1542.3167,-83.2028 1543.9936,-82.0024 1546.3979,-80.8241 1549.5374,-79.6711 1553.4163,-78.5465 1558.0355,-77.4534 1563.392,-76.3949 1569.4789,-75.3738 1576.2855,-74.3929 1583.7973,-73.4549 1591.9956,-72.5625 1600.8579,-71.7179 1610.3581,-70.9236 1620.4659,-70.1817 1631.1478,-69.4943 1642.3665,-68.8633 1654.0816,-68.2902 1666.2497,-67.7769 1678.8245,-67.3246 1691.757,-66.9345 1704.9963,-66.6079 1718.4892,-66.3455 1732.1811,-66.148 1746.016,-66.0161 1759.9371,-65.95 1773.887,-65.95 1787.8082,-66.0161"/>
<text text-anchor="middle" x="1766.9121" y="-83.8499" font-family="Times,serif" font-size="24.00" fill="#ffffff">Continuous Integration</text>
</g>
<!-- Automated Testing&#45;&gt;Continuous Integration -->
<g id="edge1" class="edge">
<title>Automated Testing&#45;&gt;Continuous Integration</title>
<g id="a_edge1"><a xlink:title="Automated Testing &#160;reduces the failure rate of &#160;Continuous Integration">
<path fill="none" stroke="#d72879" d="M1423.1705,-40.5646C1459.6128,-45.8399 1500.1242,-51.6977 1537.2397,-57.0499 1562.6063,-60.7078 1589.55,-64.5858 1615.7201,-68.3485"/>
<polygon fill="#d72879" stroke="#d72879" points="1615.311,-71.8256 1625.7073,-69.7843 1616.3072,-64.8968 1615.311,-71.8256"/>
</a>
</g>
</g>
<!-- Unit Testing -->
<g id="node2" class="node">
<title>Unit Testing</title>
<polygon fill="#2f28d7" stroke="#000000" stroke-width="3" points="1320.786,-66.0161 1328.4446,-66.148 1336.024,-66.3455 1343.4933,-66.6079 1350.8221,-66.9345 1357.9812,-67.3246 1364.9422,-67.7769 1371.6781,-68.2902 1378.1632,-68.8633 1384.3735,-69.4943 1390.2867,-70.1817 1395.8821,-70.9236 1401.1411,-71.7179 1406.047,-72.5625 1410.5853,-73.4549 1414.7436,-74.3929 1418.5116,-75.3738 1421.8811,-76.3949 1424.8463,-77.4534 1427.4033,-78.5465 1429.5506,-79.6711 1431.2885,-80.8241 1432.6194,-82.0024 1433.5477,-83.2028 1434.0795,-84.4219 1434.2226,-85.6565 1433.9863,-86.9031 1433.3816,-88.1584 1432.4206,-89.4188 1431.1165,-90.6809 1429.4837,-91.9414 1427.5372,-93.1966 1425.293,-94.4432 1422.7672,-95.6778 1419.9767,-96.8969 1416.9383,-98.0973 1413.6692,-99.2756 1410.1861,-100.4287 1406.5058,-101.5533 1402.6446,-102.6463 1398.6186,-103.7049 1394.4431,-104.726 1390.1329,-105.7068 1385.702,-106.6448 1381.1637,-107.5373 1376.5304,-108.3818 1371.8136,-109.1761 1367.0242,-109.918 1362.1719,-110.6054 1357.2656,-111.2365 1352.3135,-111.8095 1347.3228,-112.3229 1342.3001,-112.7752 1337.2511,-113.1652 1332.181,-113.4919 1327.0944,-113.7543 1321.9955,-113.9517 1316.8881,-114.0837 1311.7756,-114.1497 1306.6615,-114.1497 1301.5491,-114.0837 1296.4417,-113.9517 1291.3428,-113.7543 1286.2562,-113.4919 1281.1861,-113.1652 1276.1371,-112.7752 1271.1143,-112.3229 1266.1236,-111.8095 1261.1715,-111.2365 1256.2652,-110.6054 1251.4129,-109.918 1246.6235,-109.1761 1241.9068,-108.3818 1237.2735,-107.5373 1232.7351,-106.6448 1228.3042,-105.7068 1223.994,-104.726 1219.8185,-103.7049 1215.7925,-102.6463 1211.9314,-101.5533 1208.2511,-100.4287 1204.768,-99.2756 1201.4988,-98.0973 1198.4605,-96.8969 1195.67,-95.6778 1193.1442,-94.4432 1190.8999,-93.1966 1188.9535,-91.9414 1187.3206,-90.6809 1186.0165,-89.4188 1185.0555,-88.1584 1184.4508,-86.9031 1184.2146,-85.6565 1184.3577,-84.4219 1184.8894,-83.2028 1185.8177,-82.0024 1187.1487,-80.8241 1188.8866,-79.6711 1191.0339,-78.5465 1193.5909,-77.4534 1196.5561,-76.3949 1199.9256,-75.3738 1203.6935,-74.3929 1207.8518,-73.4549 1212.3902,-72.5625 1217.2961,-71.7179 1222.5551,-70.9236 1228.1505,-70.1817 1234.0636,-69.4943 1240.274,-68.8633 1246.7591,-68.2902 1253.495,-67.7769 1260.456,-67.3246 1267.6151,-66.9345 1274.9439,-66.6079 1282.4131,-66.3455 1289.9926,-66.148 1297.6511,-66.0161 1305.3575,-65.95 1313.0797,-65.95 1320.786,-66.0161"/>
<text text-anchor="middle" x="1309.2186" y="-83.8499" font-family="Times,serif" font-size="24.00" fill="#ffffff">Unit Testing</text>
</g>
<!-- Unit Testing&#45;&gt;Continuous Integration -->
<g id="edge3" class="edge">
<title>Unit Testing&#45;&gt;Continuous Integration</title>
<g id="a_edge3"><a xlink:title="Unit Testing &#160;enables &#160;&#160;Continuous Integration">
<path fill="none" stroke="#28d786" d="M1431.872,-90.0499C1463.9421,-90.0499 1499.5872,-90.0499 1535.3215,-90.0499"/>
<polygon fill="#28d786" stroke="#28d786" points="1535.3999,-93.55 1545.3999,-90.0499 1535.3998,-86.55 1535.3999,-93.55"/>
</a>
</g>
</g>
<!-- Agile Work ( Kanban/Scrum ) -->
<g id="node3" class="node">
<title>Agile Work ( Kanban/Scrum )</title>
<polygon fill="#2f28d7" stroke="#000000" stroke-width="3" points="304.4123,-92.0161 321.4897,-92.148 338.3905,-92.3455 355.0457,-92.6079 371.3878,-92.9345 387.3513,-93.3246 402.8731,-93.7769 417.893,-94.2902 432.3538,-94.8633 446.2018,-95.4943 459.3871,-96.1817 471.8639,-96.9236 483.5906,-97.7179 494.53,-98.5625 504.6497,-99.4549 513.922,-100.3929 522.3239,-101.3738 529.8373,-102.3949 536.4492,-103.4534 542.151,-104.5465 546.939,-105.6711 550.8142,-106.8241 553.782,-108.0024 555.852,-109.2028 557.0378,-110.4219 557.3568,-111.6565 556.83,-112.9031 555.4817,-114.1584 553.3387,-115.4188 550.4308,-116.6809 546.7899,-117.9414 542.4496,-119.1966 537.4452,-120.4432 531.8132,-121.6778 525.5909,-122.8969 518.8159,-124.0973 511.5261,-125.2756 503.7594,-126.4287 495.5529,-127.5533 486.9433,-128.6463 477.966,-129.7049 468.6553,-130.726 459.0443,-131.7068 449.1641,-132.6448 439.0444,-133.5373 428.7129,-134.3818 418.1954,-135.1761 407.5158,-135.918 396.6959,-136.6054 385.7558,-137.2365 374.7134,-137.8095 363.585,-138.3229 352.3851,-138.7752 341.1267,-139.1652 329.8212,-139.4919 318.479,-139.7543 307.1093,-139.9517 295.7206,-140.0837 284.3207,-140.1497 272.9171,-140.1497 261.5173,-140.0837 250.1286,-139.9517 238.7589,-139.7543 227.4167,-139.4919 216.1112,-139.1652 204.8527,-138.7752 193.6528,-138.3229 182.5244,-137.8095 171.482,-137.2365 160.5419,-136.6054 149.7221,-135.918 139.0425,-135.1761 128.525,-134.3818 118.1934,-133.5373 108.0737,-132.6448 98.1936,-131.7068 88.5825,-130.726 79.2719,-129.7049 70.2945,-128.6463 61.6849,-127.5533 53.4784,-126.4287 45.7117,-125.2756 38.422,-124.0973 31.647,-122.8969 25.4246,-121.6778 19.7926,-120.4432 14.7882,-119.1966 10.4479,-117.9414 6.807,-116.6809 3.8991,-115.4188 1.7562,-114.1584 .4078,-112.9031 -.119,-111.6565 .2001,-110.4219 1.3858,-109.2028 3.4558,-108.0024 6.4236,-106.8241 10.2988,-105.6711 15.0869,-104.5465 20.7886,-103.4534 27.4005,-102.3949 34.9139,-101.3738 43.3158,-100.3929 52.5881,-99.4549 62.7078,-98.5625 73.6472,-97.7179 85.3739,-96.9236 97.8507,-96.1817 111.036,-95.4943 124.884,-94.8633 139.3448,-94.2902 154.3647,-93.7769 169.8865,-93.3246 185.8501,-92.9345 202.1921,-92.6079 218.8473,-92.3455 235.7481,-92.148 252.8255,-92.0161 270.0093,-91.95 287.2286,-91.95 304.4123,-92.0161"/>
<text text-anchor="middle" x="278.6189" y="-109.8499" font-family="Times,serif" font-size="24.00" fill="#ffffff">Agile Work ( Kanban/Scrum )</text>
</g>
<!-- Branching Strategy -->
<g id="node4" class="node">
<title>Branching Strategy</title>
<polygon fill="#2f28d7" stroke="#000000" stroke-width="3" points="1326.9895,-132.0161 1338.7553,-132.148 1350.3995,-132.3455 1361.8744,-132.6079 1373.1336,-132.9345 1384.132,-133.3246 1394.8261,-133.7769 1405.1744,-134.2902 1415.1375,-134.8633 1424.6783,-135.4943 1433.7626,-136.1817 1442.3588,-136.9236 1450.4381,-137.7179 1457.975,-138.5625 1464.9472,-139.4549 1471.3355,-140.3929 1477.1242,-141.3738 1482.3008,-142.3949 1486.8561,-143.4534 1490.7845,-144.5465 1494.0833,-145.6711 1496.7532,-146.8241 1498.798,-148.0024 1500.2241,-149.2028 1501.0411,-150.4219 1501.2609,-151.6565 1500.8979,-152.9031 1499.969,-154.1584 1498.4925,-155.4188 1496.4891,-156.6809 1493.9806,-157.9414 1490.9902,-159.1966 1487.5424,-160.4432 1483.6621,-161.6778 1479.3751,-162.8969 1474.7073,-164.0973 1469.6849,-165.2756 1464.3338,-166.4287 1458.6798,-167.5533 1452.748,-168.6463 1446.5629,-169.7049 1440.1481,-170.726 1433.5264,-171.7068 1426.7192,-172.6448 1419.7471,-173.5373 1412.6289,-174.3818 1405.3827,-175.1761 1398.0248,-175.918 1390.5702,-176.6054 1383.0328,-177.2365 1375.4249,-177.8095 1367.7578,-178.3229 1360.0413,-178.7752 1352.2846,-179.1652 1344.4954,-179.4919 1336.681,-179.7543 1328.8476,-179.9517 1321.0011,-180.0837 1313.1469,-180.1497 1305.2902,-180.1497 1297.436,-180.0837 1289.5896,-179.9517 1281.7562,-179.7543 1273.9417,-179.4919 1266.1526,-179.1652 1258.3958,-178.7752 1250.6794,-178.3229 1243.0123,-177.8095 1235.4044,-177.2365 1227.867,-176.6054 1220.4124,-175.918 1213.0545,-175.1761 1205.8082,-174.3818 1198.6901,-173.5373 1191.7179,-172.6448 1184.9108,-171.7068 1178.289,-170.726 1171.8743,-169.7049 1165.6892,-168.6463 1159.7573,-167.5533 1154.1033,-166.4287 1148.7523,-165.2756 1143.7299,-164.0973 1139.0621,-162.8969 1134.7751,-161.6778 1130.8948,-160.4432 1127.4469,-159.1966 1124.4566,-157.9414 1121.9481,-156.6809 1119.9446,-155.4188 1118.4682,-154.1584 1117.5392,-152.9031 1117.1763,-151.6565 1117.3961,-150.4219 1118.2131,-149.2028 1119.6392,-148.0024 1121.6839,-146.8241 1124.3538,-145.6711 1127.6527,-144.5465 1131.581,-143.4534 1136.1364,-142.3949 1141.3129,-141.3738 1147.1016,-140.3929 1153.4899,-139.4549 1160.4621,-138.5625 1167.9991,-137.7179 1176.0784,-136.9236 1184.6745,-136.1817 1193.7588,-135.4943 1203.2997,-134.8633 1213.2628,-134.2902 1223.611,-133.7769 1234.3051,-133.3246 1245.3035,-132.9345 1256.5628,-132.6079 1268.0377,-132.3455 1279.6818,-132.148 1291.4477,-132.0161 1303.2868,-131.95 1315.1504,-131.95 1326.9895,-132.0161"/>
<text text-anchor="middle" x="1309.2186" y="-149.8499" font-family="Times,serif" font-size="24.00" fill="#ffffff">Branching Strategy</text>
</g>
<!-- Agile Work ( Kanban/Scrum )&#45;&gt;Branching Strategy -->
<g id="edge4" class="edge">
<title>Agile Work ( Kanban/Scrum )&#45;&gt;Branching Strategy</title>
<g id="a_edge4"><a xlink:title="Agile Work ( Kanban/Scrum ) &#160;enables &#160;&#160;Branching Strategy">
<path fill="none" stroke="#28d786" d="M512.4779,-125.1265C692.1136,-132.0986 937.5728,-141.6254 1108.3876,-148.2551"/>
<polygon fill="#28d786" stroke="#28d786" points="1108.3775,-151.7573 1118.5057,-148.6479 1108.649,-144.7626 1108.3775,-151.7573"/>
</a>
</g>
</g>
<!-- Test Driven Development -->
<g id="node9" class="node">
<title>Test Driven Development</title>
<polygon fill="#2f28d7" stroke="#000000" stroke-width="3" points="859.7928,-66.0161 874.7394,-66.148 889.5315,-66.3455 904.1086,-66.6079 918.4117,-66.9345 932.3834,-67.3246 945.9686,-67.7769 959.1144,-68.2902 971.771,-68.8633 983.8911,-69.4943 995.4313,-70.1817 1006.3514,-70.9236 1016.6149,-71.7179 1026.1894,-72.5625 1035.0465,-73.4549 1043.1618,-74.3929 1050.5154,-75.3738 1057.0914,-76.3949 1062.8783,-77.4534 1067.8686,-78.5465 1072.0593,-79.6711 1075.451,-80.8241 1078.0485,-82.0024 1079.8602,-83.2028 1080.898,-84.4219 1081.1772,-85.6565 1080.7162,-86.9031 1079.5361,-88.1584 1077.6605,-89.4188 1075.1154,-90.6809 1071.9288,-91.9414 1068.13,-93.1966 1063.7501,-94.4432 1058.8208,-95.6778 1053.3748,-96.8969 1047.4451,-98.0973 1041.0649,-99.2756 1034.2672,-100.4287 1027.0847,-101.5533 1019.5493,-102.6463 1011.6921,-103.7049 1003.5431,-104.726 995.1312,-105.7068 986.4838,-106.6448 977.6267,-107.5373 968.5843,-108.3818 959.3791,-109.1761 950.032,-109.918 940.5621,-110.6054 930.987,-111.2365 921.3224,-111.8095 911.5825,-112.3229 901.78,-112.7752 891.9263,-113.1652 882.0314,-113.4919 872.1043,-113.7543 862.1532,-113.9517 852.1855,-114.0837 842.208,-114.1497 832.2273,-114.1497 822.2498,-114.0837 812.282,-113.9517 802.3309,-113.7543 792.4039,-113.4919 782.509,-113.1652 772.6553,-112.7752 762.8528,-112.3229 753.1129,-111.8095 743.4483,-111.2365 733.8731,-110.6054 724.4033,-109.918 715.0562,-109.1761 705.851,-108.3818 696.8085,-107.5373 687.9515,-106.6448 679.304,-105.7068 670.8921,-104.726 662.7432,-103.7049 654.886,-102.6463 647.3506,-101.5533 640.168,-100.4287 633.3704,-99.2756 626.9902,-98.0973 621.0605,-96.8969 615.6145,-95.6778 610.6852,-94.4432 606.3052,-93.1966 602.5065,-91.9414 599.3198,-90.6809 596.7748,-89.4188 594.8992,-88.1584 593.7191,-86.9031 593.258,-85.6565 593.5372,-84.4219 594.5751,-83.2028 596.3868,-82.0024 598.9843,-80.8241 602.376,-79.6711 606.5666,-78.5465 611.557,-77.4534 617.3438,-76.3949 623.9199,-75.3738 631.2734,-74.3929 639.3888,-73.4549 648.2459,-72.5625 657.8204,-71.7179 668.0839,-70.9236 679.0039,-70.1817 690.5441,-69.4943 702.6643,-68.8633 715.3208,-68.2902 728.4667,-67.7769 742.0519,-67.3246 756.0236,-66.9345 770.3267,-66.6079 784.9038,-66.3455 799.6958,-66.148 814.6425,-66.0161 829.6822,-65.95 844.7531,-65.95 859.7928,-66.0161"/>
<text text-anchor="middle" x="837.2176" y="-83.8499" font-family="Times,serif" font-size="24.00" fill="#ffffff">Test Driven Development</text>
</g>
<!-- Agile Work ( Kanban/Scrum )&#45;&gt;Test Driven Development -->
<g id="edge5" class="edge">
<title>Agile Work ( Kanban/Scrum )&#45;&gt;Test Driven Development</title>
<g id="a_edge5"><a xlink:title="Agile Work ( Kanban/Scrum ) &#160;reduces the failure rate of &#160;Test Driven Development">
<path fill="none" stroke="#d72879" d="M539.111,-103.9253C567.6096,-102.5988 596.3705,-101.2601 624.1997,-99.9648"/>
<polygon fill="#d72879" stroke="#d72879" points="624.5818,-103.4509 634.4082,-99.4896 624.2563,-96.4585 624.5818,-103.4509"/>
</a>
</g>
</g>
<!-- Repository Composition -->
<g id="node5" class="node">
<title>Repository Composition</title>
<polygon fill="#2f28d7" stroke="#000000" stroke-width="3" points="1788.1811,-236.0161 1802.263,-236.148 1816.1992,-236.3455 1829.9329,-236.6079 1843.4085,-236.9345 1856.5718,-237.3246 1869.371,-237.7769 1881.7563,-238.2902 1893.6805,-238.8633 1905.0995,-239.4943 1915.972,-240.1817 1926.2602,-240.9236 1935.9299,-241.7179 1944.9505,-242.5625 1953.2951,-243.4549 1960.9409,-244.3929 1967.8691,-245.3738 1974.0646,-246.3949 1979.5167,-247.4534 1984.2183,-248.5465 1988.1665,-249.6711 1991.362,-250.8241 1993.8092,-252.0024 1995.516,-253.2028 1996.4938,-254.4219 1996.7569,-255.6565 1996.3225,-256.9031 1995.2107,-258.1584 1993.4436,-259.4188 1991.0458,-260.6809 1988.0435,-261.9414 1984.4645,-263.1966 1980.338,-264.4432 1975.6939,-265.6778 1970.563,-266.8969 1964.9764,-268.0973 1958.9653,-269.2756 1952.5609,-270.4287 1945.794,-271.5533 1938.6945,-272.6463 1931.2919,-273.7049 1923.6144,-274.726 1915.6892,-275.7068 1907.5421,-276.6448 1899.1975,-277.5373 1890.6782,-278.3818 1882.0056,-279.1761 1873.1993,-279.918 1864.2773,-280.6054 1855.2562,-281.2365 1846.1508,-281.8095 1836.9744,-282.3229 1827.739,-282.7752 1818.4554,-283.1652 1809.133,-283.4919 1799.7803,-283.7543 1790.405,-283.9517 1781.0139,-284.0837 1771.6137,-284.1497 1762.2104,-284.1497 1752.8102,-284.0837 1743.4192,-283.9517 1734.0438,-283.7543 1724.6911,-283.4919 1715.3687,-283.1652 1706.0851,-282.7752 1696.8498,-282.3229 1687.6734,-281.8095 1678.5679,-281.2365 1669.5468,-280.6054 1660.6248,-279.918 1651.8185,-279.1761 1643.1459,-278.3818 1634.6266,-277.5373 1626.282,-276.6448 1618.1349,-275.7068 1610.2097,-274.726 1602.5322,-273.7049 1595.1296,-272.6463 1588.0302,-271.5533 1581.2632,-270.4287 1574.8588,-269.2756 1568.8478,-268.0973 1563.2611,-266.8969 1558.1302,-265.6778 1553.4861,-264.4432 1549.3596,-263.1966 1545.7806,-261.9414 1542.7783,-260.6809 1540.3805,-259.4188 1538.6135,-258.1584 1537.5016,-256.9031 1537.0672,-255.6565 1537.3303,-254.4219 1538.3081,-253.2028 1540.015,-252.0024 1542.4622,-250.8241 1545.6577,-249.6711 1549.6058,-248.5465 1554.3075,-247.4534 1559.7595,-246.3949 1565.9551,-245.3738 1572.8832,-244.3929 1580.529,-243.4549 1588.8737,-242.5625 1597.8942,-241.7179 1607.5639,-240.9236 1617.8522,-240.1817 1628.7247,-239.4943 1640.1436,-238.8633 1652.0678,-238.2902 1664.4531,-237.7769 1677.2523,-237.3246 1690.4157,-236.9345 1703.8912,-236.6079 1717.6249,-236.3455 1731.5612,-236.148 1745.643,-236.0161 1759.8126,-235.95 1774.0115,-235.95 1788.1811,-236.0161"/>
<text text-anchor="middle" x="1766.9121" y="-253.8499" font-family="Times,serif" font-size="24.00" fill="#ffffff">Repository Composition</text>
</g>
<!-- Branching Strategy&#45;&gt;Repository Composition -->
<g id="edge6" class="edge">
<title>Branching Strategy&#45;&gt;Repository Composition</title>
<g id="a_edge6"><a xlink:title="Branching Strategy &#160;enables &#160;&#160;Repository Composition">
<path fill="none" stroke="#28d786" d="M1376.5224,-177.7945C1421.6403,-191.8095 1482.5776,-209.6622 1537.2397,-222.0499 1562.7541,-227.832 1590.0497,-233.1195 1616.5945,-237.793"/>
<polygon fill="#28d786" stroke="#28d786" points="1616.2744,-241.2898 1626.7261,-239.5538 1617.4731,-234.3931 1616.2744,-241.2898"/>
</a>
</g>
</g>
<!-- Infrastructure as Code -->
<g id="node6" class="node">
<title>Infrastructure as Code</title>
<polygon fill="#2f28d7" stroke="#000000" stroke-width="3" points="1787.3416,-132.0161 1800.8676,-132.148 1814.2537,-132.3455 1827.4453,-132.6079 1840.3889,-132.9345 1853.0327,-133.3246 1865.3267,-133.7769 1877.2231,-134.2902 1888.6766,-134.8633 1899.6448,-135.4943 1910.0882,-136.1817 1919.9703,-136.9236 1929.2583,-137.7179 1937.9228,-138.5625 1945.938,-139.4549 1953.2821,-140.3929 1959.9367,-141.3738 1965.8877,-142.3949 1971.1246,-143.4534 1975.6406,-144.5465 1979.4329,-145.6711 1982.5023,-146.8241 1984.8529,-148.0024 1986.4924,-149.2028 1987.4316,-150.4219 1987.6843,-151.6565 1987.2671,-152.9031 1986.1991,-154.1584 1984.5018,-155.4188 1982.1986,-156.6809 1979.3148,-157.9414 1975.8771,-159.1966 1971.9135,-160.4432 1967.4527,-161.6778 1962.5243,-162.8969 1957.1582,-164.0973 1951.3844,-165.2756 1945.2329,-166.4287 1938.733,-167.5533 1931.9138,-168.6463 1924.8034,-169.7049 1917.429,-170.726 1909.8166,-171.7068 1901.9911,-172.6448 1893.9758,-173.5373 1885.7928,-174.3818 1877.4625,-175.1761 1869.0038,-175.918 1860.4341,-176.6054 1851.769,-177.2365 1843.023,-177.8095 1834.2088,-178.3229 1825.338,-178.7752 1816.4208,-179.1652 1807.4664,-179.4919 1798.4829,-179.7543 1789.4776,-179.9517 1780.4573,-180.0837 1771.4281,-180.1497 1762.396,-180.1497 1753.3668,-180.0837 1744.3465,-179.9517 1735.3412,-179.7543 1726.3577,-179.4919 1717.4033,-179.1652 1708.4861,-178.7752 1699.6153,-178.3229 1690.8011,-177.8095 1682.0551,-177.2365 1673.3901,-176.6054 1664.8203,-175.918 1656.3616,-175.1761 1648.0313,-174.3818 1639.8483,-173.5373 1631.8331,-172.6448 1624.0075,-171.7068 1616.3952,-170.726 1609.0208,-169.7049 1601.9104,-168.6463 1595.0911,-167.5533 1588.5913,-166.4287 1582.4397,-165.2756 1576.6659,-164.0973 1571.2998,-162.8969 1566.3714,-161.6778 1561.9107,-160.4432 1557.947,-159.1966 1554.5093,-157.9414 1551.6255,-156.6809 1549.3224,-155.4188 1547.6251,-154.1584 1546.5571,-152.9031 1546.1399,-151.6565 1546.3926,-150.4219 1547.3317,-149.2028 1548.9712,-148.0024 1551.3218,-146.8241 1554.3912,-145.6711 1558.1835,-144.5465 1562.6996,-143.4534 1567.9364,-142.3949 1573.8874,-141.3738 1580.5421,-140.3929 1587.8861,-139.4549 1595.9013,-138.5625 1604.5658,-137.7179 1613.8538,-136.9236 1623.736,-136.1817 1634.1793,-135.4943 1645.1475,-134.8633 1656.6011,-134.2902 1668.4975,-133.7769 1680.7914,-133.3246 1693.4352,-132.9345 1706.3788,-132.6079 1719.5704,-132.3455 1732.9566,-132.148 1746.4826,-132.0161 1760.0929,-131.95 1773.7313,-131.95 1787.3416,-132.0161"/>
<text text-anchor="middle" x="1766.9121" y="-149.8499" font-family="Times,serif" font-size="24.00" fill="#ffffff">Infrastructure as Code</text>
</g>
<!-- Branching Strategy&#45;&gt;Infrastructure as Code -->
<g id="edge9" class="edge">
<title>Branching Strategy&#45;&gt;Infrastructure as Code</title>
<g id="a_edge9"><a xlink:title="Branching Strategy &#160;reduces the failure rate of &#160;Infrastructure as Code">
<path fill="none" stroke="#d72879" d="M1497.6919,-156.0499C1511.6704,-156.0499 1525.8564,-156.0499 1540.0324,-156.0499"/>
<polygon fill="#d72879" stroke="#d72879" points="1540.3498,-159.55 1550.3498,-156.0499 1540.3498,-152.55 1540.3498,-159.55"/>
</a>
</g>
</g>
<!-- Parametrised Infrastructure as Code -->
<g id="node7" class="node">
<title>Parametrised Infrastructure as Code</title>
<polygon fill="#2f28d7" stroke="#000000" stroke-width="3" points="2412.6652,-191.0161 2433.9734,-191.148 2455.0614,-191.3455 2475.8428,-191.6079 2496.2336,-191.9345 2516.152,-192.3246 2535.5193,-192.7769 2554.2604,-193.2902 2572.3038,-193.8633 2589.5826,-194.4943 2606.0345,-195.1817 2621.6024,-195.9236 2636.2343,-196.7179 2649.8839,-197.5625 2662.5108,-198.4549 2674.0802,-199.3929 2684.5636,-200.3738 2693.9385,-201.3949 2702.1884,-202.4534 2709.3028,-203.5465 2715.2771,-204.6711 2720.1124,-205.8241 2723.8154,-207.0024 2726.3982,-208.2028 2727.8778,-209.4219 2728.2758,-210.6565 2727.6186,-211.9031 2725.9361,-213.1584 2723.2623,-214.4188 2719.634,-215.6809 2715.091,-216.9414 2709.6754,-218.1966 2703.4313,-219.4432 2696.4039,-220.6778 2688.64,-221.8969 2680.1865,-223.0973 2671.0908,-224.2756 2661.3999,-225.4287 2651.1603,-226.5533 2640.4176,-227.6463 2629.2162,-228.7049 2617.5989,-229.726 2605.6067,-230.7068 2593.2787,-231.6448 2580.6519,-232.5373 2567.7608,-233.3818 2554.6376,-234.1761 2541.3122,-234.918 2527.8118,-235.6054 2514.1612,-236.2365 2500.3832,-236.8095 2486.4977,-237.3229 2472.5231,-237.7752 2458.4754,-238.1652 2444.369,-238.4919 2430.2168,-238.7543 2416.0303,-238.9517 2401.8201,-239.0837 2387.5959,-239.1497 2373.3672,-239.1497 2359.143,-239.0837 2344.9328,-238.9517 2330.7463,-238.7543 2316.5941,-238.4919 2302.4877,-238.1652 2288.44,-237.7752 2274.4654,-237.3229 2260.5799,-236.8095 2246.8018,-236.2365 2233.1513,-235.6054 2219.6509,-234.918 2206.3255,-234.1761 2193.2023,-233.3818 2180.3112,-232.5373 2167.6843,-231.6448 2155.3564,-230.7068 2143.3642,-229.726 2131.7469,-228.7049 2120.5455,-227.6463 2109.8028,-226.5533 2099.5632,-225.4287 2089.8723,-224.2756 2080.7766,-223.0973 2072.3231,-221.8969 2064.5591,-220.6778 2057.5318,-219.4432 2051.2877,-218.1966 2045.8721,-216.9414 2041.3291,-215.6809 2037.7008,-214.4188 2035.027,-213.1584 2033.3445,-211.9031 2032.6873,-210.6565 2033.0853,-209.4219 2034.5649,-208.2028 2037.1477,-207.0024 2040.8507,-205.8241 2045.686,-204.6711 2051.6603,-203.5465 2058.7747,-202.4534 2067.0245,-201.3949 2076.3995,-200.3738 2086.8829,-199.3929 2098.4523,-198.4549 2111.0792,-197.5625 2124.7288,-196.7179 2139.3607,-195.9236 2154.9286,-195.1817 2171.3805,-194.4943 2188.6593,-193.8633 2206.7027,-193.2902 2225.4437,-192.7769 2244.8111,-192.3246 2264.7295,-191.9345 2285.1203,-191.6079 2305.9017,-191.3455 2326.9896,-191.148 2348.2979,-191.0161 2369.7389,-190.95 2391.2242,-190.95 2412.6652,-191.0161"/>
<text text-anchor="middle" x="2380.4815" y="-208.8499" font-family="Times,serif" font-size="24.00" fill="#ffffff">Parametrised Infrastructure as Code</text>
</g>
<!-- Branching Strategy&#45;&gt;Parametrised Infrastructure as Code -->
<g id="edge7" class="edge">
<title>Branching Strategy&#45;&gt;Parametrised Infrastructure as Code</title>
<g id="a_edge7"><a xlink:title="Branching Strategy &#160;enables &#160;&#160;Parametrised Infrastructure as Code">
<path fill="none" stroke="#28d786" d="M1415.9387,-174.0369C1454.1002,-179.7943 1497.4921,-185.5721 1537.2397,-189.0499 1696.8973,-203.0194 1874.1292,-209.797 2024.7421,-212.9786"/>
<polygon fill="#28d786" stroke="#28d786" points="2025.0111,-216.4848 2035.0813,-213.1923 2025.1557,-209.4863 2025.0111,-216.4848"/>
</a>
</g>
</g>
<!-- Branching Strategy&#45;&gt;Continuous Integration -->
<g id="edge8" class="edge">
<title>Branching Strategy&#45;&gt;Continuous Integration</title>
<g id="a_edge8"><a xlink:title="Branching Strategy &#160;reduces the failure rate of &#160;Continuous Integration">
<path fill="none" stroke="#d72879" d="M1441.8466,-136.8322C1473.1288,-132.3059 1506.3596,-127.5029 1537.2397,-123.0499 1567.7303,-118.653 1600.4995,-113.9383 1631.4651,-109.4879"/>
<polygon fill="#d72879" stroke="#d72879" points="1632.0498,-112.9399 1641.4503,-108.053 1631.0541,-106.0111 1632.0498,-112.9399"/>
</a>
</g>
</g>
<!-- Infrastructure as Code&#45;&gt;Parametrised Infrastructure as Code -->
<g id="edge11" class="edge">
<title>Infrastructure as Code&#45;&gt;Parametrised Infrastructure as Code</title>
<g id="a_edge11"><a xlink:title="Infrastructure as Code &#160;enables &#160;&#160;Parametrised Infrastructure as Code">
<path fill="none" stroke="#28d786" d="M1951.6295,-165.2969C1978.7775,-167.8454 2006.4054,-170.5273 2032.5844,-173.0499 2093.9536,-178.9634 2161.4208,-185.3821 2220.4745,-191.536"/>
<polygon fill="#28d786" stroke="#28d786" points="2220.3258,-195.0395 2230.6362,-192.6012 2221.0556,-188.0776 2220.3258,-195.0395"/>
</a>
</g>
</g>
<!-- Infrastructure as Code&#45;&gt;Parametrised Infrastructure as Code -->
<g id="edge13" class="edge">
<title>Infrastructure as Code&#45;&gt;Parametrised Infrastructure as Code</title>
<g id="a_edge13"><a xlink:title="Infrastructure as Code &#160;reduces the failure rate of &#160;Parametrised Infrastructure as Code">
<path fill="none" stroke="#d72879" d="M1877.4215,-175.2154C1925.1429,-180.6223 1981.6104,-186.138 2032.5844,-191.0499 2052.9166,-193.0091 2073.9181,-195.0237 2095.0612,-197.0249"/>
<polygon fill="#d72879" stroke="#d72879" points="2094.8303,-200.5186 2105.1151,-197.9744 2095.4886,-193.5496 2094.8303,-200.5186"/>
</a>
</g>
</g>
<!-- Continuous Delivery -->
<g id="node16" class="node">
<title>Continuous Delivery</title>
<polygon fill="#2f28d7" stroke="#000000" stroke-width="3" points="2398.859,-125.0161 2411.0264,-125.148 2423.068,-125.3455 2434.9346,-125.6079 2446.5781,-125.9345 2457.9519,-126.3246 2469.011,-126.7769 2479.7124,-127.2902 2490.0156,-127.8633 2499.8821,-128.4943 2509.2764,-129.1817 2518.166,-129.9236 2526.5211,-130.7179 2534.3152,-131.5625 2541.5254,-132.4549 2548.1318,-133.3929 2554.118,-134.3738 2559.4712,-135.3949 2564.1821,-136.4534 2568.2445,-137.5465 2571.6559,-138.6711 2574.417,-139.8241 2576.5315,-141.0024 2578.0063,-142.2028 2578.8512,-143.4219 2579.0785,-144.6565 2578.7032,-145.9031 2577.7425,-147.1584 2576.2156,-148.4188 2574.1438,-149.6809 2571.5497,-150.9414 2568.4573,-152.1966 2564.8918,-153.4432 2560.879,-154.6778 2556.4457,-155.8969 2551.6186,-157.0973 2546.4248,-158.2756 2540.8911,-159.4287 2535.0441,-160.5533 2528.9098,-161.6463 2522.5136,-162.7049 2515.8799,-163.726 2509.0321,-164.7068 2501.9927,-165.6448 2494.7825,-166.5373 2487.4214,-167.3818 2479.9279,-168.1761 2472.3188,-168.918 2464.6098,-169.6054 2456.8151,-170.2365 2448.9476,-170.8095 2441.0187,-171.3229 2433.039,-171.7752 2425.0175,-172.1652 2416.9625,-172.4919 2408.8813,-172.7543 2400.7805,-172.9517 2392.6662,-173.0837 2384.544,-173.1497 2376.4191,-173.1497 2368.2968,-173.0837 2360.1826,-172.9517 2352.0818,-172.7543 2344.0006,-172.4919 2335.9456,-172.1652 2327.9241,-171.7752 2319.9444,-171.3229 2312.0155,-170.8095 2304.148,-170.2365 2296.3533,-169.6054 2288.6443,-168.918 2281.0352,-168.1761 2273.5417,-167.3818 2266.1806,-166.5373 2258.9704,-165.6448 2251.9309,-164.7068 2245.0832,-163.726 2238.4495,-162.7049 2232.0533,-161.6463 2225.919,-160.5533 2220.072,-159.4287 2214.5383,-158.2756 2209.3445,-157.0973 2204.5174,-155.8969 2200.0841,-154.6778 2196.0713,-153.4432 2192.5058,-152.1966 2189.4134,-150.9414 2186.8193,-149.6809 2184.7474,-148.4188 2183.2206,-147.1584 2182.2599,-145.9031 2181.8846,-144.6565 2182.1119,-143.4219 2182.9568,-142.2028 2184.4316,-141.0024 2186.5461,-139.8241 2189.3072,-138.6711 2192.7186,-137.5465 2196.781,-136.4534 2201.4918,-135.3949 2206.8451,-134.3738 2212.8313,-133.3929 2219.4377,-132.4549 2226.6478,-131.5625 2234.442,-130.7179 2242.7971,-129.9236 2251.6867,-129.1817 2261.081,-128.4943 2270.9475,-127.8633 2281.2506,-127.2902 2291.9521,-126.7769 2303.0112,-126.3246 2314.385,-125.9345 2326.0285,-125.6079 2337.8951,-125.3455 2349.9367,-125.148 2362.1041,-125.0161 2374.3473,-124.95 2386.6158,-124.95 2398.859,-125.0161"/>
<text text-anchor="middle" x="2380.4815" y="-142.8499" font-family="Times,serif" font-size="24.00" fill="#ffffff">Continuous Delivery</text>
</g>
<!-- Infrastructure as Code&#45;&gt;Continuous Delivery -->
<g id="edge10" class="edge">
<title>Infrastructure as Code&#45;&gt;Continuous Delivery</title>
<g id="a_edge10"><a xlink:title="Infrastructure as Code &#160;enables &#160;&#160;Continuous Delivery">
<path fill="none" stroke="#28d786" d="M1983.2337,-147.0998C2044.4318,-146.0292 2110.9044,-145.2867 2171.652,-144.9979"/>
<polygon fill="#28d786" stroke="#28d786" points="2171.7578,-148.4976 2181.7424,-144.954 2171.7272,-141.4977 2171.7578,-148.4976"/>
</a>
</g>
</g>
<!-- Infrastructure as Code&#45;&gt;Continuous Delivery -->
<g id="edge12" class="edge">
<title>Infrastructure as Code&#45;&gt;Continuous Delivery</title>
<g id="a_edge12"><a xlink:title="Infrastructure as Code &#160;reduces the failure rate of &#160;Continuous Delivery">
<path fill="none" stroke="#d72879" d="M1973.3559,-160.1129C2046.3318,-159.7795 2127.82,-158.7857 2198.6081,-157.3507"/>
<polygon fill="#d72879" stroke="#d72879" points="2199.0471,-160.8424 2208.9724,-157.1358 2198.9019,-153.8439 2199.0471,-160.8424"/>
</a>
</g>
</g>
<!-- Dark Launching -->
<g id="node8" class="node">
<title>Dark Launching</title>
<polygon fill="#2f28d7" stroke="#000000" stroke-width="3" points="3516.9828,-257.0161 3526.7722,-257.148 3536.4603,-257.3455 3546.0076,-257.6079 3555.3755,-257.9345 3564.5263,-258.3246 3573.424,-258.7769 3582.0339,-259.2902 3590.3234,-259.8633 3598.2615,-260.4943 3605.8198,-261.1817 3612.9719,-261.9236 3619.6941,-262.7179 3625.9649,-263.5625 3631.7659,-264.4549 3637.0811,-265.3929 3641.8974,-266.3738 3646.2044,-267.3949 3649.9945,-268.4534 3653.2629,-269.5465 3656.0076,-270.6711 3658.229,-271.8241 3659.9303,-273.0024 3661.1169,-274.2028 3661.7966,-275.4219 3661.9795,-276.6565 3661.6775,-277.9031 3660.9046,-279.1584 3659.6762,-280.4188 3658.0093,-281.6809 3655.9221,-282.9414 3653.4341,-284.1966 3650.5655,-285.4432 3647.337,-286.6778 3643.7701,-287.8969 3639.8865,-289.0973 3635.7077,-290.2756 3631.2556,-291.4287 3626.5513,-292.5533 3621.616,-293.6463 3616.4699,-294.7049 3611.1327,-295.726 3605.6233,-296.7068 3599.9596,-297.6448 3594.1586,-298.5373 3588.2362,-299.3818 3582.2073,-300.1761 3576.0853,-300.918 3569.883,-301.6054 3563.6117,-302.2365 3557.2819,-302.8095 3550.9027,-303.3229 3544.4825,-303.7752 3538.0288,-304.1652 3531.5481,-304.4919 3525.0463,-304.7543 3518.5288,-304.9517 3512.0004,-305.0837 3505.4656,-305.1497 3498.9287,-305.1497 3492.3939,-305.0837 3485.8655,-304.9517 3479.348,-304.7543 3472.8462,-304.4919 3466.3655,-304.1652 3459.9117,-303.7752 3453.4916,-303.3229 3447.1124,-302.8095 3440.7825,-302.2365 3434.5112,-301.6054 3428.3089,-300.918 3422.187,-300.1761 3416.158,-299.3818 3410.2356,-298.5373 3404.4346,-297.6448 3398.771,-296.7068 3393.2616,-295.726 3387.9244,-294.7049 3382.7783,-293.6463 3377.8429,-292.5533 3373.1387,-291.4287 3368.6865,-290.2756 3364.5078,-289.0973 3360.6241,-287.8969 3357.0572,-286.6778 3353.8288,-285.4432 3350.9601,-284.1966 3348.4721,-282.9414 3346.385,-281.6809 3344.7181,-280.4188 3343.4897,-279.1584 3342.7167,-277.9031 3342.4148,-276.6565 3342.5977,-275.4219 3343.2774,-274.2028 3344.464,-273.0024 3346.1652,-271.8241 3348.3866,-270.6711 3351.1313,-269.5465 3354.3998,-268.4534 3358.1899,-267.3949 3362.4969,-266.3738 3367.3131,-265.3929 3372.6283,-264.4549 3378.4293,-263.5625 3384.7002,-262.7179 3391.4223,-261.9236 3398.5744,-261.1817 3406.1327,-260.4943 3414.0709,-259.8633 3422.3603,-259.2902 3430.9702,-258.7769 3439.8679,-258.3246 3449.0188,-257.9345 3458.3866,-257.6079 3467.9339,-257.3455 3477.6221,-257.148 3487.4114,-257.0161 3497.2618,-256.95 3507.1325,-256.95 3516.9828,-257.0161"/>
<text text-anchor="middle" x="3502.1971" y="-274.8499" font-family="Times,serif" font-size="24.00" fill="#ffffff">Dark Launching</text>
</g>
<!-- Continuous Deployment -->
<g id="node17" class="node">
<title>Continuous Deployment</title>
<polygon fill="#2f28d7" stroke="#000000" stroke-width="3" points="3018.612,-191.0161 3032.8791,-191.148 3046.9988,-191.3455 3060.9132,-191.6079 3074.566,-191.9345 3087.9026,-192.3246 3100.8702,-192.7769 3113.4184,-193.2902 3125.4995,-193.8633 3137.0687,-194.4943 3148.0843,-195.1817 3158.5079,-195.9236 3168.3048,-196.7179 3177.4441,-197.5625 3185.8985,-198.4549 3193.6449,-199.3929 3200.6642,-200.3738 3206.9413,-201.3949 3212.4651,-202.4534 3217.2286,-203.5465 3221.2287,-204.6711 3224.4662,-205.8241 3226.9456,-207.0024 3228.675,-208.2028 3229.6656,-209.4219 3229.9321,-210.6565 3229.4921,-211.9031 3228.3656,-213.1584 3226.5753,-214.4188 3224.1459,-215.6809 3221.1041,-216.9414 3217.4781,-218.1966 3213.2972,-219.4432 3208.592,-220.6778 3203.3936,-221.8969 3197.7335,-223.0973 3191.6433,-224.2756 3185.1547,-225.4287 3178.2987,-226.5533 3171.1058,-227.6463 3163.6058,-228.7049 3155.8273,-229.726 3147.7978,-230.7068 3139.5435,-231.6448 3131.0891,-232.5373 3122.4578,-233.3818 3113.671,-234.1761 3104.7488,-234.918 3095.7095,-235.6054 3086.5697,-236.2365 3077.3444,-236.8095 3068.0473,-237.3229 3058.6904,-237.7752 3049.2846,-238.1652 3039.8396,-238.4919 3030.3638,-238.7543 3020.8651,-238.9517 3011.3505,-239.0837 3001.8266,-239.1497 2992.2996,-239.1497 2982.7757,-239.0837 2973.2611,-238.9517 2963.7624,-238.7543 2954.2867,-238.4919 2944.8416,-238.1652 2935.4358,-237.7752 2926.0789,-237.3229 2916.7818,-236.8095 2907.5566,-236.2365 2898.4167,-235.6054 2889.3774,-234.918 2880.4552,-234.1761 2871.6685,-233.3818 2863.0371,-232.5373 2854.5827,-231.6448 2846.3284,-230.7068 2838.2989,-229.726 2830.5204,-228.7049 2823.0204,-227.6463 2815.8276,-226.5533 2808.9715,-225.4287 2802.4829,-224.2756 2796.3927,-223.0973 2790.7326,-221.8969 2785.5342,-220.6778 2780.829,-219.4432 2776.6482,-218.1966 2773.0221,-216.9414 2769.9803,-215.6809 2767.551,-214.4188 2765.7606,-213.1584 2764.6342,-211.9031 2764.1941,-210.6565 2764.4606,-209.4219 2765.4513,-208.2028 2767.1806,-207.0024 2769.66,-205.8241 2772.8975,-204.6711 2776.8977,-203.5465 2781.6612,-202.4534 2787.1849,-201.3949 2793.462,-200.3738 2800.4813,-199.3929 2808.2277,-198.4549 2816.6821,-197.5625 2825.8214,-196.7179 2835.6183,-195.9236 2846.0419,-195.1817 2857.0575,-194.4943 2868.6267,-193.8633 2880.7078,-193.2902 2893.2561,-192.7769 2906.2236,-192.3246 2919.5602,-191.9345 2933.2131,-191.6079 2947.1275,-191.3455 2961.2471,-191.148 2975.5142,-191.0161 2989.8703,-190.95 3004.256,-190.95 3018.612,-191.0161"/>
<text text-anchor="middle" x="2997.0631" y="-208.8499" font-family="Times,serif" font-size="24.00" fill="#ffffff">Continuous Deployment</text>
</g>
<!-- Dark Launching&#45;&gt;Continuous Deployment -->
<g id="edge14" class="edge">
<title>Dark Launching&#45;&gt;Continuous Deployment</title>
<g id="a_edge14"><a xlink:title="Dark Launching &#160;reduces the failure rate of &#160;Continuous Deployment">
<path fill="none" stroke="#d72879" d="M3355.202,-268.0397C3278.9395,-258.9235 3187.0168,-246.7874 3115.3947,-236.3298"/>
<polygon fill="#d72879" stroke="#d72879" points="3115.8295,-232.8562 3105.427,-234.8658 3114.8123,-239.7819 3115.8295,-232.8562"/>
</a>
</g>
</g>
<!-- Test Driven Development&#45;&gt;Automated Testing -->
<g id="edge16" class="edge">
<title>Test Driven Development&#45;&gt;Automated Testing</title>
<g id="a_edge16"><a xlink:title="Test Driven Development &#160;reduces the failure rate of &#160;Automated Testing">
<path fill="none" stroke="#d72879" d="M984.2972,-69.4837C1048.1126,-60.5604 1122.0882,-50.2164 1183.3193,-41.6544"/>
<polygon fill="#d72879" stroke="#d72879" points="1184.0042,-45.0928 1193.4231,-40.2416 1183.0347,-38.1602 1184.0042,-45.0928"/>
</a>
</g>
</g>
<!-- Test Driven Development&#45;&gt;Unit Testing -->
<g id="edge15" class="edge">
<title>Test Driven Development&#45;&gt;Unit Testing</title>
<g id="a_edge15"><a xlink:title="Test Driven Development &#160;reduces the failure rate of &#160;Unit Testing">
<path fill="none" stroke="#d72879" d="M1076.675,-90.0499C1111.0623,-90.0499 1145.3517,-90.0499 1176.6221,-90.0499"/>
<polygon fill="#d72879" stroke="#d72879" points="1176.6651,-93.55 1186.6651,-90.0499 1176.665,-86.55 1176.6651,-93.55"/>
</a>
</g>
</g>
<!-- Exploratory Testing&#45;&gt;Automated Testing -->
<g id="edge17" class="edge">
<title>Exploratory Testing&#45;&gt;Automated Testing</title>
<g id="a_edge17"><a xlink:title="Exploratory Testing &#160;better together with &#160;Automated Testing">
<path fill="none" stroke="#d0d728" d="M1596.2977,-30.6018C1559.7714,-30.8553 1521.1249,-30.8655 1484.4283,-30.6323"/>
<polygon fill="#d0d728" stroke="#d0d728" points="1484.1574,-27.1304 1474.1331,-30.5601 1484.1082,-34.1302 1484.1574,-27.1304"/>
</a>
</g>
</g>
<!-- Immutable Artefacts -->
<g id="node15" class="node">
<title>Immutable Artefacts</title>
<polygon fill="#2f28d7" stroke="#000000" stroke-width="3" points="2398.9989,-59.0161 2411.259,-59.148 2423.3922,-59.3455 2435.3492,-59.6079 2447.0813,-59.9345 2458.5417,-60.3246 2469.685,-60.7769 2480.468,-61.2902 2490.8495,-61.8633 2500.7912,-62.4943 2510.2571,-63.1817 2519.2143,-63.9236 2527.633,-64.7179 2535.4865,-65.5625 2542.7516,-66.4549 2549.4082,-67.3929 2555.44,-68.3738 2560.834,-69.3949 2565.5807,-70.4534 2569.6741,-71.5465 2573.1115,-72.6711 2575.8936,-73.8241 2578.0242,-75.0024 2579.5102,-76.2028 2580.3615,-77.4219 2580.5906,-78.6565 2580.2124,-79.9031 2579.2444,-81.1584 2577.7059,-82.4188 2575.6183,-83.6809 2573.0044,-84.9414 2569.8885,-86.1966 2566.2958,-87.4432 2562.2526,-88.6778 2557.7854,-89.8969 2552.9216,-91.0973 2547.6882,-92.2756 2542.1124,-93.4287 2536.2209,-94.5533 2530.0399,-95.6463 2523.595,-96.7049 2516.9108,-97.726 2510.0109,-98.7068 2502.9178,-99.6448 2495.6528,-100.5373 2488.2357,-101.3818 2480.685,-102.1761 2473.018,-102.918 2465.2503,-103.6054 2457.3963,-104.2365 2449.4689,-104.8095 2441.4797,-105.3229 2433.4391,-105.7752 2425.3565,-106.1652 2417.2402,-106.4919 2409.0975,-106.7543 2400.9351,-106.9517 2392.759,-107.0837 2384.5749,-107.1497 2376.3882,-107.1497 2368.2041,-107.0837 2360.028,-106.9517 2351.8656,-106.7543 2343.7229,-106.4919 2335.6065,-106.1652 2327.524,-105.7752 2319.4834,-105.3229 2311.4942,-104.8095 2303.5668,-104.2365 2295.7128,-103.6054 2287.9451,-102.918 2280.2781,-102.1761 2272.7274,-101.3818 2265.3103,-100.5373 2258.0453,-99.6448 2250.9522,-98.7068 2244.0523,-97.726 2237.3681,-96.7049 2230.9232,-95.6463 2224.7422,-94.5533 2218.8507,-93.4287 2213.2749,-92.2756 2208.0415,-91.0973 2203.1776,-89.8969 2198.7105,-88.6778 2194.6673,-87.4432 2191.0746,-86.1966 2187.9586,-84.9414 2185.3448,-83.6809 2183.2572,-82.4188 2181.7187,-81.1584 2180.7507,-79.9031 2180.3725,-78.6565 2180.6016,-77.4219 2181.4529,-76.2028 2182.9389,-75.0024 2185.0695,-73.8241 2187.8516,-72.6711 2191.289,-71.5465 2195.3823,-70.4534 2200.129,-69.3949 2205.523,-68.3738 2211.5549,-67.3929 2218.2115,-66.4549 2225.4766,-65.5625 2233.3301,-64.7179 2241.7488,-63.9236 2250.706,-63.1817 2260.1719,-62.4943 2270.1136,-61.8633 2280.4951,-61.2902 2291.2781,-60.7769 2302.4214,-60.3246 2313.8818,-59.9345 2325.6139,-59.6079 2337.5709,-59.3455 2349.7041,-59.148 2361.9642,-59.0161 2374.3006,-58.95 2386.6625,-58.95 2398.9989,-59.0161"/>
<text text-anchor="middle" x="2380.4815" y="-76.8499" font-family="Times,serif" font-size="24.00" fill="#ffffff">Immutable Artefacts</text>
</g>
<!-- Continuous Integration&#45;&gt;Immutable Artefacts -->
<g id="edge19" class="edge">
<title>Continuous Integration&#45;&gt;Immutable Artefacts</title>
<g id="a_edge19"><a xlink:title="Continuous Integration &#160;enables &#160;&#160;Immutable Artefacts">
<path fill="none" stroke="#28d786" d="M1987.9912,-81.0174C2047.3989,-79.9991 2111.4684,-79.2904 2170.2675,-79.0046"/>
<polygon fill="#28d786" stroke="#28d786" points="2170.4333,-82.504 2180.4175,-78.9593 2170.4019,-75.5041 2170.4333,-82.504"/>
</a>
</g>
</g>
<!-- Continuous Integration&#45;&gt;Continuous Delivery -->
<g id="edge18" class="edge">
<title>Continuous Integration&#45;&gt;Continuous Delivery</title>
<g id="a_edge18"><a xlink:title="Continuous Integration &#160;enables &#160;&#160;Continuous Delivery">
<path fill="none" stroke="#28d786" d="M1918.9863,-105.0113C1956.1451,-108.6454 1995.7955,-112.5049 2032.5844,-116.0499 2088.0148,-121.3911 2148.4202,-127.1445 2203.1072,-132.3279"/>
<polygon fill="#28d786" stroke="#28d786" points="2202.9639,-135.8299 2213.2495,-133.2888 2203.6242,-128.8611 2202.9639,-135.8299"/>
</a>
</g>
</g>
<!-- Semantic Versioning -->
<g id="node12" class="node">
<title>Semantic Versioning</title>
<polygon fill="#2f28d7" stroke="#000000" stroke-width="3" points="3015.5805,-59.0161 3027.8405,-59.148 3039.9738,-59.3455 3051.9307,-59.6079 3063.6629,-59.9345 3075.1233,-60.3246 3086.2666,-60.7769 3097.0495,-61.2902 3107.4311,-61.8633 3117.3727,-62.4943 3126.8386,-63.1817 3135.7958,-63.9236 3144.2145,-64.7179 3152.0681,-65.5625 3159.3331,-66.4549 3165.9898,-67.3929 3172.0216,-68.3738 3177.4156,-69.3949 3182.1623,-70.4534 3186.2557,-71.5465 3189.6931,-72.6711 3192.4752,-73.8241 3194.6058,-75.0024 3196.0918,-76.2028 3196.9431,-77.4219 3197.1721,-78.6565 3196.794,-79.9031 3195.8259,-81.1584 3194.2875,-82.4188 3192.1999,-83.6809 3189.586,-84.9414 3186.4701,-86.1966 3182.8774,-87.4432 3178.8341,-88.6778 3174.367,-89.8969 3169.5032,-91.0973 3164.2698,-92.2756 3158.694,-93.4287 3152.8025,-94.5533 3146.6215,-95.6463 3140.1766,-96.7049 3133.4924,-97.726 3126.5925,-98.7068 3119.4994,-99.6448 3112.2343,-100.5373 3104.8172,-101.3818 3097.2666,-102.1761 3089.5996,-102.918 3081.8319,-103.6054 3073.9779,-104.2365 3066.0504,-104.8095 3058.0612,-105.3229 3050.0207,-105.7752 3041.9381,-106.1652 3033.8218,-106.4919 3025.6791,-106.7543 3017.5167,-106.9517 3009.3406,-107.0837 3001.1565,-107.1497 2992.9697,-107.1497 2984.7857,-107.0837 2976.6096,-106.9517 2968.4472,-106.7543 2960.3044,-106.4919 2952.1881,-106.1652 2944.1055,-105.7752 2936.065,-105.3229 2928.0758,-104.8095 2920.1484,-104.2365 2912.2943,-103.6054 2904.5266,-102.918 2896.8596,-102.1761 2889.309,-101.3818 2881.8919,-100.5373 2874.6268,-99.6448 2867.5338,-98.7068 2860.6339,-97.726 2853.9497,-96.7049 2847.5048,-95.6463 2841.3238,-94.5533 2835.4323,-93.4287 2829.8564,-92.2756 2824.6231,-91.0973 2819.7592,-89.8969 2815.2921,-88.6778 2811.2488,-87.4432 2807.6562,-86.1966 2804.5402,-84.9414 2801.9263,-83.6809 2799.8387,-82.4188 2798.3003,-81.1584 2797.3323,-79.9031 2796.9541,-78.6565 2797.1831,-77.4219 2798.0344,-76.2028 2799.5205,-75.0024 2801.6511,-73.8241 2804.4332,-72.6711 2807.8705,-71.5465 2811.9639,-70.4534 2816.7106,-69.3949 2822.1046,-68.3738 2828.1364,-67.3929 2834.7931,-66.4549 2842.0582,-65.5625 2849.9117,-64.7179 2858.3304,-63.9236 2867.2876,-63.1817 2876.7535,-62.4943 2886.6951,-61.8633 2897.0767,-61.2902 2907.8596,-60.7769 2919.0029,-60.3246 2930.4633,-59.9345 2942.1955,-59.6079 2954.1524,-59.3455 2966.2857,-59.148 2978.5457,-59.0161 2990.8821,-58.95 3003.2441,-58.95 3015.5805,-59.0161"/>
<text text-anchor="middle" x="2997.0631" y="-76.8499" font-family="Times,serif" font-size="24.00" fill="#ffffff">Semantic Versioning</text>
</g>
<!-- Release Views -->
<g id="node14" class="node">
<title>Release Views</title>
<polygon fill="#2f28d7" stroke="#000000" stroke-width="3" points="3515.3506,-59.0161 3524.0592,-59.148 3532.6779,-59.3455 3541.1712,-59.6079 3549.5049,-59.9345 3557.6456,-60.3246 3565.561,-60.7769 3573.2204,-61.2902 3580.5948,-61.8633 3587.6566,-62.4943 3594.3805,-63.1817 3600.7431,-63.9236 3606.7231,-64.7179 3612.3017,-65.5625 3617.4623,-66.4549 3622.1907,-67.3929 3626.4753,-68.3738 3630.3068,-69.3949 3633.6785,-70.4534 3636.5862,-71.5465 3639.0279,-72.6711 3641.0041,-73.8241 3642.5175,-75.0024 3643.5731,-76.2028 3644.1778,-77.4219 3644.3405,-78.6565 3644.0718,-79.9031 3643.3842,-81.1584 3642.2914,-82.4188 3640.8085,-83.6809 3638.9518,-84.9414 3636.7385,-86.1966 3634.1865,-87.4432 3631.3144,-88.6778 3628.1413,-89.8969 3624.6864,-91.0973 3620.969,-92.2756 3617.0083,-93.4287 3612.8234,-94.5533 3608.4328,-95.6463 3603.8548,-96.7049 3599.1068,-97.726 3594.2057,-98.7068 3589.1672,-99.6448 3584.0066,-100.5373 3578.738,-101.3818 3573.3746,-102.1761 3567.9285,-102.918 3562.4109,-103.6054 3556.8319,-104.2365 3551.2008,-104.8095 3545.5259,-105.3229 3539.8145,-105.7752 3534.0732,-106.1652 3528.3079,-106.4919 3522.5239,-106.7543 3516.7259,-106.9517 3510.9182,-107.0837 3505.1048,-107.1497 3499.2895,-107.1497 3493.4761,-107.0837 3487.6684,-106.9517 3481.8704,-106.7543 3476.0864,-106.4919 3470.3211,-106.1652 3464.5798,-105.7752 3458.8684,-105.3229 3453.1934,-104.8095 3447.5623,-104.2365 3441.9833,-103.6054 3436.4657,-102.918 3431.0196,-102.1761 3425.6562,-101.3818 3420.3876,-100.5373 3415.227,-99.6448 3410.1886,-98.7068 3405.2874,-97.726 3400.5394,-96.7049 3395.9614,-95.6463 3391.5709,-94.5533 3387.386,-93.4287 3383.4253,-92.2756 3379.7079,-91.0973 3376.2529,-89.8969 3373.0798,-88.6778 3370.2078,-87.4432 3367.6558,-86.1966 3365.4424,-84.9414 3363.5857,-83.6809 3362.1028,-82.4188 3361.01,-81.1584 3360.3224,-79.9031 3360.0538,-78.6565 3360.2165,-77.4219 3360.8212,-76.2028 3361.8768,-75.0024 3363.3902,-73.8241 3365.3664,-72.6711 3367.8081,-71.5465 3370.7157,-70.4534 3374.0874,-69.3949 3377.9189,-68.3738 3382.2035,-67.3929 3386.9319,-66.4549 3392.0925,-65.5625 3397.6711,-64.7179 3403.6512,-63.9236 3410.0137,-63.1817 3416.7376,-62.4943 3423.7995,-61.8633 3431.1738,-61.2902 3438.8333,-60.7769 3446.7487,-60.3246 3454.8893,-59.9345 3463.223,-59.6079 3471.7164,-59.3455 3480.335,-59.148 3489.0437,-59.0161 3497.8066,-58.95 3506.5876,-58.95 3515.3506,-59.0161"/>
<text text-anchor="middle" x="3502.1971" y="-76.8499" font-family="Times,serif" font-size="24.00" fill="#ffffff">Release Views</text>
</g>
<!-- Semantic Versioning&#45;&gt;Release Views -->
<g id="edge20" class="edge">
<title>Semantic Versioning&#45;&gt;Release Views</title>
<g id="a_edge20"><a xlink:title="Semantic Versioning &#160;enables &#160;&#160;Release Views">
<path fill="none" stroke="#28d786" d="M3196.3428,-76.4352C3247.4772,-76.1719 3301.6647,-76.2928 3349.9962,-76.7978"/>
<polygon fill="#28d786" stroke="#28d786" points="3350.1792,-80.3 3360.2175,-76.9114 3350.2571,-73.3004 3350.1792,-80.3"/>
</a>
</g>
</g>
<!-- Semantic Versioning&#45;&gt;Immutable Artefacts -->
<g id="edge21" class="edge">
<title>Semantic Versioning&#45;&gt;Immutable Artefacts</title>
<g id="a_edge21"><a xlink:title="Semantic Versioning &#160;reduces the failure rate of &#160;Immutable Artefacts">
<path fill="none" stroke="#d72879" d="M2817.3742,-89.2482C2739.8602,-89.9527 2649.1309,-89.9825 2570.5006,-89.3375"/>
<polygon fill="#d72879" stroke="#d72879" points="2570.5098,-85.8375 2560.48,-89.251 2570.4494,-92.8373 2570.5098,-85.8375"/>
</a>
</g>
</g>
<!-- Separation of internal versioning from Marketing versioning -->
<g id="node13" class="node">
<title>Separation of internal versioning from Marketing versioning</title>
<polygon fill="#2f28d7" stroke="#000000" stroke-width="3" points="4392.5011,-59.0161 4427.15,-59.148 4461.4407,-59.3455 4495.233,-59.6079 4528.3901,-59.9345 4560.7791,-60.3246 4592.272,-60.7769 4622.7465,-61.2902 4652.0865,-61.8633 4680.1833,-62.4943 4706.9355,-63.1817 4732.2501,-63.9236 4756.0428,-64.7179 4778.2382,-65.5625 4798.7705,-66.4549 4817.5834,-67.3929 4834.6303,-68.3738 4849.8747,-69.3949 4863.2897,-70.4534 4874.8582,-71.5465 4884.5729,-72.6711 4892.4355,-73.8241 4898.457,-75.0024 4902.6568,-76.2028 4905.0627,-77.4219 4905.71,-78.6565 4904.6412,-79.9031 4901.9054,-81.1584 4897.5575,-82.4188 4891.6576,-83.6809 4884.2703,-84.9414 4875.4642,-86.1966 4865.3106,-87.4432 4853.8836,-88.6778 4841.2588,-89.8969 4827.5128,-91.0973 4812.7224,-92.2756 4796.9641,-93.4287 4780.3137,-94.5533 4762.8452,-95.6463 4744.6308,-96.7049 4725.7401,-97.726 4706.2398,-98.7068 4686.1936,-99.6448 4665.6613,-100.5373 4644.6993,-101.3818 4623.3599,-102.1761 4601.6916,-102.918 4579.7388,-103.6054 4557.542,-104.2365 4535.1377,-104.8095 4512.5588,-105.3229 4489.8349,-105.7752 4466.9922,-106.1652 4444.054,-106.4919 4421.0414,-106.7543 4397.973,-106.9517 4374.866,-107.0837 4351.7363,-107.1497 4328.5992,-107.1497 4305.4696,-107.0837 4282.3626,-106.9517 4259.2942,-106.7543 4236.2815,-106.4919 4213.3434,-106.1652 4190.5006,-105.7752 4167.7767,-105.3229 4145.1979,-104.8095 4122.7936,-104.2365 4100.5967,-103.6054 4078.6439,-102.918 4056.9756,-102.1761 4035.6363,-101.3818 4014.6743,-100.5373 3994.142,-99.6448 3974.0957,-98.7068 3954.5955,-97.726 3935.7047,-96.7049 3917.4903,-95.6463 3900.0219,-94.5533 3883.3714,-93.4287 3867.6132,-92.2756 3852.8228,-91.0973 3839.0767,-89.8969 3826.4519,-88.6778 3815.0249,-87.4432 3804.8714,-86.1966 3796.0652,-84.9414 3788.6779,-83.6809 3782.778,-82.4188 3778.4301,-81.1584 3775.6943,-79.9031 3774.6256,-78.6565 3775.2729,-77.4219 3777.6788,-76.2028 3781.8786,-75.0024 3787.9,-73.8241 3795.7627,-72.6711 3805.4773,-71.5465 3817.0459,-70.4534 3830.4609,-69.3949 3845.7052,-68.3738 3862.7522,-67.3929 3881.565,-66.4549 3902.0973,-65.5625 3924.2927,-64.7179 3948.0854,-63.9236 3973.4,-63.1817 4000.1523,-62.4943 4028.249,-61.8633 4057.5891,-61.2902 4088.0635,-60.7769 4119.5564,-60.3246 4151.9454,-59.9345 4185.1025,-59.6079 4218.8948,-59.3455 4253.1855,-59.148 4287.8345,-59.0161 4322.6993,-58.95 4357.6362,-58.95 4392.5011,-59.0161"/>
<text text-anchor="middle" x="4340.1678" y="-76.8499" font-family="Times,serif" font-size="24.00" fill="#ffffff">Separation of internal versioning from Marketing versioning</text>
</g>
<!-- Release Views&#45;&gt;Semantic Versioning -->
<g id="edge23" class="edge">
<title>Release Views&#45;&gt;Semantic Versioning</title>
<g id="a_edge23"><a xlink:title="Release Views &#160;reduces the failure rate of &#160;Semantic Versioning">
<path fill="none" stroke="#d72879" d="M3373.6663,-89.017C3316.7908,-89.7978 3248.752,-89.9945 3186.2495,-89.6073"/>
<polygon fill="#d72879" stroke="#d72879" points="3185.8888,-86.1049 3175.8653,-89.5372 3185.8414,-93.1047 3185.8888,-86.1049"/>
</a>
</g>
</g>
<!-- Release Views&#45;&gt;Separation of internal versioning from Marketing versioning -->
<g id="edge22" class="edge">
<title>Release Views&#45;&gt;Separation of internal versioning from Marketing versioning</title>
<g id="a_edge22"><a xlink:title="Release Views &#160;enables &#160;&#160;Separation of internal versioning from Marketing versioning">
<path fill="none" stroke="#28d786" d="M3641.9828,-83.0499C3681.4084,-83.0499 3726.8871,-83.0499 3775.3389,-83.0499"/>
<polygon fill="#28d786" stroke="#28d786" points="3775.3943,-86.55 3785.3942,-83.0499 3775.3942,-79.55 3775.3943,-86.55"/>
</a>
</g>
</g>
<!-- Immutable Artefacts&#45;&gt;Continuous Integration -->
<g id="edge25" class="edge">
<title>Immutable Artefacts&#45;&gt;Continuous Integration</title>
<g id="a_edge25"><a xlink:title="Immutable Artefacts &#160;reduces the failure rate of &#160;Continuous Integration">
<path fill="none" stroke="#d72879" d="M2208.0727,-91.1548C2139.8584,-92.5957 2060.5976,-93.6245 1988.2314,-94.0365"/>
<polygon fill="#d72879" stroke="#d72879" points="1988.0491,-90.5373 1978.0679,-94.0905 1988.0864,-97.5372 1988.0491,-90.5373"/>
</a>
</g>
</g>
<!-- Immutable Artefacts&#45;&gt;Semantic Versioning -->
<g id="edge24" class="edge">
<title>Immutable Artefacts&#45;&gt;Semantic Versioning</title>
<g id="a_edge24"><a xlink:title="Immutable Artefacts &#160;enables &#160;&#160;Semantic Versioning">
<path fill="none" stroke="#28d786" d="M2580.2421,-76.6863C2646.4859,-76.1955 2720.3933,-76.1722 2787.3633,-76.6165"/>
<polygon fill="#28d786" stroke="#28d786" points="2787.5958,-80.1181 2797.6202,-76.6886 2787.6451,-73.1183 2787.5958,-80.1181"/>
</a>
</g>
</g>
<!-- Continuous Delivery&#45;&gt;Continuous Deployment -->
<g id="edge26" class="edge">
<title>Continuous Delivery&#45;&gt;Continuous Deployment</title>
<g id="a_edge26"><a xlink:title="Continuous Delivery &#160;enables &#160;&#160;Continuous Deployment">
<path fill="none" stroke="#28d786" d="M2526.9935,-162.0415C2589.1395,-167.7869 2662.335,-174.8632 2728.3787,-182.0499 2762.185,-185.7286 2798.3458,-189.9641 2832.8293,-194.1477"/>
<polygon fill="#28d786" stroke="#28d786" points="2832.6385,-197.6503 2842.9882,-195.3846 2833.4846,-190.7016 2832.6385,-197.6503"/>
</a>
</g>
</g>
<!-- Continuous Deployment&#45;&gt;Dark Launching -->
<g id="edge27" class="edge">
<title>Continuous Deployment&#45;&gt;Dark Launching</title>
<g id="a_edge27"><a xlink:title="Continuous Deployment &#160;enables &#160;&#160;Dark Launching">
<path fill="none" stroke="#28d786" d="M3156.8907,-229.6046C3230.846,-238.5647 3317.1206,-250.0124 3384.9324,-259.9258"/>
<polygon fill="#28d786" stroke="#28d786" points="3384.8227,-263.4473 3395.2256,-261.4398 3385.8414,-256.5218 3384.8227,-263.4473"/>
</a>
</g>
</g>
<!-- Crops not Garden plants -->
<g id="node19" class="node">
<title>Crops not Garden plants</title>
<polygon fill="#2f28d7" stroke="#000000" stroke-width="3" points="3524.0727,-191.0161 3538.5561,-191.148 3552.8897,-191.3455 3567.0151,-191.6079 3580.8749,-191.9345 3594.4136,-192.3246 3607.5778,-192.7769 3620.3163,-193.2902 3632.5805,-193.8633 3644.3251,-194.4943 3655.5077,-195.1817 3666.0893,-195.9236 3676.0347,-196.7179 3685.3125,-197.5625 3693.8951,-198.4549 3701.759,-199.3929 3708.8847,-200.3738 3715.2569,-201.3949 3720.8644,-202.4534 3725.7001,-203.5465 3729.7609,-204.6711 3733.0475,-205.8241 3735.5645,-207.0024 3737.32,-208.2028 3738.3257,-209.4219 3738.5963,-210.6565 3738.1495,-211.9031 3737.0059,-213.1584 3735.1885,-214.4188 3732.7223,-215.6809 3729.6344,-216.9414 3725.9534,-218.1966 3721.7092,-219.4432 3716.9326,-220.6778 3711.6554,-221.8969 3705.9095,-223.0973 3699.727,-224.2756 3693.14,-225.4287 3686.1801,-226.5533 3678.8782,-227.6463 3671.2645,-228.7049 3663.3681,-229.726 3655.2169,-230.7068 3646.8374,-231.6448 3638.2549,-232.5373 3629.4926,-233.3818 3620.5727,-234.1761 3611.5153,-234.918 3602.3389,-235.6054 3593.0605,-236.2365 3583.6954,-236.8095 3574.2574,-237.3229 3564.7587,-237.7752 3555.2103,-238.1652 3545.622,-238.4919 3536.0026,-238.7543 3526.36,-238.9517 3516.7011,-239.0837 3507.0328,-239.1497 3497.3614,-239.1497 3487.6931,-239.0837 3478.0343,-238.9517 3468.3916,-238.7543 3458.7722,-238.4919 3449.184,-238.1652 3439.6356,-237.7752 3430.1369,-237.3229 3420.6988,-236.8095 3411.3337,-236.2365 3402.0554,-235.6054 3392.879,-234.918 3383.8216,-234.1761 3374.9016,-233.3818 3366.1394,-232.5373 3357.5568,-231.6448 3349.1774,-230.7068 3341.0262,-229.726 3333.1298,-228.7049 3325.5161,-227.6463 3318.2142,-226.5533 3311.2542,-225.4287 3304.6672,-224.2756 3298.4848,-223.0973 3292.7388,-221.8969 3287.4616,-220.6778 3282.6851,-219.4432 3278.4409,-218.1966 3274.7598,-216.9414 3271.6719,-215.6809 3269.2057,-214.4188 3267.3883,-213.1584 3266.2447,-211.9031 3265.798,-210.6565 3266.0686,-209.4219 3267.0742,-208.2028 3268.8298,-207.0024 3271.3468,-205.8241 3274.6334,-204.6711 3278.6941,-203.5465 3283.5298,-202.4534 3289.1374,-201.3949 3295.5096,-200.3738 3302.6353,-199.3929 3310.4991,-198.4549 3319.0817,-197.5625 3328.3595,-196.7179 3338.305,-195.9236 3348.8866,-195.1817 3360.0691,-194.4943 3371.8137,-193.8633 3384.078,-193.2902 3396.8164,-192.7769 3409.9806,-192.3246 3423.5193,-191.9345 3437.3792,-191.6079 3451.5045,-191.3455 3465.8382,-191.148 3480.3216,-191.0161 3494.8952,-190.95 3509.499,-190.95 3524.0727,-191.0161"/>
<text text-anchor="middle" x="3502.1971" y="-208.8499" font-family="Times,serif" font-size="24.00" fill="#ffffff">Crops not Garden plants</text>
</g>
<!-- Continuous Deployment&#45;&gt;Crops not Garden plants -->
<g id="edge28" class="edge">
<title>Continuous Deployment&#45;&gt;Crops not Garden plants</title>
<g id="a_edge28"><a xlink:title="Continuous Deployment &#160;enables &#160;&#160;Crops not Garden plants">
<path fill="none" stroke="#28d786" d="M3228.9324,-208.3201C3238.17,-208.302 3247.4448,-208.2961 3256.7068,-208.3022"/>
<polygon fill="#28d786" stroke="#28d786" points="3256.7458,-211.8022 3266.7498,-208.3137 3256.7539,-204.8022 3256.7458,-211.8022"/>
</a>
</g>
</g>
<!-- Chaos Agent -->
<g id="node18" class="node">
<title>Chaos Agent</title>
<polygon fill="#2f28d7" stroke="#000000" stroke-width="3" points="2392.3288,-257.0161 2400.1727,-257.148 2407.9355,-257.3455 2415.5854,-257.6079 2423.0916,-257.9345 2430.4238,-258.3246 2437.5532,-258.7769 2444.4521,-259.2902 2451.0941,-259.8633 2457.4547,-260.4943 2463.5109,-261.1817 2469.2417,-261.9236 2474.6279,-262.7179 2479.6525,-263.5625 2484.3006,-264.4549 2488.5595,-265.3929 2492.4186,-266.3738 2495.8697,-267.3949 2498.9066,-268.4534 2501.5255,-269.5465 2503.7247,-270.6711 2505.5047,-271.8241 2506.8678,-273.0024 2507.8186,-274.2028 2508.3632,-275.4219 2508.5097,-276.6565 2508.2678,-277.9031 2507.6485,-279.1584 2506.6642,-280.4188 2505.3285,-281.6809 2503.6562,-282.9414 2501.6627,-284.1966 2499.3641,-285.4432 2496.7772,-286.6778 2493.9192,-287.8969 2490.8074,-289.0973 2487.4591,-290.2756 2483.8917,-291.4287 2480.1224,-292.5533 2476.1678,-293.6463 2472.0444,-294.7049 2467.7679,-295.726 2463.3534,-296.7068 2458.8153,-297.6448 2454.1672,-298.5373 2449.4218,-299.3818 2444.591,-300.1761 2439.6857,-300.918 2434.716,-301.6054 2429.691,-302.2365 2424.6191,-302.8095 2419.5077,-303.3229 2414.3634,-303.7752 2409.1922,-304.1652 2403.9995,-304.4919 2398.7898,-304.7543 2393.5676,-304.9517 2388.3366,-305.0837 2383.1005,-305.1497 2377.8626,-305.1497 2372.6265,-305.0837 2367.3955,-304.9517 2362.1733,-304.7543 2356.9636,-304.4919 2351.7709,-304.1652 2346.5997,-303.7752 2341.4554,-303.3229 2336.344,-302.8095 2331.2721,-302.2365 2326.2471,-301.6054 2321.2774,-300.918 2316.3721,-300.1761 2311.5413,-299.3818 2306.7959,-298.5373 2302.1478,-297.6448 2297.6097,-296.7068 2293.1952,-295.726 2288.9187,-294.7049 2284.7953,-293.6463 2280.8407,-292.5533 2277.0714,-291.4287 2273.504,-290.2756 2270.1557,-289.0973 2267.0439,-287.8969 2264.1859,-286.6778 2261.599,-285.4432 2259.3004,-284.1966 2257.3069,-282.9414 2255.6345,-281.6809 2254.2989,-280.4188 2253.3146,-279.1584 2252.6953,-277.9031 2252.4534,-276.6565 2252.5999,-275.4219 2253.1445,-274.2028 2254.0953,-273.0024 2255.4584,-271.8241 2257.2384,-270.6711 2259.4376,-269.5465 2262.0565,-268.4534 2265.0934,-267.3949 2268.5445,-266.3738 2272.4036,-265.3929 2276.6624,-264.4549 2281.3106,-263.5625 2286.3352,-262.7179 2291.7214,-261.9236 2297.4522,-261.1817 2303.5084,-260.4943 2309.869,-259.8633 2316.511,-259.2902 2323.4099,-258.7769 2330.5393,-258.3246 2337.8715,-257.9345 2345.3777,-257.6079 2353.0276,-257.3455 2360.7904,-257.148 2368.6343,-257.0161 2376.527,-256.95 2384.4361,-256.95 2392.3288,-257.0161"/>
<text text-anchor="middle" x="2380.4815" y="-274.8499" font-family="Times,serif" font-size="24.00" fill="#ffffff">Chaos Agent</text>
</g>
<!-- Chaos Agent&#45;&gt;Continuous Deployment -->
<g id="edge29" class="edge">
<title>Chaos Agent&#45;&gt;Continuous Deployment</title>
<g id="a_edge29"><a xlink:title="Chaos Agent &#160;reduces the failure rate of &#160;Continuous Deployment">
<path fill="none" stroke="#d72879" d="M2503.3325,-270.2311C2569.9675,-264.1527 2653.7402,-256.1718 2728.3787,-248.0499 2768.3272,-243.7028 2811.5635,-238.5782 2851.4347,-233.6805"/>
<polygon fill="#d72879" stroke="#d72879" points="2851.9981,-237.1376 2861.4949,-232.4408 2851.1419,-230.1901 2851.9981,-237.1376"/>
</a>
</g>
</g>
<!-- Crops not Garden plants&#45;&gt;Continuous Deployment -->
<g id="edge30" class="edge">
<title>Crops not Garden plants&#45;&gt;Continuous Deployment</title>
<g id="a_edge30"><a xlink:title="Crops not Garden plants &#160;reduces the failure rate of &#160;Continuous Deployment">
<path fill="none" stroke="#d72879" d="M3291.8024,-221.7155C3266.2723,-221.8185 3240.1505,-221.8272 3214.5206,-221.7416"/>
<polygon fill="#d72879" stroke="#d72879" points="3214.3559,-218.241 3204.3425,-221.7025 3214.329,-225.241 3214.3559,-218.241"/>
</a>
</g>
</g>
</g>
</svg>
