<?xml version="1.0" encoding="UTF-8" standalone="no"?>
<!DOCTYPE svg PUBLIC "-//W3C//DTD SVG 1.1//EN"
 "http://www.w3.org/Graphics/SVG/1.1/DTD/svg11.dtd">
<!-- Generated by graphviz version 2.40.1 (20161225.0304)
 -->
<!-- Title: G Pages: 1 -->
<svg width="1133pt" height="44pt"
 viewBox="0.00 0.00 1133.00 44.00" xmlns="http://www.w3.org/2000/svg" xmlns:xlink="http://www.w3.org/1999/xlink">
<g id="graph0" class="graph" transform="scale(1 1) rotate(0) translate(4 40)">
<title>G</title>
<polygon fill="#ffffff" stroke="transparent" points="-4,4 -4,-40 1129,-40 1129,4 -4,4"/>
<!-- Automated Testing -->
<g id="node1" class="node">
<title>Automated Testing</title>
<polygon fill="#d3d3d3" stroke="#000000" stroke-width="3" points="245,-36 0,-36 0,0 245,0 245,-36"/>
<text text-anchor="middle" x="122.5" y="-11.8" font-family="Times,serif" font-size="24.00" fill="#000000">Automated Testing</text>
</g>
<!-- Continous Integration -->
<g id="node2" class="node">
<title>Continous Integration</title>
<polygon fill="#d3d3d3" stroke="#000000" stroke-width="3" points="547.5,-36 263.5,-36 263.5,0 547.5,0 547.5,-36"/>
<text text-anchor="middle" x="405.5" y="-11.8" font-family="Times,serif" font-size="24.00" fill="#000000">Continous Integration</text>
</g>
<!-- Continous Delivery -->
<g id="node3" class="node">
<title>Continous Delivery</title>
<polygon fill="#d3d3d3" stroke="#000000" stroke-width="3" points="813.5,-36 565.5,-36 565.5,0 813.5,0 813.5,-36"/>
<text text-anchor="middle" x="689.5" y="-11.8" font-family="Times,serif" font-size="24.00" fill="#000000">Continous Delivery</text>
</g>
<!-- Continous Deployment -->
<g id="node4" class="node">
<title>Continous Deployment</title>
<polygon fill="#d3d3d3" stroke="#000000" stroke-width="3" points="1125,-36 832,-36 832,0 1125,0 1125,-36"/>
<text text-anchor="middle" x="978.5" y="-11.8" font-family="Times,serif" font-size="24.00" fill="#000000">Continous Deployment</text>
</g>
</g>
</svg>
