<?xml version="1.0" encoding="UTF-8" standalone="no"?>
<!DOCTYPE svg PUBLIC "-//W3C//DTD SVG 1.1//EN"
 "http://www.w3.org/Graphics/SVG/1.1/DTD/svg11.dtd">
<!-- Generated by graphviz version 2.40.1 (20161225.0304)
 -->
<!-- Title: G Pages: 1 -->
<svg width="585pt" height="260pt"
 viewBox="0.00 0.00 584.50 260.00" xmlns="http://www.w3.org/2000/svg" xmlns:xlink="http://www.w3.org/1999/xlink">
<g id="graph0" class="graph" transform="scale(1 1) rotate(0) translate(4 256)">
<title>G</title>
<polygon fill="#ffffff" stroke="transparent" points="-4,4 -4,-256 580.5,-256 580.5,4 -4,4"/>
<!-- Automated Testing -->
<g id="node1" class="node">
<title>Automated Testing</title>
<polygon fill="#d3d3d3" stroke="#000000" stroke-width="3" points="249.5,-252 4.5,-252 4.5,-216 249.5,-216 249.5,-252"/>
<text text-anchor="middle" x="127" y="-227.8" font-family="Times,serif" font-size="24.00" fill="#000000">Automated Testing</text>
</g>
<!-- Exploratory Testing -->
<g id="node2" class="node">
<title>Exploratory Testing</title>
<polygon fill="#d3d3d3" stroke="#000000" stroke-width="3" points="254,-180 0,-180 0,-144 254,-144 254,-180"/>
<text text-anchor="middle" x="127" y="-155.8" font-family="Times,serif" font-size="24.00" fill="#000000">Exploratory Testing</text>
</g>
<!-- Automated Testing&#45;&gt;Exploratory Testing -->
<g id="edge2" class="edge">
<title>Automated Testing&#45;&gt;Exploratory Testing</title>
<g id="a_edge2"><a xlink:title="Automated Testing &#160;better together with &#160;Exploratory Testing">
<path fill="none" stroke="#8628d7" d="M121.0476,-215.8314C120.2972,-208.131 120.0763,-198.9743 120.3849,-190.4166"/>
<polygon fill="#8628d7" stroke="#8628d7" points="123.8792,-190.6161 121.024,-180.4133 116.8935,-190.1697 123.8792,-190.6161"/>
</a>
</g>
</g>
<!-- Continuous Integration -->
<g id="node3" class="node">
<title>Continuous Integration</title>
<polygon fill="#d3d3d3" stroke="#000000" stroke-width="3" points="572,-180 272,-180 272,-144 572,-144 572,-180"/>
<text text-anchor="middle" x="422" y="-155.8" font-family="Times,serif" font-size="24.00" fill="#000000">Continuous Integration</text>
</g>
<!-- Automated Testing&#45;&gt;Continuous Integration -->
<g id="edge1" class="edge">
<title>Automated Testing&#45;&gt;Continuous Integration</title>
<g id="a_edge1"><a xlink:title="Automated Testing &#160;reduces the failure rate of &#160;Continuous Integration">
<path fill="none" stroke="#d78628" d="M201.0602,-215.9243C242.7826,-205.7412 295.0303,-192.9892 338.2413,-182.4428"/>
<polygon fill="#d78628" stroke="#d78628" points="339.2803,-185.792 348.1653,-180.0207 337.6205,-178.9916 339.2803,-185.792"/>
</a>
</g>
</g>
<!-- Exploratory Testing&#45;&gt;Automated Testing -->
<g id="edge3" class="edge">
<title>Exploratory Testing&#45;&gt;Automated Testing</title>
<g id="a_edge3"><a xlink:title="Exploratory Testing &#160;better together with &#160;Automated Testing">
<path fill="none" stroke="#8628d7" d="M132.976,-180.4133C133.7071,-188.0593 133.9203,-197.1084 133.6155,-205.5726"/>
<polygon fill="#8628d7" stroke="#8628d7" points="130.1048,-205.6264 132.9524,-215.8314 137.0902,-206.078 130.1048,-205.6264"/>
</a>
</g>
</g>
<!-- Continuous Delivery -->
<g id="node4" class="node">
<title>Continuous Delivery</title>
<polygon fill="#d3d3d3" stroke="#000000" stroke-width="3" points="554,-108 290,-108 290,-72 554,-72 554,-108"/>
<text text-anchor="middle" x="422" y="-83.8" font-family="Times,serif" font-size="24.00" fill="#000000">Continuous Delivery</text>
</g>
<!-- Continuous Integration&#45;&gt;Continuous Delivery -->
<g id="edge4" class="edge">
<title>Continuous Integration&#45;&gt;Continuous Delivery</title>
<g id="a_edge4"><a xlink:title="Continuous Integration &#160;enables &#160;&#160;Continuous Delivery">
<path fill="none" stroke="#28d786" d="M422,-143.8314C422,-136.131 422,-126.9743 422,-118.4166"/>
<polygon fill="#28d786" stroke="#28d786" points="425.5001,-118.4132 422,-108.4133 418.5001,-118.4133 425.5001,-118.4132"/>
</a>
</g>
</g>
<!-- Continuous Deployment -->
<g id="node5" class="node">
<title>Continuous Deployment</title>
<polygon fill="#d3d3d3" stroke="#000000" stroke-width="3" points="576.5,-36 267.5,-36 267.5,0 576.5,0 576.5,-36"/>
<text text-anchor="middle" x="422" y="-11.8" font-family="Times,serif" font-size="24.00" fill="#000000">Continuous Deployment</text>
</g>
<!-- Continuous Delivery&#45;&gt;Continuous Deployment -->
<g id="edge5" class="edge">
<title>Continuous Delivery&#45;&gt;Continuous Deployment</title>
<g id="a_edge5"><a xlink:title="Continuous Delivery &#160;enables &#160;&#160;Continuous Deployment">
<path fill="none" stroke="#28d786" d="M422,-71.8314C422,-64.131 422,-54.9743 422,-46.4166"/>
<polygon fill="#28d786" stroke="#28d786" points="425.5001,-46.4132 422,-36.4133 418.5001,-46.4133 425.5001,-46.4132"/>
</a>
</g>
</g>
</g>
</svg>
