<?xml version="1.0" encoding="UTF-8" standalone="no"?>
<!DOCTYPE svg PUBLIC "-//W3C//DTD SVG 1.1//EN"
 "http://www.w3.org/Graphics/SVG/1.1/DTD/svg11.dtd">
<!-- Generated by graphviz version 2.40.1 (20161225.0304)
 -->
<!-- Title: G Pages: 1 -->
<svg width="2917pt" height="122pt"
 viewBox="0.00 0.00 2916.96 122.10" xmlns="http://www.w3.org/2000/svg" xmlns:xlink="http://www.w3.org/1999/xlink">
<g id="graph0" class="graph" transform="scale(1 1) rotate(0) translate(4 118.0997)">
<title>G</title>
<polygon fill="#ffffff" stroke="transparent" points="-4,4 -4,-118.0997 2912.9593,-118.0997 2912.9593,4 -4,4"/>
<!-- Automated Testing -->
<g id="node1" class="node">
<title>Automated Testing</title>
<polygon fill="#2f28d7" stroke="#000000" stroke-width="3" points="1318.7596,-66.0161 1330.0622,-66.148 1341.248,-66.3455 1352.2712,-66.6079 1363.0871,-66.9345 1373.6525,-67.3246 1383.9256,-67.7769 1393.8665,-68.2902 1403.4373,-68.8633 1412.6026,-69.4943 1421.3292,-70.1817 1429.587,-70.9236 1437.3482,-71.7179 1444.5884,-72.5625 1451.2861,-73.4549 1457.4229,-74.3929 1462.9837,-75.3738 1467.9565,-76.3949 1472.3325,-77.4534 1476.1062,-78.5465 1479.2752,-79.6711 1481.84,-80.8241 1483.8042,-82.0024 1485.1742,-83.2028 1485.959,-84.4219 1486.1701,-85.6565 1485.8215,-86.9031 1484.9291,-88.1584 1483.5108,-89.4188 1481.5862,-90.6809 1479.1765,-91.9414 1476.3039,-93.1966 1472.9917,-94.4432 1469.2642,-95.6778 1465.146,-96.8969 1460.662,-98.0973 1455.8373,-99.2756 1450.6969,-100.4287 1445.2654,-101.5533 1439.5672,-102.6463 1433.6256,-103.7049 1427.4634,-104.726 1421.1023,-105.7068 1414.5631,-106.6448 1407.8654,-107.5373 1401.0276,-108.3818 1394.0666,-109.1761 1386.9983,-109.918 1379.8372,-110.6054 1372.5966,-111.2365 1365.2882,-111.8095 1357.9229,-112.3229 1350.5103,-112.7752 1343.0589,-113.1652 1335.5764,-113.4919 1328.0696,-113.7543 1320.5446,-113.9517 1313.007,-114.0837 1305.462,-114.1497 1297.9146,-114.1497 1290.3697,-114.0837 1282.8321,-113.9517 1275.3071,-113.7543 1267.8003,-113.4919 1260.3178,-113.1652 1252.8664,-112.7752 1245.4538,-112.3229 1238.0885,-111.8095 1230.7801,-111.2365 1223.5394,-110.6054 1216.3784,-109.918 1209.3101,-109.1761 1202.3491,-108.3818 1195.5112,-107.5373 1188.8135,-106.6448 1182.2744,-105.7068 1175.9133,-104.726 1169.7511,-103.7049 1163.8095,-102.6463 1158.1112,-101.5533 1152.6798,-100.4287 1147.5394,-99.2756 1142.7147,-98.0973 1138.2307,-96.8969 1134.1125,-95.6778 1130.3849,-94.4432 1127.0728,-93.1966 1124.2002,-91.9414 1121.7905,-90.6809 1119.8659,-89.4188 1118.4476,-88.1584 1117.5552,-86.9031 1117.2065,-85.6565 1117.4177,-84.4219 1118.2025,-83.2028 1119.5725,-82.0024 1121.5367,-80.8241 1124.1015,-79.6711 1127.2705,-78.5465 1131.0442,-77.4534 1135.4202,-76.3949 1140.393,-75.3738 1145.9537,-74.3929 1152.0905,-73.4549 1158.7882,-72.5625 1166.0285,-71.7179 1173.7897,-70.9236 1182.0474,-70.1817 1190.7741,-69.4943 1199.9394,-68.8633 1209.5102,-68.2902 1219.4511,-67.7769 1229.7242,-67.3246 1240.2896,-66.9345 1251.1055,-66.6079 1262.1287,-66.3455 1273.3144,-66.148 1284.617,-66.0161 1295.9901,-65.95 1307.3866,-65.95 1318.7596,-66.0161"/>
<text text-anchor="middle" x="1301.6883" y="-83.8499" font-family="Times,serif" font-size="24.00" fill="#ffffff">Automated Testing</text>
</g>
<!-- Exploratory Testing -->
<g id="node5" class="node">
<title>Exploratory Testing</title>
<polygon fill="#2f28d7" stroke="#000000" stroke-width="3" points="1765.7643,-66.0161 1777.4685,-66.148 1789.0517,-66.3455 1800.4665,-66.6079 1811.6668,-66.9345 1822.6076,-67.3246 1833.2457,-67.7769 1843.5397,-68.2902 1853.4506,-68.8633 1862.9415,-69.4943 1871.9783,-70.1817 1880.5294,-70.9236 1888.5664,-71.7179 1896.0639,-72.5625 1902.9995,-73.4549 1909.3544,-74.3929 1915.1127,-75.3738 1920.2622,-76.3949 1924.7937,-77.4534 1928.7015,-78.5465 1931.983,-79.6711 1934.639,-80.8241 1936.673,-82.0024 1938.0916,-83.2028 1938.9043,-84.4219 1939.123,-85.6565 1938.762,-86.9031 1937.8378,-88.1584 1936.3691,-89.4188 1934.3762,-90.6809 1931.8808,-91.9414 1928.9061,-93.1966 1925.4763,-94.4432 1921.6164,-95.6778 1917.3518,-96.8969 1912.7085,-98.0973 1907.7124,-99.2756 1902.3893,-100.4287 1896.7649,-101.5533 1890.8642,-102.6463 1884.7115,-103.7049 1878.3303,-104.726 1871.7433,-105.7068 1864.9718,-106.6448 1858.0361,-107.5373 1850.9553,-108.3818 1843.747,-109.1761 1836.4275,-109.918 1829.012,-110.6054 1821.5141,-111.2365 1813.946,-111.8095 1806.3191,-112.3229 1798.6431,-112.7752 1790.9269,-113.1652 1783.1786,-113.4919 1775.405,-113.7543 1767.6127,-113.9517 1759.8073,-114.0837 1751.9943,-114.1497 1744.1787,-114.1497 1736.3656,-114.0837 1728.5602,-113.9517 1720.7679,-113.7543 1712.9944,-113.4919 1705.246,-113.1652 1697.5299,-112.7752 1689.8539,-112.3229 1682.2269,-111.8095 1674.6589,-111.2365 1667.1609,-110.6054 1659.7454,-109.918 1652.426,-109.1761 1645.2177,-108.3818 1638.1368,-107.5373 1631.2012,-106.6448 1624.4297,-105.7068 1617.8426,-104.726 1611.4614,-103.7049 1605.3087,-102.6463 1599.408,-101.5533 1593.7836,-100.4287 1588.4606,-99.2756 1583.4645,-98.0973 1578.8211,-96.8969 1574.5565,-95.6778 1570.6966,-94.4432 1567.2668,-93.1966 1564.2921,-91.9414 1561.7967,-90.6809 1559.8038,-89.4188 1558.3351,-88.1584 1557.411,-86.9031 1557.0499,-85.6565 1557.2686,-84.4219 1558.0813,-83.2028 1559.5,-82.0024 1561.534,-80.8241 1564.1899,-79.6711 1567.4715,-78.5465 1571.3792,-77.4534 1575.9107,-76.3949 1581.0602,-75.3738 1586.8185,-74.3929 1593.1734,-73.4549 1600.1091,-72.5625 1607.6065,-71.7179 1615.6436,-70.9236 1624.1947,-70.1817 1633.2314,-69.4943 1642.7223,-68.8633 1652.6332,-68.2902 1662.9273,-67.7769 1673.5654,-67.3246 1684.5062,-66.9345 1695.7064,-66.6079 1707.1212,-66.3455 1718.7044,-66.148 1730.4086,-66.0161 1742.1857,-65.95 1753.9872,-65.95 1765.7643,-66.0161"/>
<text text-anchor="middle" x="1748.0865" y="-83.8499" font-family="Times,serif" font-size="24.00" fill="#ffffff">Exploratory Testing</text>
</g>
<!-- Automated Testing&#45;&gt;Exploratory Testing -->
<g id="edge2" class="edge">
<title>Automated Testing&#45;&gt;Exploratory Testing</title>
<g id="a_edge2"><a xlink:title="Automated Testing &#160;better together with &#160;Exploratory Testing">
<path fill="none" stroke="#d0d728" d="M1485.5104,-83.3941C1506.0597,-83.2948 1527.0688,-83.274 1547.8111,-83.3316"/>
<polygon fill="#d0d728" stroke="#d0d728" points="1547.9572,-86.832 1557.9691,-83.3662 1547.9811,-79.8321 1547.9572,-86.832"/>
</a>
</g>
</g>
<!-- Continuous Integration -->
<g id="node6" class="node">
<title>Continuous Integration</title>
<polygon fill="#2f28d7" stroke="#000000" stroke-width="3" points="1768.9825,-.0161 1782.8175,-.148 1796.5094,-.3455 1810.0022,-.6079 1823.2415,-.9345 1836.174,-1.3246 1848.7488,-1.7769 1860.9169,-2.2902 1872.632,-2.8633 1883.8508,-3.4943 1894.5326,-4.1817 1904.6404,-4.9236 1914.1406,-5.7179 1923.003,-6.5625 1931.2013,-7.4549 1938.713,-8.3929 1945.5197,-9.3738 1951.6066,-10.3949 1956.963,-11.4534 1961.5822,-12.5465 1965.4612,-13.6711 1968.6006,-14.8241 1971.0049,-16.0024 1972.6819,-17.2028 1973.6425,-18.4219 1973.901,-19.6565 1973.4742,-20.9031 1972.3818,-22.1584 1970.6458,-23.4188 1968.29,-24.6809 1965.3404,-25.9414 1961.8242,-27.1966 1957.77,-28.4432 1953.2073,-29.6778 1948.1664,-30.8969 1942.6777,-32.0973 1936.7721,-33.2756 1930.48,-34.4287 1923.8317,-35.5533 1916.8567,-36.6463 1909.5839,-37.7049 1902.0411,-38.726 1894.2548,-39.7068 1886.2506,-40.6448 1878.0523,-41.5373 1869.6824,-42.3818 1861.1618,-43.1761 1852.5099,-43.918 1843.7444,-44.6054 1834.8815,-45.2365 1825.9357,-45.8095 1816.9202,-46.3229 1807.8468,-46.7752 1798.726,-47.1652 1789.5671,-47.4919 1780.3784,-47.7543 1771.1674,-47.9517 1761.9411,-48.0837 1752.7057,-48.1497 1743.4673,-48.1497 1734.2319,-48.0837 1725.0055,-47.9517 1715.7946,-47.7543 1706.6059,-47.4919 1697.4469,-47.1652 1688.3261,-46.7752 1679.2527,-46.3229 1670.2372,-45.8095 1661.2914,-45.2365 1652.4285,-44.6054 1643.663,-43.918 1635.0111,-43.1761 1626.4905,-42.3818 1618.1206,-41.5373 1609.9223,-40.6448 1601.9181,-39.7068 1594.1319,-38.726 1586.589,-37.7049 1579.3162,-36.6463 1572.3413,-35.5533 1565.6929,-34.4287 1559.4009,-33.2756 1553.4952,-32.0973 1548.0066,-30.8969 1542.9656,-29.6778 1538.403,-28.4432 1534.3488,-27.1966 1530.8326,-25.9414 1527.8829,-24.6809 1525.5272,-23.4188 1523.7911,-22.1584 1522.6987,-20.9031 1522.272,-19.6565 1522.5304,-18.4219 1523.4911,-17.2028 1525.168,-16.0024 1527.5723,-14.8241 1530.7118,-13.6711 1534.5907,-12.5465 1539.2099,-11.4534 1544.5664,-10.3949 1550.6533,-9.3738 1557.4599,-8.3929 1564.9717,-7.4549 1573.17,-6.5625 1582.0323,-5.7179 1591.5325,-4.9236 1601.6403,-4.1817 1612.3222,-3.4943 1623.5409,-2.8633 1635.256,-2.2902 1647.4241,-1.7769 1659.9989,-1.3246 1672.9314,-.9345 1686.1707,-.6079 1699.6636,-.3455 1713.3555,-.148 1727.1904,-.0161 1741.1115,.05 1755.0614,.05 1768.9825,-.0161"/>
<text text-anchor="middle" x="1748.0865" y="-17.8499" font-family="Times,serif" font-size="24.00" fill="#ffffff">Continuous Integration</text>
</g>
<!-- Automated Testing&#45;&gt;Continuous Integration -->
<g id="edge1" class="edge">
<title>Automated Testing&#45;&gt;Continuous Integration</title>
<g id="a_edge1"><a xlink:title="Automated Testing &#160;reduces the failure rate of &#160;Continuous Integration">
<path fill="none" stroke="#d72879" d="M1429.3468,-70.8659C1459.7657,-66.3163 1492.1218,-61.4945 1522.1792,-57.0499 1551.7704,-52.6742 1583.5476,-48.0105 1613.6502,-43.6088"/>
<polygon fill="#d72879" stroke="#d72879" points="1614.4004,-47.0364 1623.7891,-42.1269 1613.388,-40.11 1614.4004,-47.0364"/>
</a>
</g>
</g>
<!-- Unit Testing -->
<g id="node2" class="node">
<title>Unit Testing</title>
<polygon fill="#2f28d7" stroke="#000000" stroke-width="3" points="1313.2558,-.0161 1320.9144,-.148 1328.4938,-.3455 1335.963,-.6079 1343.2919,-.9345 1350.4509,-1.3246 1357.4119,-1.7769 1364.1478,-2.2902 1370.633,-2.8633 1376.8433,-3.4943 1382.7564,-4.1817 1388.3518,-4.9236 1393.6108,-5.7179 1398.5168,-6.5625 1403.0551,-7.4549 1407.2134,-8.3929 1410.9813,-9.3738 1414.3508,-10.3949 1417.316,-11.4534 1419.8731,-12.5465 1422.0203,-13.6711 1423.7582,-14.8241 1425.0892,-16.0024 1426.0175,-17.2028 1426.5493,-18.4219 1426.6923,-19.6565 1426.4561,-20.9031 1425.8514,-22.1584 1424.8904,-23.4188 1423.5863,-24.6809 1421.9535,-25.9414 1420.007,-27.1966 1417.7627,-28.4432 1415.237,-29.6778 1412.4465,-30.8969 1409.4081,-32.0973 1406.1389,-33.2756 1402.6558,-34.4287 1398.9755,-35.5533 1395.1144,-36.6463 1391.0884,-37.7049 1386.9129,-38.726 1382.6027,-39.7068 1378.1718,-40.6448 1373.6334,-41.5373 1369.0001,-42.3818 1364.2834,-43.1761 1359.494,-43.918 1354.6417,-44.6054 1349.7354,-45.2365 1344.7833,-45.8095 1339.7926,-46.3229 1334.7699,-46.7752 1329.7208,-47.1652 1324.6507,-47.4919 1319.5641,-47.7543 1314.4652,-47.9517 1309.3578,-48.0837 1304.2454,-48.1497 1299.1313,-48.1497 1294.0189,-48.0837 1288.9114,-47.9517 1283.8125,-47.7543 1278.726,-47.4919 1273.6558,-47.1652 1268.6068,-46.7752 1263.5841,-46.3229 1258.5934,-45.8095 1253.6413,-45.2365 1248.735,-44.6054 1243.8827,-43.918 1239.0933,-43.1761 1234.3766,-42.3818 1229.7432,-41.5373 1225.2049,-40.6448 1220.774,-39.7068 1216.4638,-38.726 1212.2883,-37.7049 1208.2623,-36.6463 1204.4012,-35.5533 1200.7209,-34.4287 1197.2378,-33.2756 1193.9686,-32.0973 1190.9302,-30.8969 1188.1397,-29.6778 1185.614,-28.4432 1183.3697,-27.1966 1181.4232,-25.9414 1179.7904,-24.6809 1178.4863,-23.4188 1177.5253,-22.1584 1176.9206,-20.9031 1176.6843,-19.6565 1176.8274,-18.4219 1177.3592,-17.2028 1178.2875,-16.0024 1179.6184,-14.8241 1181.3563,-13.6711 1183.5036,-12.5465 1186.0607,-11.4534 1189.0258,-10.3949 1192.3953,-9.3738 1196.1633,-8.3929 1200.3216,-7.4549 1204.8599,-6.5625 1209.7659,-5.7179 1215.0248,-4.9236 1220.6202,-4.1817 1226.5334,-3.4943 1232.7437,-2.8633 1239.2289,-2.2902 1245.9648,-1.7769 1252.9257,-1.3246 1260.0848,-.9345 1267.4137,-.6079 1274.8829,-.3455 1282.4623,-.148 1290.1209,-.0161 1297.8272,.05 1305.5495,.05 1313.2558,-.0161"/>
<text text-anchor="middle" x="1301.6883" y="-17.8499" font-family="Times,serif" font-size="24.00" fill="#ffffff">Unit Testing</text>
</g>
<!-- Unit Testing&#45;&gt;Continuous Integration -->
<g id="edge3" class="edge">
<title>Unit Testing&#45;&gt;Continuous Integration</title>
<g id="a_edge3"><a xlink:title="Unit Testing &#160;enables &#160;&#160;Continuous Integration">
<path fill="none" stroke="#28d786" d="M1424.259,-24.0499C1452.906,-24.0499 1484.3502,-24.0499 1516.0326,-24.0499"/>
<polygon fill="#28d786" stroke="#28d786" points="1516.3242,-27.55 1526.3242,-24.0499 1516.3242,-20.55 1516.3242,-27.55"/>
</a>
</g>
</g>
<!-- Agile Work ( Kanban/Scrum ) -->
<g id="node3" class="node">
<title>Agile Work ( Kanban/Scrum )</title>
<polygon fill="#2f28d7" stroke="#000000" stroke-width="3" points="304.4123,-33.0161 321.4897,-33.148 338.3905,-33.3455 355.0457,-33.6079 371.3878,-33.9345 387.3513,-34.3246 402.8731,-34.7769 417.893,-35.2902 432.3538,-35.8633 446.2018,-36.4943 459.3871,-37.1817 471.8639,-37.9236 483.5906,-38.7179 494.53,-39.5625 504.6497,-40.4549 513.922,-41.3929 522.3239,-42.3738 529.8373,-43.3949 536.4492,-44.4534 542.151,-45.5465 546.939,-46.6711 550.8142,-47.8241 553.782,-49.0024 555.852,-50.2028 557.0378,-51.4219 557.3568,-52.6565 556.83,-53.9031 555.4817,-55.1584 553.3387,-56.4188 550.4308,-57.6809 546.7899,-58.9414 542.4496,-60.1966 537.4452,-61.4432 531.8132,-62.6778 525.5909,-63.8969 518.8159,-65.0973 511.5261,-66.2756 503.7594,-67.4287 495.5529,-68.5533 486.9433,-69.6463 477.966,-70.7049 468.6553,-71.726 459.0443,-72.7068 449.1641,-73.6448 439.0444,-74.5373 428.7129,-75.3818 418.1954,-76.1761 407.5158,-76.918 396.6959,-77.6054 385.7558,-78.2365 374.7134,-78.8095 363.585,-79.3229 352.3851,-79.7752 341.1267,-80.1652 329.8212,-80.4919 318.479,-80.7543 307.1093,-80.9517 295.7206,-81.0837 284.3207,-81.1497 272.9171,-81.1497 261.5173,-81.0837 250.1286,-80.9517 238.7589,-80.7543 227.4167,-80.4919 216.1112,-80.1652 204.8527,-79.7752 193.6528,-79.3229 182.5244,-78.8095 171.482,-78.2365 160.5419,-77.6054 149.7221,-76.918 139.0425,-76.1761 128.525,-75.3818 118.1934,-74.5373 108.0737,-73.6448 98.1936,-72.7068 88.5825,-71.726 79.2719,-70.7049 70.2945,-69.6463 61.6849,-68.5533 53.4784,-67.4287 45.7117,-66.2756 38.422,-65.0973 31.647,-63.8969 25.4246,-62.6778 19.7926,-61.4432 14.7882,-60.1966 10.4479,-58.9414 6.807,-57.6809 3.8991,-56.4188 1.7562,-55.1584 .4078,-53.9031 -.119,-52.6565 .2001,-51.4219 1.3858,-50.2028 3.4558,-49.0024 6.4236,-47.8241 10.2988,-46.6711 15.0869,-45.5465 20.7886,-44.4534 27.4005,-43.3949 34.9139,-42.3738 43.3158,-41.3929 52.5881,-40.4549 62.7078,-39.5625 73.6472,-38.7179 85.3739,-37.9236 97.8507,-37.1817 111.036,-36.4943 124.884,-35.8633 139.3448,-35.2902 154.3647,-34.7769 169.8865,-34.3246 185.8501,-33.9345 202.1921,-33.6079 218.8473,-33.3455 235.7481,-33.148 252.8255,-33.0161 270.0093,-32.95 287.2286,-32.95 304.4123,-33.0161"/>
<text text-anchor="middle" x="278.6189" y="-50.8499" font-family="Times,serif" font-size="24.00" fill="#ffffff">Agile Work ( Kanban/Scrum )</text>
</g>
<!-- Test Driven Development -->
<g id="node4" class="node">
<title>Test Driven Development</title>
<polygon fill="#2f28d7" stroke="#000000" stroke-width="3" points="859.7928,-33.0161 874.7394,-33.148 889.5315,-33.3455 904.1086,-33.6079 918.4117,-33.9345 932.3834,-34.3246 945.9686,-34.7769 959.1144,-35.2902 971.771,-35.8633 983.8911,-36.4943 995.4313,-37.1817 1006.3514,-37.9236 1016.6149,-38.7179 1026.1894,-39.5625 1035.0465,-40.4549 1043.1618,-41.3929 1050.5154,-42.3738 1057.0914,-43.3949 1062.8783,-44.4534 1067.8686,-45.5465 1072.0593,-46.6711 1075.451,-47.8241 1078.0485,-49.0024 1079.8602,-50.2028 1080.898,-51.4219 1081.1772,-52.6565 1080.7162,-53.9031 1079.5361,-55.1584 1077.6605,-56.4188 1075.1154,-57.6809 1071.9288,-58.9414 1068.13,-60.1966 1063.7501,-61.4432 1058.8208,-62.6778 1053.3748,-63.8969 1047.4451,-65.0973 1041.0649,-66.2756 1034.2672,-67.4287 1027.0847,-68.5533 1019.5493,-69.6463 1011.6921,-70.7049 1003.5431,-71.726 995.1312,-72.7068 986.4838,-73.6448 977.6267,-74.5373 968.5843,-75.3818 959.3791,-76.1761 950.032,-76.918 940.5621,-77.6054 930.987,-78.2365 921.3224,-78.8095 911.5825,-79.3229 901.78,-79.7752 891.9263,-80.1652 882.0314,-80.4919 872.1043,-80.7543 862.1532,-80.9517 852.1855,-81.0837 842.208,-81.1497 832.2273,-81.1497 822.2498,-81.0837 812.282,-80.9517 802.3309,-80.7543 792.4039,-80.4919 782.509,-80.1652 772.6553,-79.7752 762.8528,-79.3229 753.1129,-78.8095 743.4483,-78.2365 733.8731,-77.6054 724.4033,-76.918 715.0562,-76.1761 705.851,-75.3818 696.8085,-74.5373 687.9515,-73.6448 679.304,-72.7068 670.8921,-71.726 662.7432,-70.7049 654.886,-69.6463 647.3506,-68.5533 640.168,-67.4287 633.3704,-66.2756 626.9902,-65.0973 621.0605,-63.8969 615.6145,-62.6778 610.6852,-61.4432 606.3052,-60.1966 602.5065,-58.9414 599.3198,-57.6809 596.7748,-56.4188 594.8992,-55.1584 593.7191,-53.9031 593.258,-52.6565 593.5372,-51.4219 594.5751,-50.2028 596.3868,-49.0024 598.9843,-47.8241 602.376,-46.6711 606.5666,-45.5465 611.557,-44.4534 617.3438,-43.3949 623.9199,-42.3738 631.2734,-41.3929 639.3888,-40.4549 648.2459,-39.5625 657.8204,-38.7179 668.0839,-37.9236 679.0039,-37.1817 690.5441,-36.4943 702.6643,-35.8633 715.3208,-35.2902 728.4667,-34.7769 742.0519,-34.3246 756.0236,-33.9345 770.3267,-33.6079 784.9038,-33.3455 799.6958,-33.148 814.6425,-33.0161 829.6822,-32.95 844.7531,-32.95 859.7928,-33.0161"/>
<text text-anchor="middle" x="837.2176" y="-50.8499" font-family="Times,serif" font-size="24.00" fill="#ffffff">Test Driven Development</text>
</g>
<!-- Agile Work ( Kanban/Scrum )&#45;&gt;Test Driven Development -->
<g id="edge4" class="edge">
<title>Agile Work ( Kanban/Scrum )&#45;&gt;Test Driven Development</title>
<g id="a_edge4"><a xlink:title="Agile Work ( Kanban/Scrum ) &#160;reduces the failure rate of &#160;Test Driven Development">
<path fill="none" stroke="#d72879" d="M552.1908,-57.0499C563.9499,-57.0499 575.7226,-57.0499 587.4253,-57.0499"/>
<polygon fill="#d72879" stroke="#d72879" points="587.6895,-60.55 597.6895,-57.0499 587.6894,-53.55 587.6895,-60.55"/>
</a>
</g>
</g>
<!-- Test Driven Development&#45;&gt;Automated Testing -->
<g id="edge6" class="edge">
<title>Test Driven Development&#45;&gt;Automated Testing</title>
<g id="a_edge6"><a xlink:title="Test Driven Development &#160;reduces the failure rate of &#160;Automated Testing">
<path fill="none" stroke="#d72879" d="M1018.1241,-69.903C1051.3648,-72.2647 1086.0824,-74.7314 1119.3644,-77.096"/>
<polygon fill="#d72879" stroke="#d72879" points="1119.4211,-80.6088 1129.644,-77.8264 1119.9173,-73.6264 1119.4211,-80.6088"/>
</a>
</g>
</g>
<!-- Test Driven Development&#45;&gt;Unit Testing -->
<g id="edge5" class="edge">
<title>Test Driven Development&#45;&gt;Unit Testing</title>
<g id="a_edge5"><a xlink:title="Test Driven Development &#160;reduces the failure rate of &#160;Unit Testing">
<path fill="none" stroke="#d72879" d="M1048.3871,-42.0466C1094.5465,-38.767 1141.8251,-35.4079 1182.8478,-32.4933"/>
<polygon fill="#d72879" stroke="#d72879" points="1183.1366,-35.9817 1192.8633,-31.7817 1182.6404,-28.9993 1183.1366,-35.9817"/>
</a>
</g>
</g>
<!-- Exploratory Testing&#45;&gt;Automated Testing -->
<g id="edge7" class="edge">
<title>Exploratory Testing&#45;&gt;Automated Testing</title>
<g id="a_edge7"><a xlink:title="Exploratory Testing &#160;better together with &#160;Automated Testing">
<path fill="none" stroke="#d0d728" d="M1577.6072,-96.6296C1544.5255,-96.847 1509.8049,-96.8562 1476.5838,-96.6574"/>
<polygon fill="#d0d728" stroke="#d0d728" points="1476.3486,-93.1558 1466.3254,-96.589 1476.3019,-100.1557 1476.3486,-93.1558"/>
</a>
</g>
</g>
<!-- Continuous Delivery -->
<g id="node7" class="node">
<title>Continuous Delivery</title>
<polygon fill="#2f28d7" stroke="#000000" stroke-width="3" points="2227.1695,-.0161 2239.3369,-.148 2251.3785,-.3455 2263.2451,-.6079 2274.8886,-.9345 2286.2624,-1.3246 2297.3215,-1.7769 2308.023,-2.2902 2318.3261,-2.8633 2328.1926,-3.4943 2337.5869,-4.1817 2346.4765,-4.9236 2354.8316,-5.7179 2362.6258,-6.5625 2369.8359,-7.4549 2376.4423,-8.3929 2382.4285,-9.3738 2387.7818,-10.3949 2392.4926,-11.4534 2396.555,-12.5465 2399.9664,-13.6711 2402.7275,-14.8241 2404.842,-16.0024 2406.3168,-17.2028 2407.1617,-18.4219 2407.389,-19.6565 2407.0137,-20.9031 2406.053,-22.1584 2404.5261,-23.4188 2402.4543,-24.6809 2399.8602,-25.9414 2396.7678,-27.1966 2393.2023,-28.4432 2389.1895,-29.6778 2384.7562,-30.8969 2379.9291,-32.0973 2374.7353,-33.2756 2369.2016,-34.4287 2363.3546,-35.5533 2357.2203,-36.6463 2350.8241,-37.7049 2344.1904,-38.726 2337.3427,-39.7068 2330.3032,-40.6448 2323.093,-41.5373 2315.7319,-42.3818 2308.2384,-43.1761 2300.6293,-43.918 2292.9203,-44.6054 2285.1256,-45.2365 2277.2581,-45.8095 2269.3292,-46.3229 2261.3495,-46.7752 2253.328,-47.1652 2245.273,-47.4919 2237.1918,-47.7543 2229.091,-47.9517 2220.9767,-48.0837 2212.8545,-48.1497 2204.7296,-48.1497 2196.6074,-48.0837 2188.4931,-47.9517 2180.3923,-47.7543 2172.3111,-47.4919 2164.2561,-47.1652 2156.2346,-46.7752 2148.2549,-46.3229 2140.326,-45.8095 2132.4585,-45.2365 2124.6638,-44.6054 2116.9548,-43.918 2109.3457,-43.1761 2101.8522,-42.3818 2094.4911,-41.5373 2087.2809,-40.6448 2080.2415,-39.7068 2073.3937,-38.726 2066.76,-37.7049 2060.3638,-36.6463 2054.2295,-35.5533 2048.3825,-34.4287 2042.8488,-33.2756 2037.655,-32.0973 2032.8279,-30.8969 2028.3946,-29.6778 2024.3818,-28.4432 2020.8163,-27.1966 2017.7239,-25.9414 2015.1298,-24.6809 2013.058,-23.4188 2011.5311,-22.1584 2010.5704,-20.9031 2010.1951,-19.6565 2010.4224,-18.4219 2011.2673,-17.2028 2012.7421,-16.0024 2014.8566,-14.8241 2017.6177,-13.6711 2021.0291,-12.5465 2025.0915,-11.4534 2029.8024,-10.3949 2035.1556,-9.3738 2041.1418,-8.3929 2047.7482,-7.4549 2054.9584,-6.5625 2062.7525,-5.7179 2071.1076,-4.9236 2079.9972,-4.1817 2089.3915,-3.4943 2099.258,-2.8633 2109.5612,-2.2902 2120.2626,-1.7769 2131.3217,-1.3246 2142.6955,-.9345 2154.339,-.6079 2166.2056,-.3455 2178.2472,-.148 2190.4146,-.0161 2202.6578,.05 2214.9263,.05 2227.1695,-.0161"/>
<text text-anchor="middle" x="2208.7921" y="-17.8499" font-family="Times,serif" font-size="24.00" fill="#ffffff">Continuous Delivery</text>
</g>
<!-- Continuous Integration&#45;&gt;Continuous Delivery -->
<g id="edge8" class="edge">
<title>Continuous Integration&#45;&gt;Continuous Delivery</title>
<g id="a_edge8"><a xlink:title="Continuous Integration &#160;enables &#160;&#160;Continuous Delivery">
<path fill="none" stroke="#28d786" d="M1969.6679,-24.0499C1980.9633,-24.0499 1992.2868,-24.0499 2003.5296,-24.0499"/>
<polygon fill="#28d786" stroke="#28d786" points="2003.8288,-27.55 2013.8288,-24.0499 2003.8288,-20.55 2003.8288,-27.55"/>
</a>
</g>
</g>
<!-- Continuous Deployment -->
<g id="node8" class="node">
<title>Continuous Deployment</title>
<polygon fill="#2f28d7" stroke="#000000" stroke-width="3" points="2697.8237,-.0161 2712.0909,-.148 2726.2105,-.3455 2740.1249,-.6079 2753.7778,-.9345 2767.1143,-1.3246 2780.0819,-1.7769 2792.6302,-2.2902 2804.7113,-2.8633 2816.2805,-3.4943 2827.296,-4.1817 2837.7196,-4.9236 2847.5166,-5.7179 2856.6558,-6.5625 2865.1102,-7.4549 2872.8567,-8.3929 2879.876,-9.3738 2886.153,-10.3949 2891.6768,-11.4534 2896.4403,-12.5465 2900.4404,-13.6711 2903.678,-14.8241 2906.1574,-16.0024 2907.8867,-17.2028 2908.8774,-18.4219 2909.1439,-19.6565 2908.7038,-20.9031 2907.5773,-22.1584 2905.787,-23.4188 2903.3577,-24.6809 2900.3159,-25.9414 2896.6898,-27.1966 2892.509,-28.4432 2887.8038,-29.6778 2882.6053,-30.8969 2876.9452,-32.0973 2870.8551,-33.2756 2864.3664,-34.4287 2857.5104,-35.5533 2850.3176,-36.6463 2842.8175,-37.7049 2835.0391,-38.726 2827.0096,-39.7068 2818.7553,-40.6448 2810.3009,-41.5373 2801.6695,-42.3818 2792.8827,-43.1761 2783.9606,-43.918 2774.9212,-44.6054 2765.7814,-45.2365 2756.5561,-45.8095 2747.259,-46.3229 2737.9022,-46.7752 2728.4964,-47.1652 2719.0513,-47.4919 2709.5756,-47.7543 2700.0769,-47.9517 2690.5623,-48.0837 2681.0384,-48.1497 2671.5114,-48.1497 2661.9874,-48.0837 2652.4728,-47.9517 2642.9741,-47.7543 2633.4984,-47.4919 2624.0533,-47.1652 2614.6475,-46.7752 2605.2907,-46.3229 2595.9936,-45.8095 2586.7683,-45.2365 2577.6285,-44.6054 2568.5891,-43.918 2559.667,-43.1761 2550.8802,-42.3818 2542.2488,-41.5373 2533.7944,-40.6448 2525.5401,-39.7068 2517.5106,-38.726 2509.7322,-37.7049 2502.2322,-36.6463 2495.0393,-35.5533 2488.1833,-34.4287 2481.6946,-33.2756 2475.6045,-32.0973 2469.9444,-30.8969 2464.746,-29.6778 2460.0408,-28.4432 2455.8599,-27.1966 2452.2339,-25.9414 2449.1921,-24.6809 2446.7627,-23.4188 2444.9724,-22.1584 2443.8459,-20.9031 2443.4058,-19.6565 2443.6724,-18.4219 2444.663,-17.2028 2446.3923,-16.0024 2448.8717,-14.8241 2452.1093,-13.6711 2456.1094,-12.5465 2460.8729,-11.4534 2466.3967,-10.3949 2472.6737,-9.3738 2479.693,-8.3929 2487.4395,-7.4549 2495.8939,-6.5625 2505.0331,-5.7179 2514.8301,-4.9236 2525.2537,-4.1817 2536.2692,-3.4943 2547.8384,-2.8633 2559.9196,-2.2902 2572.4678,-1.7769 2585.4354,-1.3246 2598.772,-.9345 2612.4248,-.6079 2626.3392,-.3455 2640.4588,-.148 2654.726,-.0161 2669.082,.05 2683.4677,.05 2697.8237,-.0161"/>
<text text-anchor="middle" x="2676.2749" y="-17.8499" font-family="Times,serif" font-size="24.00" fill="#ffffff">Continuous Deployment</text>
</g>
<!-- Continuous Delivery&#45;&gt;Continuous Deployment -->
<g id="edge9" class="edge">
<title>Continuous Delivery&#45;&gt;Continuous Deployment</title>
<g id="a_edge9"><a xlink:title="Continuous Delivery &#160;enables &#160;&#160;Continuous Deployment">
<path fill="none" stroke="#28d786" d="M2403.6617,-24.0499C2414.7869,-24.0499 2426.0329,-24.0499 2437.2951,-24.0499"/>
<polygon fill="#28d786" stroke="#28d786" points="2437.6396,-27.55 2447.6396,-24.0499 2437.6396,-20.55 2437.6396,-27.55"/>
</a>
</g>
</g>
</g>
</svg>
