<?xml version="1.0" encoding="UTF-8" standalone="no"?>
<!DOCTYPE svg PUBLIC "-//W3C//DTD SVG 1.1//EN"
 "http://www.w3.org/Graphics/SVG/1.1/DTD/svg11.dtd">
<!-- Generated by graphviz version 2.40.1 (20161225.0304)
 -->
<!-- Title: G Pages: 1 -->
<svg width="3982pt" height="813pt"
 viewBox="0.00 0.00 3981.56 813.00" xmlns="http://www.w3.org/2000/svg" xmlns:xlink="http://www.w3.org/1999/xlink">
<g id="graph0" class="graph" transform="scale(1 1) rotate(0) translate(4 808.9974)">
<title>G</title>
<polygon fill="#ffffff" stroke="transparent" points="-4,4 -4,-808.9974 3977.5594,-808.9974 3977.5594,4 -4,4"/>
<!-- Automated Testing -->
<g id="node1" class="node">
<title>Automated Testing</title>
<polygon fill="#2f28d7" stroke="#000000" stroke-width="3" points="1907.1096,-756.9138 1918.4122,-757.0457 1929.5979,-757.2431 1940.6211,-757.5056 1951.4371,-757.8322 1962.0025,-758.2223 1972.2756,-758.6746 1982.2164,-759.1879 1991.7873,-759.7609 2000.9525,-760.392 2009.6792,-761.0794 2017.9369,-761.8213 2025.6982,-762.6156 2032.9384,-763.4602 2039.6361,-764.3526 2045.7729,-765.2906 2051.3337,-766.2715 2056.3064,-767.2926 2060.6825,-768.3511 2064.4562,-769.4442 2067.6251,-770.5688 2070.1899,-771.7218 2072.1541,-772.9001 2073.5241,-774.1005 2074.3089,-775.3196 2074.5201,-776.5542 2074.1715,-777.8008 2073.279,-779.0561 2071.8607,-780.3165 2069.9362,-781.5786 2067.5264,-782.8391 2064.6538,-784.0943 2061.3417,-785.3409 2057.6142,-786.5755 2053.4959,-787.7946 2049.0119,-788.995 2044.1872,-790.1733 2039.0468,-791.3264 2033.6154,-792.451 2027.9171,-793.544 2021.9755,-794.6025 2015.8133,-795.6237 2009.4523,-796.6045 2002.9131,-797.5425 1996.2154,-798.435 1989.3775,-799.2795 1982.4165,-800.0738 1975.3483,-800.8157 1968.1872,-801.5031 1960.9465,-802.1342 1953.6381,-802.7072 1946.2728,-803.2206 1938.8602,-803.6729 1931.4088,-804.0629 1923.9263,-804.3896 1916.4195,-804.652 1908.8945,-804.8494 1901.357,-804.9814 1893.812,-805.0474 1886.2646,-805.0474 1878.7196,-804.9814 1871.182,-804.8494 1863.657,-804.652 1856.1502,-804.3896 1848.6677,-804.0629 1841.2164,-803.6729 1833.8037,-803.2206 1826.4384,-802.7072 1819.1301,-802.1342 1811.8894,-801.5031 1804.7283,-800.8157 1797.66,-800.0738 1790.6991,-799.2795 1783.8612,-798.435 1777.1635,-797.5425 1770.6243,-796.6045 1764.2633,-795.6237 1758.1011,-794.6025 1752.1595,-793.544 1746.4612,-792.451 1741.0298,-791.3264 1735.8894,-790.1733 1731.0647,-788.995 1726.5807,-787.7946 1722.4624,-786.5755 1718.7349,-785.3409 1715.4228,-784.0943 1712.5502,-782.8391 1710.1404,-781.5786 1708.2158,-780.3165 1706.7975,-779.0561 1705.9051,-777.8008 1705.5565,-776.5542 1705.7676,-775.3196 1706.5524,-774.1005 1707.9224,-772.9001 1709.8867,-771.7218 1712.4515,-770.5688 1715.6204,-769.4442 1719.3941,-768.3511 1723.7701,-767.2926 1728.7429,-766.2715 1734.3037,-765.2906 1740.4405,-764.3526 1747.1382,-763.4602 1754.3784,-762.6156 1762.1397,-761.8213 1770.3974,-761.0794 1779.1241,-760.392 1788.2893,-759.7609 1797.8601,-759.1879 1807.801,-758.6746 1818.0741,-758.2223 1828.6395,-757.8322 1839.4555,-757.5056 1850.4786,-757.2431 1861.6644,-757.0457 1872.967,-756.9138 1884.34,-756.8477 1895.7366,-756.8477 1907.1096,-756.9138"/>
<text text-anchor="middle" x="1890.0383" y="-774.7476" font-family="Times,serif" font-size="24.00" fill="#ffffff">Automated Testing</text>
</g>
<!-- Code Quality Scans -->
<g id="node3" class="node">
<title>Code Quality Scans</title>
<polygon fill="#2f28d7" stroke="#000000" stroke-width="3" points="1669.6693,-672.814 1681.3425,-672.946 1692.8949,-673.1434 1704.2795,-673.4058 1715.4501,-673.7325 1726.3619,-674.1225 1736.9718,-674.5748 1747.2386,-675.0882 1757.1232,-675.6612 1766.5889,-676.2923 1775.6017,-676.9797 1784.1302,-677.7216 1792.1459,-678.5159 1799.6235,-679.3604 1806.5408,-680.2529 1812.8788,-681.1909 1818.6219,-682.1717 1823.7577,-683.1928 1828.2772,-684.2514 1832.1746,-685.3444 1835.4474,-686.469 1838.0963,-687.622 1840.125,-688.8004 1841.5399,-690.0007 1842.3504,-691.2199 1842.5685,-692.4545 1842.2084,-693.7011 1841.2867,-694.9563 1839.8219,-696.2167 1837.8343,-697.4789 1835.3455,-698.7393 1832.3787,-699.9946 1828.958,-701.2412 1825.1083,-702.4757 1820.855,-703.6949 1816.224,-704.8953 1811.2411,-706.0736 1805.9322,-707.2266 1800.3227,-708.3512 1794.4376,-709.4443 1788.3012,-710.5028 1781.9369,-711.5239 1775.3673,-712.5048 1768.6138,-713.4427 1761.6965,-714.3352 1754.6344,-715.1798 1747.4452,-715.9741 1740.1452,-716.7159 1732.7494,-717.4034 1725.2713,-718.0344 1717.7233,-718.6074 1710.1165,-719.1208 1702.4609,-719.5731 1694.7652,-719.9632 1687.0374,-720.2898 1679.2845,-720.5522 1671.5128,-720.7497 1663.7281,-720.8816 1655.9357,-720.9477 1648.1409,-720.9477 1640.3485,-720.8816 1632.5638,-720.7497 1624.7921,-720.5522 1617.0392,-720.2898 1609.3114,-719.9632 1601.6157,-719.5731 1593.96,-719.1208 1586.3533,-718.6074 1578.8053,-718.0344 1571.3272,-717.4034 1563.9313,-716.7159 1556.6313,-715.9741 1549.4421,-715.1798 1542.3801,-714.3352 1535.4628,-713.4427 1528.7092,-712.5048 1522.1396,-711.5239 1515.7754,-710.5028 1509.639,-709.4443 1503.7539,-708.3512 1498.1444,-707.2266 1492.8355,-706.0736 1487.8526,-704.8953 1483.2216,-703.6949 1478.9683,-702.4757 1475.1186,-701.2412 1471.6979,-699.9946 1468.7311,-698.7393 1466.2423,-697.4789 1464.2546,-696.2167 1462.7898,-694.9563 1461.8682,-693.7011 1461.5081,-692.4545 1461.7262,-691.2199 1462.5367,-690.0007 1463.9516,-688.8004 1465.9802,-687.622 1468.6291,-686.469 1471.902,-685.3444 1475.7994,-684.2514 1480.3189,-683.1928 1485.4547,-682.1717 1491.1978,-681.1909 1497.5358,-680.2529 1504.4531,-679.3604 1511.9307,-678.5159 1519.9464,-677.7216 1528.4749,-676.9797 1537.4876,-676.2923 1546.9534,-675.6612 1556.838,-675.0882 1567.1048,-674.5748 1577.7147,-674.1225 1588.6265,-673.7325 1599.7971,-673.4058 1611.1816,-673.1434 1622.7341,-672.946 1634.4073,-672.814 1646.1532,-672.748 1657.9234,-672.748 1669.6693,-672.814"/>
<text text-anchor="middle" x="1652.0383" y="-690.6478" font-family="Times,serif" font-size="24.00" fill="#ffffff">Code Quality Scans</text>
</g>
<!-- Automated Testing&#45;&gt;Code Quality Scans -->
<g id="edge3" class="edge">
<title>Automated Testing&#45;&gt;Code Quality Scans</title>
<g id="a_edge3"><a xlink:title="Automated Testing &#160;better together with &#160;Code Quality Scans">
<path fill="none" stroke="#d0d728" d="M1819.2356,-758.078C1787.4824,-747.1462 1750.2492,-734.0133 1718.966,-722.7182"/>
<polygon fill="#d0d728" stroke="#d0d728" points="1720.0553,-719.3903 1709.461,-719.2763 1717.6718,-725.972 1720.0553,-719.3903"/>
</a>
</g>
</g>
<!-- Exploratory Testing -->
<g id="node11" class="node">
<title>Exploratory Testing</title>
<polygon fill="#2f28d7" stroke="#000000" stroke-width="3" points="2145.7161,-672.814 2157.4203,-672.946 2169.0035,-673.1434 2180.4183,-673.4058 2191.6186,-673.7325 2202.5594,-674.1225 2213.1975,-674.5748 2223.4916,-675.0882 2233.4024,-675.6612 2242.8933,-676.2923 2251.9301,-676.9797 2260.4812,-677.7216 2268.5182,-678.5159 2276.0157,-679.3604 2282.9514,-680.2529 2289.3062,-681.1909 2295.0646,-682.1717 2300.214,-683.1928 2304.7455,-684.2514 2308.6533,-685.3444 2311.9348,-686.469 2314.5908,-687.622 2316.6248,-688.8004 2318.0435,-690.0007 2318.8562,-691.2199 2319.0748,-692.4545 2318.7138,-693.7011 2317.7897,-694.9563 2316.321,-696.2167 2314.328,-697.4789 2311.8326,-698.7393 2308.858,-699.9946 2305.4282,-701.2412 2301.5682,-702.4757 2297.3036,-703.6949 2292.6603,-704.8953 2287.6642,-706.0736 2282.3412,-707.2266 2276.7168,-708.3512 2270.816,-709.4443 2264.6633,-710.5028 2258.2821,-711.5239 2251.6951,-712.5048 2244.9236,-713.4427 2237.9879,-714.3352 2230.9071,-715.1798 2223.6988,-715.9741 2216.3794,-716.7159 2208.9639,-717.4034 2201.4659,-718.0344 2193.8979,-718.6074 2186.2709,-719.1208 2178.5949,-719.5731 2170.8788,-719.9632 2163.1304,-720.2898 2155.3569,-720.5522 2147.5645,-720.7497 2139.7591,-720.8816 2131.9461,-720.9477 2124.1305,-720.9477 2116.3175,-720.8816 2108.5121,-720.7497 2100.7197,-720.5522 2092.9462,-720.2898 2085.1978,-719.9632 2077.4817,-719.5731 2069.8057,-719.1208 2062.1787,-718.6074 2054.6107,-718.0344 2047.1127,-717.4034 2039.6972,-716.7159 2032.3778,-715.9741 2025.1695,-715.1798 2018.0887,-714.3352 2011.153,-713.4427 2004.3815,-712.5048 1997.7944,-711.5239 1991.4133,-710.5028 1985.2606,-709.4443 1979.3598,-708.3512 1973.7354,-707.2266 1968.4124,-706.0736 1963.4163,-704.8953 1958.7729,-703.6949 1954.5084,-702.4757 1950.6484,-701.2412 1947.2186,-699.9946 1944.2439,-698.7393 1941.7486,-697.4789 1939.7556,-696.2167 1938.2869,-694.9563 1937.3628,-693.7011 1937.0018,-692.4545 1937.2204,-691.2199 1938.0331,-690.0007 1939.4518,-688.8004 1941.4858,-687.622 1944.1417,-686.469 1947.4233,-685.3444 1951.3311,-684.2514 1955.8626,-683.1928 1961.012,-682.1717 1966.7704,-681.1909 1973.1252,-680.2529 1980.0609,-679.3604 1987.5584,-678.5159 1995.5954,-677.7216 2004.1465,-676.9797 2013.1832,-676.2923 2022.6741,-675.6612 2032.585,-675.0882 2042.8791,-674.5748 2053.5172,-674.1225 2064.458,-673.7325 2075.6582,-673.4058 2087.0731,-673.1434 2098.6562,-672.946 2110.3604,-672.814 2122.1376,-672.748 2133.939,-672.748 2145.7161,-672.814"/>
<text text-anchor="middle" x="2128.0383" y="-690.6478" font-family="Times,serif" font-size="24.00" fill="#ffffff">Exploratory Testing</text>
</g>
<!-- Automated Testing&#45;&gt;Exploratory Testing -->
<g id="edge2" class="edge">
<title>Automated Testing&#45;&gt;Exploratory Testing</title>
<g id="a_edge2"><a xlink:title="Automated Testing &#160;better together with &#160;Exploratory Testing">
<path fill="none" stroke="#d0d728" d="M1949.5957,-757.7443C1980.3394,-746.593 2018.166,-733.2122 2051.0895,-721.8371"/>
<polygon fill="#d0d728" stroke="#d0d728" points="2052.3701,-725.0979 2060.6846,-718.5312 2050.0898,-718.4797 2052.3701,-725.0979"/>
</a>
</g>
</g>
<!-- Continuous Integration -->
<g id="node12" class="node">
<title>Continuous Integration</title>
<polygon fill="#2f28d7" stroke="#000000" stroke-width="3" points="1912.9344,-336.4151 1926.7693,-336.547 1940.4612,-336.7444 1953.9541,-337.0068 1967.1933,-337.3335 1980.1259,-337.7235 1992.7006,-338.1759 2004.8687,-338.6892 2016.5839,-339.2622 2027.8026,-339.8933 2038.4844,-340.5807 2048.5923,-341.3226 2058.0924,-342.1169 2066.9548,-342.9614 2075.1531,-343.8539 2082.6649,-344.7919 2089.4715,-345.7728 2095.5584,-346.7939 2100.9149,-347.8524 2105.534,-348.9455 2109.413,-350.07 2112.5524,-351.2231 2114.9567,-352.4014 2116.6337,-353.6018 2117.5943,-354.8209 2117.8528,-356.0555 2117.426,-357.3021 2116.3337,-358.5573 2114.5976,-359.8178 2112.2418,-361.0799 2109.2922,-362.3403 2105.776,-363.5956 2101.7218,-364.8422 2097.1591,-366.0768 2092.1182,-367.2959 2086.6295,-368.4963 2080.7239,-369.6746 2074.4318,-370.8277 2067.7835,-371.9522 2060.8085,-373.0453 2053.5357,-374.1038 2045.9929,-375.1249 2038.2067,-376.1058 2030.2024,-377.0438 2022.0041,-377.9363 2013.6342,-378.7808 2005.1137,-379.5751 1996.4618,-380.317 1987.6963,-381.0044 1978.8333,-381.6355 1969.8875,-382.2085 1960.8721,-382.7218 1951.7987,-383.1742 1942.6778,-383.5642 1933.5189,-383.8908 1924.3302,-384.1533 1915.1192,-384.3507 1905.8929,-384.4826 1896.6575,-384.5487 1887.4191,-384.5487 1878.1837,-384.4826 1868.9573,-384.3507 1859.7464,-384.1533 1850.5577,-383.8908 1841.3988,-383.5642 1832.2779,-383.1742 1823.2045,-382.7218 1814.189,-382.2085 1805.2433,-381.6355 1796.3803,-381.0044 1787.6148,-380.317 1778.9629,-379.5751 1770.4424,-378.7808 1762.0725,-377.9363 1753.8742,-377.0438 1745.8699,-376.1058 1738.0837,-375.1249 1730.5408,-374.1038 1723.268,-373.0453 1716.2931,-371.9522 1709.6448,-370.8277 1703.3527,-369.6746 1697.447,-368.4963 1691.9584,-367.2959 1686.9174,-366.0768 1682.3548,-364.8422 1678.3006,-363.5956 1674.7844,-362.3403 1671.8347,-361.0799 1669.479,-359.8178 1667.7429,-358.5573 1666.6505,-357.3021 1666.2238,-356.0555 1666.4823,-354.8209 1667.4429,-353.6018 1669.1198,-352.4014 1671.5241,-351.2231 1674.6636,-350.07 1678.5425,-348.9455 1683.1617,-347.8524 1688.5182,-346.7939 1694.6051,-345.7728 1701.4117,-344.7919 1708.9235,-343.8539 1717.1218,-342.9614 1725.9842,-342.1169 1735.4843,-341.3226 1745.5921,-340.5807 1756.274,-339.8933 1767.4927,-339.2622 1779.2079,-338.6892 1791.376,-338.1759 1803.9507,-337.7235 1816.8833,-337.3335 1830.1225,-337.0068 1843.6154,-336.7444 1857.3073,-336.547 1871.1422,-336.4151 1885.0633,-336.349 1899.0132,-336.349 1912.9344,-336.4151"/>
<text text-anchor="middle" x="1892.0383" y="-354.2488" font-family="Times,serif" font-size="24.00" fill="#ffffff">Continuous Integration</text>
</g>
<!-- Automated Testing&#45;&gt;Continuous Integration -->
<g id="edge1" class="edge">
<title>Automated Testing&#45;&gt;Continuous Integration</title>
<g id="a_edge1"><a xlink:title="Automated Testing &#160;reduces the failure rate of &#160;Continuous Integration">
<path fill="none" stroke="#d72879" d="M1894.4929,-756.8114C1900.1088,-724.2329 1909.0383,-664.3223 1909.0383,-612.7481 1909.0383,-612.7481 1909.0383,-612.7481 1909.0383,-528.6483 1909.0383,-482.1692 1902.533,-428.8299 1897.5707,-394.9038"/>
<polygon fill="#d72879" stroke="#d72879" points="1900.9704,-393.9736 1896.024,-384.6043 1894.048,-395.0132 1900.9704,-393.9736"/>
</a>
</g>
</g>
<!-- Unit Testing -->
<g id="node2" class="node">
<title>Unit Testing</title>
<polygon fill="#2f28d7" stroke="#000000" stroke-width="3" points="1739.6057,-420.5148 1747.2643,-420.6467 1754.8437,-420.8442 1762.313,-421.1066 1769.6418,-421.4333 1776.8009,-421.8233 1783.7619,-422.2756 1790.4978,-422.789 1796.9829,-423.362 1803.1932,-423.993 1809.1064,-424.6805 1814.7018,-425.4223 1819.9608,-426.2166 1824.8667,-427.0612 1829.405,-427.9537 1833.5633,-428.8916 1837.3313,-429.8725 1840.7008,-430.8936 1843.666,-431.9521 1846.223,-433.0452 1848.3703,-434.1698 1850.1082,-435.3228 1851.4391,-436.5011 1852.3674,-437.7015 1852.8992,-438.9207 1853.0423,-440.1552 1852.8061,-441.4019 1852.2014,-442.6571 1851.2403,-443.9175 1849.9362,-445.1797 1848.3034,-446.4401 1846.3569,-447.6953 1844.1127,-448.9419 1841.5869,-450.1765 1838.7964,-451.3957 1835.7581,-452.596 1832.4889,-453.7744 1829.0058,-454.9274 1825.3255,-456.052 1821.4643,-457.145 1817.4383,-458.2036 1813.2628,-459.2247 1808.9526,-460.2056 1804.5217,-461.1435 1799.9834,-462.036 1795.3501,-462.8805 1790.6334,-463.6748 1785.8439,-464.4167 1780.9916,-465.1041 1776.0854,-465.7352 1771.1332,-466.3082 1766.1426,-466.8216 1761.1198,-467.2739 1756.0708,-467.6639 1751.0007,-467.9906 1745.9141,-468.253 1740.8152,-468.4505 1735.7078,-468.5824 1730.5953,-468.6484 1725.4812,-468.6484 1720.3688,-468.5824 1715.2614,-468.4505 1710.1625,-468.253 1705.0759,-467.9906 1700.0058,-467.6639 1694.9568,-467.2739 1689.934,-466.8216 1684.9433,-466.3082 1679.9912,-465.7352 1675.085,-465.1041 1670.2326,-464.4167 1665.4432,-463.6748 1660.7265,-462.8805 1656.0932,-462.036 1651.5549,-461.1435 1647.1239,-460.2056 1642.8137,-459.2247 1638.6382,-458.2036 1634.6122,-457.145 1630.7511,-456.052 1627.0708,-454.9274 1623.5877,-453.7744 1620.3185,-452.596 1617.2802,-451.3957 1614.4897,-450.1765 1611.9639,-448.9419 1609.7196,-447.6953 1607.7732,-446.4401 1606.1403,-445.1797 1604.8363,-443.9175 1603.8752,-442.6571 1603.2705,-441.4019 1603.0343,-440.1552 1603.1774,-438.9207 1603.7091,-437.7015 1604.6374,-436.5011 1605.9684,-435.3228 1607.7063,-434.1698 1609.8536,-433.0452 1612.4106,-431.9521 1615.3758,-430.8936 1618.7453,-429.8725 1622.5133,-428.8916 1626.6715,-427.9537 1631.2099,-427.0612 1636.1158,-426.2166 1641.3748,-425.4223 1646.9702,-424.6805 1652.8833,-423.993 1659.0937,-423.362 1665.5788,-422.789 1672.3147,-422.2756 1679.2757,-421.8233 1686.4348,-421.4333 1693.7636,-421.1066 1701.2329,-420.8442 1708.8123,-420.6467 1716.4709,-420.5148 1724.1772,-420.4487 1731.8994,-420.4487 1739.6057,-420.5148"/>
<text text-anchor="middle" x="1728.0383" y="-438.3486" font-family="Times,serif" font-size="24.00" fill="#ffffff">Unit Testing</text>
</g>
<!-- Unit Testing&#45;&gt;Continuous Integration -->
<g id="edge4" class="edge">
<title>Unit Testing&#45;&gt;Continuous Integration</title>
<g id="a_edge4"><a xlink:title="Unit Testing &#160;enables &#160;&#160;Continuous Integration">
<path fill="none" stroke="#28d786" d="M1772.852,-421.568C1792.7618,-411.3581 1816.3823,-399.2455 1837.3233,-388.5069"/>
<polygon fill="#28d786" stroke="#28d786" points="1839.1221,-391.5179 1846.4232,-383.8404 1835.9279,-385.2891 1839.1221,-391.5179"/>
</a>
</g>
</g>
<!-- Code Quality Scans&#45;&gt;Automated Testing -->
<g id="edge6" class="edge">
<title>Code Quality Scans&#45;&gt;Automated Testing</title>
<g id="a_edge6"><a xlink:title="Code Quality Scans &#160;better together with &#160;Automated Testing">
<path fill="none" stroke="#d0d728" d="M1719.392,-718.5312C1751.0941,-729.4221 1788.8303,-742.7161 1820.7684,-754.2321"/>
<polygon fill="#d0d728" stroke="#d0d728" points="1819.8866,-757.635 1830.4809,-757.7443 1822.2671,-751.0522 1819.8866,-757.635"/>
</a>
</g>
</g>
<!-- Agile Work ( Kanban/Scrum ) -->
<g id="node4" class="node">
<title>Agile Work ( Kanban/Scrum )</title>
<polygon fill="#2f28d7" stroke="#000000" stroke-width="3" points="1589.8317,-588.7143 1606.9091,-588.8462 1623.8099,-589.0437 1640.4651,-589.3061 1656.8071,-589.6327 1672.7707,-590.0228 1688.2925,-590.4751 1703.3124,-590.9885 1717.7732,-591.5615 1731.6212,-592.1925 1744.8065,-592.88 1757.2833,-593.6218 1769.01,-594.4161 1779.9494,-595.2607 1790.0691,-596.1532 1799.3414,-597.0911 1807.7433,-598.072 1815.2567,-599.0931 1821.8686,-600.1516 1827.5703,-601.2447 1832.3584,-602.3693 1836.2336,-603.5223 1839.2014,-604.7006 1841.2714,-605.901 1842.4571,-607.1202 1842.7762,-608.3547 1842.2494,-609.6013 1840.901,-610.8566 1838.7581,-612.117 1835.8502,-613.3792 1832.2093,-614.6396 1827.869,-615.8948 1822.8646,-617.1414 1817.2326,-618.376 1811.0102,-619.5952 1804.2352,-620.7955 1796.9455,-621.9739 1789.1788,-623.1269 1780.9723,-624.2515 1772.3627,-625.3445 1763.3853,-626.4031 1754.0747,-627.4242 1744.4636,-628.405 1734.5835,-629.343 1724.4638,-630.2355 1714.1322,-631.08 1703.6148,-631.8743 1692.9351,-632.6162 1682.1153,-633.3036 1671.1752,-633.9347 1660.1328,-634.5077 1649.0044,-635.0211 1637.8045,-635.4734 1626.546,-635.8634 1615.2405,-636.1901 1603.8983,-636.4525 1592.5286,-636.6499 1581.1399,-636.7819 1569.7401,-636.8479 1558.3365,-636.8479 1546.9366,-636.7819 1535.5479,-636.6499 1524.1782,-636.4525 1512.836,-636.1901 1501.5305,-635.8634 1490.2721,-635.4734 1479.0722,-635.0211 1467.9438,-634.5077 1456.9014,-633.9347 1445.9613,-633.3036 1435.1414,-632.6162 1424.4618,-631.8743 1413.9443,-631.08 1403.6128,-630.2355 1393.4931,-629.343 1383.6129,-628.405 1374.0019,-627.4242 1364.6912,-626.4031 1355.7139,-625.3445 1347.1043,-624.2515 1338.8978,-623.1269 1331.1311,-621.9739 1323.8413,-620.7955 1317.0663,-619.5952 1310.844,-618.376 1305.212,-617.1414 1300.2076,-615.8948 1295.8673,-614.6396 1292.2264,-613.3792 1289.3185,-612.117 1287.1755,-610.8566 1285.8272,-609.6013 1285.3004,-608.3547 1285.6194,-607.1202 1286.8052,-605.901 1288.8752,-604.7006 1291.843,-603.5223 1295.7182,-602.3693 1300.5062,-601.2447 1306.208,-600.1516 1312.8199,-599.0931 1320.3333,-598.072 1328.7352,-597.0911 1338.0075,-596.1532 1348.1272,-595.2607 1359.0666,-594.4161 1370.7933,-593.6218 1383.2701,-592.88 1396.4554,-592.1925 1410.3034,-591.5615 1424.7642,-590.9885 1439.7841,-590.4751 1455.3059,-590.0228 1471.2694,-589.6327 1487.6115,-589.3061 1504.2667,-589.0437 1521.1675,-588.8462 1538.2449,-588.7143 1555.4286,-588.6482 1572.6479,-588.6482 1589.8317,-588.7143"/>
<text text-anchor="middle" x="1564.0383" y="-606.5481" font-family="Times,serif" font-size="24.00" fill="#ffffff">Agile Work ( Kanban/Scrum )</text>
</g>
<!-- Code Quality Scans&#45;&gt;Agile Work ( Kanban/Scrum ) -->
<g id="edge5" class="edge">
<title>Code Quality Scans&#45;&gt;Agile Work ( Kanban/Scrum )</title>
<g id="a_edge5"><a xlink:title="Code Quality Scans &#160;better together with &#160;Agile Work ( Kanban/Scrum )">
<path fill="none" stroke="#d0d728" d="M1626.585,-672.5227C1617.2006,-663.5541 1606.4383,-653.2689 1596.5168,-643.7871"/>
<polygon fill="#d0d728" stroke="#d0d728" points="1598.7781,-641.1069 1589.1304,-636.7281 1593.9417,-646.1675 1598.7781,-641.1069"/>
</a>
</g>
</g>
<!-- Branching Strategy -->
<g id="node5" class="node">
<title>Branching Strategy</title>
<polygon fill="#2f28d7" stroke="#000000" stroke-width="3" points="1382.8092,-420.5148 1394.575,-420.6467 1406.2192,-420.8442 1417.6941,-421.1066 1428.9533,-421.4333 1439.9517,-421.8233 1450.6458,-422.2756 1460.9941,-422.789 1470.9572,-423.362 1480.498,-423.993 1489.5823,-424.6805 1498.1785,-425.4223 1506.2578,-426.2166 1513.7948,-427.0612 1520.7669,-427.9537 1527.1553,-428.8916 1532.9439,-429.8725 1538.1205,-430.8936 1542.6758,-431.9521 1546.6042,-433.0452 1549.903,-434.1698 1552.5729,-435.3228 1554.6177,-436.5011 1556.0438,-437.7015 1556.8608,-438.9207 1557.0806,-440.1552 1556.7177,-441.4019 1555.7887,-442.6571 1554.3122,-443.9175 1552.3088,-445.1797 1549.8003,-446.4401 1546.8099,-447.6953 1543.3621,-448.9419 1539.4818,-450.1765 1535.1948,-451.3957 1530.527,-452.596 1525.5046,-453.7744 1520.1535,-454.9274 1514.4995,-456.052 1508.5677,-457.145 1502.3826,-458.2036 1495.9679,-459.2247 1489.3461,-460.2056 1482.539,-461.1435 1475.5668,-462.036 1468.4487,-462.8805 1461.2024,-463.6748 1453.8445,-464.4167 1446.3899,-465.1041 1438.8525,-465.7352 1431.2446,-466.3082 1423.5775,-466.8216 1415.8611,-467.2739 1408.1043,-467.6639 1400.3152,-467.9906 1392.5007,-468.253 1384.6673,-468.4505 1376.8208,-468.5824 1368.9666,-468.6484 1361.1099,-468.6484 1353.2557,-468.5824 1345.4093,-468.4505 1337.5759,-468.253 1329.7614,-467.9906 1321.9723,-467.6639 1314.2155,-467.2739 1306.4991,-466.8216 1298.832,-466.3082 1291.2241,-465.7352 1283.6867,-465.1041 1276.2321,-464.4167 1268.8742,-463.6748 1261.6279,-462.8805 1254.5098,-462.036 1247.5376,-461.1435 1240.7305,-460.2056 1234.1087,-459.2247 1227.694,-458.2036 1221.5089,-457.145 1215.5771,-456.052 1209.923,-454.9274 1204.572,-453.7744 1199.5496,-452.596 1194.8818,-451.3957 1190.5948,-450.1765 1186.7145,-448.9419 1183.2666,-447.6953 1180.2763,-446.4401 1177.7678,-445.1797 1175.7643,-443.9175 1174.2879,-442.6571 1173.3589,-441.4019 1172.996,-440.1552 1173.2158,-438.9207 1174.0328,-437.7015 1175.4589,-436.5011 1177.5036,-435.3228 1180.1736,-434.1698 1183.4724,-433.0452 1187.4007,-431.9521 1191.9561,-430.8936 1197.1327,-429.8725 1202.9213,-428.8916 1209.3096,-427.9537 1216.2818,-427.0612 1223.8188,-426.2166 1231.8981,-425.4223 1240.4942,-424.6805 1249.5785,-423.993 1259.1194,-423.362 1269.0825,-422.789 1279.4307,-422.2756 1290.1249,-421.8233 1301.1232,-421.4333 1312.3825,-421.1066 1323.8574,-420.8442 1335.5016,-420.6467 1347.2674,-420.5148 1359.1065,-420.4487 1370.9701,-420.4487 1382.8092,-420.5148"/>
<text text-anchor="middle" x="1365.0383" y="-438.3486" font-family="Times,serif" font-size="24.00" fill="#ffffff">Branching Strategy</text>
</g>
<!-- Agile Work ( Kanban/Scrum )&#45;&gt;Branching Strategy -->
<g id="edge7" class="edge">
<title>Agile Work ( Kanban/Scrum )&#45;&gt;Branching Strategy</title>
<g id="a_edge7"><a xlink:title="Agile Work ( Kanban/Scrum ) &#160;enables &#160;&#160;Branching Strategy">
<path fill="none" stroke="#28d786" d="M1466.2311,-589.6818C1430.4476,-579.3215 1395.8135,-566.3604 1384.0383,-552.6982 1366.7698,-532.6624 1362.6387,-502.5755 1362.477,-479.2184"/>
<polygon fill="#28d786" stroke="#28d786" points="1365.9798,-479.0783 1362.6491,-469.0206 1358.9808,-478.9601 1365.9798,-479.0783"/>
</a>
</g>
</g>
<!-- Test Driven Development -->
<g id="node10" class="node">
<title>Test Driven Development</title>
<polygon fill="#2f28d7" stroke="#000000" stroke-width="3" points="1659.6135,-504.6145 1674.5601,-504.7465 1689.3522,-504.9439 1703.9293,-505.2063 1718.2323,-505.533 1732.2041,-505.923 1745.7892,-506.3753 1758.9351,-506.8887 1771.5916,-507.4617 1783.7118,-508.0928 1795.252,-508.7802 1806.172,-509.5221 1816.4355,-510.3164 1826.01,-511.1609 1834.8671,-512.0534 1842.9825,-512.9914 1850.3361,-513.9722 1856.9121,-514.9934 1862.6989,-516.0519 1867.6893,-517.1449 1871.8799,-518.2695 1875.2717,-519.4226 1877.8692,-520.6009 1879.6808,-521.8013 1880.7187,-523.0204 1880.9979,-524.255 1880.5369,-525.5016 1879.3567,-526.7568 1877.4812,-528.0173 1874.9361,-529.2794 1871.7494,-530.5398 1867.9507,-531.7951 1863.5707,-533.0417 1858.6414,-534.2763 1853.1954,-535.4954 1847.2657,-536.6958 1840.8856,-537.8741 1834.0879,-539.0271 1826.9053,-540.1517 1819.3699,-541.2448 1811.5127,-542.3033 1803.3638,-543.3244 1794.9519,-544.3053 1786.3045,-545.2433 1777.4474,-546.1357 1768.4049,-546.9803 1759.1997,-547.7746 1749.8526,-548.5165 1740.3828,-549.2039 1730.8076,-549.835 1721.143,-550.408 1711.4031,-550.9213 1701.6006,-551.3736 1691.7469,-551.7637 1681.852,-552.0903 1671.925,-552.3528 1661.9739,-552.5502 1652.0062,-552.6821 1642.0287,-552.7482 1632.0479,-552.7482 1622.0704,-552.6821 1612.1027,-552.5502 1602.1516,-552.3528 1592.2246,-552.0903 1582.3297,-551.7637 1572.4759,-551.3736 1562.6734,-550.9213 1552.9335,-550.408 1543.2689,-549.835 1533.6938,-549.2039 1524.224,-548.5165 1514.8769,-547.7746 1505.6716,-546.9803 1496.6292,-546.1357 1487.7721,-545.2433 1479.1247,-544.3053 1470.7128,-543.3244 1462.5639,-542.3033 1454.7067,-541.2448 1447.1712,-540.1517 1439.9887,-539.0271 1433.191,-537.8741 1426.8108,-536.6958 1420.8811,-535.4954 1415.4351,-534.2763 1410.5059,-533.0417 1406.1259,-531.7951 1402.3271,-530.5398 1399.1405,-529.2794 1396.5954,-528.0173 1394.7199,-526.7568 1393.5397,-525.5016 1393.0787,-524.255 1393.3579,-523.0204 1394.3957,-521.8013 1396.2074,-520.6009 1398.8049,-519.4226 1402.1966,-518.2695 1406.3873,-517.1449 1411.3776,-516.0519 1417.1645,-514.9934 1423.7405,-513.9722 1431.0941,-512.9914 1439.2095,-512.0534 1448.0665,-511.1609 1457.641,-510.3164 1467.9046,-509.5221 1478.8246,-508.7802 1490.3648,-508.0928 1502.485,-507.4617 1515.1415,-506.8887 1528.2873,-506.3753 1541.8725,-505.923 1555.8442,-505.533 1570.1473,-505.2063 1584.7244,-504.9439 1599.5165,-504.7465 1614.4631,-504.6145 1629.5029,-504.5485 1644.5737,-504.5485 1659.6135,-504.6145"/>
<text text-anchor="middle" x="1637.0383" y="-522.4483" font-family="Times,serif" font-size="24.00" fill="#ffffff">Test Driven Development</text>
</g>
<!-- Agile Work ( Kanban/Scrum )&#45;&gt;Test Driven Development -->
<g id="edge8" class="edge">
<title>Agile Work ( Kanban/Scrum )&#45;&gt;Test Driven Development</title>
<g id="a_edge8"><a xlink:title="Agile Work ( Kanban/Scrum ) &#160;reduces the failure rate of &#160;Test Driven Development">
<path fill="none" stroke="#d72879" d="M1585.1529,-588.4229C1592.7851,-579.6303 1601.5159,-569.572 1609.6109,-560.246"/>
<polygon fill="#d72879" stroke="#d72879" points="1612.3112,-562.4745 1616.2232,-552.6284 1607.0249,-557.8859 1612.3112,-562.4745"/>
</a>
</g>
</g>
<!-- Repository Composition -->
<g id="node6" class="node">
<title>Repository Composition</title>
<polygon fill="#2f28d7" stroke="#000000" stroke-width="3" points="1404.3073,-336.4151 1418.3892,-336.547 1432.3254,-336.7444 1446.0591,-337.0068 1459.5347,-337.3335 1472.698,-337.7235 1485.4972,-338.1759 1497.8825,-338.6892 1509.8067,-339.2622 1521.2257,-339.8933 1532.0982,-340.5807 1542.3864,-341.3226 1552.0561,-342.1169 1561.0767,-342.9614 1569.4213,-343.8539 1577.0672,-344.7919 1583.9953,-345.7728 1590.1908,-346.7939 1595.6429,-347.8524 1600.3445,-348.9455 1604.2927,-350.07 1607.4882,-351.2231 1609.9354,-352.4014 1611.6423,-353.6018 1612.62,-354.8209 1612.8831,-356.0555 1612.4488,-357.3021 1611.3369,-358.5573 1609.5698,-359.8178 1607.172,-361.0799 1604.1697,-362.3403 1600.5908,-363.5956 1596.4642,-364.8422 1591.8201,-366.0768 1586.6892,-367.2959 1581.1026,-368.4963 1575.0916,-369.6746 1568.6872,-370.8277 1561.9202,-371.9522 1554.8207,-373.0453 1547.4181,-374.1038 1539.7407,-375.1249 1531.8155,-376.1058 1523.6684,-377.0438 1515.3237,-377.9363 1506.8045,-378.7808 1498.1318,-379.5751 1489.3255,-380.317 1480.4036,-381.0044 1471.3824,-381.6355 1462.277,-382.2085 1453.1006,-382.7218 1443.8653,-383.1742 1434.5816,-383.5642 1425.2592,-383.8908 1415.9065,-384.1533 1406.5312,-384.3507 1397.1402,-384.4826 1387.7399,-384.5487 1378.3367,-384.5487 1368.9364,-384.4826 1359.5454,-384.3507 1350.17,-384.1533 1340.8174,-383.8908 1331.4949,-383.5642 1322.2113,-383.1742 1312.976,-382.7218 1303.7996,-382.2085 1294.6941,-381.6355 1285.673,-381.0044 1276.7511,-380.317 1267.9448,-379.5751 1259.2721,-378.7808 1250.7528,-377.9363 1242.4082,-377.0438 1234.2611,-376.1058 1226.3359,-375.1249 1218.6584,-374.1038 1211.2558,-373.0453 1204.1564,-371.9522 1197.3894,-370.8277 1190.985,-369.6746 1184.974,-368.4963 1179.3874,-367.2959 1174.2565,-366.0768 1169.6124,-364.8422 1165.4858,-363.5956 1161.9068,-362.3403 1158.9046,-361.0799 1156.5067,-359.8178 1154.7397,-358.5573 1153.6278,-357.3021 1153.1935,-356.0555 1153.4565,-354.8209 1154.4343,-353.6018 1156.1412,-352.4014 1158.5884,-351.2231 1161.7839,-350.07 1165.7321,-348.9455 1170.4337,-347.8524 1175.8858,-346.7939 1182.0813,-345.7728 1189.0094,-344.7919 1196.6553,-343.8539 1204.9999,-342.9614 1214.0204,-342.1169 1223.6901,-341.3226 1233.9784,-340.5807 1244.8509,-339.8933 1256.2698,-339.2622 1268.1941,-338.6892 1280.5793,-338.1759 1293.3785,-337.7235 1306.5419,-337.3335 1320.0174,-337.0068 1333.7512,-336.7444 1347.6874,-336.547 1361.7693,-336.4151 1375.9388,-336.349 1390.1377,-336.349 1404.3073,-336.4151"/>
<text text-anchor="middle" x="1383.0383" y="-354.2488" font-family="Times,serif" font-size="24.00" fill="#ffffff">Repository Composition</text>
</g>
<!-- Branching Strategy&#45;&gt;Repository Composition -->
<g id="edge9" class="edge">
<title>Branching Strategy&#45;&gt;Repository Composition</title>
<g id="a_edge9"><a xlink:title="Branching Strategy &#160;enables &#160;&#160;Repository Composition">
<path fill="none" stroke="#28d786" d="M1370.2446,-420.2235C1371.9611,-412.2039 1373.9028,-403.1316 1375.7455,-394.5223"/>
<polygon fill="#28d786" stroke="#28d786" points="1379.1731,-395.2304 1377.8436,-384.7193 1372.3282,-393.7653 1379.1731,-395.2304"/>
</a>
</g>
</g>
<!-- Infrastructure as Code -->
<g id="node7" class="node">
<title>Infrastructure as Code</title>
<polygon fill="#2f28d7" stroke="#000000" stroke-width="3" points="935.4678,-336.4151 948.9938,-336.547 962.3799,-336.7444 975.5715,-337.0068 988.5151,-337.3335 1001.1589,-337.7235 1013.4529,-338.1759 1025.3493,-338.6892 1036.8028,-339.2622 1047.771,-339.8933 1058.2144,-340.5807 1068.0965,-341.3226 1077.3845,-342.1169 1086.049,-342.9614 1094.0643,-343.8539 1101.4083,-344.7919 1108.0629,-345.7728 1114.0139,-346.7939 1119.2508,-347.8524 1123.7668,-348.9455 1127.5592,-350.07 1130.6285,-351.2231 1132.9791,-352.4014 1134.6186,-353.6018 1135.5578,-354.8209 1135.8105,-356.0555 1135.3933,-357.3021 1134.3253,-358.5573 1132.628,-359.8178 1130.3248,-361.0799 1127.441,-362.3403 1124.0034,-363.5956 1120.0397,-364.8422 1115.5789,-366.0768 1110.6505,-367.2959 1105.2844,-368.4963 1099.5107,-369.6746 1093.3591,-370.8277 1086.8592,-371.9522 1080.04,-373.0453 1072.9296,-374.1038 1065.5552,-375.1249 1057.9428,-376.1058 1050.1173,-377.0438 1042.1021,-377.9363 1033.9191,-378.7808 1025.5888,-379.5751 1017.1301,-380.317 1008.5603,-381.0044 999.8952,-381.6355 991.1492,-382.2085 982.335,-382.7218 973.4642,-383.1742 964.5471,-383.5642 955.5926,-383.8908 946.6091,-384.1533 937.6039,-384.3507 928.5835,-384.4826 919.5543,-384.5487 910.5222,-384.5487 901.4931,-384.4826 892.4727,-384.3507 883.4674,-384.1533 874.4839,-383.8908 865.5295,-383.5642 856.6123,-383.1742 847.7415,-382.7218 838.9274,-382.2085 830.1813,-381.6355 821.5163,-381.0044 812.9465,-380.317 804.4878,-379.5751 796.1575,-378.7808 787.9745,-377.9363 779.9593,-377.0438 772.1338,-376.1058 764.5214,-375.1249 757.147,-374.1038 750.0366,-373.0453 743.2174,-371.9522 736.7175,-370.8277 730.5659,-369.6746 724.7921,-368.4963 719.426,-367.2959 714.4977,-366.0768 710.0369,-364.8422 706.0732,-363.5956 702.6355,-362.3403 699.7517,-361.0799 697.4486,-359.8178 695.7513,-358.5573 694.6833,-357.3021 694.2661,-356.0555 694.5188,-354.8209 695.458,-353.6018 697.0975,-352.4014 699.4481,-351.2231 702.5174,-350.07 706.3098,-348.9455 710.8258,-347.8524 716.0626,-346.7939 722.0136,-345.7728 728.6683,-344.7919 736.0123,-343.8539 744.0276,-342.9614 752.692,-342.1169 761.9801,-341.3226 771.8622,-340.5807 782.3055,-339.8933 793.2737,-339.2622 804.7273,-338.6892 816.6237,-338.1759 828.9177,-337.7235 841.5614,-337.3335 854.505,-337.0068 867.6967,-336.7444 881.0828,-336.547 894.6088,-336.4151 908.2191,-336.349 921.8575,-336.349 935.4678,-336.4151"/>
<text text-anchor="middle" x="915.0383" y="-354.2488" font-family="Times,serif" font-size="24.00" fill="#ffffff">Infrastructure as Code</text>
</g>
<!-- Branching Strategy&#45;&gt;Infrastructure as Code -->
<g id="edge12" class="edge">
<title>Branching Strategy&#45;&gt;Infrastructure as Code</title>
<g id="a_edge12"><a xlink:title="Branching Strategy &#160;reduces the failure rate of &#160;Infrastructure as Code">
<path fill="none" stroke="#d72879" d="M1253.5133,-423.7059C1185.5384,-411.0021 1098.8457,-394.8003 1030.2152,-381.9741"/>
<polygon fill="#d72879" stroke="#d72879" points="1030.6976,-378.5037 1020.2248,-380.107 1029.4116,-385.3846 1030.6976,-378.5037"/>
</a>
</g>
</g>
<!-- Parametrised Infrastructure as Code -->
<g id="node8" class="node">
<title>Parametrised Infrastructure as Code</title>
<polygon fill="#2f28d7" stroke="#000000" stroke-width="3" points="461.222,-252.3153 482.5302,-252.4472 503.6181,-252.6447 524.3995,-252.9071 544.7903,-253.2338 564.7087,-253.6238 584.0761,-254.0761 602.8171,-254.5895 620.8605,-255.1625 638.1393,-255.7936 654.5913,-256.481 670.1591,-257.2229 684.791,-258.0172 698.4407,-258.8617 711.0675,-259.7542 722.6369,-260.6921 733.1204,-261.673 742.4953,-262.6941 750.7452,-263.7527 757.8595,-264.8457 763.8338,-265.9703 768.6691,-267.1233 772.3722,-268.3017 774.955,-269.502 776.4345,-270.7212 776.8326,-271.9557 776.1753,-273.2024 774.4929,-274.4576 771.819,-275.718 768.1907,-276.9802 763.6477,-278.2406 758.2322,-279.4958 751.988,-280.7425 744.9607,-281.977 737.1968,-283.1962 728.7433,-284.3966 719.6475,-285.5749 709.9566,-286.7279 699.717,-287.8525 688.9743,-288.9456 677.7729,-290.0041 666.1556,-291.0252 654.1635,-292.0061 641.8355,-292.944 629.2087,-293.8365 616.3175,-294.6811 603.1944,-295.4754 589.8689,-296.2172 576.3685,-296.9046 562.718,-297.5357 548.9399,-298.1087 535.0545,-298.6221 521.0798,-299.0744 507.0321,-299.4644 492.9257,-299.7911 478.7735,-300.0535 464.587,-300.251 450.3768,-300.3829 436.1527,-300.449 421.9239,-300.449 407.6998,-300.3829 393.4895,-300.251 379.3031,-300.0535 365.1508,-299.7911 351.0444,-299.4644 336.9967,-299.0744 323.0221,-298.6221 309.1367,-298.1087 295.3586,-297.5357 281.7081,-296.9046 268.2077,-296.2172 254.8822,-295.4754 241.759,-294.6811 228.8679,-293.8365 216.2411,-292.944 203.9131,-292.0061 191.921,-291.0252 180.3036,-290.0041 169.1022,-288.9456 158.3596,-287.8525 148.12,-286.7279 138.4291,-285.5749 129.3333,-284.3966 120.8798,-283.1962 113.1159,-281.977 106.0886,-280.7425 99.8444,-279.4958 94.4288,-278.2406 89.8858,-276.9802 86.2575,-275.718 83.5837,-274.4576 81.9013,-273.2024 81.244,-271.9557 81.6421,-270.7212 83.1216,-269.502 85.7044,-268.3017 89.4074,-267.1233 94.2428,-265.9703 100.217,-264.8457 107.3314,-263.7527 115.5813,-262.6941 124.9562,-261.673 135.4396,-260.6921 147.0091,-259.7542 159.6359,-258.8617 173.2855,-258.0172 187.9174,-257.2229 203.4853,-256.481 219.9372,-255.7936 237.2161,-255.1625 255.2595,-254.5895 274.0005,-254.0761 293.3678,-253.6238 313.2862,-253.2338 333.677,-252.9071 354.4585,-252.6447 375.5464,-252.4472 396.8546,-252.3153 418.2956,-252.2493 439.781,-252.2493 461.222,-252.3153"/>
<text text-anchor="middle" x="429.0383" y="-270.1491" font-family="Times,serif" font-size="24.00" fill="#ffffff">Parametrised Infrastructure as Code</text>
</g>
<!-- Branching Strategy&#45;&gt;Parametrised Infrastructure as Code -->
<g id="edge10" class="edge">
<title>Branching Strategy&#45;&gt;Parametrised Infrastructure as Code</title>
<g id="a_edge10"><a xlink:title="Branching Strategy &#160;enables &#160;&#160;Parametrised Infrastructure as Code">
<path fill="none" stroke="#28d786" d="M1178.7104,-434.6083C1010.2477,-424.433 775.2472,-406.9474 685.0383,-384.4987 612.3121,-366.4006 533.5913,-330.4483 482.9257,-304.9714"/>
<polygon fill="#28d786" stroke="#28d786" points="484.3013,-301.7447 473.7996,-300.3429 481.135,-307.9877 484.3013,-301.7447"/>
</a>
</g>
</g>
<!-- Branching Strategy&#45;&gt;Continuous Integration -->
<g id="edge11" class="edge">
<title>Branching Strategy&#45;&gt;Continuous Integration</title>
<g id="a_edge11"><a xlink:title="Branching Strategy &#160;reduces the failure rate of &#160;Continuous Integration">
<path fill="none" stroke="#d72879" d="M1489.5961,-424.6714C1572.5066,-411.4404 1681.1226,-394.1072 1764.6163,-380.7831"/>
<polygon fill="#d72879" stroke="#d72879" points="1765.347,-384.2109 1774.6705,-379.1786 1764.2439,-377.2983 1765.347,-384.2109"/>
</a>
</g>
</g>
<!-- Infrastructure as Code&#45;&gt;Parametrised Infrastructure as Code -->
<g id="edge14" class="edge">
<title>Infrastructure as Code&#45;&gt;Parametrised Infrastructure as Code</title>
<g id="a_edge14"><a xlink:title="Infrastructure as Code &#160;enables &#160;&#160;Parametrised Infrastructure as Code">
<path fill="none" stroke="#28d786" d="M788.0369,-339.498C717.4709,-327.4638 629.8768,-312.3177 558.8643,-299.8757"/>
<polygon fill="#28d786" stroke="#28d786" points="559.4119,-296.4184 548.9577,-298.1386 558.2029,-303.3132 559.4119,-296.4184"/>
</a>
</g>
</g>
<!-- Infrastructure as Code&#45;&gt;Parametrised Infrastructure as Code -->
<g id="edge16" class="edge">
<title>Infrastructure as Code&#45;&gt;Parametrised Infrastructure as Code</title>
<g id="a_edge16"><a xlink:title="Infrastructure as Code &#160;reduces the failure rate of &#160;Parametrised Infrastructure as Code">
<path fill="none" stroke="#d72879" d="M797.1129,-339.0093C728.2716,-326.9247 641.0441,-311.8229 568.7705,-299.4732"/>
<polygon fill="#d72879" stroke="#d72879" points="569.1215,-295.9826 558.6751,-297.7495 567.9433,-302.8827 569.1215,-295.9826"/>
</a>
</g>
</g>
<!-- Continuous Delivery -->
<g id="node18" class="node">
<title>Continuous Delivery</title>
<polygon fill="#2f28d7" stroke="#000000" stroke-width="3" points="1012.4158,-252.3153 1024.5831,-252.4472 1036.6247,-252.6447 1048.4913,-252.9071 1060.1348,-253.2338 1071.5086,-253.6238 1082.5677,-254.0761 1093.2692,-254.5895 1103.5723,-255.1625 1113.4388,-255.7936 1122.8332,-256.481 1131.7227,-257.2229 1140.0778,-258.0172 1147.872,-258.8617 1155.0821,-259.7542 1161.6885,-260.6921 1167.6747,-261.673 1173.028,-262.6941 1177.7388,-263.7527 1181.8013,-264.8457 1185.2127,-265.9703 1187.9737,-267.1233 1190.0882,-268.3017 1191.5631,-269.502 1192.4079,-270.7212 1192.6352,-271.9557 1192.2599,-273.2024 1191.2992,-274.4576 1189.7724,-275.718 1187.7006,-276.9802 1185.1064,-278.2406 1182.014,-279.4958 1178.4485,-280.7425 1174.4358,-281.977 1170.0024,-283.1962 1165.1753,-284.3966 1159.9815,-285.5749 1154.4478,-286.7279 1148.6008,-287.8525 1142.4665,-288.9456 1136.0703,-290.0041 1129.4366,-291.0252 1122.5889,-292.0061 1115.5494,-292.944 1108.3392,-293.8365 1100.9782,-294.6811 1093.4846,-295.4754 1085.8755,-296.2172 1078.1665,-296.9046 1070.3719,-297.5357 1062.5043,-298.1087 1054.5755,-298.6221 1046.5957,-299.0744 1038.5742,-299.4644 1030.5192,-299.7911 1022.438,-300.0535 1014.3373,-300.251 1006.223,-300.3829 998.1007,-300.449 989.9758,-300.449 981.8536,-300.3829 973.7393,-300.251 965.6386,-300.0535 957.5574,-299.7911 949.5024,-299.4644 941.4809,-299.0744 933.5011,-298.6221 925.5723,-298.1087 917.7047,-297.5357 909.91,-296.9046 902.201,-296.2172 894.592,-295.4754 887.0984,-294.6811 879.7373,-293.8365 872.5272,-292.944 865.4877,-292.0061 858.6399,-291.0252 852.0062,-290.0041 845.61,-288.9456 839.4758,-287.8525 833.6288,-286.7279 828.0951,-285.5749 822.9012,-284.3966 818.0741,-283.1962 813.6408,-281.977 809.6281,-280.7425 806.0625,-279.4958 802.9701,-278.2406 800.376,-276.9802 798.3042,-275.718 796.7774,-274.4576 795.8167,-273.2024 795.4414,-271.9557 795.6687,-270.7212 796.5135,-269.502 797.9883,-268.3017 800.1028,-267.1233 802.8639,-265.9703 806.2753,-264.8457 810.3378,-263.7527 815.0486,-262.6941 820.4018,-261.673 826.3881,-260.6921 832.9944,-259.7542 840.2046,-258.8617 847.9988,-258.0172 856.3539,-257.2229 865.2434,-256.481 874.6378,-255.7936 884.5043,-255.1625 894.8074,-254.5895 905.5089,-254.0761 916.568,-253.6238 927.9417,-253.2338 939.5853,-252.9071 951.4518,-252.6447 963.4934,-252.4472 975.6608,-252.3153 987.904,-252.2493 1000.1726,-252.2493 1012.4158,-252.3153"/>
<text text-anchor="middle" x="994.0383" y="-270.1491" font-family="Times,serif" font-size="24.00" fill="#ffffff">Continuous Delivery</text>
</g>
<!-- Infrastructure as Code&#45;&gt;Continuous Delivery -->
<g id="edge13" class="edge">
<title>Infrastructure as Code&#45;&gt;Continuous Delivery</title>
<g id="a_edge13"><a xlink:title="Infrastructure as Code &#160;enables &#160;&#160;Continuous Delivery">
<path fill="none" stroke="#28d786" d="M931.7024,-336.1237C939.445,-327.2431 948.8782,-317.0714 958.0686,-307.6673"/>
<polygon fill="#28d786" stroke="#28d786" points="960.7908,-309.8929 965.35,-300.3291 955.8219,-304.9623 960.7908,-309.8929"/>
</a>
</g>
</g>
<!-- Infrastructure as Code&#45;&gt;Continuous Delivery -->
<g id="edge15" class="edge">
<title>Infrastructure as Code&#45;&gt;Continuous Delivery</title>
<g id="a_edge15"><a xlink:title="Infrastructure as Code &#160;reduces the failure rate of &#160;Continuous Delivery">
<path fill="none" stroke="#d72879" d="M944.0744,-336.1237C952.9275,-327.331 962.5009,-317.2727 970.9178,-307.9468"/>
<polygon fill="#d72879" stroke="#d72879" points="973.6573,-310.1327 977.6748,-300.3291 968.4206,-305.4877 973.6573,-310.1327"/>
</a>
</g>
</g>
<!-- Dark Launching -->
<g id="node9" class="node">
<title>Dark Launching</title>
<polygon fill="#2f28d7" stroke="#000000" stroke-width="3" points="460.824,-.0161 470.6133,-.148 480.3015,-.3455 489.8488,-.6079 499.2167,-.9345 508.3675,-1.3246 517.2652,-1.7769 525.8751,-2.2902 534.1645,-2.8633 542.1027,-3.4943 549.661,-4.1817 556.8131,-4.9236 563.5352,-5.7179 569.8061,-6.5625 575.6071,-7.4549 580.9223,-8.3929 585.7385,-9.3738 590.0455,-10.3949 593.8356,-11.4534 597.1041,-12.5465 599.8488,-13.6711 602.0702,-14.8241 603.7714,-16.0024 604.958,-17.2028 605.6377,-18.4219 605.8206,-19.6565 605.5187,-20.9031 604.7457,-22.1584 603.5173,-23.4188 601.8504,-24.6809 599.7633,-25.9414 597.2753,-27.1966 594.4066,-28.4432 591.1782,-29.6778 587.6113,-30.8969 583.7276,-32.0973 579.5489,-33.2756 575.0967,-34.4287 570.3925,-35.5533 565.4571,-36.6463 560.311,-37.7049 554.9738,-38.726 549.4644,-39.7068 543.8008,-40.6448 537.9998,-41.5373 532.0774,-42.3818 526.0484,-43.1761 519.9265,-43.918 513.7242,-44.6054 507.4529,-45.2365 501.123,-45.8095 494.7438,-46.3229 488.3237,-46.7752 481.8699,-47.1652 475.3892,-47.4919 468.8875,-47.7543 462.37,-47.9517 455.8416,-48.0837 449.3067,-48.1497 442.7698,-48.1497 436.235,-48.0837 429.7066,-47.9517 423.1891,-47.7543 416.6874,-47.4919 410.2067,-47.1652 403.7529,-46.7752 397.3327,-46.3229 390.9535,-45.8095 384.6237,-45.2365 378.3524,-44.6054 372.1501,-43.918 366.0282,-43.1761 359.9992,-42.3818 354.0768,-41.5373 348.2758,-40.6448 342.6121,-39.7068 337.1027,-38.726 331.7656,-37.7049 326.6194,-36.6463 321.6841,-35.5533 316.9799,-34.4287 312.5277,-33.2756 308.349,-32.0973 304.4653,-30.8969 300.8984,-29.6778 297.67,-28.4432 294.8013,-27.1966 292.3133,-25.9414 290.2262,-24.6809 288.5593,-23.4188 287.3308,-22.1584 286.5579,-20.9031 286.2559,-19.6565 286.4388,-18.4219 287.1186,-17.2028 288.3051,-16.0024 290.0064,-14.8241 292.2278,-13.6711 294.9725,-12.5465 298.2409,-11.4534 302.0311,-10.3949 306.338,-9.3738 311.1543,-8.3929 316.4695,-7.4549 322.2705,-6.5625 328.5413,-5.7179 335.2635,-4.9236 342.4156,-4.1817 349.9739,-3.4943 357.912,-2.8633 366.2015,-2.2902 374.8114,-1.7769 383.7091,-1.3246 392.8599,-.9345 402.2278,-.6079 411.7751,-.3455 421.4632,-.148 431.2526,-.0161 441.1029,.05 450.9736,.05 460.824,-.0161"/>
<text text-anchor="middle" x="446.0383" y="-17.8499" font-family="Times,serif" font-size="24.00" fill="#ffffff">Dark Launching</text>
</g>
<!-- Continuous Deployment -->
<g id="node20" class="node">
<title>Continuous Deployment</title>
<polygon fill="#2f28d7" stroke="#000000" stroke-width="3" points="877.5872,-84.1158 891.8543,-84.2478 905.9739,-84.4452 919.8883,-84.7076 933.5412,-85.0343 946.8778,-85.4243 959.8453,-85.8766 972.3936,-86.39 984.4747,-86.963 996.0439,-87.5941 1007.0595,-88.2815 1017.4831,-89.0234 1027.28,-89.8177 1036.4193,-90.6622 1044.8737,-91.5547 1052.6201,-92.4927 1059.6394,-93.4735 1065.9165,-94.4946 1071.4402,-95.5532 1076.2037,-96.6462 1080.2039,-97.7708 1083.4414,-98.9238 1085.9208,-100.1022 1087.6501,-101.3025 1088.6408,-102.5217 1088.9073,-103.7563 1088.4672,-105.0029 1087.3408,-106.2581 1085.5505,-107.5185 1083.1211,-108.7807 1080.0793,-110.0411 1076.4532,-111.2964 1072.2724,-112.543 1067.5672,-113.7775 1062.3688,-114.9967 1056.7087,-116.1971 1050.6185,-117.3754 1044.1299,-118.5284 1037.2738,-119.653 1030.081,-120.7461 1022.581,-121.8046 1014.8025,-122.8257 1006.773,-123.8066 998.5187,-124.7445 990.0643,-125.637 981.4329,-126.4816 972.6462,-127.2759 963.724,-128.0177 954.6847,-128.7052 945.5448,-129.3362 936.3196,-129.9092 927.0225,-130.4226 917.6656,-130.8749 908.2598,-131.2649 898.8147,-131.5916 889.339,-131.854 879.8403,-132.0515 870.3257,-132.1834 860.8018,-132.2495 851.2748,-132.2495 841.7509,-132.1834 832.2363,-132.0515 822.7376,-131.854 813.2618,-131.5916 803.8168,-131.2649 794.411,-130.8749 785.0541,-130.4226 775.757,-129.9092 766.5317,-129.3362 757.3919,-128.7052 748.3526,-128.0177 739.4304,-127.2759 730.6437,-126.4816 722.0123,-125.637 713.5579,-124.7445 705.3036,-123.8066 697.2741,-122.8257 689.4956,-121.8046 681.9956,-120.7461 674.8027,-119.653 667.9467,-118.5284 661.4581,-117.3754 655.3679,-116.1971 649.7078,-114.9967 644.5094,-113.7775 639.8042,-112.543 635.6233,-111.2964 631.9973,-110.0411 628.9555,-108.7807 626.5261,-107.5185 624.7358,-106.2581 623.6093,-105.0029 623.1693,-103.7563 623.4358,-102.5217 624.4264,-101.3025 626.1558,-100.1022 628.6352,-98.9238 631.8727,-97.7708 635.8728,-96.6462 640.6363,-95.5532 646.1601,-94.4946 652.4372,-93.4735 659.4565,-92.4927 667.2029,-91.5547 675.6573,-90.6622 684.7966,-89.8177 694.5935,-89.0234 705.0171,-88.2815 716.0327,-87.5941 727.6019,-86.963 739.683,-86.39 752.2312,-85.8766 765.1988,-85.4243 778.5354,-85.0343 792.1882,-84.7076 806.1026,-84.4452 820.2223,-84.2478 834.4894,-84.1158 848.8454,-84.0498 863.2311,-84.0498 877.5872,-84.1158"/>
<text text-anchor="middle" x="856.0383" y="-101.9496" font-family="Times,serif" font-size="24.00" fill="#ffffff">Continuous Deployment</text>
</g>
<!-- Dark Launching&#45;&gt;Continuous Deployment -->
<g id="edge17" class="edge">
<title>Dark Launching&#45;&gt;Continuous Deployment</title>
<g id="a_edge17"><a xlink:title="Dark Launching &#160;reduces the failure rate of &#160;Continuous Deployment">
<path fill="none" stroke="#d72879" d="M537.5623,-41.6719C598.4089,-53.8883 678.6863,-70.3155 743.4381,-83.7835"/>
<polygon fill="#d72879" stroke="#d72879" points="742.7792,-87.2213 753.2827,-85.8332 744.2061,-80.3682 742.7792,-87.2213"/>
</a>
</g>
</g>
<!-- Test Driven Development&#45;&gt;Automated Testing -->
<g id="edge19" class="edge">
<title>Test Driven Development&#45;&gt;Automated Testing</title>
<g id="a_edge19"><a xlink:title="Test Driven Development &#160;reduces the failure rate of &#160;Automated Testing">
<path fill="none" stroke="#d72879" d="M1748.5467,-548.6829C1792.9502,-558.8655 1837.0655,-572.5223 1852.0383,-588.6982 1891.8794,-631.7409 1895.2942,-703.9927 1893.2751,-746.5962"/>
<polygon fill="#d72879" stroke="#d72879" points="1889.771,-746.5607 1892.6635,-756.753 1896.7583,-746.9815 1889.771,-746.5607"/>
</a>
</g>
</g>
<!-- Test Driven Development&#45;&gt;Unit Testing -->
<g id="edge18" class="edge">
<title>Test Driven Development&#45;&gt;Unit Testing</title>
<g id="a_edge18"><a xlink:title="Test Driven Development &#160;reduces the failure rate of &#160;Unit Testing">
<path fill="none" stroke="#d72879" d="M1663.3593,-504.3232C1673.3278,-495.1106 1684.7996,-484.5086 1695.2882,-474.8153"/>
<polygon fill="#d72879" stroke="#d72879" points="1697.7476,-477.3082 1702.7162,-467.9506 1692.9966,-472.1674 1697.7476,-477.3082"/>
</a>
</g>
</g>
<!-- Exploratory Testing&#45;&gt;Automated Testing -->
<g id="edge20" class="edge">
<title>Exploratory Testing&#45;&gt;Automated Testing</title>
<g id="a_edge20"><a xlink:title="Exploratory Testing &#160;better together with &#160;Automated Testing">
<path fill="none" stroke="#d0d728" d="M2070.6155,-719.2763C2040.5566,-730.1948 2003.3037,-743.3884 1970.4353,-754.7658"/>
<polygon fill="#d0d728" stroke="#d0d728" points="1969.1514,-751.5063 1960.841,-758.078 1971.4358,-758.1231 1969.1514,-751.5063"/>
</a>
</g>
</g>
<!-- Immutable Artefacts -->
<g id="node16" class="node">
<title>Immutable Artefacts</title>
<polygon fill="#2f28d7" stroke="#000000" stroke-width="3" points="2325.5557,-252.3153 2337.8157,-252.4472 2349.949,-252.6447 2361.9059,-252.9071 2373.6381,-253.2338 2385.0985,-253.6238 2396.2418,-254.0761 2407.0247,-254.5895 2417.4063,-255.1625 2427.3479,-255.7936 2436.8138,-256.481 2445.771,-257.2229 2454.1897,-258.0172 2462.0433,-258.8617 2469.3083,-259.7542 2475.965,-260.6921 2481.9968,-261.673 2487.3908,-262.6941 2492.1375,-263.7527 2496.2309,-264.8457 2499.6682,-265.9703 2502.4503,-267.1233 2504.5809,-268.3017 2506.067,-269.502 2506.9183,-270.7212 2507.1473,-271.9557 2506.7691,-273.2024 2505.8011,-274.4576 2504.2627,-275.718 2502.1751,-276.9802 2499.5612,-278.2406 2496.4453,-279.4958 2492.8526,-280.7425 2488.8093,-281.977 2484.3422,-283.1962 2479.4783,-284.3966 2474.245,-285.5749 2468.6691,-286.7279 2462.7776,-287.8525 2456.5967,-288.9456 2450.1517,-290.0041 2443.4675,-291.0252 2436.5677,-292.0061 2429.4746,-292.944 2422.2095,-293.8365 2414.7924,-294.6811 2407.2418,-295.4754 2399.5748,-296.2172 2391.8071,-296.9046 2383.953,-297.5357 2376.0256,-298.1087 2368.0364,-298.6221 2359.9959,-299.0744 2351.9133,-299.4644 2343.797,-299.7911 2335.6543,-300.0535 2327.4918,-300.251 2319.3158,-300.3829 2311.1317,-300.449 2302.9449,-300.449 2294.7608,-300.3829 2286.5847,-300.251 2278.4223,-300.0535 2270.2796,-299.7911 2262.1633,-299.4644 2254.0807,-299.0744 2246.0402,-298.6221 2238.051,-298.1087 2230.1235,-297.5357 2222.2695,-296.9046 2214.5018,-296.2172 2206.8348,-295.4754 2199.2842,-294.6811 2191.8671,-293.8365 2184.602,-292.944 2177.5089,-292.0061 2170.609,-291.0252 2163.9248,-290.0041 2157.4799,-288.9456 2151.299,-287.8525 2145.4074,-286.7279 2139.8316,-285.5749 2134.5982,-284.3966 2129.7344,-283.1962 2125.2673,-281.977 2121.224,-280.7425 2117.6313,-279.4958 2114.5154,-278.2406 2111.9015,-276.9802 2109.8139,-275.718 2108.2755,-274.4576 2107.3074,-273.2024 2106.9293,-271.9557 2107.1583,-270.7212 2108.0096,-269.502 2109.4956,-268.3017 2111.6263,-267.1233 2114.4083,-265.9703 2117.8457,-264.8457 2121.9391,-263.7527 2126.6858,-262.6941 2132.0798,-261.673 2138.1116,-260.6921 2144.7683,-259.7542 2152.0333,-258.8617 2159.8869,-258.0172 2168.3056,-257.2229 2177.2628,-256.481 2186.7287,-255.7936 2196.6703,-255.1625 2207.0519,-254.5895 2217.8348,-254.0761 2228.9781,-253.6238 2240.4385,-253.2338 2252.1707,-252.9071 2264.1276,-252.6447 2276.2609,-252.4472 2288.5209,-252.3153 2300.8573,-252.2493 2313.2193,-252.2493 2325.5557,-252.3153"/>
<text text-anchor="middle" x="2307.0383" y="-270.1491" font-family="Times,serif" font-size="24.00" fill="#ffffff">Immutable Artefacts</text>
</g>
<!-- Continuous Integration&#45;&gt;Immutable Artefacts -->
<g id="edge22" class="edge">
<title>Continuous Integration&#45;&gt;Immutable Artefacts</title>
<g id="a_edge22"><a xlink:title="Continuous Integration &#160;enables &#160;&#160;Immutable Artefacts">
<path fill="none" stroke="#28d786" d="M1995.5856,-338.2426C2056.8299,-325.6318 2134.3337,-309.9315 2196.7234,-297.4994"/>
<polygon fill="#28d786" stroke="#28d786" points="2197.4776,-300.918 2206.602,-295.5331 2196.1111,-294.0527 2197.4776,-300.918"/>
</a>
</g>
</g>
<!-- Continuous Integration&#45;&gt;Continuous Delivery -->
<g id="edge21" class="edge">
<title>Continuous Integration&#45;&gt;Continuous Delivery</title>
<g id="a_edge21"><a xlink:title="Continuous Integration &#160;enables &#160;&#160;Continuous Delivery">
<path fill="none" stroke="#28d786" d="M1711.3948,-343.5312C1546.0101,-328.0425 1303.8991,-305.3683 1147.6256,-290.7329"/>
<polygon fill="#28d786" stroke="#28d786" points="1147.7408,-287.2285 1137.458,-289.7807 1147.088,-294.198 1147.7408,-287.2285"/>
</a>
</g>
</g>
<!-- Semantic Versioning -->
<g id="node13" class="node">
<title>Semantic Versioning</title>
<polygon fill="#2f28d7" stroke="#000000" stroke-width="3" points="2533.5557,-168.2156 2545.8157,-168.3475 2557.949,-168.5449 2569.9059,-168.8074 2581.6381,-169.134 2593.0985,-169.5241 2604.2418,-169.9764 2615.0247,-170.4897 2625.4063,-171.0627 2635.3479,-171.6938 2644.8138,-172.3812 2653.771,-173.1231 2662.1897,-173.9174 2670.0433,-174.762 2677.3083,-175.6544 2683.965,-176.5924 2689.9968,-177.5733 2695.3908,-178.5944 2700.1375,-179.6529 2704.2309,-180.746 2707.6682,-181.8706 2710.4503,-183.0236 2712.5809,-184.2019 2714.067,-185.4023 2714.9183,-186.6214 2715.1473,-187.856 2714.7691,-189.1026 2713.8011,-190.3579 2712.2627,-191.6183 2710.1751,-192.8804 2707.5612,-194.1409 2704.4453,-195.3961 2700.8526,-196.6427 2696.8093,-197.8773 2692.3422,-199.0964 2687.4783,-200.2968 2682.245,-201.4751 2676.6691,-202.6282 2670.7776,-203.7528 2664.5967,-204.8458 2658.1517,-205.9043 2651.4675,-206.9254 2644.5677,-207.9063 2637.4746,-208.8443 2630.2095,-209.7368 2622.7924,-210.5813 2615.2418,-211.3756 2607.5748,-212.1175 2599.8071,-212.8049 2591.953,-213.436 2584.0256,-214.009 2576.0364,-214.5223 2567.9959,-214.9747 2559.9133,-215.3647 2551.797,-215.6914 2543.6543,-215.9538 2535.4918,-216.1512 2527.3158,-216.2832 2519.1317,-216.3492 2510.9449,-216.3492 2502.7608,-216.2832 2494.5847,-216.1512 2486.4223,-215.9538 2478.2796,-215.6914 2470.1633,-215.3647 2462.0807,-214.9747 2454.0402,-214.5223 2446.051,-214.009 2438.1235,-213.436 2430.2695,-212.8049 2422.5018,-212.1175 2414.8348,-211.3756 2407.2842,-210.5813 2399.8671,-209.7368 2392.602,-208.8443 2385.5089,-207.9063 2378.609,-206.9254 2371.9248,-205.9043 2365.4799,-204.8458 2359.299,-203.7528 2353.4074,-202.6282 2347.8316,-201.4751 2342.5982,-200.2968 2337.7344,-199.0964 2333.2673,-197.8773 2329.224,-196.6427 2325.6313,-195.3961 2322.5154,-194.1409 2319.9015,-192.8804 2317.8139,-191.6183 2316.2755,-190.3579 2315.3074,-189.1026 2314.9293,-187.856 2315.1583,-186.6214 2316.0096,-185.4023 2317.4956,-184.2019 2319.6263,-183.0236 2322.4083,-181.8706 2325.8457,-180.746 2329.9391,-179.6529 2334.6858,-178.5944 2340.0798,-177.5733 2346.1116,-176.5924 2352.7683,-175.6544 2360.0333,-174.762 2367.8869,-173.9174 2376.3056,-173.1231 2385.2628,-172.3812 2394.7287,-171.6938 2404.6703,-171.0627 2415.0519,-170.4897 2425.8348,-169.9764 2436.9781,-169.5241 2448.4385,-169.134 2460.1707,-168.8074 2472.1276,-168.5449 2484.2609,-168.3475 2496.5209,-168.2156 2508.8573,-168.1495 2521.2193,-168.1495 2533.5557,-168.2156"/>
<text text-anchor="middle" x="2515.0383" y="-186.0494" font-family="Times,serif" font-size="24.00" fill="#ffffff">Semantic Versioning</text>
</g>
<!-- Release Views -->
<g id="node15" class="node">
<title>Release Views</title>
<polygon fill="#2f28d7" stroke="#000000" stroke-width="3" points="2735.1917,-84.1158 2743.9004,-84.2478 2752.519,-84.4452 2761.0124,-84.7076 2769.3461,-85.0343 2777.4867,-85.4243 2785.4021,-85.8766 2793.0616,-86.39 2800.4359,-86.963 2807.4978,-87.5941 2814.2217,-88.2815 2820.5842,-89.0234 2826.5643,-89.8177 2832.1429,-90.6622 2837.3035,-91.5547 2842.0319,-92.4927 2846.3165,-93.4735 2850.148,-94.4946 2853.5197,-95.5532 2856.4273,-96.6462 2858.869,-97.7708 2860.8452,-98.9238 2862.3587,-100.1022 2863.4142,-101.3025 2864.0189,-102.5217 2864.1816,-103.7563 2863.913,-105.0029 2863.2254,-106.2581 2862.1326,-107.5185 2860.6497,-108.7807 2858.793,-110.0411 2856.5796,-111.2964 2854.0277,-112.543 2851.1556,-113.7775 2847.9825,-114.9967 2844.5275,-116.1971 2840.8101,-117.3754 2836.8494,-118.5284 2832.6645,-119.653 2828.274,-120.7461 2823.696,-121.8046 2818.948,-122.8257 2814.0468,-123.8066 2809.0084,-124.7445 2803.8478,-125.637 2798.5792,-126.4816 2793.2158,-127.2759 2787.7697,-128.0177 2782.2521,-128.7052 2776.6731,-129.3362 2771.042,-129.9092 2765.367,-130.4226 2759.6556,-130.8749 2753.9143,-131.2649 2748.1491,-131.5916 2742.3651,-131.854 2736.567,-132.0515 2730.7593,-132.1834 2724.9459,-132.2495 2719.1306,-132.2495 2713.3172,-132.1834 2707.5095,-132.0515 2701.7115,-131.854 2695.9275,-131.5916 2690.1622,-131.2649 2684.421,-130.8749 2678.7095,-130.4226 2673.0346,-129.9092 2667.4035,-129.3362 2661.8245,-128.7052 2656.3069,-128.0177 2650.8608,-127.2759 2645.4974,-126.4816 2640.2288,-125.637 2635.0682,-124.7445 2630.0298,-123.8066 2625.1286,-122.8257 2620.3806,-121.8046 2615.8026,-120.7461 2611.412,-119.653 2607.2271,-118.5284 2603.2665,-117.3754 2599.549,-116.1971 2596.0941,-114.9967 2592.921,-113.7775 2590.0489,-112.543 2587.4969,-111.2964 2585.2836,-110.0411 2583.4269,-108.7807 2581.944,-107.5185 2580.8512,-106.2581 2580.1636,-105.0029 2579.895,-103.7563 2580.0577,-102.5217 2580.6623,-101.3025 2581.7179,-100.1022 2583.2314,-98.9238 2585.2075,-97.7708 2587.6492,-96.6462 2590.5569,-95.5532 2593.9286,-94.4946 2597.7601,-93.4735 2602.0447,-92.4927 2606.7731,-91.5547 2611.9337,-90.6622 2617.5123,-89.8177 2623.4923,-89.0234 2629.8549,-88.2815 2636.5788,-87.5941 2643.6407,-86.963 2651.015,-86.39 2658.6744,-85.8766 2666.5898,-85.4243 2674.7305,-85.0343 2683.0642,-84.7076 2691.5576,-84.4452 2700.1762,-84.2478 2708.8848,-84.1158 2717.6478,-84.0498 2726.4288,-84.0498 2735.1917,-84.1158"/>
<text text-anchor="middle" x="2722.0383" y="-101.9496" font-family="Times,serif" font-size="24.00" fill="#ffffff">Release Views</text>
</g>
<!-- Semantic Versioning&#45;&gt;Release Views -->
<g id="edge23" class="edge">
<title>Semantic Versioning&#45;&gt;Release Views</title>
<g id="a_edge23"><a xlink:title="Semantic Versioning &#160;enables &#160;&#160;Release Views">
<path fill="none" stroke="#28d786" d="M2566.8432,-168.7111C2593.5552,-157.5346 2626.4031,-144.1784 2655.0152,-132.8561"/>
<polygon fill="#28d786" stroke="#28d786" points="2656.5218,-136.0244 2664.5411,-129.1005 2653.9542,-129.5123 2656.5218,-136.0244"/>
</a>
</g>
</g>
<!-- Semantic Versioning&#45;&gt;Immutable Artefacts -->
<g id="edge24" class="edge">
<title>Semantic Versioning&#45;&gt;Immutable Artefacts</title>
<g id="a_edge24"><a xlink:title="Semantic Versioning &#160;reduces the failure rate of &#160;Immutable Artefacts">
<path fill="none" stroke="#d72879" d="M2464.2891,-215.2313C2438.8912,-225.8175 2407.7336,-238.4494 2379.8504,-249.474"/>
<polygon fill="#d72879" stroke="#d72879" points="2378.5533,-246.2231 2370.533,-253.1459 2381.1199,-252.7356 2378.5533,-246.2231"/>
</a>
</g>
</g>
<!-- Separation of internal versioning from Marketing versioning -->
<g id="node14" class="node">
<title>Separation of internal versioning from Marketing versioning</title>
<polygon fill="#2f28d7" stroke="#000000" stroke-width="3" points="3460.3716,-.0161 3495.0205,-.148 3529.3112,-.3455 3563.1036,-.6079 3596.2606,-.9345 3628.6496,-1.3246 3660.1425,-1.7769 3690.617,-2.2902 3719.957,-2.8633 3748.0538,-3.4943 3774.806,-4.1817 3800.1207,-4.9236 3823.9133,-5.7179 3846.1088,-6.5625 3866.641,-7.4549 3885.4539,-8.3929 3902.5008,-9.3738 3917.7452,-10.3949 3931.1602,-11.4534 3942.7288,-12.5465 3952.4434,-13.6711 3960.306,-14.8241 3966.3275,-16.0024 3970.5273,-17.2028 3972.9332,-18.4219 3973.5805,-19.6565 3972.5117,-20.9031 3969.7759,-22.1584 3965.428,-23.4188 3959.5281,-24.6809 3952.1408,-25.9414 3943.3347,-27.1966 3933.1811,-28.4432 3921.7542,-29.6778 3909.1294,-30.8969 3895.3833,-32.0973 3880.5929,-33.2756 3864.8346,-34.4287 3848.1842,-35.5533 3830.7157,-36.6463 3812.5013,-37.7049 3793.6106,-38.726 3774.1104,-39.7068 3754.0641,-40.6448 3733.5318,-41.5373 3712.5698,-42.3818 3691.2304,-43.1761 3669.5622,-43.918 3647.6094,-44.6054 3625.4125,-45.2365 3603.0082,-45.8095 3580.4294,-46.3229 3557.7054,-46.7752 3534.8627,-47.1652 3511.9245,-47.4919 3488.9119,-47.7543 3465.8435,-47.9517 3442.7365,-48.0837 3419.6069,-48.1497 3396.4697,-48.1497 3373.3401,-48.0837 3350.2331,-47.9517 3327.1647,-47.7543 3304.152,-47.4919 3281.2139,-47.1652 3258.3711,-46.7752 3235.6472,-46.3229 3213.0684,-45.8095 3190.6641,-45.2365 3168.4672,-44.6054 3146.5144,-43.918 3124.8461,-43.1761 3103.5068,-42.3818 3082.5448,-41.5373 3062.0125,-40.6448 3041.9662,-39.7068 3022.466,-38.726 3003.5752,-37.7049 2985.3608,-36.6463 2967.8924,-35.5533 2951.2419,-34.4287 2935.4837,-33.2756 2920.6933,-32.0973 2906.9472,-30.8969 2894.3224,-29.6778 2882.8954,-28.4432 2872.7419,-27.1966 2863.9357,-25.9414 2856.5485,-24.6809 2850.6486,-23.4188 2846.3006,-22.1584 2843.5649,-20.9031 2842.4961,-19.6565 2843.1434,-18.4219 2845.5493,-17.2028 2849.7491,-16.0024 2855.7705,-14.8241 2863.6332,-13.6711 2873.3478,-12.5465 2884.9164,-11.4534 2898.3314,-10.3949 2913.5757,-9.3738 2930.6227,-8.3929 2949.4355,-7.4549 2969.9678,-6.5625 2992.1633,-5.7179 3015.9559,-4.9236 3041.2705,-4.1817 3068.0228,-3.4943 3096.1195,-2.8633 3125.4596,-2.2902 3155.9341,-1.7769 3187.4269,-1.3246 3219.8159,-.9345 3252.973,-.6079 3286.7654,-.3455 3321.056,-.148 3355.705,-.0161 3390.5698,.05 3425.5068,.05 3460.3716,-.0161"/>
<text text-anchor="middle" x="3408.0383" y="-17.8499" font-family="Times,serif" font-size="24.00" fill="#ffffff">Separation of internal versioning from Marketing versioning</text>
</g>
<!-- Release Views&#45;&gt;Semantic Versioning -->
<g id="edge26" class="edge">
<title>Release Views&#45;&gt;Semantic Versioning</title>
<g id="a_edge26"><a xlink:title="Release Views &#160;reduces the failure rate of &#160;Semantic Versioning">
<path fill="none" stroke="#d72879" d="M2674.109,-130.0636C2648.5573,-140.7919 2616.6319,-153.8095 2588.0794,-165.1563"/>
<polygon fill="#d72879" stroke="#d72879" points="2586.5483,-161.9981 2578.5397,-168.9346 2589.1259,-168.5063 2586.5483,-161.9981"/>
</a>
</g>
</g>
<!-- Release Views&#45;&gt;Separation of internal versioning from Marketing versioning -->
<g id="edge25" class="edge">
<title>Release Views&#45;&gt;Separation of internal versioning from Marketing versioning</title>
<g id="a_edge25"><a xlink:title="Release Views &#160;enables &#160;&#160;Separation of internal versioning from Marketing versioning">
<path fill="none" stroke="#28d786" d="M2845.0773,-93.0657C2948.6781,-80.3648 3098.5865,-61.9869 3217.6653,-47.3885"/>
<polygon fill="#28d786" stroke="#28d786" points="3218.1335,-50.8574 3227.6332,-46.1665 3217.2816,-43.9094 3218.1335,-50.8574"/>
</a>
</g>
</g>
<!-- Immutable Artefacts&#45;&gt;Continuous Integration -->
<g id="edge28" class="edge">
<title>Immutable Artefacts&#45;&gt;Continuous Integration</title>
<g id="a_edge28"><a xlink:title="Immutable Artefacts &#160;reduces the failure rate of &#160;Continuous Integration">
<path fill="none" stroke="#d72879" d="M2214.4473,-296.2964C2155.814,-308.401 2079.3384,-323.9196 2015.5687,-336.6615"/>
<polygon fill="#d72879" stroke="#d72879" points="2014.5693,-333.2919 2005.4479,-338.6817 2015.9396,-340.1565 2014.5693,-333.2919"/>
</a>
</g>
</g>
<!-- Immutable Artefacts&#45;&gt;Semantic Versioning -->
<g id="edge27" class="edge">
<title>Immutable Artefacts&#45;&gt;Semantic Versioning</title>
<g id="a_edge27"><a xlink:title="Immutable Artefacts &#160;enables &#160;&#160;Semantic Versioning">
<path fill="none" stroke="#28d786" d="M2359.1231,-252.8108C2384.9193,-242.071 2416.4054,-229.3183 2444.3338,-218.2918"/>
<polygon fill="#28d786" stroke="#28d786" points="2445.6314,-221.5424 2453.6554,-214.6239 2443.0683,-215.0286 2445.6314,-221.5424"/>
</a>
</g>
</g>
<!-- Containerised Application -->
<g id="node17" class="node">
<title>Containerised Application</title>
<polygon fill="#2f28d7" stroke="#000000" stroke-width="3" points="879.0801,-168.2156 894.3356,-168.3475 909.4335,-168.5449 924.3119,-168.8074 938.9106,-169.134 953.1711,-169.5241 967.0371,-169.9764 980.4547,-170.4897 993.3728,-171.0627 1005.7435,-171.6938 1017.5222,-172.3812 1028.668,-173.1231 1039.1436,-173.9174 1048.916,-174.762 1057.9562,-175.6544 1066.2393,-176.5924 1073.7449,-177.5733 1080.4568,-178.5944 1086.3633,-179.6529 1091.4568,-180.746 1095.7341,-181.8706 1099.1959,-183.0236 1101.8471,-184.2019 1103.6962,-185.4023 1104.7555,-186.6214 1105.0405,-187.856 1104.5699,-189.1026 1103.3654,-190.3579 1101.451,-191.6183 1098.8534,-192.8804 1095.6008,-194.1409 1091.7236,-195.3961 1087.2531,-196.6427 1082.2219,-197.8773 1076.6633,-199.0964 1070.6111,-200.2968 1064.099,-201.4751 1057.1608,-202.6282 1049.8298,-203.7528 1042.1387,-204.8458 1034.1191,-205.9043 1025.8017,-206.9254 1017.2159,-207.9063 1008.3898,-208.8443 999.3496,-209.7368 990.1203,-210.5813 980.7248,-211.3756 971.1845,-212.1175 961.5189,-212.8049 951.7458,-213.436 941.8815,-214.009 931.9402,-214.5223 921.9351,-214.9747 911.8777,-215.3647 901.7783,-215.6914 891.6461,-215.9538 881.4893,-216.1512 871.3155,-216.2832 861.1318,-216.3492 850.9448,-216.3492 840.761,-216.2832 830.5873,-216.1512 820.4305,-215.9538 810.2983,-215.6914 800.1989,-215.3647 790.1414,-214.9747 780.1363,-214.5223 770.1951,-214.009 760.3307,-213.436 750.5577,-212.8049 740.8921,-212.1175 731.3518,-211.3756 721.9563,-210.5813 712.727,-209.7368 703.6868,-208.8443 694.8607,-207.9063 686.2749,-206.9254 677.9575,-205.9043 669.9379,-204.8458 662.2467,-203.7528 654.9157,-202.6282 647.9775,-201.4751 641.4655,-200.2968 635.4132,-199.0964 629.8547,-197.8773 624.8235,-196.6427 620.353,-195.3961 616.4757,-194.1409 613.2232,-192.8804 610.6255,-191.6183 608.7112,-190.3579 607.5067,-189.1026 607.0361,-187.856 607.3211,-186.6214 608.3804,-185.4023 610.2295,-184.2019 612.8807,-183.0236 616.3425,-181.8706 620.6198,-180.746 625.7133,-179.6529 631.6198,-178.5944 638.3317,-177.5733 645.8373,-176.5924 654.1204,-175.6544 663.1605,-174.762 672.9329,-173.9174 683.4086,-173.1231 694.5544,-172.3812 706.3331,-171.6938 718.7038,-171.0627 731.6219,-170.4897 745.0395,-169.9764 758.9055,-169.5241 773.166,-169.134 787.7647,-168.8074 802.6431,-168.5449 817.7409,-168.3475 832.9965,-168.2156 848.3471,-168.1495 863.7295,-168.1495 879.0801,-168.2156"/>
<text text-anchor="middle" x="856.0383" y="-186.0494" font-family="Times,serif" font-size="24.00" fill="#ffffff">Containerised Application</text>
</g>
<!-- Containerised Application&#45;&gt;Continuous Deployment -->
<g id="edge29" class="edge">
<title>Containerised Application&#45;&gt;Continuous Deployment</title>
<g id="a_edge29"><a xlink:title="Containerised Application &#160;reduces the failure rate of &#160;Continuous Deployment">
<path fill="none" stroke="#d72879" d="M856.0383,-167.9242C856.0383,-159.9919 856.0383,-151.0294 856.0383,-142.504"/>
<polygon fill="#d72879" stroke="#d72879" points="859.5384,-142.42 856.0383,-132.4201 852.5384,-142.4201 859.5384,-142.42"/>
</a>
</g>
</g>
<!-- Continuous Delivery&#45;&gt;Containerised Application -->
<g id="edge31" class="edge">
<title>Continuous Delivery&#45;&gt;Containerised Application</title>
<g id="a_edge31"><a xlink:title="Continuous Delivery &#160;enables &#160;&#160;Containerised Application">
<path fill="none" stroke="#28d786" d="M954.8622,-252.4744C938.8479,-242.7151 920.1796,-231.3383 903.4081,-221.1174"/>
<polygon fill="#28d786" stroke="#28d786" points="905.1954,-218.1079 894.8347,-215.8926 901.5526,-224.0854 905.1954,-218.1079"/>
</a>
</g>
</g>
<!-- Secrets Vault -->
<g id="node19" class="node">
<title>Secrets Vault</title>
<polygon fill="#2f28d7" stroke="#000000" stroke-width="3" points="146.4453,-.0161 154.6597,-.148 162.7892,-.3455 170.8006,-.6079 178.6613,-.9345 186.34,-1.3246 193.8062,-1.7769 201.031,-2.2902 207.9868,-2.8633 214.6479,-3.4943 220.9902,-4.1817 226.9917,-4.9236 232.6324,-5.7179 237.8944,-6.5625 242.7621,-7.4549 247.2222,-8.3929 251.2636,-9.3738 254.8777,-10.3949 258.058,-11.4534 260.8007,-12.5465 263.1038,-13.6711 264.9678,-14.8241 266.3954,-16.0024 267.391,-17.2028 267.9614,-18.4219 268.1149,-19.6565 267.8615,-20.9031 267.2129,-22.1584 266.1821,-23.4188 264.7834,-24.6809 263.0321,-25.9414 260.9443,-27.1966 258.5372,-28.4432 255.8281,-29.6778 252.835,-30.8969 249.5762,-32.0973 246.0697,-33.2756 242.3338,-34.4287 238.3864,-35.5533 234.245,-36.6463 229.9268,-37.7049 225.4483,-38.726 220.8253,-39.7068 216.0728,-40.6448 211.205,-41.5373 206.2355,-42.3818 201.1764,-43.1761 196.0394,-43.918 190.8349,-44.6054 185.5725,-45.2365 180.261,-45.8095 174.9081,-46.3229 169.5208,-46.7752 164.1053,-47.1652 158.6672,-47.4919 153.2115,-47.7543 147.7425,-47.9517 142.2644,-48.0837 136.7809,-48.1497 131.2957,-48.1497 125.8122,-48.0837 120.3341,-47.9517 114.8651,-47.7543 109.4093,-47.4919 103.9712,-47.1652 98.5558,-46.7752 93.1685,-46.3229 87.8156,-45.8095 82.504,-45.2365 77.2417,-44.6054 72.0372,-43.918 66.9002,-43.1761 61.8411,-42.3818 56.8715,-41.5373 52.0038,-40.6448 47.2513,-39.7068 42.6283,-38.726 38.1497,-37.7049 33.8315,-36.6463 29.6902,-35.5533 25.7428,-34.4287 22.0068,-33.2756 18.5004,-32.0973 15.2415,-30.8969 12.2485,-29.6778 9.5394,-28.4432 7.1323,-27.1966 5.0445,-25.9414 3.2932,-24.6809 1.8945,-23.4188 .8637,-22.1584 .2151,-20.9031 -.0383,-19.6565 .1152,-18.4219 .6855,-17.2028 1.6812,-16.0024 3.1088,-14.8241 4.9728,-13.6711 7.2759,-12.5465 10.0185,-11.4534 13.1989,-10.3949 16.813,-9.3738 20.8544,-8.3929 25.3145,-7.4549 30.1822,-6.5625 35.4442,-5.7179 41.0849,-4.9236 47.0864,-4.1817 53.4287,-3.4943 60.0898,-2.8633 67.0456,-2.2902 74.2704,-1.7769 81.7366,-1.3246 89.4152,-.9345 97.276,-.6079 105.2874,-.3455 113.4169,-.148 121.6313,-.0161 129.8969,.05 138.1796,.05 146.4453,-.0161"/>
<text text-anchor="middle" x="134.0383" y="-17.8499" font-family="Times,serif" font-size="24.00" fill="#ffffff">Secrets Vault</text>
</g>
<!-- Continuous Delivery&#45;&gt;Secrets Vault -->
<g id="edge32" class="edge">
<title>Continuous Delivery&#45;&gt;Secrets Vault</title>
<g id="a_edge32"><a xlink:title="Continuous Delivery &#160;better together with &#160;Secrets Vault">
<path fill="none" stroke="#d0d728" d="M840.0213,-258.8685C818.842,-256.5329 797.3911,-254.2681 777.0383,-252.2992 674.5389,-242.3835 408.4465,-259.6507 315.0383,-216.2992 239.3764,-181.184 177.1829,-102.1454 149.2454,-57.1098"/>
<polygon fill="#d0d728" stroke="#d0d728" points="152.1124,-55.0853 143.9659,-48.3115 146.1101,-58.6871 152.1124,-55.0853"/>
</a>
</g>
</g>
<!-- Continuous Delivery&#45;&gt;Continuous Deployment -->
<g id="edge30" class="edge">
<title>Continuous Delivery&#45;&gt;Continuous Deployment</title>
<g id="a_edge30"><a xlink:title="Continuous Delivery &#160;enables &#160;&#160;Continuous Deployment">
<path fill="none" stroke="#28d786" d="M1070.7634,-253.5199C1087.8834,-244.6986 1103.9368,-232.6499 1114.0383,-216.2992 1125.2742,-198.1124 1127.3312,-184.9417 1114.0383,-168.1995 1099.257,-149.5827 1054.3415,-136.2093 1006.0397,-126.8802"/>
<polygon fill="#28d786" stroke="#28d786" points="1006.4896,-123.4038 996.0172,-125.0093 1005.2051,-130.285 1006.4896,-123.4038"/>
</a>
</g>
</g>
<!-- Secrets Vault&#45;&gt;Continuous Delivery -->
<g id="edge33" class="edge">
<title>Secrets Vault&#45;&gt;Continuous Delivery</title>
<g id="a_edge33"><a xlink:title="Secrets Vault &#160;better together with &#160;Continuous Delivery">
<path fill="none" stroke="#d0d728" d="M154.3545,-47.9751C186.3328,-90.5844 251.951,-178.666 333.0383,-216.2992 426.4465,-259.6507 692.5389,-242.3835 795.0383,-252.2992 809.2966,-253.6786 824.0938,-255.2031 838.8933,-256.7955"/>
<polygon fill="#d0d728" stroke="#d0d728" points="838.8134,-260.3073 849.1329,-257.9078 839.5694,-253.3482 838.8134,-260.3073"/>
</a>
</g>
</g>
<!-- Secrets Vault&#45;&gt;Continuous Deployment -->
<g id="edge34" class="edge">
<title>Secrets Vault&#45;&gt;Continuous Deployment</title>
<g id="a_edge34"><a xlink:title="Secrets Vault &#160;better together with &#160;Continuous Deployment">
<path fill="none" stroke="#d0d728" d="M225.4439,-38.8669C245.4366,-42.1504 266.4556,-45.4403 286.0383,-48.0997 410.338,-64.9807 550.2195,-79.609 660.3248,-90.2005"/>
<polygon fill="#d0d728" stroke="#d0d728" points="660.26,-93.7103 670.5484,-91.1806 660.9281,-86.7422 660.26,-93.7103"/>
</a>
</g>
</g>
<!-- Continuous Deployment&#45;&gt;Dark Launching -->
<g id="edge35" class="edge">
<title>Continuous Deployment&#45;&gt;Dark Launching</title>
<g id="a_edge35"><a xlink:title="Continuous Deployment &#160;enables &#160;&#160;Dark Launching">
<path fill="none" stroke="#28d786" d="M743.1084,-86.2181C679.4926,-73.3787 600.9738,-57.2653 540.6188,-44.6606"/>
<polygon fill="#28d786" stroke="#28d786" points="541.2182,-41.2104 530.7135,-42.5893 539.7854,-48.0621 541.2182,-41.2104"/>
</a>
</g>
</g>
<!-- Continuous Deployment&#45;&gt;Secrets Vault -->
<g id="edge40" class="edge">
<title>Continuous Deployment&#45;&gt;Secrets Vault</title>
<g id="a_edge40"><a xlink:title="Continuous Deployment &#160;better together with &#160;Secrets Vault">
<path fill="none" stroke="#d0d728" d="M663.4085,-91.9842C548.3297,-81.281 399.473,-65.9497 268.0383,-48.0997 254.7896,-46.3005 240.8834,-44.2126 227.2432,-42.0335"/>
<polygon fill="#d0d728" stroke="#d0d728" points="227.8023,-38.5785 217.3711,-40.4333 226.6823,-45.4883 227.8023,-38.5785"/>
</a>
</g>
</g>
<!-- Microservice Ecosystem -->
<g id="node23" class="node">
<title>Microservice Ecosystem</title>
<polygon fill="#2f28d7" stroke="#000000" stroke-width="3" points="2200.7271,-.0161 2215.0869,-.148 2229.2982,-.3455 2243.3029,-.6079 2257.0444,-.9345 2270.4676,-1.3246 2283.5194,-1.7769 2296.1491,-2.2902 2308.3087,-2.8633 2319.953,-3.4943 2331.0401,-4.1817 2341.5314,-4.9236 2351.3919,-5.7179 2360.5905,-6.5625 2369.0999,-7.4549 2376.8966,-8.3929 2383.9615,-9.3738 2390.2793,-10.3949 2395.8389,-11.4534 2400.6334,-12.5465 2404.6595,-13.6711 2407.918,-14.8241 2410.4135,-16.0024 2412.1541,-17.2028 2413.1512,-18.4219 2413.4194,-19.6565 2412.9765,-20.9031 2411.8427,-22.1584 2410.0408,-23.4188 2407.5956,-24.6809 2404.5341,-25.9414 2400.8845,-27.1966 2396.6765,-28.4432 2391.9407,-29.6778 2386.7086,-30.8969 2381.0117,-32.0973 2374.882,-33.2756 2368.3512,-34.4287 2361.4507,-35.5533 2354.2111,-36.6463 2346.6624,-37.7049 2338.8334,-38.726 2330.7518,-39.7068 2322.4439,-40.6448 2313.9346,-41.5373 2305.2472,-42.3818 2296.4034,-43.1761 2287.4232,-43.918 2278.3252,-44.6054 2269.126,-45.2365 2259.8409,-45.8095 2250.4834,-46.3229 2241.0658,-46.7752 2231.5989,-47.1652 2222.0925,-47.4919 2212.5552,-47.7543 2202.9949,-47.9517 2193.4185,-48.0837 2183.8327,-48.1497 2174.2439,-48.1497 2164.6581,-48.0837 2155.0817,-47.9517 2145.5213,-47.7543 2135.9841,-47.4919 2126.4777,-47.1652 2117.0108,-46.7752 2107.5932,-46.3229 2098.2357,-45.8095 2088.9506,-45.2365 2079.7514,-44.6054 2070.6533,-43.918 2061.6732,-43.1761 2052.8294,-42.3818 2044.142,-41.5373 2035.6327,-40.6448 2027.3248,-39.7068 2019.2432,-38.726 2011.4142,-37.7049 2003.8655,-36.6463 1996.6259,-35.5533 1989.7254,-34.4287 1983.1946,-33.2756 1977.0649,-32.0973 1971.368,-30.8969 1966.1358,-29.6778 1961.4001,-28.4432 1957.1921,-27.1966 1953.5425,-25.9414 1950.481,-24.6809 1948.0358,-23.4188 1946.2339,-22.1584 1945.1001,-20.9031 1944.6571,-19.6565 1944.9254,-18.4219 1945.9225,-17.2028 1947.663,-16.0024 1950.1586,-14.8241 1953.4171,-13.6711 1957.4432,-12.5465 1962.2376,-11.4534 1967.7973,-10.3949 1974.1151,-9.3738 1981.18,-8.3929 1988.9767,-7.4549 1997.486,-6.5625 2006.6846,-5.7179 2016.5452,-4.9236 2027.0365,-4.1817 2038.1236,-3.4943 2049.7679,-2.8633 2061.9275,-2.2902 2074.5572,-1.7769 2087.609,-1.3246 2101.0321,-.9345 2114.7736,-.6079 2128.7784,-.3455 2142.9897,-.148 2157.3495,-.0161 2171.7987,.05 2186.2779,.05 2200.7271,-.0161"/>
<text text-anchor="middle" x="2179.0383" y="-17.8499" font-family="Times,serif" font-size="24.00" fill="#ffffff">Microservice Ecosystem</text>
</g>
<!-- Continuous Deployment&#45;&gt;Microservice Ecosystem -->
<g id="edge39" class="edge">
<title>Continuous Deployment&#45;&gt;Microservice Ecosystem</title>
<g id="a_edge39"><a xlink:title="Continuous Deployment &#160;enables &#160;&#160;Microservice Ecosystem">
<path fill="none" stroke="#28d786" d="M1082.0024,-98.3818C1300.4422,-88.2759 1640.6503,-70.7894 1935.0383,-48.0997 1962.0643,-46.0167 1990.7426,-43.4819 2018.5791,-40.849"/>
<polygon fill="#28d786" stroke="#28d786" points="2019.1693,-44.3086 2028.7919,-39.8751 2018.5048,-37.3402 2019.1693,-44.3086"/>
</a>
</g>
</g>
<!-- Blue/Green Deployment -->
<g id="node24" class="node">
<title>Blue/Green Deployment</title>
<polygon fill="#2f28d7" stroke="#000000" stroke-width="3" points="877.5872,-.0161 891.8543,-.148 905.9739,-.3455 919.8883,-.6079 933.5412,-.9345 946.8778,-1.3246 959.8453,-1.7769 972.3936,-2.2902 984.4747,-2.8633 996.0439,-3.4943 1007.0595,-4.1817 1017.4831,-4.9236 1027.28,-5.7179 1036.4193,-6.5625 1044.8737,-7.4549 1052.6201,-8.3929 1059.6394,-9.3738 1065.9165,-10.3949 1071.4402,-11.4534 1076.2037,-12.5465 1080.2039,-13.6711 1083.4414,-14.8241 1085.9208,-16.0024 1087.6501,-17.2028 1088.6408,-18.4219 1088.9073,-19.6565 1088.4672,-20.9031 1087.3408,-22.1584 1085.5505,-23.4188 1083.1211,-24.6809 1080.0793,-25.9414 1076.4532,-27.1966 1072.2724,-28.4432 1067.5672,-29.6778 1062.3688,-30.8969 1056.7087,-32.0973 1050.6185,-33.2756 1044.1299,-34.4287 1037.2738,-35.5533 1030.081,-36.6463 1022.581,-37.7049 1014.8025,-38.726 1006.773,-39.7068 998.5187,-40.6448 990.0643,-41.5373 981.4329,-42.3818 972.6462,-43.1761 963.724,-43.918 954.6847,-44.6054 945.5448,-45.2365 936.3196,-45.8095 927.0225,-46.3229 917.6656,-46.7752 908.2598,-47.1652 898.8147,-47.4919 889.339,-47.7543 879.8403,-47.9517 870.3257,-48.0837 860.8018,-48.1497 851.2748,-48.1497 841.7509,-48.0837 832.2363,-47.9517 822.7376,-47.7543 813.2618,-47.4919 803.8168,-47.1652 794.411,-46.7752 785.0541,-46.3229 775.757,-45.8095 766.5317,-45.2365 757.3919,-44.6054 748.3526,-43.918 739.4304,-43.1761 730.6437,-42.3818 722.0123,-41.5373 713.5579,-40.6448 705.3036,-39.7068 697.2741,-38.726 689.4956,-37.7049 681.9956,-36.6463 674.8027,-35.5533 667.9467,-34.4287 661.4581,-33.2756 655.3679,-32.0973 649.7078,-30.8969 644.5094,-29.6778 639.8042,-28.4432 635.6233,-27.1966 631.9973,-25.9414 628.9555,-24.6809 626.5261,-23.4188 624.7358,-22.1584 623.6093,-20.9031 623.1693,-19.6565 623.4358,-18.4219 624.4264,-17.2028 626.1558,-16.0024 628.6352,-14.8241 631.8727,-13.6711 635.8728,-12.5465 640.6363,-11.4534 646.1601,-10.3949 652.4372,-9.3738 659.4565,-8.3929 667.2029,-7.4549 675.6573,-6.5625 684.7966,-5.7179 694.5935,-4.9236 705.0171,-4.1817 716.0327,-3.4943 727.6019,-2.8633 739.683,-2.2902 752.2312,-1.7769 765.1988,-1.3246 778.5354,-.9345 792.1882,-.6079 806.1026,-.3455 820.2223,-.148 834.4894,-.0161 848.8454,.05 863.2311,.05 877.5872,-.0161"/>
<text text-anchor="middle" x="856.0383" y="-17.8499" font-family="Times,serif" font-size="24.00" fill="#ffffff">Blue/Green Deployment</text>
</g>
<!-- Continuous Deployment&#45;&gt;Blue/Green Deployment -->
<g id="edge38" class="edge">
<title>Continuous Deployment&#45;&gt;Blue/Green Deployment</title>
<g id="a_edge38"><a xlink:title="Continuous Deployment &#160;enables &#160;&#160;Blue/Green Deployment">
<path fill="none" stroke="#28d786" d="M856.0383,-83.8245C856.0383,-75.8921 856.0383,-66.9297 856.0383,-58.4042"/>
<polygon fill="#28d786" stroke="#28d786" points="859.5384,-58.3203 856.0383,-48.3203 852.5384,-58.3204 859.5384,-58.3203"/>
</a>
</g>
</g>
<!-- Canary Releases -->
<g id="node25" class="node">
<title>Canary Releases</title>
<polygon fill="#2f28d7" stroke="#000000" stroke-width="3" points="1286.2438,-.0161 1296.311,-.148 1306.2742,-.3455 1316.0926,-.6079 1325.7264,-.9345 1335.1371,-1.3246 1344.2873,-1.7769 1353.1417,-2.2902 1361.6665,-2.8633 1369.83,-3.4943 1377.6029,-4.1817 1384.9581,-4.9236 1391.8711,-5.7179 1398.32,-6.5625 1404.2856,-7.4549 1409.7517,-8.3929 1414.7047,-9.3738 1419.134,-10.3949 1423.0317,-11.4534 1426.393,-12.5465 1429.2156,-13.6711 1431.5,-14.8241 1433.2496,-16.0024 1434.4698,-17.2028 1435.1689,-18.4219 1435.3569,-19.6565 1435.0464,-20.9031 1434.2515,-22.1584 1432.9882,-23.4188 1431.274,-24.6809 1429.1276,-25.9414 1426.569,-27.1966 1423.6189,-28.4432 1420.2988,-29.6778 1416.6306,-30.8969 1412.6367,-32.0973 1408.3393,-33.2756 1403.7608,-34.4287 1398.923,-35.5533 1393.8475,-36.6463 1388.5553,-37.7049 1383.0666,-38.726 1377.4008,-39.7068 1371.5763,-40.6448 1365.6106,-41.5373 1359.5201,-42.3818 1353.32,-43.1761 1347.0242,-43.918 1340.6458,-44.6054 1334.1965,-45.2365 1327.6869,-45.8095 1321.1266,-46.3229 1314.5242,-46.7752 1307.8872,-47.1652 1301.2225,-47.4919 1294.5362,-47.7543 1287.8336,-47.9517 1281.1199,-48.0837 1274.3995,-48.1497 1267.677,-48.1497 1260.9567,-48.0837 1254.2429,-47.9517 1247.5404,-47.7543 1240.8541,-47.4919 1234.1894,-47.1652 1227.5524,-46.7752 1220.9499,-46.3229 1214.3897,-45.8095 1207.8801,-45.2365 1201.4308,-44.6054 1195.0524,-43.918 1188.7566,-43.1761 1182.5565,-42.3818 1176.4659,-41.5373 1170.5003,-40.6448 1164.6758,-39.7068 1159.01,-38.726 1153.5213,-37.7049 1148.2291,-36.6463 1143.1536,-35.5533 1138.3158,-34.4287 1133.7372,-33.2756 1129.4399,-32.0973 1125.4459,-30.8969 1121.7778,-29.6778 1118.4577,-28.4432 1115.5076,-27.1966 1112.9489,-25.9414 1110.8026,-24.6809 1109.0883,-23.4188 1107.825,-22.1584 1107.0302,-20.9031 1106.7196,-19.6565 1106.9077,-18.4219 1107.6067,-17.2028 1108.827,-16.0024 1110.5765,-14.8241 1112.861,-13.6711 1115.6836,-12.5465 1119.0449,-11.4534 1122.9426,-10.3949 1127.3719,-9.3738 1132.3249,-8.3929 1137.791,-7.4549 1143.7566,-6.5625 1150.2055,-5.7179 1157.1185,-4.9236 1164.4737,-4.1817 1172.2466,-3.4943 1180.4101,-2.8633 1188.9349,-2.2902 1197.7892,-1.7769 1206.9395,-1.3246 1216.3502,-.9345 1225.984,-.6079 1235.8024,-.3455 1245.7655,-.148 1255.8328,-.0161 1265.9628,.05 1276.1138,.05 1286.2438,-.0161"/>
<text text-anchor="middle" x="1271.0383" y="-17.8499" font-family="Times,serif" font-size="24.00" fill="#ffffff">Canary Releases</text>
</g>
<!-- Continuous Deployment&#45;&gt;Canary Releases -->
<g id="edge37" class="edge">
<title>Continuous Deployment&#45;&gt;Canary Releases</title>
<g id="a_edge37"><a xlink:title="Continuous Deployment &#160;enables &#160;&#160;Canary Releases">
<path fill="none" stroke="#28d786" d="M965.0747,-86.0534C1029.0163,-73.0956 1109.1971,-56.847 1171.4354,-44.2344"/>
<polygon fill="#28d786" stroke="#28d786" points="1172.1594,-47.6589 1181.265,-42.2424 1170.7691,-40.7984 1172.1594,-47.6589"/>
</a>
</g>
</g>
<!-- Crops not Garden plants -->
<g id="node27" class="node">
<title>Crops not Garden plants</title>
<polygon fill="#2f28d7" stroke="#000000" stroke-width="3" points="1711.9138,-.0161 1726.3973,-.148 1740.7309,-.3455 1754.8563,-.6079 1768.7161,-.9345 1782.2548,-1.3246 1795.419,-1.7769 1808.1574,-2.2902 1820.4217,-2.8633 1832.1663,-3.4943 1843.3488,-4.1817 1853.9305,-4.9236 1863.8759,-5.7179 1873.1537,-6.5625 1881.7363,-7.4549 1889.6001,-8.3929 1896.7258,-9.3738 1903.098,-10.3949 1908.7056,-11.4534 1913.5413,-12.5465 1917.602,-13.6711 1920.8887,-14.8241 1923.4056,-16.0024 1925.1612,-17.2028 1926.1669,-18.4219 1926.4374,-19.6565 1925.9907,-20.9031 1924.8471,-22.1584 1923.0297,-23.4188 1920.5635,-24.6809 1917.4756,-25.9414 1913.7945,-27.1966 1909.5503,-28.4432 1904.7738,-29.6778 1899.4966,-30.8969 1893.7507,-32.0973 1887.5682,-33.2756 1880.9812,-34.4287 1874.0212,-35.5533 1866.7193,-36.6463 1859.1056,-37.7049 1851.2092,-38.726 1843.058,-39.7068 1834.6786,-40.6448 1826.096,-41.5373 1817.3338,-42.3818 1808.4139,-43.1761 1799.3564,-43.918 1790.1801,-44.6054 1780.9017,-45.2365 1771.5366,-45.8095 1762.0985,-46.3229 1752.5998,-46.7752 1743.0515,-47.1652 1733.4632,-47.4919 1723.8438,-47.7543 1714.2011,-47.9517 1704.5423,-48.0837 1694.874,-48.1497 1685.2026,-48.1497 1675.5343,-48.0837 1665.8755,-47.9517 1656.2328,-47.7543 1646.6134,-47.4919 1637.0251,-47.1652 1627.4768,-46.7752 1617.9781,-46.3229 1608.54,-45.8095 1599.1749,-45.2365 1589.8965,-44.6054 1580.7202,-43.918 1571.6627,-43.1761 1562.7428,-42.3818 1553.9806,-41.5373 1545.398,-40.6448 1537.0185,-39.7068 1528.8673,-38.726 1520.9709,-37.7049 1513.3572,-36.6463 1506.0553,-35.5533 1499.0954,-34.4287 1492.5084,-33.2756 1486.3259,-32.0973 1480.58,-30.8969 1475.3028,-29.6778 1470.5263,-28.4432 1466.282,-27.1966 1462.601,-25.9414 1459.5131,-24.6809 1457.0469,-23.4188 1455.2295,-22.1584 1454.0859,-20.9031 1453.6391,-19.6565 1453.9097,-18.4219 1454.9154,-17.2028 1456.6709,-16.0024 1459.1879,-14.8241 1462.4745,-13.6711 1466.5353,-12.5465 1471.371,-11.4534 1476.9785,-10.3949 1483.3508,-9.3738 1490.4764,-8.3929 1498.3403,-7.4549 1506.9229,-6.5625 1516.2007,-5.7179 1526.1461,-4.9236 1536.7277,-4.1817 1547.9103,-3.4943 1559.6549,-2.8633 1571.9191,-2.2902 1584.6576,-1.7769 1597.8218,-1.3246 1611.3605,-.9345 1625.2203,-.6079 1639.3457,-.3455 1653.6793,-.148 1668.1627,-.0161 1682.7364,.05 1697.3402,.05 1711.9138,-.0161"/>
<text text-anchor="middle" x="1690.0383" y="-17.8499" font-family="Times,serif" font-size="24.00" fill="#ffffff">Crops not Garden plants</text>
</g>
<!-- Continuous Deployment&#45;&gt;Crops not Garden plants -->
<g id="edge36" class="edge">
<title>Continuous Deployment&#45;&gt;Crops not Garden plants</title>
<g id="a_edge36"><a xlink:title="Continuous Deployment &#160;enables &#160;&#160;Crops not Garden plants">
<path fill="none" stroke="#28d786" d="M1030.0554,-90.0306C1175.0136,-75.2609 1380.1029,-54.5866 1523.067,-40.3359"/>
<polygon fill="#28d786" stroke="#28d786" points="1523.6477,-43.7955 1533.2513,-39.3211 1522.9536,-36.8299 1523.6477,-43.7955"/>
</a>
</g>
</g>
<!-- Feature Toggles -->
<g id="node21" class="node">
<title>Feature Toggles</title>
<polygon fill="#2f28d7" stroke="#000000" stroke-width="3" points="2417.7309,-84.1158 2427.4586,-84.2478 2437.0857,-84.4452 2446.5729,-84.7076 2455.8818,-85.0343 2464.975,-85.4243 2473.8167,-85.8766 2482.3724,-86.39 2490.6096,-86.963 2498.4978,-87.5941 2506.0085,-88.2815 2513.1156,-89.0234 2519.7954,-89.8177 2526.0268,-90.6622 2531.7912,-91.5547 2537.073,-92.4927 2541.8589,-93.4735 2546.1388,-94.4946 2549.905,-95.5532 2553.1529,-96.6462 2555.8803,-97.7708 2558.0877,-98.9238 2559.7783,-100.1022 2560.9574,-101.3025 2561.6328,-102.5217 2561.8145,-103.7563 2561.5145,-105.0029 2560.7464,-106.2581 2559.5257,-107.5185 2557.8693,-108.7807 2555.7953,-110.0411 2553.323,-111.2964 2550.4724,-112.543 2547.2643,-113.7775 2543.7198,-114.9967 2539.8606,-116.1971 2535.7082,-117.3754 2531.2841,-118.5284 2526.6095,-119.653 2521.7052,-120.7461 2516.5915,-121.8046 2511.2879,-122.8257 2505.8132,-123.8066 2500.1852,-124.7445 2494.4208,-125.637 2488.5357,-126.4816 2482.5446,-127.2759 2476.4612,-128.0177 2470.298,-128.7052 2464.0662,-129.3362 2457.7762,-129.9092 2451.4372,-130.4226 2445.0574,-130.8749 2438.6443,-131.2649 2432.2044,-131.5916 2425.7436,-131.854 2419.2671,-132.0515 2412.7798,-132.1834 2406.2862,-132.2495 2399.7904,-132.2495 2393.2967,-132.1834 2386.8095,-132.0515 2380.333,-131.854 2373.8722,-131.5916 2367.4323,-131.2649 2361.0192,-130.8749 2354.6394,-130.4226 2348.3004,-129.9092 2342.0104,-129.3362 2335.7786,-128.7052 2329.6153,-128.0177 2323.532,-127.2759 2317.5409,-126.4816 2311.6558,-125.637 2305.8914,-124.7445 2300.2634,-123.8066 2294.7887,-122.8257 2289.4851,-121.8046 2284.3714,-120.7461 2279.4671,-119.653 2274.7925,-118.5284 2270.3684,-117.3754 2266.2159,-116.1971 2262.3567,-114.9967 2258.8123,-113.7775 2255.6042,-112.543 2252.7536,-111.2964 2250.2812,-110.0411 2248.2072,-108.7807 2246.5508,-107.5185 2245.3302,-106.2581 2244.5621,-105.0029 2244.262,-103.7563 2244.4438,-102.5217 2245.1192,-101.3025 2246.2983,-100.1022 2247.9888,-98.9238 2250.1963,-97.7708 2252.9237,-96.6462 2256.1716,-95.5532 2259.9378,-94.4946 2264.2177,-93.4735 2269.0036,-92.4927 2274.2853,-91.5547 2280.0498,-90.6622 2286.2812,-89.8177 2292.961,-89.0234 2300.0681,-88.2815 2307.5788,-87.5941 2315.4669,-86.963 2323.7042,-86.39 2332.2599,-85.8766 2341.1015,-85.4243 2350.1948,-85.0343 2359.5036,-84.7076 2368.9909,-84.4452 2378.618,-84.2478 2388.3457,-84.1158 2398.134,-84.0498 2407.9426,-84.0498 2417.7309,-84.1158"/>
<text text-anchor="middle" x="2403.0383" y="-101.9496" font-family="Times,serif" font-size="24.00" fill="#ffffff">Feature Toggles</text>
</g>
<!-- Config Database/Git -->
<g id="node22" class="node">
<title>Config Database/Git</title>
<polygon fill="#2f28d7" stroke="#000000" stroke-width="3" points="2646.229,-.0161 2658.2727,-.148 2670.1919,-.3455 2681.9379,-.6079 2693.4631,-.9345 2704.7213,-1.3246 2715.668,-1.7769 2726.2607,-2.2902 2736.4591,-2.8633 2746.2254,-3.4943 2755.5242,-4.1817 2764.3234,-4.9236 2772.5936,-5.7179 2780.3086,-6.5625 2787.4455,-7.4549 2793.9847,-8.3929 2799.9101,-9.3738 2805.2089,-10.3949 2809.8719,-11.4534 2813.893,-12.5465 2817.2698,-13.6711 2820.0028,-14.8241 2822.0958,-16.0024 2823.5556,-17.2028 2824.3919,-18.4219 2824.6169,-19.6565 2824.2454,-20.9031 2823.2944,-22.1584 2821.7831,-23.4188 2819.7324,-24.6809 2817.1646,-25.9414 2814.1036,-27.1966 2810.5743,-28.4432 2806.6024,-29.6778 2802.2141,-30.8969 2797.4361,-32.0973 2792.295,-33.2756 2786.8176,-34.4287 2781.03,-35.5533 2774.9581,-36.6463 2768.6269,-37.7049 2762.0606,-38.726 2755.2824,-39.7068 2748.3145,-40.6448 2741.1776,-41.5373 2733.8913,-42.3818 2726.4739,-43.1761 2718.9422,-43.918 2711.3115,-44.6054 2703.5961,-45.2365 2695.8085,-45.8095 2687.9602,-46.3229 2680.0616,-46.7752 2672.1216,-47.1652 2664.1484,-47.4919 2656.1494,-47.7543 2648.131,-47.9517 2640.0991,-48.0837 2632.0594,-48.1497 2624.0171,-48.1497 2615.9774,-48.0837 2607.9456,-47.9517 2599.9272,-47.7543 2591.9281,-47.4919 2583.955,-47.1652 2576.015,-46.7752 2568.1163,-46.3229 2560.2681,-45.8095 2552.4805,-45.2365 2544.765,-44.6054 2537.1344,-43.918 2529.6026,-43.1761 2522.1852,-42.3818 2514.899,-41.5373 2507.7621,-40.6448 2500.7941,-39.7068 2494.016,-38.726 2487.4497,-37.7049 2481.1185,-36.6463 2475.0466,-35.5533 2469.259,-34.4287 2463.7816,-33.2756 2458.6405,-32.0973 2453.8625,-30.8969 2449.4742,-29.6778 2445.5022,-28.4432 2441.9729,-27.1966 2438.912,-25.9414 2436.3442,-24.6809 2434.2934,-23.4188 2432.7821,-22.1584 2431.8312,-20.9031 2431.4597,-19.6565 2431.6847,-18.4219 2432.521,-17.2028 2433.9808,-16.0024 2436.0738,-14.8241 2438.8068,-13.6711 2442.1835,-12.5465 2446.2047,-11.4534 2450.8677,-10.3949 2456.1665,-9.3738 2462.0919,-8.3929 2468.6311,-7.4549 2475.768,-6.5625 2483.483,-5.7179 2491.7531,-4.9236 2500.5523,-4.1817 2509.8512,-3.4943 2519.6175,-2.8633 2529.8159,-2.2902 2540.4086,-1.7769 2551.3553,-1.3246 2562.6135,-.9345 2574.1387,-.6079 2585.8846,-.3455 2597.8039,-.148 2609.8476,-.0161 2621.9664,.05 2634.1102,.05 2646.229,-.0161"/>
<text text-anchor="middle" x="2628.0383" y="-17.8499" font-family="Times,serif" font-size="24.00" fill="#ffffff">Config Database/Git</text>
</g>
<!-- Feature Toggles&#45;&gt;Config Database/Git -->
<g id="edge42" class="edge">
<title>Feature Toggles&#45;&gt;Config Database/Git</title>
<g id="a_edge42"><a xlink:title="Feature Toggles &#160;better together with &#160;Config Database/Git">
<path fill="none" stroke="#d0d728" d="M2458.7191,-85.0578C2487.3834,-74.0408 2522.6793,-60.8279 2553.6359,-49.5198"/>
<polygon fill="#d0d728" stroke="#d0d728" points="2554.8931,-52.7869 2563.0916,-46.0761 2552.4976,-46.2095 2554.8931,-52.7869"/>
</a>
</g>
</g>
<!-- Feature Toggles&#45;&gt;Microservice Ecosystem -->
<g id="edge41" class="edge">
<title>Feature Toggles&#45;&gt;Microservice Ecosystem</title>
<g id="a_edge41"><a xlink:title="Feature Toggles &#160;reduces the failure rate of &#160;Microservice Ecosystem">
<path fill="none" stroke="#d72879" d="M2342.1252,-85.2801C2313.4845,-74.5271 2279.1714,-61.6444 2249.4241,-50.4759"/>
<polygon fill="#d72879" stroke="#d72879" points="2250.5314,-47.1531 2239.9393,-46.9149 2248.071,-53.7065 2250.5314,-47.1531"/>
</a>
</g>
</g>
<!-- Config Database/Git&#45;&gt;Feature Toggles -->
<g id="edge43" class="edge">
<title>Config Database/Git&#45;&gt;Feature Toggles</title>
<g id="a_edge43"><a xlink:title="Config Database/Git &#160;better together with &#160;Feature Toggles">
<path fill="none" stroke="#d0d728" d="M2573.6382,-46.6493C2545.1918,-57.593 2509.9582,-70.7912 2478.8882,-82.1506"/>
<polygon fill="#d0d728" stroke="#d0d728" points="2477.5881,-78.8992 2469.3916,-85.6124 2479.9856,-85.4759 2477.5881,-78.8992"/>
</a>
</g>
</g>
<!-- Chaos Agent -->
<g id="node26" class="node">
<title>Chaos Agent</title>
<polygon fill="#2f28d7" stroke="#000000" stroke-width="3" points="472.8856,-168.2156 480.7294,-168.3475 488.4922,-168.5449 496.1422,-168.8074 503.6483,-169.134 510.9806,-169.5241 518.11,-169.9764 525.0088,-170.4897 531.6509,-171.0627 538.0115,-171.6938 544.0677,-172.3812 549.7984,-173.1231 555.1846,-173.9174 560.2093,-174.762 564.8574,-175.6544 569.1163,-176.5924 572.9754,-177.5733 576.4264,-178.5944 579.4633,-179.6529 582.0822,-180.746 584.2814,-181.8706 586.0614,-183.0236 587.4245,-184.2019 588.3753,-185.4023 588.9199,-186.6214 589.0665,-187.856 588.8245,-189.1026 588.2052,-190.3579 587.2209,-191.6183 585.8853,-192.8804 584.2129,-194.1409 582.2194,-195.3961 579.9208,-196.6427 577.334,-197.8773 574.4759,-199.0964 571.3641,-200.2968 568.0158,-201.4751 564.4485,-202.6282 560.6791,-203.7528 556.7246,-204.8458 552.6012,-205.9043 548.3247,-206.9254 543.9102,-207.9063 539.3721,-208.8443 534.7239,-209.7368 529.9785,-210.5813 525.1477,-211.3756 520.2424,-212.1175 515.2727,-212.8049 510.2478,-213.436 505.1758,-214.009 500.0644,-214.5223 494.9201,-214.9747 489.749,-215.3647 484.5562,-215.6914 479.3466,-215.9538 474.1243,-216.1512 468.8933,-216.2832 463.6572,-216.3492 458.4194,-216.3492 453.1833,-216.2832 447.9523,-216.1512 442.73,-215.9538 437.5204,-215.6914 432.3276,-215.3647 427.1564,-214.9747 422.0122,-214.5223 416.9007,-214.009 411.8288,-213.436 406.8039,-212.8049 401.8342,-212.1175 396.9289,-211.3756 392.098,-210.5813 387.3526,-209.7368 382.7045,-208.8443 378.1664,-207.9063 373.7519,-206.9254 369.4754,-205.9043 365.352,-204.8458 361.3975,-203.7528 357.6281,-202.6282 354.0608,-201.4751 350.7125,-200.2968 347.6006,-199.0964 344.7426,-197.8773 342.1558,-196.6427 339.8572,-195.3961 337.8636,-194.1409 336.1913,-192.8804 334.8557,-191.6183 333.8714,-190.3579 333.252,-189.1026 333.0101,-187.856 333.1566,-186.6214 333.7013,-185.4023 334.652,-184.2019 336.0152,-183.0236 337.7951,-181.8706 339.9943,-180.746 342.6133,-179.6529 345.6502,-178.5944 349.1012,-177.5733 352.9603,-176.5924 357.2192,-175.6544 361.8673,-174.762 366.8919,-173.9174 372.2782,-173.1231 378.0089,-172.3812 384.0651,-171.6938 390.4257,-171.0627 397.0677,-170.4897 403.9666,-169.9764 411.096,-169.5241 418.4283,-169.134 425.9344,-168.8074 433.5844,-168.5449 441.3471,-168.3475 449.191,-168.2156 457.0838,-168.1495 464.9928,-168.1495 472.8856,-168.2156"/>
<text text-anchor="middle" x="461.0383" y="-186.0494" font-family="Times,serif" font-size="24.00" fill="#ffffff">Chaos Agent</text>
</g>
<!-- Chaos Agent&#45;&gt;Continuous Deployment -->
<g id="edge44" class="edge">
<title>Chaos Agent&#45;&gt;Continuous Deployment</title>
<g id="a_edge44"><a xlink:title="Chaos Agent &#160;reduces the failure rate of &#160;Continuous Deployment">
<path fill="none" stroke="#d72879" d="M550.6699,-173.1658C609.5466,-160.6303 686.8725,-144.1668 748.9796,-130.9436"/>
<polygon fill="#d72879" stroke="#d72879" points="749.7597,-134.356 758.8115,-128.8502 748.3019,-127.5095 749.7597,-134.356"/>
</a>
</g>
</g>
<!-- Crops not Garden plants&#45;&gt;Continuous Deployment -->
<g id="edge45" class="edge">
<title>Crops not Garden plants&#45;&gt;Continuous Deployment</title>
<g id="a_edge45"><a xlink:title="Crops not Garden plants &#160;reduces the failure rate of &#160;Continuous Deployment">
<path fill="none" stroke="#d72879" d="M1538.4948,-39.8772C1400.1515,-53.9967 1195.1287,-74.6811 1045.9125,-89.5788"/>
<polygon fill="#d72879" stroke="#d72879" points="1045.3197,-86.1204 1035.7168,-90.5963 1046.015,-93.0858 1045.3197,-86.1204"/>
</a>
</g>
</g>
</g>
</svg>
