<?xml version="1.0" encoding="UTF-8" standalone="no"?>
<!DOCTYPE svg PUBLIC "-//W3C//DTD SVG 1.1//EN"
 "http://www.w3.org/Graphics/SVG/1.1/DTD/svg11.dtd">
<!-- Generated by graphviz version 2.40.1 (20161225.0304)
 -->
<!-- Title: G Pages: 1 -->
<svg width="5763pt" height="537pt"
 viewBox="0.00 0.00 5762.81 537.11" xmlns="http://www.w3.org/2000/svg" xmlns:xlink="http://www.w3.org/1999/xlink">
<g id="graph0" class="graph" transform="scale(1 1) rotate(0) translate(4 533.1057)">
<title>G</title>
<polygon fill="#ffffff" stroke="transparent" points="-4,4 -4,-533.1057 5758.8097,-533.1057 5758.8097,4 -4,4"/>
<!-- Automated Testing -->
<g id="node1" class="node">
<title>Automated Testing</title>
<polygon fill="#2f28d7" stroke="#000000" stroke-width="3" points="201.5622,-137.0161 212.8648,-137.148 224.0505,-137.3455 235.0737,-137.6079 245.8897,-137.9345 256.4551,-138.3246 266.7282,-138.7769 276.669,-139.2902 286.2399,-139.8633 295.4051,-140.4943 304.1318,-141.1817 312.3895,-141.9236 320.1508,-142.7179 327.391,-143.5625 334.0887,-144.4549 340.2255,-145.3929 345.7863,-146.3738 350.759,-147.3949 355.1351,-148.4534 358.9088,-149.5465 362.0777,-150.6711 364.6425,-151.8241 366.6068,-153.0024 367.9768,-154.2028 368.7616,-155.4219 368.9727,-156.6565 368.6241,-157.9031 367.7317,-159.1584 366.3134,-160.4188 364.3888,-161.6809 361.979,-162.9414 359.1064,-164.1966 355.7943,-165.4432 352.0668,-166.6778 347.9485,-167.8969 343.4645,-169.0973 338.6398,-170.2756 333.4994,-171.4287 328.068,-172.5533 322.3697,-173.6463 316.4281,-174.7049 310.2659,-175.726 303.9049,-176.7068 297.3657,-177.6448 290.668,-178.5373 283.8301,-179.3818 276.8692,-180.1761 269.8009,-180.918 262.6398,-181.6054 255.3991,-182.2365 248.0908,-182.8095 240.7255,-183.3229 233.3128,-183.7752 225.8615,-184.1652 218.379,-184.4919 210.8721,-184.7543 203.3472,-184.9517 195.8096,-185.0837 188.2646,-185.1497 180.7172,-185.1497 173.1722,-185.0837 165.6346,-184.9517 158.1097,-184.7543 150.6028,-184.4919 143.1203,-184.1652 135.669,-183.7752 128.2563,-183.3229 120.891,-182.8095 113.5827,-182.2365 106.342,-181.6054 99.1809,-180.918 92.1127,-180.1761 85.1517,-179.3818 78.3138,-178.5373 71.6161,-177.6448 65.0769,-176.7068 58.7159,-175.726 52.5537,-174.7049 46.6121,-173.6463 40.9138,-172.5533 35.4824,-171.4287 30.342,-170.2756 25.5173,-169.0973 21.0333,-167.8969 16.915,-166.6778 13.1875,-165.4432 9.8754,-164.1966 7.0028,-162.9414 4.593,-161.6809 2.6685,-160.4188 1.2502,-159.1584 .3577,-157.9031 .0091,-156.6565 .2203,-155.4219 1.0051,-154.2028 2.375,-153.0024 4.3393,-151.8241 6.9041,-150.6711 10.073,-149.5465 13.8467,-148.4534 18.2228,-147.3949 23.1955,-146.3738 28.7563,-145.3929 34.8931,-144.4549 41.5908,-143.5625 48.831,-142.7179 56.5923,-141.9236 64.85,-141.1817 73.5767,-140.4943 82.7419,-139.8633 92.3128,-139.2902 102.2536,-138.7769 112.5267,-138.3246 123.0921,-137.9345 133.9081,-137.6079 144.9313,-137.3455 156.117,-137.148 167.4196,-137.0161 178.7926,-136.95 190.1892,-136.95 201.5622,-137.0161"/>
<text text-anchor="middle" x="184.4909" y="-154.8499" font-family="Times,serif" font-size="24.00" fill="#ffffff">Automated Testing</text>
</g>
<!-- Code Quality Scans -->
<g id="node3" class="node">
<title>Code Quality Scans</title>
<polygon fill="#2f28d7" stroke="#000000" stroke-width="3" points="613.8809,-163.0161 625.5541,-163.148 637.1066,-163.3455 648.4911,-163.6079 659.6617,-163.9345 670.5735,-164.3246 681.1834,-164.7769 691.4502,-165.2902 701.3348,-165.8633 710.8006,-166.4943 719.8133,-167.1817 728.3418,-167.9236 736.3575,-168.7179 743.8351,-169.5625 750.7524,-170.4549 757.0904,-171.3929 762.8335,-172.3738 767.9693,-173.3949 772.4888,-174.4534 776.3862,-175.5465 779.6591,-176.6711 782.308,-177.8241 784.3366,-179.0024 785.7515,-180.2028 786.562,-181.4219 786.7801,-182.6565 786.4201,-183.9031 785.4984,-185.1584 784.0336,-186.4188 782.0459,-187.6809 779.5571,-188.9414 776.5904,-190.1966 773.1696,-191.4432 769.3199,-192.6778 765.0666,-193.8969 760.4356,-195.0973 755.4527,-196.2756 750.1438,-197.4287 744.5343,-198.5533 738.6492,-199.6463 732.5128,-200.7049 726.1486,-201.726 719.579,-202.7068 712.8254,-203.6448 705.9081,-204.5373 698.8461,-205.3818 691.6569,-206.1761 684.3569,-206.918 676.961,-207.6054 669.4829,-208.2365 661.9349,-208.8095 654.3282,-209.3229 646.6725,-209.7752 638.9768,-210.1652 631.249,-210.4919 623.4961,-210.7543 615.7244,-210.9517 607.9397,-211.0837 600.1474,-211.1497 592.3525,-211.1497 584.5602,-211.0837 576.7755,-210.9517 569.0037,-210.7543 561.2508,-210.4919 553.523,-210.1652 545.8273,-209.7752 538.1717,-209.3229 530.5649,-208.8095 523.0169,-208.2365 515.5388,-207.6054 508.143,-206.918 500.843,-206.1761 493.6538,-205.3818 486.5917,-204.5373 479.6744,-203.6448 472.9209,-202.7068 466.3513,-201.726 459.987,-200.7049 453.8506,-199.6463 447.9655,-198.5533 442.356,-197.4287 437.0471,-196.2756 432.0642,-195.0973 427.4332,-193.8969 423.1799,-192.6778 419.3302,-191.4432 415.9095,-190.1966 412.9427,-188.9414 410.4539,-187.6809 408.4663,-186.4188 407.0015,-185.1584 406.0798,-183.9031 405.7197,-182.6565 405.9378,-181.4219 406.7483,-180.2028 408.1632,-179.0024 410.1919,-177.8241 412.8408,-176.6711 416.1136,-175.5465 420.011,-174.4534 424.5305,-173.3949 429.6663,-172.3738 435.4094,-171.3929 441.7474,-170.4549 448.6647,-169.5625 456.1423,-168.7179 464.158,-167.9236 472.6865,-167.1817 481.6993,-166.4943 491.165,-165.8633 501.0496,-165.2902 511.3164,-164.7769 521.9263,-164.3246 532.8381,-163.9345 544.0087,-163.6079 555.3933,-163.3455 566.9458,-163.148 578.6189,-163.0161 590.3648,-162.95 602.135,-162.95 613.8809,-163.0161"/>
<text text-anchor="middle" x="596.2499" y="-180.8499" font-family="Times,serif" font-size="24.00" fill="#ffffff">Code Quality Scans</text>
</g>
<!-- Automated Testing&#45;&gt;Code Quality Scans -->
<g id="edge3" class="edge">
<title>Automated Testing&#45;&gt;Code Quality Scans</title>
<g id="a_edge3"><a xlink:title="Automated Testing &#160;better together with &#160;Code Quality Scans">
<path fill="none" stroke="#d0d728" d="M356.4301,-165.2389C380.8512,-166.6617 405.9275,-168.2557 430.2331,-169.9307"/>
<polygon fill="#d0d728" stroke="#d0d728" points="430.0126,-173.4237 440.2318,-170.6274 430.4993,-166.4407 430.0126,-173.4237"/>
</a>
</g>
</g>
<!-- Exploratory Testing -->
<g id="node11" class="node">
<title>Exploratory Testing</title>
<polygon fill="#2f28d7" stroke="#000000" stroke-width="3" points="613.9278,-59.0161 625.632,-59.148 637.2151,-59.3455 648.63,-59.6079 659.8302,-59.9345 670.771,-60.3246 681.4091,-60.7769 691.7032,-61.2902 701.6141,-61.8633 711.105,-62.4943 720.1417,-63.1817 728.6928,-63.9236 736.7298,-64.7179 744.2273,-65.5625 751.163,-66.4549 757.5178,-67.3929 763.2762,-68.3738 768.4256,-69.3949 772.9571,-70.4534 776.8649,-71.5465 780.1465,-72.6711 782.8024,-73.8241 784.8364,-75.0024 786.2551,-76.2028 787.0678,-77.4219 787.2864,-78.6565 786.9254,-79.9031 786.0013,-81.1584 784.5326,-82.4188 782.5396,-83.6809 780.0443,-84.9414 777.0696,-86.1966 773.6398,-87.4432 769.7798,-88.6778 765.5153,-89.8969 760.8719,-91.0973 755.8758,-92.2756 750.5528,-93.4287 744.9284,-94.5533 739.0277,-95.6463 732.8749,-96.7049 726.4938,-97.726 719.9067,-98.7068 713.1352,-99.6448 706.1995,-100.5373 699.1187,-101.3818 691.9104,-102.1761 684.591,-102.918 677.1755,-103.6054 669.6775,-104.2365 662.1095,-104.8095 654.4825,-105.3229 646.8065,-105.7752 639.0904,-106.1652 631.342,-106.4919 623.5685,-106.7543 615.7761,-106.9517 607.9708,-107.0837 600.1577,-107.1497 592.3421,-107.1497 584.5291,-107.0837 576.7237,-106.9517 568.9313,-106.7543 561.1578,-106.4919 553.4095,-106.1652 545.6933,-105.7752 538.0173,-105.3229 530.3903,-104.8095 522.8223,-104.2365 515.3244,-103.6054 507.9088,-102.918 500.5894,-102.1761 493.3811,-101.3818 486.3003,-100.5373 479.3646,-99.6448 472.5931,-98.7068 466.0061,-97.726 459.6249,-96.7049 453.4722,-95.6463 447.5715,-94.5533 441.9471,-93.4287 436.624,-92.2756 431.6279,-91.0973 426.9846,-89.8969 422.72,-88.6778 418.86,-87.4432 415.4302,-86.1966 412.4556,-84.9414 409.9602,-83.6809 407.9672,-82.4188 406.4986,-81.1584 405.5744,-79.9031 405.2134,-78.6565 405.4321,-77.4219 406.2447,-76.2028 407.6634,-75.0024 409.6974,-73.8241 412.3534,-72.6711 415.6349,-71.5465 419.5427,-70.4534 424.0742,-69.3949 429.2236,-68.3738 434.982,-67.3929 441.3369,-66.4549 448.2725,-65.5625 455.77,-64.7179 463.807,-63.9236 472.3581,-63.1817 481.3949,-62.4943 490.8858,-61.8633 500.7967,-61.2902 511.0907,-60.7769 521.7288,-60.3246 532.6696,-59.9345 543.8699,-59.6079 555.2847,-59.3455 566.8679,-59.148 578.5721,-59.0161 590.3492,-58.95 602.1507,-58.95 613.9278,-59.0161"/>
<text text-anchor="middle" x="596.2499" y="-76.8499" font-family="Times,serif" font-size="24.00" fill="#ffffff">Exploratory Testing</text>
</g>
<!-- Automated Testing&#45;&gt;Exploratory Testing -->
<g id="edge2" class="edge">
<title>Automated Testing&#45;&gt;Exploratory Testing</title>
<g id="a_edge2"><a xlink:title="Automated Testing &#160;better together with &#160;Exploratory Testing">
<path fill="none" stroke="#d0d728" d="M271.3113,-138.9781C328.0867,-127.0074 403.2673,-112.5356 467.0128,-101.2156"/>
<polygon fill="#d0d728" stroke="#d0d728" points="467.902,-104.6128 477.1408,-99.4267 466.6844,-97.7195 467.902,-104.6128"/>
</a>
</g>
</g>
<!-- Continuous Integration -->
<g id="node12" class="node">
<title>Continuous Integration</title>
<polygon fill="#2f28d7" stroke="#000000" stroke-width="3" points="2611.3262,-163.0161 2625.1611,-163.148 2638.853,-163.3455 2652.3459,-163.6079 2665.5851,-163.9345 2678.5177,-164.3246 2691.0924,-164.7769 2703.2605,-165.2902 2714.9757,-165.8633 2726.1944,-166.4943 2736.8762,-167.1817 2746.9841,-167.9236 2756.4842,-168.7179 2765.3466,-169.5625 2773.5449,-170.4549 2781.0567,-171.3929 2787.8633,-172.3738 2793.9502,-173.3949 2799.3067,-174.4534 2803.9259,-175.5465 2807.8048,-176.6711 2810.9443,-177.8241 2813.3486,-179.0024 2815.0255,-180.2028 2815.9861,-181.4219 2816.2446,-182.6565 2815.8179,-183.9031 2814.7255,-185.1584 2812.9894,-186.4188 2810.6337,-187.6809 2807.684,-188.9414 2804.1678,-190.1966 2800.1136,-191.4432 2795.5509,-192.6778 2790.51,-193.8969 2785.0214,-195.0973 2779.1157,-196.2756 2772.8236,-197.4287 2766.1753,-198.5533 2759.2004,-199.6463 2751.9276,-200.7049 2744.3847,-201.726 2736.5985,-202.7068 2728.5942,-203.6448 2720.3959,-204.5373 2712.026,-205.3818 2703.5055,-206.1761 2694.8536,-206.918 2686.0881,-207.6054 2677.2251,-208.2365 2668.2794,-208.8095 2659.2639,-209.3229 2650.1905,-209.7752 2641.0696,-210.1652 2631.9107,-210.4919 2622.722,-210.7543 2613.5111,-210.9517 2604.2847,-211.0837 2595.0493,-211.1497 2585.8109,-211.1497 2576.5755,-211.0837 2567.3492,-210.9517 2558.1382,-210.7543 2548.9495,-210.4919 2539.7906,-210.1652 2530.6697,-209.7752 2521.5963,-209.3229 2512.5809,-208.8095 2503.6351,-208.2365 2494.7721,-207.6054 2486.0066,-206.918 2477.3547,-206.1761 2468.8342,-205.3818 2460.4643,-204.5373 2452.266,-203.6448 2444.2617,-202.7068 2436.4755,-201.726 2428.9327,-200.7049 2421.6599,-199.6463 2414.6849,-198.5533 2408.0366,-197.4287 2401.7445,-196.2756 2395.8389,-195.0973 2390.3502,-193.8969 2385.3093,-192.6778 2380.7466,-191.4432 2376.6924,-190.1966 2373.1762,-188.9414 2370.2266,-187.6809 2367.8708,-186.4188 2366.1347,-185.1584 2365.0424,-183.9031 2364.6156,-182.6565 2364.8741,-181.4219 2365.8347,-180.2028 2367.5116,-179.0024 2369.9159,-177.8241 2373.0554,-176.6711 2376.9344,-175.5465 2381.5535,-174.4534 2386.91,-173.3949 2392.9969,-172.3738 2399.8035,-171.3929 2407.3153,-170.4549 2415.5136,-169.5625 2424.376,-168.7179 2433.8761,-167.9236 2443.984,-167.1817 2454.6658,-166.4943 2465.8845,-165.8633 2477.5997,-165.2902 2489.7678,-164.7769 2502.3425,-164.3246 2515.2751,-163.9345 2528.5143,-163.6079 2542.0072,-163.3455 2555.6991,-163.148 2569.534,-163.0161 2583.4551,-162.95 2597.4051,-162.95 2611.3262,-163.0161"/>
<text text-anchor="middle" x="2590.4301" y="-180.8499" font-family="Times,serif" font-size="24.00" fill="#ffffff">Continuous Integration</text>
</g>
<!-- Automated Testing&#45;&gt;Continuous Integration -->
<g id="edge1" class="edge">
<title>Automated Testing&#45;&gt;Continuous Integration</title>
<g id="a_edge1"><a xlink:title="Automated Testing &#160;reduces the failure rate of &#160;Continuous Integration">
<path fill="none" stroke="#d72879" d="M249.7397,-182.8261C293.1882,-196.2493 351.8465,-212.3259 404.9818,-220.0499 711.7197,-264.6386 792.1752,-239.0499 1102.137,-239.0499 1102.137,-239.0499 1102.137,-239.0499 1660.7357,-239.0499 1927.4138,-239.0499 2236.45,-217.4572 2422.5173,-202.1002"/>
<polygon fill="#d72879" stroke="#d72879" points="2422.9851,-205.5736 2432.6617,-201.2591 2422.4066,-198.5975 2422.9851,-205.5736"/>
</a>
</g>
</g>
<!-- Unit Testing -->
<g id="node2" class="node">
<title>Unit Testing</title>
<polygon fill="#2f28d7" stroke="#000000" stroke-width="3" points="2144.3041,-144.0161 2151.9626,-144.148 2159.542,-144.3455 2167.0113,-144.6079 2174.3401,-144.9345 2181.4992,-145.3246 2188.4602,-145.7769 2195.1961,-146.2902 2201.6812,-146.8633 2207.8916,-147.4943 2213.8047,-148.1817 2219.4001,-148.9236 2224.6591,-149.7179 2229.565,-150.5625 2234.1034,-151.4549 2238.2617,-152.3929 2242.0296,-153.3738 2245.3991,-154.3949 2248.3643,-155.4534 2250.9213,-156.5465 2253.0686,-157.6711 2254.8065,-158.8241 2256.1375,-160.0024 2257.0658,-161.2028 2257.5975,-162.4219 2257.7406,-163.6565 2257.5044,-164.9031 2256.8997,-166.1584 2255.9386,-167.4188 2254.6346,-168.6809 2253.0017,-169.9414 2251.0553,-171.1966 2248.811,-172.4432 2246.2852,-173.6778 2243.4947,-174.8969 2240.4564,-176.0973 2237.1872,-177.2756 2233.7041,-178.4287 2230.0238,-179.5533 2226.1627,-180.6463 2222.1367,-181.7049 2217.9612,-182.726 2213.651,-183.7068 2209.2201,-184.6448 2204.6817,-185.5373 2200.0484,-186.3818 2195.3317,-187.1761 2190.5423,-187.918 2185.6899,-188.6054 2180.7837,-189.2365 2175.8316,-189.8095 2170.8409,-190.3229 2165.8181,-190.7752 2160.7691,-191.1652 2155.699,-191.4919 2150.6124,-191.7543 2145.5135,-191.9517 2140.4061,-192.0837 2135.2937,-192.1497 2130.1796,-192.1497 2125.0671,-192.0837 2119.9597,-191.9517 2114.8608,-191.7543 2109.7742,-191.4919 2104.7041,-191.1652 2099.6551,-190.7752 2094.6323,-190.3229 2089.6417,-189.8095 2084.6895,-189.2365 2079.7833,-188.6054 2074.931,-187.918 2070.1416,-187.1761 2065.4248,-186.3818 2060.7915,-185.5373 2056.2532,-184.6448 2051.8223,-183.7068 2047.5121,-182.726 2043.3366,-181.7049 2039.3106,-180.6463 2035.4494,-179.5533 2031.7691,-178.4287 2028.286,-177.2756 2025.0168,-176.0973 2021.9785,-174.8969 2019.188,-173.6778 2016.6622,-172.4432 2014.418,-171.1966 2012.4715,-169.9414 2010.8387,-168.6809 2009.5346,-167.4188 2008.5736,-166.1584 2007.9689,-164.9031 2007.7326,-163.6565 2007.8757,-162.4219 2008.4075,-161.2028 2009.3358,-160.0024 2010.6667,-158.8241 2012.4046,-157.6711 2014.5519,-156.5465 2017.1089,-155.4534 2020.0741,-154.3949 2023.4436,-153.3738 2027.2116,-152.3929 2031.3699,-151.4549 2035.9082,-150.5625 2040.8141,-149.7179 2046.0731,-148.9236 2051.6685,-148.1817 2057.5817,-147.4943 2063.792,-146.8633 2070.2771,-146.2902 2077.013,-145.7769 2083.974,-145.3246 2091.1331,-144.9345 2098.4619,-144.6079 2105.9312,-144.3455 2113.5106,-144.148 2121.1692,-144.0161 2128.8755,-143.95 2136.5977,-143.95 2144.3041,-144.0161"/>
<text text-anchor="middle" x="2132.7366" y="-161.8499" font-family="Times,serif" font-size="24.00" fill="#ffffff">Unit Testing</text>
</g>
<!-- Unit Testing&#45;&gt;Continuous Integration -->
<g id="edge4" class="edge">
<title>Unit Testing&#45;&gt;Continuous Integration</title>
<g id="a_edge4"><a xlink:title="Unit Testing &#160;enables &#160;&#160;Continuous Integration">
<path fill="none" stroke="#28d786" d="M2248.232,-172.8444C2282.2655,-174.2572 2320.7738,-175.8558 2359.3661,-177.4578"/>
<polygon fill="#28d786" stroke="#28d786" points="2359.5744,-180.9694 2369.711,-177.8873 2359.8648,-173.9754 2359.5744,-180.9694"/>
</a>
</g>
</g>
<!-- Code Quality Scans&#45;&gt;Automated Testing -->
<g id="edge6" class="edge">
<title>Code Quality Scans&#45;&gt;Automated Testing</title>
<g id="a_edge6"><a xlink:title="Code Quality Scans &#160;better together with &#160;Automated Testing">
<path fill="none" stroke="#d0d728" d="M405.7251,-181.7527C377.6308,-180.04 349.153,-178.1346 322.4,-176.1698"/>
<polygon fill="#d0d728" stroke="#d0d728" points="322.4675,-172.6652 312.2355,-175.4141 321.9484,-179.646 322.4675,-172.6652"/>
</a>
</g>
</g>
<!-- Agile Work ( Kanban/Scrum ) -->
<g id="node4" class="node">
<title>Agile Work ( Kanban/Scrum )</title>
<polygon fill="#2f28d7" stroke="#000000" stroke-width="3" points="1127.9304,-163.0161 1145.0078,-163.148 1161.9085,-163.3455 1178.5637,-163.6079 1194.9058,-163.9345 1210.8693,-164.3246 1226.3912,-164.7769 1241.4111,-165.2902 1255.8719,-165.8633 1269.7199,-166.4943 1282.9052,-167.1817 1295.382,-167.9236 1307.1086,-168.7179 1318.048,-169.5625 1328.1678,-170.4549 1337.44,-171.3929 1345.8419,-172.3738 1353.3554,-173.3949 1359.9672,-174.4534 1365.669,-175.5465 1370.457,-176.6711 1374.3323,-177.8241 1377.3001,-179.0024 1379.37,-180.2028 1380.5558,-181.4219 1380.8748,-182.6565 1380.3481,-183.9031 1378.9997,-185.1584 1376.8567,-186.4188 1373.9489,-187.6809 1370.3079,-188.9414 1365.9676,-190.1966 1360.9633,-191.4432 1355.3313,-192.6778 1349.1089,-193.8969 1342.3339,-195.0973 1335.0442,-196.2756 1327.2774,-197.4287 1319.071,-198.5533 1310.4613,-199.6463 1301.484,-200.7049 1292.1734,-201.726 1282.5623,-202.7068 1272.6821,-203.6448 1262.5624,-204.5373 1252.2309,-205.3818 1241.7134,-206.1761 1231.0338,-206.918 1220.214,-207.6054 1209.2738,-208.2365 1198.2315,-208.8095 1187.1031,-209.3229 1175.9032,-209.7752 1164.6447,-210.1652 1153.3392,-210.4919 1141.997,-210.7543 1130.6273,-210.9517 1119.2386,-211.0837 1107.8387,-211.1497 1096.4352,-211.1497 1085.0353,-211.0837 1073.6466,-210.9517 1062.2769,-210.7543 1050.9347,-210.4919 1039.6292,-210.1652 1028.3707,-209.7752 1017.1708,-209.3229 1006.0424,-208.8095 995.0001,-208.2365 984.0599,-207.6054 973.2401,-206.918 962.5605,-206.1761 952.043,-205.3818 941.7115,-204.5373 931.5918,-203.6448 921.7116,-202.7068 912.1005,-201.726 902.7899,-200.7049 893.8126,-199.6463 885.2029,-198.5533 876.9965,-197.4287 869.2297,-196.2756 861.94,-195.0973 855.165,-193.8969 848.9426,-192.6778 843.3106,-191.4432 838.3063,-190.1966 833.966,-188.9414 830.325,-187.6809 827.4172,-186.4188 825.2742,-185.1584 823.9258,-183.9031 823.3991,-182.6565 823.7181,-181.4219 824.9039,-180.2028 826.9738,-179.0024 829.9416,-177.8241 833.8169,-176.6711 838.6049,-175.5465 844.3067,-174.4534 850.9185,-173.3949 858.432,-172.3738 866.8339,-171.3929 876.1061,-170.4549 886.2259,-169.5625 897.1653,-168.7179 908.8919,-167.9236 921.3687,-167.1817 934.554,-166.4943 948.402,-165.8633 962.8628,-165.2902 977.8827,-164.7769 993.4046,-164.3246 1009.3681,-163.9345 1025.7102,-163.6079 1042.3654,-163.3455 1059.2662,-163.148 1076.3435,-163.0161 1093.5273,-162.95 1110.7466,-162.95 1127.9304,-163.0161"/>
<text text-anchor="middle" x="1102.137" y="-180.8499" font-family="Times,serif" font-size="24.00" fill="#ffffff">Agile Work ( Kanban/Scrum )</text>
</g>
<!-- Code Quality Scans&#45;&gt;Agile Work ( Kanban/Scrum ) -->
<g id="edge5" class="edge">
<title>Code Quality Scans&#45;&gt;Agile Work ( Kanban/Scrum )</title>
<g id="a_edge5"><a xlink:title="Code Quality Scans &#160;better together with &#160;Agile Work ( Kanban/Scrum )">
<path fill="none" stroke="#d0d728" d="M783.1863,-187.0499C794.8405,-187.0499 806.6958,-187.0499 818.6434,-187.0499"/>
<polygon fill="#d0d728" stroke="#d0d728" points="818.6987,-190.55 828.6986,-187.0499 818.6986,-183.55 818.6987,-190.55"/>
</a>
</g>
</g>
<!-- Branching Strategy -->
<g id="node5" class="node">
<title>Branching Strategy</title>
<polygon fill="#2f28d7" stroke="#000000" stroke-width="3" points="2150.5075,-267.0161 2162.2734,-267.148 2173.9175,-267.3455 2185.3924,-267.6079 2196.6517,-267.9345 2207.6501,-268.3246 2218.3442,-268.7769 2228.6924,-269.2902 2238.6555,-269.8633 2248.1964,-270.4943 2257.2807,-271.1817 2265.8768,-271.9236 2273.9561,-272.7179 2281.4931,-273.5625 2288.4653,-274.4549 2294.8536,-275.3929 2300.6423,-276.3738 2305.8188,-277.3949 2310.3742,-278.4534 2314.3025,-279.5465 2317.6014,-280.6711 2320.2713,-281.8241 2322.316,-283.0024 2323.7421,-284.2028 2324.5591,-285.4219 2324.7789,-286.6565 2324.416,-287.9031 2323.487,-289.1584 2322.0106,-290.4188 2320.0071,-291.6809 2317.4986,-292.9414 2314.5083,-294.1966 2311.0604,-295.4432 2307.1801,-296.6778 2302.8931,-297.8969 2298.2253,-299.0973 2293.2029,-300.2756 2287.8519,-301.4287 2282.1978,-302.5533 2276.266,-303.6463 2270.0809,-304.7049 2263.6662,-305.726 2257.0444,-306.7068 2250.2373,-307.6448 2243.2651,-308.5373 2236.147,-309.3818 2228.9007,-310.1761 2221.5428,-310.918 2214.0882,-311.6054 2206.5508,-312.2365 2198.9429,-312.8095 2191.2758,-313.3229 2183.5594,-313.7752 2175.8026,-314.1652 2168.0135,-314.4919 2160.199,-314.7543 2152.3656,-314.9517 2144.5192,-315.0837 2136.665,-315.1497 2128.8083,-315.1497 2120.9541,-315.0837 2113.1076,-314.9517 2105.2742,-314.7543 2097.4598,-314.4919 2089.6706,-314.1652 2081.9138,-313.7752 2074.1974,-313.3229 2066.5303,-312.8095 2058.9224,-312.2365 2051.385,-311.6054 2043.9304,-310.918 2036.5725,-310.1761 2029.3262,-309.3818 2022.2081,-308.5373 2015.2359,-307.6448 2008.4288,-306.7068 2001.8071,-305.726 1995.3923,-304.7049 1989.2072,-303.6463 1983.2754,-302.5533 1977.6214,-301.4287 1972.2703,-300.2756 1967.2479,-299.0973 1962.5801,-297.8969 1958.2931,-296.6778 1954.4128,-295.4432 1950.965,-294.1966 1947.9746,-292.9414 1945.4661,-291.6809 1943.4627,-290.4188 1941.9862,-289.1584 1941.0572,-287.9031 1940.6943,-286.6565 1940.9141,-285.4219 1941.7311,-284.2028 1943.1572,-283.0024 1945.202,-281.8241 1947.8719,-280.6711 1951.1707,-279.5465 1955.0991,-278.4534 1959.6544,-277.3949 1964.831,-276.3738 1970.6196,-275.3929 1977.008,-274.4549 1983.9802,-273.5625 1991.5171,-272.7179 1999.5964,-271.9236 2008.1926,-271.1817 2017.2769,-270.4943 2026.8177,-269.8633 2036.7808,-269.2902 2047.1291,-268.7769 2057.8232,-268.3246 2068.8216,-267.9345 2080.0808,-267.6079 2091.5557,-267.3455 2103.1999,-267.148 2114.9657,-267.0161 2126.8048,-266.95 2138.6684,-266.95 2150.5075,-267.0161"/>
<text text-anchor="middle" x="2132.7366" y="-284.8499" font-family="Times,serif" font-size="24.00" fill="#ffffff">Branching Strategy</text>
</g>
<!-- Agile Work ( Kanban/Scrum )&#45;&gt;Branching Strategy -->
<g id="edge7" class="edge">
<title>Agile Work ( Kanban/Scrum )&#45;&gt;Branching Strategy</title>
<g id="a_edge7"><a xlink:title="Agile Work ( Kanban/Scrum ) &#160;enables &#160;&#160;Branching Strategy">
<path fill="none" stroke="#28d786" d="M1269.4398,-203.9328C1460.4049,-223.2034 1771.064,-254.5527 1963.0277,-273.9242"/>
<polygon fill="#28d786" stroke="#28d786" points="1962.9156,-277.4306 1973.2165,-274.9524 1963.6185,-270.4659 1962.9156,-277.4306"/>
</a>
</g>
</g>
<!-- Test Driven Development -->
<g id="node10" class="node">
<title>Test Driven Development</title>
<polygon fill="#2f28d7" stroke="#000000" stroke-width="3" points="1683.3108,-125.0161 1698.2575,-125.148 1713.0495,-125.3455 1727.6266,-125.6079 1741.9297,-125.9345 1755.9014,-126.3246 1769.4866,-126.7769 1782.6325,-127.2902 1795.289,-127.8633 1807.4092,-128.4943 1818.9494,-129.1817 1829.8694,-129.9236 1840.1329,-130.7179 1849.7074,-131.5625 1858.5645,-132.4549 1866.6799,-133.3929 1874.0334,-134.3738 1880.6095,-135.3949 1886.3963,-136.4534 1891.3867,-137.5465 1895.5773,-138.6711 1898.969,-139.8241 1901.5665,-141.0024 1903.3782,-142.2028 1904.4161,-143.4219 1904.6953,-144.6565 1904.2343,-145.9031 1903.0541,-147.1584 1901.1785,-148.4188 1898.6335,-149.6809 1895.4468,-150.9414 1891.6481,-152.1966 1887.2681,-153.4432 1882.3388,-154.6778 1876.8928,-155.8969 1870.9631,-157.0973 1864.5829,-158.2756 1857.7853,-159.4287 1850.6027,-160.5533 1843.0673,-161.6463 1835.2101,-162.7049 1827.0612,-163.726 1818.6493,-164.7068 1810.0018,-165.6448 1801.1448,-166.5373 1792.1023,-167.3818 1782.8971,-168.1761 1773.55,-168.918 1764.0802,-169.6054 1754.505,-170.2365 1744.8404,-170.8095 1735.1005,-171.3229 1725.298,-171.7752 1715.4443,-172.1652 1705.5494,-172.4919 1695.6224,-172.7543 1685.6713,-172.9517 1675.7035,-173.0837 1665.726,-173.1497 1655.7453,-173.1497 1645.7678,-173.0837 1635.8001,-172.9517 1625.849,-172.7543 1615.9219,-172.4919 1606.027,-172.1652 1596.1733,-171.7752 1586.3708,-171.3229 1576.6309,-170.8095 1566.9663,-170.2365 1557.3912,-169.6054 1547.9213,-168.918 1538.5742,-168.1761 1529.369,-167.3818 1520.3266,-166.5373 1511.4695,-165.6448 1502.8221,-164.7068 1494.4102,-163.726 1486.2612,-162.7049 1478.404,-161.6463 1470.8686,-160.5533 1463.6861,-159.4287 1456.8884,-158.2756 1450.5082,-157.0973 1444.5785,-155.8969 1439.1325,-154.6778 1434.2032,-153.4432 1429.8233,-152.1966 1426.0245,-150.9414 1422.8379,-149.6809 1420.2928,-148.4188 1418.4172,-147.1584 1417.2371,-145.9031 1416.7761,-144.6565 1417.0553,-143.4219 1418.0931,-142.2028 1419.9048,-141.0024 1422.5023,-139.8241 1425.894,-138.6711 1430.0847,-137.5465 1435.075,-136.4534 1440.8619,-135.3949 1447.4379,-134.3738 1454.7915,-133.3929 1462.9068,-132.4549 1471.7639,-131.5625 1481.3384,-130.7179 1491.6019,-129.9236 1502.522,-129.1817 1514.0622,-128.4943 1526.1823,-127.8633 1538.8389,-127.2902 1551.9847,-126.7769 1565.5699,-126.3246 1579.5416,-125.9345 1593.8447,-125.6079 1608.4218,-125.3455 1623.2139,-125.148 1638.1605,-125.0161 1653.2002,-124.95 1668.2711,-124.95 1683.3108,-125.0161"/>
<text text-anchor="middle" x="1660.7357" y="-142.8499" font-family="Times,serif" font-size="24.00" fill="#ffffff">Test Driven Development</text>
</g>
<!-- Agile Work ( Kanban/Scrum )&#45;&gt;Test Driven Development -->
<g id="edge8" class="edge">
<title>Agile Work ( Kanban/Scrum )&#45;&gt;Test Driven Development</title>
<g id="a_edge8"><a xlink:title="Agile Work ( Kanban/Scrum ) &#160;reduces the failure rate of &#160;Test Driven Development">
<path fill="none" stroke="#d72879" d="M1335.3923,-171.1821C1379.2905,-168.1958 1424.7493,-165.1034 1467.2685,-162.2109"/>
<polygon fill="#d72879" stroke="#d72879" points="1467.6963,-165.69 1477.4356,-161.5193 1467.2211,-158.7062 1467.6963,-165.69"/>
</a>
</g>
</g>
<!-- Repository Composition -->
<g id="node6" class="node">
<title>Repository Composition</title>
<polygon fill="#2f28d7" stroke="#000000" stroke-width="3" points="2611.6991,-304.0161 2625.781,-304.148 2639.7172,-304.3455 2653.451,-304.6079 2666.9265,-304.9345 2680.0899,-305.3246 2692.8891,-305.7769 2705.2743,-306.2902 2717.1986,-306.8633 2728.6175,-307.4943 2739.49,-308.1817 2749.7783,-308.9236 2759.448,-309.7179 2768.4685,-310.5625 2776.8131,-311.4549 2784.459,-312.3929 2791.3871,-313.3738 2797.5826,-314.3949 2803.0347,-315.4534 2807.7363,-316.5465 2811.6845,-317.6711 2814.88,-318.8241 2817.3272,-320.0024 2819.0341,-321.2028 2820.0119,-322.4219 2820.2749,-323.6565 2819.8406,-324.9031 2818.7287,-326.1584 2816.9617,-327.4188 2814.5638,-328.6809 2811.5615,-329.9414 2807.9826,-331.1966 2803.856,-332.4432 2799.2119,-333.6778 2794.081,-334.8969 2788.4944,-336.0973 2782.4834,-337.2756 2776.079,-338.4287 2769.312,-339.5533 2762.2126,-340.6463 2754.81,-341.7049 2747.1325,-342.726 2739.2073,-343.7068 2731.0602,-344.6448 2722.7156,-345.5373 2714.1963,-346.3818 2705.5236,-347.1761 2696.7173,-347.918 2687.7954,-348.6054 2678.7742,-349.2365 2669.6688,-349.8095 2660.4924,-350.3229 2651.2571,-350.7752 2641.9735,-351.1652 2632.651,-351.4919 2623.2983,-351.7543 2613.923,-351.9517 2604.532,-352.0837 2595.1317,-352.1497 2585.7285,-352.1497 2576.3282,-352.0837 2566.9372,-351.9517 2557.5619,-351.7543 2548.2092,-351.4919 2538.8868,-351.1652 2529.6031,-350.7752 2520.3678,-350.3229 2511.1914,-349.8095 2502.086,-349.2365 2493.0648,-348.6054 2484.1429,-347.918 2475.3366,-347.1761 2466.6639,-346.3818 2458.1447,-345.5373 2449.8,-344.6448 2441.6529,-343.7068 2433.7277,-342.726 2426.0503,-341.7049 2418.6477,-340.6463 2411.5482,-339.5533 2404.7812,-338.4287 2398.3768,-337.2756 2392.3658,-336.0973 2386.7792,-334.8969 2381.6483,-333.6778 2377.0042,-332.4432 2372.8776,-331.1966 2369.2987,-329.9414 2366.2964,-328.6809 2363.8986,-327.4188 2362.1315,-326.1584 2361.0196,-324.9031 2360.5853,-323.6565 2360.8484,-322.4219 2361.8261,-321.2028 2363.533,-320.0024 2365.9802,-318.8241 2369.1757,-317.6711 2373.1239,-316.5465 2377.8255,-315.4534 2383.2776,-314.3949 2389.4731,-313.3738 2396.4012,-312.3929 2404.0471,-311.4549 2412.3917,-310.5625 2421.4123,-309.7179 2431.082,-308.9236 2441.3702,-308.1817 2452.2427,-307.4943 2463.6616,-306.8633 2475.5859,-306.2902 2487.9712,-305.7769 2500.7703,-305.3246 2513.9337,-304.9345 2527.4093,-304.6079 2541.143,-304.3455 2555.0792,-304.148 2569.1611,-304.0161 2583.3307,-303.95 2597.5296,-303.95 2611.6991,-304.0161"/>
<text text-anchor="middle" x="2590.4301" y="-321.8499" font-family="Times,serif" font-size="24.00" fill="#ffffff">Repository Composition</text>
</g>
<!-- Branching Strategy&#45;&gt;Repository Composition -->
<g id="edge9" class="edge">
<title>Branching Strategy&#45;&gt;Repository Composition</title>
<g id="a_edge9"><a xlink:title="Branching Strategy &#160;enables &#160;&#160;Repository Composition">
<path fill="none" stroke="#28d786" d="M2280.0731,-302.9606C2313.8728,-305.6929 2350.4013,-308.6459 2386.1229,-311.5337"/>
<polygon fill="#28d786" stroke="#28d786" points="2385.9244,-315.0289 2396.1739,-312.3462 2386.4885,-308.0517 2385.9244,-315.0289"/>
</a>
</g>
</g>
<!-- Infrastructure as Code -->
<g id="node7" class="node">
<title>Infrastructure as Code</title>
<polygon fill="#2f28d7" stroke="#000000" stroke-width="3" points="2610.8596,-238.0161 2624.3856,-238.148 2637.7717,-238.3455 2650.9633,-238.6079 2663.907,-238.9345 2676.5507,-239.3246 2688.8447,-239.7769 2700.7411,-240.2902 2712.1947,-240.8633 2723.1629,-241.4943 2733.6062,-242.1817 2743.4883,-242.9236 2752.7763,-243.7179 2761.4408,-244.5625 2769.4561,-245.4549 2776.8001,-246.3929 2783.4548,-247.3738 2789.4057,-248.3949 2794.6426,-249.4534 2799.1586,-250.5465 2802.951,-251.6711 2806.0203,-252.8241 2808.3709,-254.0024 2810.0104,-255.2028 2810.9496,-256.4219 2811.2023,-257.6565 2810.7851,-258.9031 2809.7171,-260.1584 2808.0198,-261.4188 2805.7167,-262.6809 2802.8329,-263.9414 2799.3952,-265.1966 2795.4315,-266.4432 2790.9707,-267.6778 2786.0424,-268.8969 2780.6763,-270.0973 2774.9025,-271.2756 2768.7509,-272.4287 2762.251,-273.5533 2755.4318,-274.6463 2748.3214,-275.7049 2740.947,-276.726 2733.3346,-277.7068 2725.5091,-278.6448 2717.4939,-279.5373 2709.3109,-280.3818 2700.9806,-281.1761 2692.5219,-281.918 2683.9521,-282.6054 2675.2871,-283.2365 2666.541,-283.8095 2657.7269,-284.3229 2648.8561,-284.7752 2639.9389,-285.1652 2630.9845,-285.4919 2622.0009,-285.7543 2612.9957,-285.9517 2603.9753,-286.0837 2594.9462,-286.1497 2585.9141,-286.1497 2576.8849,-286.0837 2567.8645,-285.9517 2558.8593,-285.7543 2549.8758,-285.4919 2540.9213,-285.1652 2532.0041,-284.7752 2523.1334,-284.3229 2514.3192,-283.8095 2505.5732,-283.2365 2496.9081,-282.6054 2488.3383,-281.918 2479.8796,-281.1761 2471.5493,-280.3818 2463.3663,-279.5373 2455.3511,-278.6448 2447.5256,-277.7068 2439.9132,-276.726 2432.5388,-275.7049 2425.4284,-274.6463 2418.6092,-273.5533 2412.1093,-272.4287 2405.9577,-271.2756 2400.1839,-270.0973 2394.8179,-268.8969 2389.8895,-267.6778 2385.4287,-266.4432 2381.465,-265.1966 2378.0274,-263.9414 2375.1436,-262.6809 2372.8404,-261.4188 2371.1431,-260.1584 2370.0751,-258.9031 2369.6579,-257.6565 2369.9106,-256.4219 2370.8498,-255.2028 2372.4893,-254.0024 2374.8399,-252.8241 2377.9092,-251.6711 2381.7016,-250.5465 2386.2176,-249.4534 2391.4545,-248.3949 2397.4055,-247.3738 2404.0601,-246.3929 2411.4041,-245.4549 2419.4194,-244.5625 2428.0839,-243.7179 2437.3719,-242.9236 2447.254,-242.1817 2457.6973,-241.4943 2468.6656,-240.8633 2480.1191,-240.2902 2492.0155,-239.7769 2504.3095,-239.3246 2516.9532,-238.9345 2529.8969,-238.6079 2543.0885,-238.3455 2556.4746,-238.148 2570.0006,-238.0161 2583.6109,-237.95 2597.2493,-237.95 2610.8596,-238.0161"/>
<text text-anchor="middle" x="2590.4301" y="-255.8499" font-family="Times,serif" font-size="24.00" fill="#ffffff">Infrastructure as Code</text>
</g>
<!-- Branching Strategy&#45;&gt;Infrastructure as Code -->
<g id="edge12" class="edge">
<title>Branching Strategy&#45;&gt;Infrastructure as Code</title>
<g id="a_edge12"><a xlink:title="Branching Strategy &#160;reduces the failure rate of &#160;Infrastructure as Code">
<path fill="none" stroke="#d72879" d="M2314.6154,-279.5258C2344.533,-277.6302 2375.5697,-275.6637 2405.5594,-273.7635"/>
<polygon fill="#d72879" stroke="#d72879" points="2405.928,-277.2473 2415.6866,-273.1218 2405.4852,-270.2613 2405.928,-277.2473"/>
</a>
</g>
</g>
<!-- Parametrised Infrastructure as Code -->
<g id="node8" class="node">
<title>Parametrised Infrastructure as Code</title>
<polygon fill="#2f28d7" stroke="#000000" stroke-width="3" points="3236.1833,-304.0161 3257.4915,-304.148 3278.5794,-304.3455 3299.3608,-304.6079 3319.7516,-304.9345 3339.67,-305.3246 3359.0374,-305.7769 3377.7784,-306.2902 3395.8218,-306.8633 3413.1006,-307.4943 3429.5526,-308.1817 3445.1204,-308.9236 3459.7523,-309.7179 3473.402,-310.5625 3486.0288,-311.4549 3497.5982,-312.3929 3508.0817,-313.3738 3517.4566,-314.3949 3525.7065,-315.4534 3532.8208,-316.5465 3538.7951,-317.6711 3543.6304,-318.8241 3547.3335,-320.0024 3549.9162,-321.2028 3551.3958,-322.4219 3551.7939,-323.6565 3551.1366,-324.9031 3549.4542,-326.1584 3546.7803,-327.4188 3543.152,-328.6809 3538.609,-329.9414 3533.1935,-331.1966 3526.9493,-332.4432 3519.922,-333.6778 3512.158,-334.8969 3503.7046,-336.0973 3494.6088,-337.2756 3484.9179,-338.4287 3474.6783,-339.5533 3463.9356,-340.6463 3452.7342,-341.7049 3441.1169,-342.726 3429.1247,-343.7068 3416.7968,-344.6448 3404.1699,-345.5373 3391.2788,-346.3818 3378.1557,-347.1761 3364.8302,-347.918 3351.3298,-348.6054 3337.6793,-349.2365 3323.9012,-349.8095 3310.0158,-350.3229 3296.0411,-350.7752 3281.9934,-351.1652 3267.887,-351.4919 3253.7348,-351.7543 3239.5483,-351.9517 3225.3381,-352.0837 3211.114,-352.1497 3196.8852,-352.1497 3182.6611,-352.0837 3168.4508,-351.9517 3154.2643,-351.7543 3140.1121,-351.4919 3126.0057,-351.1652 3111.958,-350.7752 3097.9834,-350.3229 3084.098,-349.8095 3070.3199,-349.2365 3056.6694,-348.6054 3043.169,-347.918 3029.8435,-347.1761 3016.7203,-346.3818 3003.8292,-345.5373 2991.2024,-344.6448 2978.8744,-343.7068 2966.8823,-342.726 2955.2649,-341.7049 2944.0635,-340.6463 2933.3209,-339.5533 2923.0813,-338.4287 2913.3903,-337.2756 2904.2946,-336.0973 2895.8411,-334.8969 2888.0772,-333.6778 2881.0499,-332.4432 2874.8057,-331.1966 2869.3901,-329.9414 2864.8471,-328.6809 2861.2188,-327.4188 2858.545,-326.1584 2856.8626,-324.9031 2856.2053,-323.6565 2856.6034,-322.4219 2858.0829,-321.2028 2860.6657,-320.0024 2864.3687,-318.8241 2869.2041,-317.6711 2875.1783,-316.5465 2882.2927,-315.4534 2890.5426,-314.3949 2899.9175,-313.3738 2910.4009,-312.3929 2921.9704,-311.4549 2934.5972,-310.5625 2948.2468,-309.7179 2962.8787,-308.9236 2978.4466,-308.1817 2994.8985,-307.4943 3012.1774,-306.8633 3030.2208,-306.2902 3048.9618,-305.7769 3068.3291,-305.3246 3088.2475,-304.9345 3108.6383,-304.6079 3129.4198,-304.3455 3150.5077,-304.148 3171.8159,-304.0161 3193.2569,-303.95 3214.7423,-303.95 3236.1833,-304.0161"/>
<text text-anchor="middle" x="3203.9996" y="-321.8499" font-family="Times,serif" font-size="24.00" fill="#ffffff">Parametrised Infrastructure as Code</text>
</g>
<!-- Branching Strategy&#45;&gt;Parametrised Infrastructure as Code -->
<g id="edge10" class="edge">
<title>Branching Strategy&#45;&gt;Parametrised Infrastructure as Code</title>
<g id="a_edge10"><a xlink:title="Branching Strategy &#160;enables &#160;&#160;Parametrised Infrastructure as Code">
<path fill="none" stroke="#28d786" d="M2189.2729,-313.5741C2234.76,-330.4252 2300.7631,-352.0483 2360.7578,-361.0499 2602.7868,-397.3637 2888.0011,-372.2347 3056.987,-350.3871"/>
<polygon fill="#28d786" stroke="#28d786" points="3057.4839,-353.852 3066.9462,-349.0859 3056.577,-346.911 3057.4839,-353.852"/>
</a>
</g>
</g>
<!-- Branching Strategy&#45;&gt;Continuous Integration -->
<g id="edge11" class="edge">
<title>Branching Strategy&#45;&gt;Continuous Integration</title>
<g id="a_edge11"><a xlink:title="Branching Strategy &#160;reduces the failure rate of &#160;Continuous Integration">
<path fill="none" stroke="#d72879" d="M2265.6831,-271.8351C2285.8657,-266.9005 2306.1474,-260.7365 2324.7578,-253.0499 2342.531,-245.709 2342.9317,-236.2617 2360.7578,-229.0499 2385.6065,-218.9969 2412.943,-211.3351 2439.8239,-205.4999"/>
<polygon fill="#d72879" stroke="#d72879" points="2440.6309,-208.9069 2449.7013,-203.4316 2439.1962,-202.0554 2440.6309,-208.9069"/>
</a>
</g>
</g>
<!-- Infrastructure as Code&#45;&gt;Parametrised Infrastructure as Code -->
<g id="edge14" class="edge">
<title>Infrastructure as Code&#45;&gt;Parametrised Infrastructure as Code</title>
<g id="a_edge14"><a xlink:title="Infrastructure as Code &#160;enables &#160;&#160;Parametrised Infrastructure as Code">
<path fill="none" stroke="#28d786" d="M2756.1557,-274.5722C2789.2426,-278.4359 2823.7611,-282.5081 2856.1025,-286.0499 2915.1294,-292.514 2979.8733,-298.8589 3037.3351,-304.7339"/>
<polygon fill="#28d786" stroke="#28d786" points="3037.2989,-308.2485 3047.6038,-305.787 3038.013,-301.285 3037.2989,-308.2485"/>
</a>
</g>
</g>
<!-- Infrastructure as Code&#45;&gt;Parametrised Infrastructure as Code -->
<g id="edge16" class="edge">
<title>Infrastructure as Code&#45;&gt;Parametrised Infrastructure as Code</title>
<g id="a_edge16"><a xlink:title="Infrastructure as Code &#160;reduces the failure rate of &#160;Parametrised Infrastructure as Code">
<path fill="none" stroke="#d72879" d="M2685.3389,-282.5243C2735.982,-289.9973 2799.3896,-297.8392 2856.1025,-304.0499 2875.0628,-306.1262 2894.613,-308.1903 2914.3223,-310.1971"/>
<polygon fill="#d72879" stroke="#d72879" points="2914.0219,-313.6845 2924.3235,-311.2092 2914.7267,-306.7201 2914.0219,-313.6845"/>
</a>
</g>
</g>
<!-- Continuous Delivery -->
<g id="node18" class="node">
<title>Continuous Delivery</title>
<polygon fill="#2f28d7" stroke="#000000" stroke-width="3" points="3222.3771,-238.0161 3234.5444,-238.148 3246.586,-238.3455 3258.4526,-238.6079 3270.0961,-238.9345 3281.4699,-239.3246 3292.529,-239.7769 3303.2305,-240.2902 3313.5336,-240.8633 3323.4001,-241.4943 3332.7945,-242.1817 3341.684,-242.9236 3350.0391,-243.7179 3357.8333,-244.5625 3365.0434,-245.4549 3371.6498,-246.3929 3377.636,-247.3738 3382.9893,-248.3949 3387.7001,-249.4534 3391.7626,-250.5465 3395.174,-251.6711 3397.935,-252.8241 3400.0495,-254.0024 3401.5244,-255.2028 3402.3692,-256.4219 3402.5965,-257.6565 3402.2212,-258.9031 3401.2605,-260.1584 3399.7337,-261.4188 3397.6619,-262.6809 3395.0677,-263.9414 3391.9753,-265.1966 3388.4098,-266.4432 3384.3971,-267.6778 3379.9637,-268.8969 3375.1366,-270.0973 3369.9428,-271.2756 3364.4091,-272.4287 3358.5621,-273.5533 3352.4278,-274.6463 3346.0316,-275.7049 3339.3979,-276.726 3332.5502,-277.7068 3325.5107,-278.6448 3318.3005,-279.5373 3310.9395,-280.3818 3303.4459,-281.1761 3295.8368,-281.918 3288.1278,-282.6054 3280.3331,-283.2365 3272.4656,-283.8095 3264.5368,-284.3229 3256.557,-284.7752 3248.5355,-285.1652 3240.4805,-285.4919 3232.3993,-285.7543 3224.2986,-285.9517 3216.1843,-286.0837 3208.062,-286.1497 3199.9371,-286.1497 3191.8149,-286.0837 3183.7006,-285.9517 3175.5999,-285.7543 3167.5187,-285.4919 3159.4637,-285.1652 3151.4422,-284.7752 3143.4624,-284.3229 3135.5336,-283.8095 3127.666,-283.2365 3119.8713,-282.6054 3112.1623,-281.918 3104.5533,-281.1761 3097.0597,-280.3818 3089.6986,-279.5373 3082.4885,-278.6448 3075.449,-277.7068 3068.6012,-276.726 3061.9675,-275.7049 3055.5713,-274.6463 3049.4371,-273.5533 3043.5901,-272.4287 3038.0564,-271.2756 3032.8625,-270.0973 3028.0354,-268.8969 3023.6021,-267.6778 3019.5894,-266.4432 3016.0238,-265.1966 3012.9314,-263.9414 3010.3373,-262.6809 3008.2655,-261.4188 3006.7387,-260.1584 3005.778,-258.9031 3005.4027,-257.6565 3005.63,-256.4219 3006.4748,-255.2028 3007.9496,-254.0024 3010.0641,-252.8241 3012.8252,-251.6711 3016.2366,-250.5465 3020.2991,-249.4534 3025.0099,-248.3949 3030.3631,-247.3738 3036.3494,-246.3929 3042.9557,-245.4549 3050.1659,-244.5625 3057.9601,-243.7179 3066.3152,-242.9236 3075.2047,-242.1817 3084.5991,-241.4943 3094.4656,-240.8633 3104.7687,-240.2902 3115.4702,-239.7769 3126.5293,-239.3246 3137.903,-238.9345 3149.5466,-238.6079 3161.4131,-238.3455 3173.4547,-238.148 3185.6221,-238.0161 3197.8653,-237.95 3210.1338,-237.95 3222.3771,-238.0161"/>
<text text-anchor="middle" x="3203.9996" y="-255.8499" font-family="Times,serif" font-size="24.00" fill="#ffffff">Continuous Delivery</text>
</g>
<!-- Infrastructure as Code&#45;&gt;Continuous Delivery -->
<g id="edge13" class="edge">
<title>Infrastructure as Code&#45;&gt;Continuous Delivery</title>
<g id="a_edge13"><a xlink:title="Infrastructure as Code &#160;enables &#160;&#160;Continuous Delivery">
<path fill="none" stroke="#28d786" d="M2810.6427,-255.5447C2870.9147,-255.1953 2936.0422,-255.2199 2995.6295,-255.6185"/>
<polygon fill="#28d786" stroke="#28d786" points="2995.8888,-259.1204 3005.9134,-255.6915 2995.9386,-252.1206 2995.8888,-259.1204"/>
</a>
</g>
</g>
<!-- Infrastructure as Code&#45;&gt;Continuous Delivery -->
<g id="edge15" class="edge">
<title>Infrastructure as Code&#45;&gt;Continuous Delivery</title>
<g id="a_edge15"><a xlink:title="Infrastructure as Code &#160;reduces the failure rate of &#160;Continuous Delivery">
<path fill="none" stroke="#d72879" d="M2788.3679,-268.4071C2861.2034,-268.9544 2943.4436,-268.9297 3015.4313,-268.3331"/>
<polygon fill="#d72879" stroke="#d72879" points="3015.5499,-271.8323 3025.519,-268.2452 3015.4888,-264.8326 3015.5499,-271.8323"/>
</a>
</g>
</g>
<!-- Dark Launching -->
<g id="node9" class="node">
<title>Dark Launching</title>
<polygon fill="#2f28d7" stroke="#000000" stroke-width="3" points="5204.0743,-198.0161 5213.8637,-198.148 5223.5518,-198.3455 5233.0991,-198.6079 5242.467,-198.9345 5251.6178,-199.3246 5260.5155,-199.7769 5269.1255,-200.2902 5277.4149,-200.8633 5285.353,-201.4943 5292.9113,-202.1817 5300.0635,-202.9236 5306.7856,-203.7179 5313.0565,-204.5625 5318.8574,-205.4549 5324.1726,-206.3929 5328.9889,-207.3738 5333.2959,-208.3949 5337.086,-209.4534 5340.3545,-210.5465 5343.0991,-211.6711 5345.3206,-212.8241 5347.0218,-214.0024 5348.2084,-215.2028 5348.8881,-216.4219 5349.071,-217.6565 5348.769,-218.9031 5347.9961,-220.1584 5346.7677,-221.4188 5345.1008,-222.6809 5343.0137,-223.9414 5340.5256,-225.1966 5337.657,-226.4432 5334.4285,-227.6778 5330.8616,-228.8969 5326.978,-230.0973 5322.7992,-231.2756 5318.3471,-232.4287 5313.6428,-233.5533 5308.7075,-234.6463 5303.5614,-235.7049 5298.2242,-236.726 5292.7148,-237.7068 5287.0511,-238.6448 5281.2502,-239.5373 5275.3278,-240.3818 5269.2988,-241.1761 5263.1768,-241.918 5256.9745,-242.6054 5250.7033,-243.2365 5244.3734,-243.8095 5237.9942,-244.3229 5231.574,-244.7752 5225.1203,-245.1652 5218.6396,-245.4919 5212.1378,-245.7543 5205.6203,-245.9517 5199.0919,-246.0837 5192.5571,-246.1497 5186.0202,-246.1497 5179.4854,-246.0837 5172.957,-245.9517 5166.4395,-245.7543 5159.9377,-245.4919 5153.457,-245.1652 5147.0033,-244.7752 5140.5831,-244.3229 5134.2039,-243.8095 5127.874,-243.2365 5121.6027,-242.6054 5115.4004,-241.918 5109.2785,-241.1761 5103.2495,-240.3818 5097.3271,-239.5373 5091.5262,-238.6448 5085.8625,-237.7068 5080.3531,-236.726 5075.0159,-235.7049 5069.8698,-234.6463 5064.9344,-233.5533 5060.2302,-232.4287 5055.778,-231.2756 5051.5993,-230.0973 5047.7156,-228.8969 5044.1488,-227.6778 5040.9203,-226.4432 5038.0516,-225.1966 5035.5636,-223.9414 5033.4765,-222.6809 5031.8096,-221.4188 5030.5812,-220.1584 5029.8083,-218.9031 5029.5063,-217.6565 5029.6892,-216.4219 5030.3689,-215.2028 5031.5555,-214.0024 5033.2567,-212.8241 5035.4781,-211.6711 5038.2228,-210.5465 5041.4913,-209.4534 5045.2814,-208.3949 5049.5884,-207.3738 5054.4047,-206.3929 5059.7198,-205.4549 5065.5208,-204.5625 5071.7917,-203.7179 5078.5138,-202.9236 5085.6659,-202.1817 5093.2242,-201.4943 5101.1624,-200.8633 5109.4518,-200.2902 5118.0618,-199.7769 5126.9594,-199.3246 5136.1103,-198.9345 5145.4781,-198.6079 5155.0255,-198.3455 5164.7136,-198.148 5174.5029,-198.0161 5184.3533,-197.95 5194.224,-197.95 5204.0743,-198.0161"/>
<text text-anchor="middle" x="5189.2886" y="-215.8499" font-family="Times,serif" font-size="24.00" fill="#ffffff">Dark Launching</text>
</g>
<!-- Continuous Deployment -->
<g id="node20" class="node">
<title>Continuous Deployment</title>
<polygon fill="#2f28d7" stroke="#000000" stroke-width="3" points="4376.632,-264.0161 4390.8991,-264.148 4405.0187,-264.3455 4418.9332,-264.6079 4432.586,-264.9345 4445.9226,-265.3246 4458.8902,-265.7769 4471.4384,-266.2902 4483.5195,-266.8633 4495.0887,-267.4943 4506.1043,-268.1817 4516.5279,-268.9236 4526.3248,-269.7179 4535.4641,-270.5625 4543.9185,-271.4549 4551.6649,-272.3929 4558.6842,-273.3738 4564.9613,-274.3949 4570.4851,-275.4534 4575.2486,-276.5465 4579.2487,-277.6711 4582.4862,-278.8241 4584.9656,-280.0024 4586.695,-281.2028 4587.6856,-282.4219 4587.9521,-283.6565 4587.5121,-284.9031 4586.3856,-286.1584 4584.5953,-287.4188 4582.1659,-288.6809 4579.1241,-289.9414 4575.4981,-291.1966 4571.3172,-292.4432 4566.612,-293.6778 4561.4136,-294.8969 4555.7535,-296.0973 4549.6633,-297.2756 4543.1747,-298.4287 4536.3187,-299.5533 4529.1258,-300.6463 4521.6258,-301.7049 4513.8473,-302.726 4505.8178,-303.7068 4497.5635,-304.6448 4489.1091,-305.5373 4480.4777,-306.3818 4471.691,-307.1761 4462.7688,-307.918 4453.7295,-308.6054 4444.5896,-309.2365 4435.3644,-309.8095 4426.0673,-310.3229 4416.7104,-310.7752 4407.3046,-311.1652 4397.8596,-311.4919 4388.3838,-311.7543 4378.8851,-311.9517 4369.3705,-312.0837 4359.8466,-312.1497 4350.3196,-312.1497 4340.7957,-312.0837 4331.2811,-311.9517 4321.7824,-311.7543 4312.3066,-311.4919 4302.8616,-311.1652 4293.4558,-310.7752 4284.0989,-310.3229 4274.8018,-309.8095 4265.5766,-309.2365 4256.4367,-308.6054 4247.3974,-307.918 4238.4752,-307.1761 4229.6885,-306.3818 4221.0571,-305.5373 4212.6027,-304.6448 4204.3484,-303.7068 4196.3189,-302.726 4188.5404,-301.7049 4181.0404,-300.6463 4173.8475,-299.5533 4166.9915,-298.4287 4160.5029,-297.2756 4154.4127,-296.0973 4148.7526,-294.8969 4143.5542,-293.6778 4138.849,-292.4432 4134.6682,-291.1966 4131.0421,-289.9414 4128.0003,-288.6809 4125.5709,-287.4188 4123.7806,-286.1584 4122.6541,-284.9031 4122.2141,-283.6565 4122.4806,-282.4219 4123.4713,-281.2028 4125.2006,-280.0024 4127.68,-278.8241 4130.9175,-277.6711 4134.9176,-276.5465 4139.6811,-275.4534 4145.2049,-274.3949 4151.482,-273.3738 4158.5013,-272.3929 4166.2477,-271.4549 4174.7021,-270.5625 4183.8414,-269.7179 4193.6383,-268.9236 4204.0619,-268.1817 4215.0775,-267.4943 4226.6467,-266.8633 4238.7278,-266.2902 4251.276,-265.7769 4264.2436,-265.3246 4277.5802,-264.9345 4291.233,-264.6079 4305.1475,-264.3455 4319.2671,-264.148 4333.5342,-264.0161 4347.8902,-263.95 4362.276,-263.95 4376.632,-264.0161"/>
<text text-anchor="middle" x="4355.0831" y="-281.8499" font-family="Times,serif" font-size="24.00" fill="#ffffff">Continuous Deployment</text>
</g>
<!-- Dark Launching&#45;&gt;Continuous Deployment -->
<g id="edge17" class="edge">
<title>Dark Launching&#45;&gt;Continuous Deployment</title>
<g id="a_edge17"><a xlink:title="Dark Launching &#160;reduces the failure rate of &#160;Continuous Deployment">
<path fill="none" stroke="#d72879" d="M5066.3936,-233.9419C4951.726,-241.0672 4775.9535,-250.278 4623.7675,-264.0499 4602.3566,-265.9874 4580.0185,-268.2862 4557.7682,-270.7039"/>
<polygon fill="#d72879" stroke="#d72879" points="4557.1145,-267.2545 4547.5549,-271.8223 4557.8765,-274.2129 4557.1145,-267.2545"/>
</a>
</g>
</g>
<!-- Test Driven Development&#45;&gt;Automated Testing -->
<g id="edge19" class="edge">
<title>Test Driven Development&#45;&gt;Automated Testing</title>
<g id="a_edge19"><a xlink:title="Test Driven Development &#160;reduces the failure rate of &#160;Automated Testing">
<path fill="none" stroke="#d72879" d="M1419.685,-148.0254C1166.8627,-147.416 757.9728,-147.7451 404.9818,-154.0499 396.3569,-154.2039 387.543,-154.385 378.6399,-154.5873"/>
<polygon fill="#d72879" stroke="#d72879" points="378.4705,-151.0902 368.5555,-154.8243 378.635,-158.0883 378.4705,-151.0902"/>
</a>
</g>
</g>
<!-- Test Driven Development&#45;&gt;Unit Testing -->
<g id="edge18" class="edge">
<title>Test Driven Development&#45;&gt;Unit Testing</title>
<g id="a_edge18"><a xlink:title="Test Driven Development &#160;reduces the failure rate of &#160;Unit Testing">
<path fill="none" stroke="#d72879" d="M1869.1361,-157.4389C1912.7338,-159.1938 1957.6055,-161.0001 1997.6894,-162.6137"/>
<polygon fill="#d72879" stroke="#d72879" points="1997.6406,-166.1144 2007.7733,-163.0196 1997.9222,-159.1201 1997.6406,-166.1144"/>
</a>
</g>
</g>
<!-- Exploratory Testing&#45;&gt;Automated Testing -->
<g id="edge20" class="edge">
<title>Exploratory Testing&#45;&gt;Automated Testing</title>
<g id="a_edge20"><a xlink:title="Exploratory Testing &#160;better together with &#160;Automated Testing">
<path fill="none" stroke="#d0d728" d="M516.049,-103.7195C462.3389,-115.1504 390.145,-129.1525 326.8368,-140.5409"/>
<polygon fill="#d0d728" stroke="#d0d728" points="325.9834,-137.138 316.7567,-142.3455 327.217,-144.0284 325.9834,-137.138"/>
</a>
</g>
</g>
<!-- Immutable Artefacts -->
<g id="node16" class="node">
<title>Immutable Artefacts</title>
<polygon fill="#2f28d7" stroke="#000000" stroke-width="3" points="3222.517,-163.0161 3234.777,-163.148 3246.9103,-163.3455 3258.8672,-163.6079 3270.5994,-163.9345 3282.0598,-164.3246 3293.2031,-164.7769 3303.986,-165.2902 3314.3676,-165.8633 3324.3092,-166.4943 3333.7751,-167.1817 3342.7323,-167.9236 3351.151,-168.7179 3359.0045,-169.5625 3366.2696,-170.4549 3372.9263,-171.3929 3378.9581,-172.3738 3384.3521,-173.3949 3389.0988,-174.4534 3393.1922,-175.5465 3396.6295,-176.6711 3399.4116,-177.8241 3401.5422,-179.0024 3403.0283,-180.2028 3403.8796,-181.4219 3404.1086,-182.6565 3403.7304,-183.9031 3402.7624,-185.1584 3401.224,-186.4188 3399.1364,-187.6809 3396.5225,-188.9414 3393.4065,-190.1966 3389.8139,-191.4432 3385.7706,-192.6778 3381.3035,-193.8969 3376.4396,-195.0973 3371.2063,-196.2756 3365.6304,-197.4287 3359.7389,-198.5533 3353.558,-199.6463 3347.113,-200.7049 3340.4288,-201.726 3333.5289,-202.7068 3326.4359,-203.6448 3319.1708,-204.5373 3311.7537,-205.3818 3304.2031,-206.1761 3296.5361,-206.918 3288.7684,-207.6054 3280.9143,-208.2365 3272.9869,-208.8095 3264.9977,-209.3229 3256.9572,-209.7752 3248.8746,-210.1652 3240.7583,-210.4919 3232.6155,-210.7543 3224.4531,-210.9517 3216.2771,-211.0837 3208.093,-211.1497 3199.9062,-211.1497 3191.7221,-211.0837 3183.546,-210.9517 3175.3836,-210.7543 3167.2409,-210.4919 3159.1246,-210.1652 3151.042,-209.7752 3143.0015,-209.3229 3135.0123,-208.8095 3127.0848,-208.2365 3119.2308,-207.6054 3111.4631,-206.918 3103.7961,-206.1761 3096.2455,-205.3818 3088.8284,-204.5373 3081.5633,-203.6448 3074.4702,-202.7068 3067.5703,-201.726 3060.8861,-200.7049 3054.4412,-199.6463 3048.2603,-198.5533 3042.3687,-197.4287 3036.7929,-196.2756 3031.5595,-195.0973 3026.6957,-193.8969 3022.2286,-192.6778 3018.1853,-191.4432 3014.5926,-190.1966 3011.4767,-188.9414 3008.8628,-187.6809 3006.7752,-186.4188 3005.2368,-185.1584 3004.2687,-183.9031 3003.8906,-182.6565 3004.1196,-181.4219 3004.9709,-180.2028 3006.4569,-179.0024 3008.5875,-177.8241 3011.3696,-176.6711 3014.807,-175.5465 3018.9004,-174.4534 3023.6471,-173.3949 3029.0411,-172.3738 3035.0729,-171.3929 3041.7296,-170.4549 3048.9946,-169.5625 3056.8482,-168.7179 3065.2669,-167.9236 3074.2241,-167.1817 3083.69,-166.4943 3093.6316,-165.8633 3104.0132,-165.2902 3114.7961,-164.7769 3125.9394,-164.3246 3137.3998,-163.9345 3149.132,-163.6079 3161.0889,-163.3455 3173.2222,-163.148 3185.4822,-163.0161 3197.8186,-162.95 3210.1806,-162.95 3222.517,-163.0161"/>
<text text-anchor="middle" x="3203.9996" y="-180.8499" font-family="Times,serif" font-size="24.00" fill="#ffffff">Immutable Artefacts</text>
</g>
<!-- Continuous Integration&#45;&gt;Immutable Artefacts -->
<g id="edge22" class="edge">
<title>Continuous Integration&#45;&gt;Immutable Artefacts</title>
<g id="a_edge22"><a xlink:title="Continuous Integration &#160;enables &#160;&#160;Immutable Artefacts">
<path fill="none" stroke="#28d786" d="M2815.4167,-180.5178C2873.8154,-180.1997 2936.4801,-180.2298 2994.0705,-180.6082"/>
<polygon fill="#28d786" stroke="#28d786" points="2994.3629,-184.1102 3004.3871,-180.6801 2994.4117,-177.1104 2994.3629,-184.1102"/>
</a>
</g>
</g>
<!-- Continuous Integration&#45;&gt;Continuous Delivery -->
<g id="edge21" class="edge">
<title>Continuous Integration&#45;&gt;Continuous Delivery</title>
<g id="a_edge21"><a xlink:title="Continuous Integration &#160;enables &#160;&#160;Continuous Delivery">
<path fill="none" stroke="#28d786" d="M2725.9145,-203.97C2767.6623,-209.1592 2813.775,-214.8661 2856.1025,-220.0499 2917.4676,-227.5652 2984.934,-235.7321 3043.9881,-242.8492"/>
<polygon fill="#28d786" stroke="#28d786" points="3043.803,-246.3521 3054.1499,-244.0735 3044.6404,-239.4023 3043.803,-246.3521"/>
</a>
</g>
</g>
<!-- Semantic Versioning -->
<g id="node13" class="node">
<title>Semantic Versioning</title>
<polygon fill="#2f28d7" stroke="#000000" stroke-width="3" points="3855.6651,-144.0161 3867.9251,-144.148 3880.0584,-144.3455 3892.0153,-144.6079 3903.7475,-144.9345 3915.2079,-145.3246 3926.3512,-145.7769 3937.1341,-146.2902 3947.5157,-146.8633 3957.4573,-147.4943 3966.9232,-148.1817 3975.8804,-148.9236 3984.2991,-149.7179 3992.1527,-150.5625 3999.4177,-151.4549 4006.0744,-152.3929 4012.1062,-153.3738 4017.5002,-154.3949 4022.2469,-155.4534 4026.3403,-156.5465 4029.7776,-157.6711 4032.5597,-158.8241 4034.6903,-160.0024 4036.1764,-161.2028 4037.0277,-162.4219 4037.2567,-163.6565 4036.8785,-164.9031 4035.9105,-166.1584 4034.3721,-167.4188 4032.2845,-168.6809 4029.6706,-169.9414 4026.5547,-171.1966 4022.962,-172.4432 4018.9187,-173.6778 4014.4516,-174.8969 4009.5877,-176.0973 4004.3544,-177.2756 3998.7785,-178.4287 3992.887,-179.5533 3986.7061,-180.6463 3980.2611,-181.7049 3973.5769,-182.726 3966.677,-183.7068 3959.584,-184.6448 3952.3189,-185.5373 3944.9018,-186.3818 3937.3512,-187.1761 3929.6842,-187.918 3921.9165,-188.6054 3914.0624,-189.2365 3906.135,-189.8095 3898.1458,-190.3229 3890.1053,-190.7752 3882.0227,-191.1652 3873.9064,-191.4919 3865.7636,-191.7543 3857.6012,-191.9517 3849.4252,-192.0837 3841.2411,-192.1497 3833.0543,-192.1497 3824.8702,-192.0837 3816.6941,-191.9517 3808.5317,-191.7543 3800.389,-191.4919 3792.2727,-191.1652 3784.1901,-190.7752 3776.1496,-190.3229 3768.1604,-189.8095 3760.2329,-189.2365 3752.3789,-188.6054 3744.6112,-187.918 3736.9442,-187.1761 3729.3936,-186.3818 3721.9765,-185.5373 3714.7114,-184.6448 3707.6183,-183.7068 3700.7184,-182.726 3694.0342,-181.7049 3687.5893,-180.6463 3681.4084,-179.5533 3675.5168,-178.4287 3669.941,-177.2756 3664.7076,-176.0973 3659.8438,-174.8969 3655.3767,-173.6778 3651.3334,-172.4432 3647.7407,-171.1966 3644.6248,-169.9414 3642.0109,-168.6809 3639.9233,-167.4188 3638.3849,-166.1584 3637.4168,-164.9031 3637.0387,-163.6565 3637.2677,-162.4219 3638.119,-161.2028 3639.605,-160.0024 3641.7357,-158.8241 3644.5177,-157.6711 3647.9551,-156.5465 3652.0485,-155.4534 3656.7952,-154.3949 3662.1892,-153.3738 3668.221,-152.3929 3674.8777,-151.4549 3682.1427,-150.5625 3689.9963,-149.7179 3698.415,-148.9236 3707.3722,-148.1817 3716.8381,-147.4943 3726.7797,-146.8633 3737.1613,-146.2902 3747.9442,-145.7769 3759.0875,-145.3246 3770.5479,-144.9345 3782.2801,-144.6079 3794.237,-144.3455 3806.3703,-144.148 3818.6303,-144.0161 3830.9667,-143.95 3843.3287,-143.95 3855.6651,-144.0161"/>
<text text-anchor="middle" x="3837.1477" y="-161.8499" font-family="Times,serif" font-size="24.00" fill="#ffffff">Semantic Versioning</text>
</g>
<!-- Release Views -->
<g id="node15" class="node">
<title>Release Views</title>
<polygon fill="#2f28d7" stroke="#000000" stroke-width="3" points="4368.2366,-33.0161 4376.9452,-33.148 4385.5638,-33.3455 4394.0572,-33.6079 4402.3909,-33.9345 4410.5315,-34.3246 4418.447,-34.7769 4426.1064,-35.2902 4433.4807,-35.8633 4440.5426,-36.4943 4447.2665,-37.1817 4453.6291,-37.9236 4459.6091,-38.7179 4465.1877,-39.5625 4470.3483,-40.4549 4475.0767,-41.3929 4479.3613,-42.3738 4483.1928,-43.3949 4486.5645,-44.4534 4489.4722,-45.5465 4491.9138,-46.6711 4493.89,-47.8241 4495.4035,-49.0024 4496.459,-50.2028 4497.0637,-51.4219 4497.2264,-52.6565 4496.9578,-53.9031 4496.2702,-55.1584 4495.1774,-56.4188 4493.6945,-57.6809 4491.8378,-58.9414 4489.6245,-60.1966 4487.0725,-61.4432 4484.2004,-62.6778 4481.0273,-63.8969 4477.5724,-65.0973 4473.8549,-66.2756 4469.8943,-67.4287 4465.7093,-68.5533 4461.3188,-69.6463 4456.7408,-70.7049 4451.9928,-71.726 4447.0916,-72.7068 4442.0532,-73.6448 4436.8926,-74.5373 4431.624,-75.3818 4426.2606,-76.1761 4420.8145,-76.918 4415.2969,-77.6054 4409.7179,-78.2365 4404.0868,-78.8095 4398.4119,-79.3229 4392.7004,-79.7752 4386.9591,-80.1652 4381.1939,-80.4919 4375.4099,-80.7543 4369.6119,-80.9517 4363.8042,-81.0837 4357.9907,-81.1497 4352.1755,-81.1497 4346.3621,-81.0837 4340.5543,-80.9517 4334.7563,-80.7543 4328.9723,-80.4919 4323.2071,-80.1652 4317.4658,-79.7752 4311.7543,-79.3229 4306.0794,-78.8095 4300.4483,-78.2365 4294.8693,-77.6054 4289.3517,-76.918 4283.9056,-76.1761 4278.5422,-75.3818 4273.2736,-74.5373 4268.113,-73.6448 4263.0746,-72.7068 4258.1734,-71.726 4253.4254,-70.7049 4248.8474,-69.6463 4244.4569,-68.5533 4240.2719,-67.4287 4236.3113,-66.2756 4232.5938,-65.0973 4229.1389,-63.8969 4225.9658,-62.6778 4223.0937,-61.4432 4220.5418,-60.1966 4218.3284,-58.9414 4216.4717,-57.6809 4214.9888,-56.4188 4213.896,-55.1584 4213.2084,-53.9031 4212.9398,-52.6565 4213.1025,-51.4219 4213.7072,-50.2028 4214.7627,-49.0024 4216.2762,-47.8241 4218.2524,-46.6711 4220.694,-45.5465 4223.6017,-44.4534 4226.9734,-43.3949 4230.8049,-42.3738 4235.0895,-41.3929 4239.8179,-40.4549 4244.9785,-39.5625 4250.5571,-38.7179 4256.5372,-37.9236 4262.8997,-37.1817 4269.6236,-36.4943 4276.6855,-35.8633 4284.0598,-35.2902 4291.7192,-34.7769 4299.6347,-34.3246 4307.7753,-33.9345 4316.109,-33.6079 4324.6024,-33.3455 4333.221,-33.148 4341.9297,-33.0161 4350.6926,-32.95 4359.4736,-32.95 4368.2366,-33.0161"/>
<text text-anchor="middle" x="4355.0831" y="-50.8499" font-family="Times,serif" font-size="24.00" fill="#ffffff">Release Views</text>
</g>
<!-- Semantic Versioning&#45;&gt;Release Views -->
<g id="edge23" class="edge">
<title>Semantic Versioning&#45;&gt;Release Views</title>
<g id="a_edge23"><a xlink:title="Semantic Versioning &#160;enables &#160;&#160;Release Views">
<path fill="none" stroke="#28d786" d="M3890.8109,-144.4981C3947.7836,-124.8184 4040.6982,-97.9435 4122.3987,-81.0499 4153.0443,-74.7131 4186.2134,-69.2112 4217.6429,-64.8548"/>
<polygon fill="#28d786" stroke="#28d786" points="4218.3414,-68.2922 4227.7808,-63.481 4217.4013,-61.3556 4218.3414,-68.2922"/>
</a>
</g>
</g>
<!-- Semantic Versioning&#45;&gt;Immutable Artefacts -->
<g id="edge24" class="edge">
<title>Semantic Versioning&#45;&gt;Immutable Artefacts</title>
<g id="a_edge24"><a xlink:title="Semantic Versioning &#160;reduces the failure rate of &#160;Immutable Artefacts">
<path fill="none" stroke="#d72879" d="M3677.3877,-178.7964C3596.2226,-182.1316 3496.658,-185.2581 3409.8167,-187.2421"/>
<polygon fill="#d72879" stroke="#d72879" points="3409.4821,-183.7486 3399.5633,-187.4723 3409.6393,-190.7469 3409.4821,-183.7486"/>
</a>
</g>
</g>
<!-- Separation of internal versioning from Marketing versioning -->
<g id="node14" class="node">
<title>Separation of internal versioning from Marketing versioning</title>
<polygon fill="#2f28d7" stroke="#000000" stroke-width="3" points="5241.6219,-.0161 5276.2709,-.148 5310.5616,-.3455 5344.3539,-.6079 5377.511,-.9345 5409.9,-1.3246 5441.3929,-1.7769 5471.8673,-2.2902 5501.2074,-2.8633 5529.3042,-3.4943 5556.0564,-4.1817 5581.371,-4.9236 5605.1637,-5.7179 5627.3591,-6.5625 5647.8914,-7.4549 5666.7042,-8.3929 5683.7512,-9.3738 5698.9956,-10.3949 5712.4105,-11.4534 5723.9791,-12.5465 5733.6938,-13.6711 5741.5564,-14.8241 5747.5778,-16.0024 5751.7776,-17.2028 5754.1835,-18.4219 5754.8308,-19.6565 5753.7621,-20.9031 5751.0263,-22.1584 5746.6784,-23.4188 5740.7785,-24.6809 5733.3912,-25.9414 5724.585,-27.1966 5714.4315,-28.4432 5703.0045,-29.6778 5690.3797,-30.8969 5676.6336,-32.0973 5661.8432,-33.2756 5646.085,-34.4287 5629.4346,-35.5533 5611.9661,-36.6463 5593.7517,-37.7049 5574.861,-38.726 5555.3607,-39.7068 5535.3144,-40.6448 5514.7822,-41.5373 5493.8201,-42.3818 5472.4808,-43.1761 5450.8125,-43.918 5428.8597,-44.6054 5406.6629,-45.2365 5384.2585,-45.8095 5361.6797,-46.3229 5338.9558,-46.7752 5316.113,-47.1652 5293.1749,-47.4919 5270.1622,-47.7543 5247.0938,-47.9517 5223.9869,-48.0837 5200.8572,-48.1497 5177.7201,-48.1497 5154.5904,-48.0837 5131.4834,-47.9517 5108.415,-47.7543 5085.4024,-47.4919 5062.4642,-47.1652 5039.6215,-46.7752 5016.8976,-46.3229 4994.3187,-45.8095 4971.9144,-45.2365 4949.7176,-44.6054 4927.7648,-43.918 4906.0965,-43.1761 4884.7571,-42.3818 4863.7951,-41.5373 4843.2628,-40.6448 4823.2166,-39.7068 4803.7163,-38.726 4784.8256,-37.7049 4766.6112,-36.6463 4749.1427,-35.5533 4732.4923,-34.4287 4716.7341,-33.2756 4701.9436,-32.0973 4688.1976,-30.8969 4675.5728,-29.6778 4664.1458,-28.4432 4653.9923,-27.1966 4645.1861,-25.9414 4637.7988,-24.6809 4631.8989,-23.4188 4627.551,-22.1584 4624.8152,-20.9031 4623.7465,-19.6565 4624.3938,-18.4219 4626.7996,-17.2028 4630.9994,-16.0024 4637.0209,-14.8241 4644.8835,-13.6711 4654.5982,-12.5465 4666.1667,-11.4534 4679.5817,-10.3949 4694.8261,-9.3738 4711.873,-8.3929 4730.6859,-7.4549 4751.2182,-6.5625 4773.4136,-5.7179 4797.2063,-4.9236 4822.5209,-4.1817 4849.2731,-3.4943 4877.3699,-2.8633 4906.7099,-2.2902 4937.1844,-1.7769 4968.6773,-1.3246 5001.0663,-.9345 5034.2234,-.6079 5068.0157,-.3455 5102.3064,-.148 5136.9553,-.0161 5171.8202,.05 5206.7571,.05 5241.6219,-.0161"/>
<text text-anchor="middle" x="5189.2886" y="-17.8499" font-family="Times,serif" font-size="24.00" fill="#ffffff">Separation of internal versioning from Marketing versioning</text>
</g>
<!-- Release Views&#45;&gt;Semantic Versioning -->
<g id="edge26" class="edge">
<title>Release Views&#45;&gt;Semantic Versioning</title>
<g id="a_edge26"><a xlink:title="Release Views &#160;reduces the failure rate of &#160;Semantic Versioning">
<path fill="none" stroke="#d72879" d="M4271.7223,-74.2894C4227.1791,-80.8728 4171.5441,-88.8879 4122.3987,-99.0499 4062.8795,-111.3569 3997.4089,-128.9613 3944.2187,-143.4419"/>
<polygon fill="#d72879" stroke="#d72879" points="3943.1625,-140.102 3934.434,-146.1075 3945.0024,-146.8559 3943.1625,-140.102"/>
</a>
</g>
</g>
<!-- Release Views&#45;&gt;Separation of internal versioning from Marketing versioning -->
<g id="edge25" class="edge">
<title>Release Views&#45;&gt;Separation of internal versioning from Marketing versioning</title>
<g id="a_edge25"><a xlink:title="Release Views &#160;enables &#160;&#160;Separation of internal versioning from Marketing versioning">
<path fill="none" stroke="#28d786" d="M4497.0672,-51.4332C4580.9569,-48.1146 4691.6479,-43.7358 4799.8459,-39.4557"/>
<polygon fill="#28d786" stroke="#28d786" points="4800.1172,-42.9478 4809.971,-39.0551 4799.8405,-35.9533 4800.1172,-42.9478"/>
</a>
</g>
</g>
<!-- Immutable Artefacts&#45;&gt;Continuous Integration -->
<g id="edge28" class="edge">
<title>Immutable Artefacts&#45;&gt;Continuous Integration</title>
<g id="a_edge28"><a xlink:title="Immutable Artefacts &#160;reduces the failure rate of &#160;Continuous Integration">
<path fill="none" stroke="#d72879" d="M3024.333,-193.256C2954.9227,-193.8846 2874.9656,-193.9683 2802.7477,-193.507"/>
<polygon fill="#d72879" stroke="#d72879" points="2802.6343,-190.0063 2792.6107,-193.4383 2802.5868,-197.0061 2802.6343,-190.0063"/>
</a>
</g>
</g>
<!-- Immutable Artefacts&#45;&gt;Semantic Versioning -->
<g id="edge27" class="edge">
<title>Immutable Artefacts&#45;&gt;Semantic Versioning</title>
<g id="a_edge27"><a xlink:title="Immutable Artefacts &#160;enables &#160;&#160;Semantic Versioning">
<path fill="none" stroke="#28d786" d="M3392.2506,-175.1699C3467.0807,-172.2852 3553.4253,-169.645 3630.0217,-167.8876"/>
<polygon fill="#28d786" stroke="#28d786" points="3630.3594,-171.381 3640.2779,-167.6563 3630.2015,-164.3828 3630.3594,-171.381"/>
</a>
</g>
</g>
<!-- Containerised Application -->
<g id="node17" class="node">
<title>Containerised Application</title>
<polygon fill="#2f28d7" stroke="#000000" stroke-width="3" points="3860.1895,-264.0161 3875.445,-264.148 3890.5429,-264.3455 3905.4213,-264.6079 3920.02,-264.9345 3934.2805,-265.3246 3948.1465,-265.7769 3961.5641,-266.2902 3974.4822,-266.8633 3986.8529,-267.4943 3998.6316,-268.1817 4009.7774,-268.9236 4020.253,-269.7179 4030.0254,-270.5625 4039.0656,-271.4549 4047.3487,-272.3929 4054.8543,-273.3738 4061.5662,-274.3949 4067.4727,-275.4534 4072.5662,-276.5465 4076.8435,-277.6711 4080.3053,-278.8241 4082.9565,-280.0024 4084.8056,-281.2028 4085.8649,-282.4219 4086.1499,-283.6565 4085.6793,-284.9031 4084.4748,-286.1584 4082.5604,-287.4188 4079.9628,-288.6809 4076.7102,-289.9414 4072.833,-291.1966 4068.3625,-292.4432 4063.3313,-293.6778 4057.7727,-294.8969 4051.7205,-296.0973 4045.2084,-297.2756 4038.2702,-298.4287 4030.9392,-299.5533 4023.2481,-300.6463 4015.2285,-301.7049 4006.9111,-302.726 3998.3253,-303.7068 3989.4992,-304.6448 3980.459,-305.5373 3971.2297,-306.3818 3961.8342,-307.1761 3952.2939,-307.918 3942.6283,-308.6054 3932.8552,-309.2365 3922.9909,-309.8095 3913.0496,-310.3229 3903.0445,-310.7752 3892.9871,-311.1652 3882.8877,-311.4919 3872.7555,-311.7543 3862.5987,-311.9517 3852.4249,-312.0837 3842.2412,-312.1497 3832.0542,-312.1497 3821.8704,-312.0837 3811.6967,-311.9517 3801.5399,-311.7543 3791.4077,-311.4919 3781.3083,-311.1652 3771.2508,-310.7752 3761.2457,-310.3229 3751.3045,-309.8095 3741.4401,-309.2365 3731.6671,-308.6054 3722.0015,-307.918 3712.4612,-307.1761 3703.0657,-306.3818 3693.8364,-305.5373 3684.7962,-304.6448 3675.9701,-303.7068 3667.3843,-302.726 3659.0669,-301.7049 3651.0473,-300.6463 3643.3561,-299.5533 3636.0251,-298.4287 3629.0869,-297.2756 3622.5749,-296.0973 3616.5226,-294.8969 3610.9641,-293.6778 3605.9329,-292.4432 3601.4624,-291.1966 3597.5851,-289.9414 3594.3326,-288.6809 3591.7349,-287.4188 3589.8206,-286.1584 3588.6161,-284.9031 3588.1455,-283.6565 3588.4305,-282.4219 3589.4898,-281.2028 3591.3389,-280.0024 3593.9901,-278.8241 3597.4519,-277.6711 3601.7292,-276.5465 3606.8227,-275.4534 3612.7292,-274.3949 3619.4411,-273.3738 3626.9467,-272.3929 3635.2298,-271.4549 3644.2699,-270.5625 3654.0423,-269.7179 3664.518,-268.9236 3675.6638,-268.1817 3687.4425,-267.4943 3699.8132,-266.8633 3712.7313,-266.2902 3726.1489,-265.7769 3740.0149,-265.3246 3754.2754,-264.9345 3768.8741,-264.6079 3783.7525,-264.3455 3798.8503,-264.148 3814.1059,-264.0161 3829.4565,-263.95 3844.8389,-263.95 3860.1895,-264.0161"/>
<text text-anchor="middle" x="3837.1477" y="-281.8499" font-family="Times,serif" font-size="24.00" fill="#ffffff">Containerised Application</text>
</g>
<!-- Containerised Application&#45;&gt;Continuous Deployment -->
<g id="edge29" class="edge">
<title>Containerised Application&#45;&gt;Continuous Deployment</title>
<g id="a_edge29"><a xlink:title="Containerised Application &#160;reduces the failure rate of &#160;Continuous Deployment">
<path fill="none" stroke="#d72879" d="M4081.328,-288.0499C4092.9865,-288.0499 4104.685,-288.0499 4116.3288,-288.0499"/>
<polygon fill="#d72879" stroke="#d72879" points="4116.5447,-291.55 4126.5447,-288.0499 4116.5446,-284.55 4116.5447,-291.55"/>
</a>
</g>
</g>
<!-- Continuous Delivery&#45;&gt;Containerised Application -->
<g id="edge31" class="edge">
<title>Continuous Delivery&#45;&gt;Containerised Application</title>
<g id="a_edge31"><a xlink:title="Continuous Delivery &#160;enables &#160;&#160;Containerised Application">
<path fill="none" stroke="#28d786" d="M3378.6861,-269.2233C3442.6172,-271.8486 3516.2823,-274.8736 3585.6004,-277.7202"/>
<polygon fill="#28d786" stroke="#28d786" points="3585.6592,-281.2254 3595.7944,-278.1388 3585.9465,-274.2313 3585.6592,-281.2254"/>
</a>
</g>
</g>
<!-- Secrets Vault -->
<g id="node19" class="node">
<title>Secrets Vault</title>
<polygon fill="#2f28d7" stroke="#000000" stroke-width="3" points="5201.6956,-462.0161 5209.9101,-462.148 5218.0396,-462.3455 5226.0509,-462.6079 5233.9117,-462.9345 5241.5903,-463.3246 5249.0566,-463.7769 5256.2813,-464.2902 5263.2372,-464.8633 5269.8982,-465.4943 5276.2405,-466.1817 5282.242,-466.9236 5287.8827,-467.7179 5293.1447,-468.5625 5298.0124,-469.4549 5302.4725,-470.3929 5306.5139,-471.3738 5310.128,-472.3949 5313.3084,-473.4534 5316.051,-474.5465 5318.3541,-475.6711 5320.2182,-476.8241 5321.6457,-478.0024 5322.6414,-479.2028 5323.2118,-480.4219 5323.3652,-481.6565 5323.1118,-482.9031 5322.4633,-484.1584 5321.4325,-485.4188 5320.0337,-486.6809 5318.2824,-487.9414 5316.1947,-489.1966 5313.7875,-490.4432 5311.0784,-491.6778 5308.0854,-492.8969 5304.8265,-494.0973 5301.3201,-495.2756 5297.5842,-496.4287 5293.6368,-497.5533 5289.4954,-498.6463 5285.1772,-499.7049 5280.6987,-500.726 5276.0756,-501.7068 5271.3231,-502.6448 5266.4554,-503.5373 5261.4858,-504.3818 5256.4268,-505.1761 5251.2897,-505.918 5246.0852,-506.6054 5240.8229,-507.2365 5235.5114,-507.8095 5230.1585,-508.3229 5224.7712,-508.7752 5219.3557,-509.1652 5213.9176,-509.4919 5208.4618,-509.7543 5202.9929,-509.9517 5197.5148,-510.0837 5192.0313,-510.1497 5186.546,-510.1497 5181.0625,-510.0837 5175.5844,-509.9517 5170.1154,-509.7543 5164.6597,-509.4919 5159.2216,-509.1652 5153.8061,-508.7752 5148.4188,-508.3229 5143.0659,-507.8095 5137.7544,-507.2365 5132.492,-506.6054 5127.2876,-505.918 5122.1505,-505.1761 5117.0915,-504.3818 5112.1219,-503.5373 5107.2542,-502.6448 5102.5017,-501.7068 5097.8786,-500.726 5093.4001,-499.7049 5089.0819,-498.6463 5084.9405,-497.5533 5080.9931,-496.4287 5077.2572,-495.2756 5073.7507,-494.0973 5070.4919,-492.8969 5067.4988,-491.6778 5064.7898,-490.4432 5062.3826,-489.1966 5060.2949,-487.9414 5058.5435,-486.6809 5057.1448,-485.4188 5056.114,-484.1584 5055.4654,-482.9031 5055.2121,-481.6565 5055.3655,-480.4219 5055.9359,-479.2028 5056.9316,-478.0024 5058.3591,-476.8241 5060.2231,-475.6711 5062.5263,-474.5465 5065.2689,-473.4534 5068.4493,-472.3949 5072.0633,-471.3738 5076.1048,-470.3929 5080.5648,-469.4549 5085.4326,-468.5625 5090.6946,-467.7179 5096.3352,-466.9236 5102.3367,-466.1817 5108.6791,-465.4943 5115.3401,-464.8633 5122.296,-464.2902 5129.5207,-463.7769 5136.9869,-463.3246 5144.6656,-462.9345 5152.5264,-462.6079 5160.5377,-462.3455 5168.6672,-462.148 5176.8817,-462.0161 5185.1473,-461.95 5193.43,-461.95 5201.6956,-462.0161"/>
<text text-anchor="middle" x="5189.2886" y="-479.8499" font-family="Times,serif" font-size="24.00" fill="#ffffff">Secrets Vault</text>
</g>
<!-- Continuous Delivery&#45;&gt;Secrets Vault -->
<g id="edge32" class="edge">
<title>Continuous Delivery&#45;&gt;Secrets Vault</title>
<g id="a_edge32"><a xlink:title="Continuous Delivery &#160;better together with &#160;Secrets Vault">
<path fill="none" stroke="#d0d728" d="M3290.8963,-239.655C3367.277,-229.2798 3477.5446,-229.9727 3551.8967,-286.0499 3586.952,-312.489 3552.4365,-352.1563 3587.8967,-378.0499 3960.461,-650.1022 4163.3038,-415.9462 4623.7675,-444.0499 4772.776,-453.1444 4943.9045,-463.056 5058.5324,-471.4946"/>
<polygon fill="#d0d728" stroke="#d0d728" points="5058.5226,-475.0034 5068.7546,-472.2545 5059.0417,-468.0227 5058.5226,-475.0034"/>
</a>
</g>
</g>
<!-- Continuous Delivery&#45;&gt;Continuous Deployment -->
<g id="edge30" class="edge">
<title>Continuous Delivery&#45;&gt;Continuous Deployment</title>
<g id="a_edge30"><a xlink:title="Continuous Delivery &#160;enables &#160;&#160;Continuous Deployment">
<path fill="none" stroke="#28d786" d="M3398.2936,-252.821C3577.221,-246.1469 3849.9566,-240.5842 4086.3987,-255.0499 4124.7233,-257.3946 4165.9514,-261.6037 4204.3266,-266.2485"/>
<polygon fill="#28d786" stroke="#28d786" points="4204.1898,-269.7579 4214.5419,-267.5031 4205.0431,-262.8101 4204.1898,-269.7579"/>
</a>
</g>
</g>
<!-- Secrets Vault&#45;&gt;Continuous Delivery -->
<g id="edge33" class="edge">
<title>Secrets Vault&#45;&gt;Continuous Delivery</title>
<g id="a_edge33"><a xlink:title="Secrets Vault &#160;better together with &#160;Continuous Delivery">
<path fill="none" stroke="#d0d728" d="M5057.2985,-485.6916C4942.6789,-480.985 4772.2423,-471.1118 4623.7675,-462.0499 4163.3038,-433.9462 3960.461,-668.1022 3587.8967,-396.0499 3552.4365,-370.1563 3586.952,-330.489 3551.8967,-304.0499 3511.0273,-273.2257 3459.3063,-259.1354 3408.3264,-253.7746"/>
<polygon fill="#d0d728" stroke="#d0d728" points="3408.4277,-250.2687 3398.1438,-252.8164 3407.7719,-257.2379 3408.4277,-250.2687"/>
</a>
</g>
</g>
<!-- Secrets Vault&#45;&gt;Continuous Deployment -->
<g id="edge34" class="edge">
<title>Secrets Vault&#45;&gt;Continuous Deployment</title>
<g id="a_edge34"><a xlink:title="Secrets Vault &#160;better together with &#160;Continuous Deployment">
<path fill="none" stroke="#d0d728" d="M5102.5052,-501.8423C4988.8908,-514.0335 4785.2203,-519.5045 4623.7675,-462.0499 4605.1733,-455.4329 4604.2549,-446.8987 4587.7675,-436.0499 4521.8493,-392.675 4442.4482,-346.4821 4395.5128,-317.2451"/>
<polygon fill="#d0d728" stroke="#d0d728" points="4397.1849,-314.1623 4386.8548,-311.8088 4393.4626,-320.0906 4397.1849,-314.1623"/>
</a>
</g>
</g>
<!-- Continuous Deployment&#45;&gt;Dark Launching -->
<g id="edge35" class="edge">
<title>Continuous Deployment&#45;&gt;Dark Launching</title>
<g id="a_edge35"><a xlink:title="Continuous Deployment &#160;enables &#160;&#160;Dark Launching">
<path fill="none" stroke="#28d786" d="M4457.9457,-265.7175C4507.9164,-258.3557 4568.8877,-251.0162 4623.7675,-246.0499 4757.1144,-233.9828 4908.5697,-225.4175 5021.161,-221.3958"/>
<polygon fill="#28d786" stroke="#28d786" points="5021.3757,-224.8905 5031.2477,-221.0441 5021.1317,-217.8948 5021.3757,-224.8905"/>
</a>
</g>
</g>
<!-- Continuous Deployment&#45;&gt;Secrets Vault -->
<g id="edge40" class="edge">
<title>Continuous Deployment&#45;&gt;Secrets Vault</title>
<g id="a_edge40"><a xlink:title="Continuous Deployment &#160;better together with &#160;Secrets Vault">
<path fill="none" stroke="#d0d728" d="M4408.5663,-311.1497C4456.2581,-336.5548 4527.6248,-378.4753 4587.7675,-418.0499 4604.2549,-428.8987 4605.1733,-437.4329 4623.7675,-444.0499 4765.2299,-494.3907 4939.1029,-496.4237 5056.4129,-491.7731"/>
<polygon fill="#d0d728" stroke="#d0d728" points="5056.6787,-495.2651 5066.5238,-491.3505 5056.3863,-488.2712 5056.6787,-495.2651"/>
</a>
</g>
</g>
<!-- Microservice Ecosystem -->
<g id="node23" class="node">
<title>Microservice Ecosystem</title>
<polygon fill="#2f28d7" stroke="#000000" stroke-width="3" points="5210.9774,-132.0161 5225.3372,-132.148 5239.5485,-132.3455 5253.5533,-132.6079 5267.2948,-132.9345 5280.718,-133.3246 5293.7698,-133.7769 5306.3995,-134.2902 5318.5591,-134.8633 5330.2034,-135.4943 5341.2905,-136.1817 5351.7818,-136.9236 5361.6423,-137.7179 5370.8409,-138.5625 5379.3502,-139.4549 5387.1469,-140.3929 5394.2118,-141.3738 5400.5296,-142.3949 5406.0893,-143.4534 5410.8837,-144.5465 5414.9098,-145.6711 5418.1684,-146.8241 5420.6639,-148.0024 5422.4044,-149.2028 5423.4015,-150.4219 5423.6698,-151.6565 5423.2268,-152.9031 5422.093,-154.1584 5420.2911,-155.4188 5417.846,-156.6809 5414.7844,-157.9414 5411.1348,-159.1966 5406.9268,-160.4432 5402.1911,-161.6778 5396.9589,-162.8969 5391.262,-164.0973 5385.1323,-165.2756 5378.6016,-166.4287 5371.701,-167.5533 5364.4615,-168.6463 5356.9128,-169.7049 5349.0838,-170.726 5341.0021,-171.7068 5332.6942,-172.6448 5324.1849,-173.5373 5315.4975,-174.3818 5306.6537,-175.1761 5297.6736,-175.918 5288.5756,-176.6054 5279.3764,-177.2365 5270.0912,-177.8095 5260.7337,-178.3229 5251.3161,-178.7752 5241.8493,-179.1652 5232.3429,-179.4919 5222.8056,-179.7543 5213.2452,-179.9517 5203.6688,-180.0837 5194.0831,-180.1497 5184.4942,-180.1497 5174.9084,-180.0837 5165.3321,-179.9517 5155.7717,-179.7543 5146.2344,-179.4919 5136.728,-179.1652 5127.2612,-178.7752 5117.8435,-178.3229 5108.4861,-177.8095 5099.2009,-177.2365 5090.0017,-176.6054 5080.9037,-175.918 5071.9236,-175.1761 5063.0798,-174.3818 5054.3924,-173.5373 5045.883,-172.6448 5037.5751,-171.7068 5029.4935,-170.726 5021.6645,-169.7049 5014.1158,-168.6463 5006.8762,-167.5533 4999.9757,-166.4287 4993.4449,-165.2756 4987.3152,-164.0973 4981.6184,-162.8969 4976.3862,-161.6778 4971.6504,-160.4432 4967.4425,-159.1966 4963.7929,-157.9414 4960.7313,-156.6809 4958.2862,-155.4188 4956.4842,-154.1584 4955.3504,-152.9031 4954.9075,-151.6565 4955.1758,-150.4219 4956.1728,-149.2028 4957.9134,-148.0024 4960.4089,-146.8241 4963.6675,-145.6711 4967.6936,-144.5465 4972.488,-143.4534 4978.0477,-142.3949 4984.3655,-141.3738 4991.4303,-140.3929 4999.2271,-139.4549 5007.7364,-138.5625 5016.935,-137.7179 5026.7955,-136.9236 5037.2868,-136.1817 5048.3739,-135.4943 5060.0182,-134.8633 5072.1778,-134.2902 5084.8075,-133.7769 5097.8593,-133.3246 5111.2825,-132.9345 5125.024,-132.6079 5139.0287,-132.3455 5153.24,-132.148 5167.5998,-132.0161 5182.0491,-131.95 5196.5282,-131.95 5210.9774,-132.0161"/>
<text text-anchor="middle" x="5189.2886" y="-149.8499" font-family="Times,serif" font-size="24.00" fill="#ffffff">Microservice Ecosystem</text>
</g>
<!-- Continuous Deployment&#45;&gt;Microservice Ecosystem -->
<g id="edge39" class="edge">
<title>Continuous Deployment&#45;&gt;Microservice Ecosystem</title>
<g id="a_edge39"><a xlink:title="Continuous Deployment &#160;enables &#160;&#160;Microservice Ecosystem">
<path fill="none" stroke="#28d786" d="M4405.7611,-264.241C4458.8114,-240.5544 4545.174,-205.445 4623.7675,-189.0499 4728.2374,-167.2568 4845.7497,-158.0097 4946.4778,-154.5883"/>
<polygon fill="#28d786" stroke="#28d786" points="4946.6015,-158.0862 4956.4835,-154.2656 4946.3758,-151.0898 4946.6015,-158.0862"/>
</a>
</g>
</g>
<!-- Blue/Green Deployment -->
<g id="node24" class="node">
<title>Blue/Green Deployment</title>
<polygon fill="#2f28d7" stroke="#000000" stroke-width="3" points="5210.8375,-396.0161 5225.1047,-396.148 5239.2243,-396.3455 5253.1387,-396.6079 5266.7915,-396.9345 5280.1281,-397.3246 5293.0957,-397.7769 5305.6439,-398.2902 5317.7251,-398.8633 5329.2943,-399.4943 5340.3098,-400.1817 5350.7334,-400.9236 5360.5304,-401.7179 5369.6696,-402.5625 5378.124,-403.4549 5385.8705,-404.3929 5392.8897,-405.3738 5399.1668,-406.3949 5404.6906,-407.4534 5409.4541,-408.5465 5413.4542,-409.6711 5416.6918,-410.8241 5419.1712,-412.0024 5420.9005,-413.2028 5421.8911,-414.4219 5422.1577,-415.6565 5421.7176,-416.9031 5420.5911,-418.1584 5418.8008,-419.4188 5416.3714,-420.6809 5413.3296,-421.9414 5409.7036,-423.1966 5405.5227,-424.4432 5400.8175,-425.6778 5395.6191,-426.8969 5389.959,-428.0973 5383.8689,-429.2756 5377.3802,-430.4287 5370.5242,-431.5533 5363.3313,-432.6463 5355.8313,-433.7049 5348.0528,-434.726 5340.0234,-435.7068 5331.7691,-436.6448 5323.3146,-437.5373 5314.6833,-438.3818 5305.8965,-439.1761 5296.9743,-439.918 5287.935,-440.6054 5278.7952,-441.2365 5269.5699,-441.8095 5260.2728,-442.3229 5250.9159,-442.7752 5241.5102,-443.1652 5232.0651,-443.4919 5222.5893,-443.7543 5213.0906,-443.9517 5203.5761,-444.0837 5194.0521,-444.1497 5184.5251,-444.1497 5175.0012,-444.0837 5165.4866,-443.9517 5155.9879,-443.7543 5146.5122,-443.4919 5137.0671,-443.1652 5127.6613,-442.7752 5118.3045,-442.3229 5109.0074,-441.8095 5099.7821,-441.2365 5090.6423,-440.6054 5081.6029,-439.918 5072.6807,-439.1761 5063.894,-438.3818 5055.2626,-437.5373 5046.8082,-436.6448 5038.5539,-435.7068 5030.5244,-434.726 5022.7459,-433.7049 5015.2459,-432.6463 5008.0531,-431.5533 5001.1971,-430.4287 4994.7084,-429.2756 4988.6183,-428.0973 4982.9582,-426.8969 4977.7597,-425.6778 4973.0545,-424.4432 4968.8737,-423.1966 4965.2476,-421.9414 4962.2058,-420.6809 4959.7765,-419.4188 4957.9862,-418.1584 4956.8597,-416.9031 4956.4196,-415.6565 4956.6861,-414.4219 4957.6768,-413.2028 4959.4061,-412.0024 4961.8855,-410.8241 4965.1231,-409.6711 4969.1232,-408.5465 4973.8867,-407.4534 4979.4105,-406.3949 4985.6875,-405.3738 4992.7068,-404.3929 5000.4532,-403.4549 5008.9077,-402.5625 5018.0469,-401.7179 5027.8438,-400.9236 5038.2675,-400.1817 5049.283,-399.4943 5060.8522,-398.8633 5072.9333,-398.2902 5085.4816,-397.7769 5098.4492,-397.3246 5111.7857,-396.9345 5125.4386,-396.6079 5139.353,-396.3455 5153.4726,-396.148 5167.7398,-396.0161 5182.0958,-395.95 5196.4815,-395.95 5210.8375,-396.0161"/>
<text text-anchor="middle" x="5189.2886" y="-413.8499" font-family="Times,serif" font-size="24.00" fill="#ffffff">Blue/Green Deployment</text>
</g>
<!-- Continuous Deployment&#45;&gt;Blue/Green Deployment -->
<g id="edge38" class="edge">
<title>Continuous Deployment&#45;&gt;Blue/Green Deployment</title>
<g id="a_edge38"><a xlink:title="Continuous Deployment &#160;enables &#160;&#160;Blue/Green Deployment">
<path fill="none" stroke="#28d786" d="M4404.7795,-311.42C4457.7416,-335.1098 4544.6873,-370.5533 4623.7675,-387.0499 4731.2655,-409.4746 4852.573,-418.6156 4955.1937,-421.7945"/>
<polygon fill="#28d786" stroke="#28d786" points="4955.284,-425.2985 4965.3821,-422.0925 4955.4887,-418.3015 4955.284,-425.2985"/>
</a>
</g>
</g>
<!-- Canary Releases -->
<g id="node25" class="node">
<title>Canary Releases</title>
<polygon fill="#2f28d7" stroke="#000000" stroke-width="3" points="5204.4941,-330.0161 5214.5614,-330.148 5224.5246,-330.3455 5234.343,-330.6079 5243.9768,-330.9345 5253.3874,-331.3246 5262.5377,-331.7769 5271.3921,-332.2902 5279.9168,-332.8633 5288.0804,-333.4943 5295.8532,-334.1817 5303.2084,-334.9236 5310.1214,-335.7179 5316.5703,-336.5625 5322.536,-337.4549 5328.0021,-338.3929 5332.9551,-339.3738 5337.3843,-340.3949 5341.2821,-341.4534 5344.6433,-342.5465 5347.4659,-343.6711 5349.7504,-344.8241 5351.4999,-346.0024 5352.7202,-347.2028 5353.4192,-348.4219 5353.6073,-349.6565 5353.2968,-350.9031 5352.5019,-352.1584 5351.2386,-353.4188 5349.5244,-354.6809 5347.378,-355.9414 5344.8194,-357.1966 5341.8692,-358.4432 5338.5491,-359.6778 5334.881,-360.8969 5330.8871,-362.0973 5326.5897,-363.2756 5322.0111,-364.4287 5317.1733,-365.5533 5312.0979,-366.6463 5306.8056,-367.7049 5301.3169,-368.726 5295.6511,-369.7068 5289.8267,-370.6448 5283.861,-371.5373 5277.7705,-372.3818 5271.5703,-373.1761 5265.2746,-373.918 5258.8962,-374.6054 5252.4469,-375.2365 5245.9373,-375.8095 5239.377,-376.3229 5232.7745,-376.7752 5226.1376,-377.1652 5219.4729,-377.4919 5212.7865,-377.7543 5206.084,-377.9517 5199.3702,-378.0837 5192.6499,-378.1497 5185.9274,-378.1497 5179.207,-378.0837 5172.4933,-377.9517 5165.7908,-377.7543 5159.1044,-377.4919 5152.4397,-377.1652 5145.8027,-376.7752 5139.2003,-376.3229 5132.64,-375.8095 5126.1304,-375.2365 5119.6811,-374.6054 5113.3027,-373.918 5107.007,-373.1761 5100.8068,-372.3818 5094.7163,-371.5373 5088.7506,-370.6448 5082.9262,-369.7068 5077.2603,-368.726 5071.7716,-367.7049 5066.4794,-366.6463 5061.4039,-365.5533 5056.5662,-364.4287 5051.9876,-363.2756 5047.6902,-362.0973 5043.6963,-360.8969 5040.0281,-359.6778 5036.708,-358.4432 5033.7579,-357.1966 5031.1993,-355.9414 5029.0529,-354.6809 5027.3387,-353.4188 5026.0754,-352.1584 5025.2805,-350.9031 5024.97,-349.6565 5025.1581,-348.4219 5025.8571,-347.2028 5027.0773,-346.0024 5028.8269,-344.8241 5031.1114,-343.6711 5033.934,-342.5465 5037.2952,-341.4534 5041.193,-340.3949 5045.6222,-339.3738 5050.5752,-338.3929 5056.0413,-337.4549 5062.007,-336.5625 5068.4559,-335.7179 5075.3688,-334.9236 5082.724,-334.1817 5090.4969,-333.4943 5098.6604,-332.8633 5107.1852,-332.2902 5116.0396,-331.7769 5125.1899,-331.3246 5134.6005,-330.9345 5144.2343,-330.6079 5154.0527,-330.3455 5164.0159,-330.148 5174.0832,-330.0161 5184.2132,-329.95 5194.3641,-329.95 5204.4941,-330.0161"/>
<text text-anchor="middle" x="5189.2886" y="-347.8499" font-family="Times,serif" font-size="24.00" fill="#ffffff">Canary Releases</text>
</g>
<!-- Continuous Deployment&#45;&gt;Canary Releases -->
<g id="edge37" class="edge">
<title>Continuous Deployment&#45;&gt;Canary Releases</title>
<g id="a_edge37"><a xlink:title="Continuous Deployment &#160;enables &#160;&#160;Canary Releases">
<path fill="none" stroke="#28d786" d="M4486.0975,-305.8434C4529.8168,-311.3265 4578.8339,-316.9837 4623.7675,-321.0499 4754.9751,-332.9233 4903.7148,-341.4065 5015.7124,-346.7964"/>
<polygon fill="#28d786" stroke="#28d786" points="5015.5955,-350.2947 5025.7512,-347.276 5015.9296,-343.3027 5015.5955,-350.2947"/>
</a>
</g>
</g>
<!-- Crops not Garden plants -->
<g id="node27" class="node">
<title>Crops not Garden plants</title>
<polygon fill="#2f28d7" stroke="#000000" stroke-width="3" points="5211.1642,-264.0161 5225.6476,-264.148 5239.9813,-264.3455 5254.1066,-264.6079 5267.9664,-264.9345 5281.5052,-265.3246 5294.6693,-265.7769 5307.4078,-266.2902 5319.6721,-266.8633 5331.4166,-267.4943 5342.5992,-268.1817 5353.1808,-268.9236 5363.1262,-269.7179 5372.404,-270.5625 5380.9866,-271.4549 5388.8505,-272.3929 5395.9762,-273.3738 5402.3484,-274.3949 5407.9559,-275.4534 5412.7916,-276.5465 5416.8524,-277.6711 5420.139,-278.8241 5422.656,-280.0024 5424.4115,-281.2028 5425.4172,-282.4219 5425.6878,-283.6565 5425.241,-284.9031 5424.0975,-286.1584 5422.28,-287.4188 5419.8138,-288.6809 5416.7259,-289.9414 5413.0449,-291.1966 5408.8007,-292.4432 5404.0241,-293.6778 5398.7469,-294.8969 5393.001,-296.0973 5386.8185,-297.2756 5380.2315,-298.4287 5373.2716,-299.5533 5365.9697,-300.6463 5358.356,-301.7049 5350.4596,-302.726 5342.3084,-303.7068 5333.929,-304.6448 5325.3464,-305.5373 5316.5842,-306.3818 5307.6642,-307.1761 5298.6068,-307.918 5289.4304,-308.6054 5280.152,-309.2365 5270.7869,-309.8095 5261.3489,-310.3229 5251.8502,-310.7752 5242.3018,-311.1652 5232.7136,-311.4919 5223.0942,-311.7543 5213.4515,-311.9517 5203.7926,-312.0837 5194.1243,-312.1497 5184.4529,-312.1497 5174.7846,-312.0837 5165.1258,-311.9517 5155.4831,-311.7543 5145.8637,-311.4919 5136.2755,-311.1652 5126.7271,-310.7752 5117.2284,-310.3229 5107.7904,-309.8095 5098.4253,-309.2365 5089.1469,-308.6054 5079.9705,-307.918 5070.9131,-307.1761 5061.9931,-306.3818 5053.2309,-305.5373 5044.6483,-304.6448 5036.2689,-303.7068 5028.1177,-302.726 5020.2213,-301.7049 5012.6076,-300.6463 5005.3057,-299.5533 4998.3457,-298.4287 4991.7587,-297.2756 4985.5763,-296.0973 4979.8304,-294.8969 4974.5531,-293.6778 4969.7766,-292.4432 4965.5324,-291.1966 4961.8514,-289.9414 4958.7634,-288.6809 4956.2973,-287.4188 4954.4798,-286.1584 4953.3362,-284.9031 4952.8895,-283.6565 4953.1601,-282.4219 4954.1657,-281.2028 4955.9213,-280.0024 4958.4383,-278.8241 4961.7249,-277.6711 4965.7857,-276.5465 4970.6214,-275.4534 4976.2289,-274.3949 4982.6011,-273.3738 4989.7268,-272.3929 4997.5907,-271.4549 5006.1732,-270.5625 5015.451,-269.7179 5025.3965,-268.9236 5035.9781,-268.1817 5047.1606,-267.4943 5058.9052,-266.8633 5071.1695,-266.2902 5083.9079,-265.7769 5097.0721,-265.3246 5110.6109,-264.9345 5124.4707,-264.6079 5138.596,-264.3455 5152.9297,-264.148 5167.4131,-264.0161 5181.9867,-263.95 5196.5905,-263.95 5211.1642,-264.0161"/>
<text text-anchor="middle" x="5189.2886" y="-281.8499" font-family="Times,serif" font-size="24.00" fill="#ffffff">Crops not Garden plants</text>
</g>
<!-- Continuous Deployment&#45;&gt;Crops not Garden plants -->
<g id="edge36" class="edge">
<title>Continuous Deployment&#45;&gt;Crops not Garden plants</title>
<g id="a_edge36"><a xlink:title="Continuous Deployment &#160;enables &#160;&#160;Crops not Garden plants">
<path fill="none" stroke="#28d786" d="M4587.4559,-281.9265C4698.2489,-281.1236 4830.8338,-281.0923 4943.3262,-281.8326"/>
<polygon fill="#28d786" stroke="#28d786" points="4943.4318,-285.3333 4953.4555,-281.9017 4943.4797,-278.3335 4943.4318,-285.3333"/>
</a>
</g>
</g>
<!-- Feature Toggles -->
<g id="node21" class="node">
<title>Feature Toggles</title>
<polygon fill="#2f28d7" stroke="#000000" stroke-width="3" points="4369.7757,-99.0161 4379.5034,-99.148 4389.1305,-99.3455 4398.6178,-99.6079 4407.9266,-99.9345 4417.0198,-100.3246 4425.8615,-100.7769 4434.4172,-101.2902 4442.6544,-101.8633 4450.5426,-102.4943 4458.0533,-103.1817 4465.1604,-103.9236 4471.8402,-104.7179 4478.0716,-105.5625 4483.8361,-106.4549 4489.1178,-107.3929 4493.9037,-108.3738 4498.1836,-109.3949 4501.9498,-110.4534 4505.1977,-111.5465 4507.9251,-112.6711 4510.1325,-113.8241 4511.8231,-115.0024 4513.0022,-116.2028 4513.6776,-117.4219 4513.8593,-118.6565 4513.5593,-119.9031 4512.7912,-121.1584 4511.5705,-122.4188 4509.9141,-123.6809 4507.8402,-124.9414 4505.3678,-126.1966 4502.5172,-127.4432 4499.3091,-128.6778 4495.7647,-129.8969 4491.9055,-131.0973 4487.753,-132.2756 4483.3289,-133.4287 4478.6543,-134.5533 4473.75,-135.6463 4468.6363,-136.7049 4463.3327,-137.726 4457.858,-138.7068 4452.23,-139.6448 4446.4656,-140.5373 4440.5805,-141.3818 4434.5894,-142.1761 4428.5061,-142.918 4422.3428,-143.6054 4416.111,-144.2365 4409.821,-144.8095 4403.482,-145.3229 4397.1022,-145.7752 4390.6891,-146.1652 4384.2492,-146.4919 4377.7884,-146.7543 4371.3119,-146.9517 4364.8246,-147.0837 4358.331,-147.1497 4351.8352,-147.1497 4345.3416,-147.0837 4338.8543,-146.9517 4332.3778,-146.7543 4325.917,-146.4919 4319.4771,-146.1652 4313.064,-145.7752 4306.6842,-145.3229 4300.3452,-144.8095 4294.0552,-144.2365 4287.8234,-143.6054 4281.6602,-142.918 4275.5768,-142.1761 4269.5857,-141.3818 4263.7006,-140.5373 4257.9362,-139.6448 4252.3082,-138.7068 4246.8335,-137.726 4241.5299,-136.7049 4236.4162,-135.6463 4231.5119,-134.5533 4226.8373,-133.4287 4222.4132,-132.2756 4218.2608,-131.0973 4214.4015,-129.8969 4210.8571,-128.6778 4207.649,-127.4432 4204.7984,-126.1966 4202.326,-124.9414 4200.2521,-123.6809 4198.5957,-122.4188 4197.375,-121.1584 4196.6069,-119.9031 4196.3069,-118.6565 4196.4886,-117.4219 4197.164,-116.2028 4198.3431,-115.0024 4200.0337,-113.8241 4202.2411,-112.6711 4204.9685,-111.5465 4208.2164,-110.4534 4211.9826,-109.3949 4216.2625,-108.3738 4221.0484,-107.3929 4226.3302,-106.4549 4232.0946,-105.5625 4238.326,-104.7179 4245.0058,-103.9236 4252.1129,-103.1817 4259.6236,-102.4943 4267.5118,-101.8633 4275.749,-101.2902 4284.3047,-100.7769 4293.1464,-100.3246 4302.2396,-99.9345 4311.5485,-99.6079 4321.0357,-99.3455 4330.6628,-99.148 4340.3905,-99.0161 4350.1788,-98.95 4359.9874,-98.95 4369.7757,-99.0161"/>
<text text-anchor="middle" x="4355.0831" y="-116.8499" font-family="Times,serif" font-size="24.00" fill="#ffffff">Feature Toggles</text>
</g>
<!-- Config Database/Git -->
<g id="node22" class="node">
<title>Config Database/Git</title>
<polygon fill="#2f28d7" stroke="#000000" stroke-width="3" points="5207.4793,-66.0161 5219.5231,-66.148 5231.4423,-66.3455 5243.1883,-66.6079 5254.7134,-66.9345 5265.9716,-67.3246 5276.9183,-67.7769 5287.5111,-68.2902 5297.7095,-68.8633 5307.4757,-69.4943 5316.7746,-70.1817 5325.5738,-70.9236 5333.8439,-71.7179 5341.5589,-72.5625 5348.6958,-73.4549 5355.235,-74.3929 5361.1604,-75.3738 5366.4593,-76.3949 5371.1222,-77.4534 5375.1434,-78.5465 5378.5201,-79.6711 5381.2531,-80.8241 5383.3461,-82.0024 5384.806,-83.2028 5385.6422,-84.4219 5385.8672,-85.6565 5385.4957,-86.9031 5384.5448,-88.1584 5383.0335,-89.4188 5380.9827,-90.6809 5378.415,-91.9414 5375.354,-93.1966 5371.8247,-94.4432 5367.8528,-95.6778 5363.4645,-96.8969 5358.6864,-98.0973 5353.5454,-99.2756 5348.0679,-100.4287 5342.2803,-101.5533 5336.2084,-102.6463 5329.8772,-103.7049 5323.3109,-104.726 5316.5328,-105.7068 5309.5648,-106.6448 5302.4279,-107.5373 5295.1417,-108.3818 5287.7243,-109.1761 5280.1925,-109.918 5272.5619,-110.6054 5264.8464,-111.2365 5257.0588,-111.8095 5249.2106,-112.3229 5241.3119,-112.7752 5233.3719,-113.1652 5225.3988,-113.4919 5217.3997,-113.7543 5209.3813,-113.9517 5201.3495,-114.0837 5193.3098,-114.1497 5185.2675,-114.1497 5177.2278,-114.0837 5169.1959,-113.9517 5161.1775,-113.7543 5153.1785,-113.4919 5145.2053,-113.1652 5137.2654,-112.7752 5129.3667,-112.3229 5121.5184,-111.8095 5113.7309,-111.2365 5106.0154,-110.6054 5098.3847,-109.918 5090.853,-109.1761 5083.4356,-108.3818 5076.1493,-107.5373 5069.0124,-106.6448 5062.0445,-105.7068 5055.2663,-104.726 5048.7001,-103.7049 5042.3689,-102.6463 5036.2969,-101.5533 5030.5094,-100.4287 5025.0319,-99.2756 5019.8909,-98.0973 5015.1128,-96.8969 5010.7245,-95.6778 5006.7526,-94.4432 5003.2233,-93.1966 5000.1623,-91.9414 4997.5946,-90.6809 4995.5438,-89.4188 4994.0325,-88.1584 4993.0815,-86.9031 4992.7101,-85.6565 4992.9351,-84.4219 4993.7713,-83.2028 4995.2311,-82.0024 4997.3242,-80.8241 5000.0572,-79.6711 5003.4339,-78.5465 5007.4551,-77.4534 5012.118,-76.3949 5017.4168,-75.3738 5023.3422,-74.3929 5029.8815,-73.4549 5037.0183,-72.5625 5044.7333,-71.7179 5053.0035,-70.9236 5061.8027,-70.1817 5071.1016,-69.4943 5080.8678,-68.8633 5091.0662,-68.2902 5101.6589,-67.7769 5112.6056,-67.3246 5123.8638,-66.9345 5135.389,-66.6079 5147.135,-66.3455 5159.0542,-66.148 5171.0979,-66.0161 5183.2167,-65.95 5195.3606,-65.95 5207.4793,-66.0161"/>
<text text-anchor="middle" x="5189.2886" y="-83.8499" font-family="Times,serif" font-size="24.00" fill="#ffffff">Config Database/Git</text>
</g>
<!-- Feature Toggles&#45;&gt;Config Database/Git -->
<g id="edge42" class="edge">
<title>Feature Toggles&#45;&gt;Config Database/Git</title>
<g id="a_edge42"><a xlink:title="Feature Toggles &#160;better together with &#160;Config Database/Git">
<path fill="none" stroke="#d0d728" d="M4506.1514,-111.7337C4641.5493,-104.6898 4841.1374,-96.6219 4989.6559,-92.0895"/>
<polygon fill="#d0d728" stroke="#d0d728" points="4989.9214,-95.5832 4999.8111,-91.7827 4989.71,-88.5864 4989.9214,-95.5832"/>
</a>
</g>
</g>
<!-- Feature Toggles&#45;&gt;Microservice Ecosystem -->
<g id="edge41" class="edge">
<title>Feature Toggles&#45;&gt;Microservice Ecosystem</title>
<g id="a_edge41"><a xlink:title="Feature Toggles &#160;reduces the failure rate of &#160;Microservice Ecosystem">
<path fill="none" stroke="#d72879" d="M4499.4383,-128.7604C4623.1931,-133.6559 4803.9918,-140.8081 4949.4525,-146.5623"/>
<polygon fill="#d72879" stroke="#d72879" points="4949.7328,-150.076 4959.8634,-146.9741 4950.0096,-143.0815 4949.7328,-150.076"/>
</a>
</g>
</g>
<!-- Config Database/Git&#45;&gt;Feature Toggles -->
<g id="edge43" class="edge">
<title>Config Database/Git&#45;&gt;Feature Toggles</title>
<g id="a_edge43"><a xlink:title="Config Database/Git &#160;better together with &#160;Feature Toggles">
<path fill="none" stroke="#d0d728" d="M5035.903,-101.4863C4890.3455,-109.0307 4672.1431,-117.7162 4522.2156,-121.9683"/>
<polygon fill="#d0d728" stroke="#d0d728" points="4521.889,-118.4759 4511.9908,-122.2543 4522.0848,-125.4732 4521.889,-118.4759"/>
</a>
</g>
</g>
<!-- Chaos Agent -->
<g id="node26" class="node">
<title>Chaos Agent</title>
<polygon fill="#2f28d7" stroke="#000000" stroke-width="3" points="3848.995,-330.0161 3856.8388,-330.148 3864.6016,-330.3455 3872.2516,-330.6079 3879.7577,-330.9345 3887.09,-331.3246 3894.2194,-331.7769 3901.1182,-332.2902 3907.7603,-332.8633 3914.1209,-333.4943 3920.1771,-334.1817 3925.9078,-334.9236 3931.294,-335.7179 3936.3187,-336.5625 3940.9668,-337.4549 3945.2257,-338.3929 3949.0848,-339.3738 3952.5358,-340.3949 3955.5727,-341.4534 3958.1916,-342.5465 3960.3908,-343.6711 3962.1708,-344.8241 3963.5339,-346.0024 3964.4847,-347.2028 3965.0293,-348.4219 3965.1759,-349.6565 3964.9339,-350.9031 3964.3146,-352.1584 3963.3303,-353.4188 3961.9947,-354.6809 3960.3223,-355.9414 3958.3288,-357.1966 3956.0302,-358.4432 3953.4434,-359.6778 3950.5853,-360.8969 3947.4735,-362.0973 3944.1252,-363.2756 3940.5578,-364.4287 3936.7885,-365.5533 3932.834,-366.6463 3928.7106,-367.7049 3924.4341,-368.726 3920.0196,-369.7068 3915.4815,-370.6448 3910.8333,-371.5373 3906.0879,-372.3818 3901.2571,-373.1761 3896.3518,-373.918 3891.3821,-374.6054 3886.3572,-375.2365 3881.2852,-375.8095 3876.1738,-376.3229 3871.0295,-376.7752 3865.8584,-377.1652 3860.6656,-377.4919 3855.456,-377.7543 3850.2337,-377.9517 3845.0027,-378.0837 3839.7666,-378.1497 3834.5288,-378.1497 3829.2927,-378.0837 3824.0617,-377.9517 3818.8394,-377.7543 3813.6298,-377.4919 3808.437,-377.1652 3803.2658,-376.7752 3798.1216,-376.3229 3793.0101,-375.8095 3787.9382,-375.2365 3782.9133,-374.6054 3777.9436,-373.918 3773.0383,-373.1761 3768.2074,-372.3818 3763.462,-371.5373 3758.8139,-370.6448 3754.2758,-369.7068 3749.8613,-368.726 3745.5848,-367.7049 3741.4614,-366.6463 3737.5069,-365.5533 3733.7375,-364.4287 3730.1702,-363.2756 3726.8219,-362.0973 3723.71,-360.8969 3720.852,-359.6778 3718.2652,-358.4432 3715.9666,-357.1966 3713.973,-355.9414 3712.3007,-354.6809 3710.9651,-353.4188 3709.9808,-352.1584 3709.3614,-350.9031 3709.1195,-349.6565 3709.266,-348.4219 3709.8107,-347.2028 3710.7614,-346.0024 3712.1246,-344.8241 3713.9045,-343.6711 3716.1037,-342.5465 3718.7227,-341.4534 3721.7596,-340.3949 3725.2106,-339.3738 3729.0697,-338.3929 3733.3286,-337.4549 3737.9767,-336.5625 3743.0013,-335.7179 3748.3876,-334.9236 3754.1183,-334.1817 3760.1745,-333.4943 3766.5351,-332.8633 3773.1771,-332.2902 3780.076,-331.7769 3787.2054,-331.3246 3794.5377,-330.9345 3802.0438,-330.6079 3809.6938,-330.3455 3817.4565,-330.148 3825.3004,-330.0161 3833.1932,-329.95 3841.1022,-329.95 3848.995,-330.0161"/>
<text text-anchor="middle" x="3837.1477" y="-347.8499" font-family="Times,serif" font-size="24.00" fill="#ffffff">Chaos Agent</text>
</g>
<!-- Chaos Agent&#45;&gt;Continuous Deployment -->
<g id="edge44" class="edge">
<title>Chaos Agent&#45;&gt;Continuous Deployment</title>
<g id="a_edge44"><a xlink:title="Chaos Agent &#160;reduces the failure rate of &#160;Continuous Deployment">
<path fill="none" stroke="#d72879" d="M3950.1708,-339.6474C4026.0328,-329.9804 4126.7039,-317.152 4208.6861,-306.7051"/>
<polygon fill="#d72879" stroke="#d72879" points="4209.3663,-310.1468 4218.8436,-305.4107 4208.4814,-303.203 4209.3663,-310.1468"/>
</a>
</g>
</g>
<!-- Crops not Garden plants&#45;&gt;Continuous Deployment -->
<g id="edge45" class="edge">
<title>Crops not Garden plants&#45;&gt;Continuous Deployment</title>
<g id="a_edge45"><a xlink:title="Crops not Garden plants &#160;reduces the failure rate of &#160;Continuous Deployment">
<path fill="none" stroke="#d72879" d="M4975.8159,-294.027C4853.2022,-295.038 4699.4784,-295.0571 4575.687,-294.0844"/>
<polygon fill="#d72879" stroke="#d72879" points="4575.3472,-290.5816 4565.319,-294 4575.2902,-297.5814 4575.3472,-290.5816"/>
</a>
</g>
</g>
</g>
</svg>
