<?xml version="1.0" encoding="UTF-8" standalone="no"?>
<!DOCTYPE svg PUBLIC "-//W3C//DTD SVG 1.1//EN"
 "http://www.w3.org/Graphics/SVG/1.1/DTD/svg11.dtd">
<!-- Generated by graphviz version 2.40.1 (20161225.0304)
 -->
<!-- Title: G Pages: 1 -->
<svg width="3739pt" height="334pt"
 viewBox="0.00 0.00 3739.12 334.10" xmlns="http://www.w3.org/2000/svg" xmlns:xlink="http://www.w3.org/1999/xlink">
<g id="graph0" class="graph" transform="scale(1 1) rotate(0) translate(4 330.0997)">
<title>G</title>
<polygon fill="#ffffff" stroke="transparent" points="-4,4 -4,-330.0997 3735.1164,-330.0997 3735.1164,4 -4,4"/>
<!-- Automated Testing -->
<g id="node1" class="node">
<title>Automated Testing</title>
<polygon fill="#2f28d7" stroke="#000000" stroke-width="3" points="1326.2899,-.0161 1337.5925,-.148 1348.7782,-.3455 1359.8014,-.6079 1370.6174,-.9345 1381.1828,-1.3246 1391.4558,-1.7769 1401.3967,-2.2902 1410.9676,-2.8633 1420.1328,-3.4943 1428.8595,-4.1817 1437.1172,-4.9236 1444.8784,-5.7179 1452.1187,-6.5625 1458.8164,-7.4549 1464.9532,-8.3929 1470.514,-9.3738 1475.4867,-10.3949 1479.8627,-11.4534 1483.6364,-12.5465 1486.8054,-13.6711 1489.3702,-14.8241 1491.3344,-16.0024 1492.7044,-17.2028 1493.4892,-18.4219 1493.7004,-19.6565 1493.3518,-20.9031 1492.4593,-22.1584 1491.041,-23.4188 1489.1165,-24.6809 1486.7067,-25.9414 1483.8341,-27.1966 1480.522,-28.4432 1476.7945,-29.6778 1472.6762,-30.8969 1468.1922,-32.0973 1463.3675,-33.2756 1458.2271,-34.4287 1452.7957,-35.5533 1447.0974,-36.6463 1441.1558,-37.7049 1434.9936,-38.726 1428.6325,-39.7068 1422.0934,-40.6448 1415.3957,-41.5373 1408.5578,-42.3818 1401.5968,-43.1761 1394.5286,-43.918 1387.3675,-44.6054 1380.1268,-45.2365 1372.8184,-45.8095 1365.4531,-46.3229 1358.0405,-46.7752 1350.5891,-47.1652 1343.1066,-47.4919 1335.5998,-47.7543 1328.0748,-47.9517 1320.5373,-48.0837 1312.9923,-48.1497 1305.4449,-48.1497 1297.8999,-48.0837 1290.3623,-47.9517 1282.8373,-47.7543 1275.3305,-47.4919 1267.848,-47.1652 1260.3966,-46.7752 1252.984,-46.3229 1245.6187,-45.8095 1238.3104,-45.2365 1231.0697,-44.6054 1223.9086,-43.918 1216.8403,-43.1761 1209.8794,-42.3818 1203.0415,-41.5373 1196.3438,-40.6448 1189.8046,-39.7068 1183.4436,-38.726 1177.2813,-37.7049 1171.3397,-36.6463 1165.6415,-35.5533 1160.21,-34.4287 1155.0697,-33.2756 1150.245,-32.0973 1145.761,-30.8969 1141.6427,-29.6778 1137.9152,-28.4432 1134.6031,-27.1966 1131.7305,-25.9414 1129.3207,-24.6809 1127.3961,-23.4188 1125.9778,-22.1584 1125.0854,-20.9031 1124.7368,-19.6565 1124.9479,-18.4219 1125.7327,-17.2028 1127.1027,-16.0024 1129.0669,-14.8241 1131.6318,-13.6711 1134.8007,-12.5465 1138.5744,-11.4534 1142.9504,-10.3949 1147.9232,-9.3738 1153.484,-8.3929 1159.6208,-7.4549 1166.3185,-6.5625 1173.5587,-5.7179 1181.32,-4.9236 1189.5777,-4.1817 1198.3043,-3.4943 1207.4696,-2.8633 1217.0404,-2.2902 1226.9813,-1.7769 1237.2544,-1.3246 1247.8198,-.9345 1258.6358,-.6079 1269.6589,-.3455 1280.8447,-.148 1292.1473,-.0161 1303.5203,.05 1314.9169,.05 1326.2899,-.0161"/>
<text text-anchor="middle" x="1309.2186" y="-17.8499" font-family="Times,serif" font-size="24.00" fill="#ffffff">Automated Testing</text>
</g>
<!-- Exploratory Testing -->
<g id="node10" class="node">
<title>Exploratory Testing</title>
<polygon fill="#2f28d7" stroke="#000000" stroke-width="3" points="1780.8248,-.0161 1792.529,-.148 1804.1122,-.3455 1815.527,-.6079 1826.7273,-.9345 1837.668,-1.3246 1848.3061,-1.7769 1858.6002,-2.2902 1868.5111,-2.8633 1878.002,-3.4943 1887.0387,-4.1817 1895.5899,-4.9236 1903.6269,-5.7179 1911.1243,-6.5625 1918.06,-7.4549 1924.4149,-8.3929 1930.1732,-9.3738 1935.3227,-10.3949 1939.8542,-11.4534 1943.762,-12.5465 1947.0435,-13.6711 1949.6994,-14.8241 1951.7335,-16.0024 1953.1521,-17.2028 1953.9648,-18.4219 1954.1835,-19.6565 1953.8224,-20.9031 1952.8983,-22.1584 1951.4296,-23.4188 1949.4367,-24.6809 1946.9413,-25.9414 1943.9666,-27.1966 1940.5368,-28.4432 1936.6769,-29.6778 1932.4123,-30.8969 1927.769,-32.0973 1922.7728,-33.2756 1917.4498,-34.4287 1911.8254,-35.5533 1905.9247,-36.6463 1899.772,-37.7049 1893.3908,-38.726 1886.8037,-39.7068 1880.0322,-40.6448 1873.0966,-41.5373 1866.0157,-42.3818 1858.8074,-43.1761 1851.488,-43.918 1844.0725,-44.6054 1836.5746,-45.2365 1829.0065,-45.8095 1821.3795,-46.3229 1813.7035,-46.7752 1805.9874,-47.1652 1798.2391,-47.4919 1790.4655,-47.7543 1782.6732,-47.9517 1774.8678,-48.0837 1767.0547,-48.1497 1759.2392,-48.1497 1751.4261,-48.0837 1743.6207,-47.9517 1735.8284,-47.7543 1728.0548,-47.4919 1720.3065,-47.1652 1712.5903,-46.7752 1704.9144,-46.3229 1697.2874,-45.8095 1689.7193,-45.2365 1682.2214,-44.6054 1674.8059,-43.918 1667.4865,-43.1761 1660.2782,-42.3818 1653.1973,-41.5373 1646.2617,-40.6448 1639.4902,-39.7068 1632.9031,-38.726 1626.5219,-37.7049 1620.3692,-36.6463 1614.4685,-35.5533 1608.8441,-34.4287 1603.521,-33.2756 1598.5249,-32.0973 1593.8816,-30.8969 1589.617,-29.6778 1585.7571,-28.4432 1582.3273,-27.1966 1579.3526,-25.9414 1576.8572,-24.6809 1574.8643,-23.4188 1573.3956,-22.1584 1572.4714,-20.9031 1572.1104,-19.6565 1572.3291,-18.4219 1573.1418,-17.2028 1574.5604,-16.0024 1576.5944,-14.8241 1579.2504,-13.6711 1582.5319,-12.5465 1586.4397,-11.4534 1590.9712,-10.3949 1596.1207,-9.3738 1601.879,-8.3929 1608.2339,-7.4549 1615.1696,-6.5625 1622.667,-5.7179 1630.704,-4.9236 1639.2552,-4.1817 1648.2919,-3.4943 1657.7828,-2.8633 1667.6937,-2.2902 1677.9878,-1.7769 1688.6259,-1.3246 1699.5666,-.9345 1710.7669,-.6079 1722.1817,-.3455 1733.7649,-.148 1745.4691,-.0161 1757.2462,.05 1769.0477,.05 1780.8248,-.0161"/>
<text text-anchor="middle" x="1763.1469" y="-17.8499" font-family="Times,serif" font-size="24.00" fill="#ffffff">Exploratory Testing</text>
</g>
<!-- Automated Testing&#45;&gt;Exploratory Testing -->
<g id="edge2" class="edge">
<title>Automated Testing&#45;&gt;Exploratory Testing</title>
<g id="a_edge2"><a xlink:title="Automated Testing &#160;better together with &#160;Exploratory Testing">
<path fill="none" stroke="#d0d728" d="M1492.8672,-17.4103C1515.7875,-17.2921 1539.32,-17.2688 1562.4821,-17.3403"/>
<polygon fill="#d0d728" stroke="#d0d728" points="1562.7244,-20.8411 1572.7373,-17.3783 1562.7504,-13.8412 1562.7244,-20.8411"/>
</a>
</g>
</g>
<!-- Continuous Integration -->
<g id="node11" class="node">
<title>Continuous Integration</title>
<polygon fill="#2f28d7" stroke="#000000" stroke-width="3" points="1784.043,-66.0161 1797.878,-66.148 1811.5698,-66.3455 1825.0627,-66.6079 1838.302,-66.9345 1851.2345,-67.3246 1863.8093,-67.7769 1875.9774,-68.2902 1887.6925,-68.8633 1898.9112,-69.4943 1909.5931,-70.1817 1919.7009,-70.9236 1929.2011,-71.7179 1938.0634,-72.5625 1946.2618,-73.4549 1953.7735,-74.3929 1960.5802,-75.3738 1966.6671,-76.3949 1972.0235,-77.4534 1976.6427,-78.5465 1980.5217,-79.6711 1983.6611,-80.8241 1986.0654,-82.0024 1987.7423,-83.2028 1988.703,-84.4219 1988.9614,-85.6565 1988.5347,-86.9031 1987.4423,-88.1584 1985.7063,-89.4188 1983.3505,-90.6809 1980.4008,-91.9414 1976.8846,-93.1966 1972.8304,-94.4432 1968.2678,-95.6778 1963.2268,-96.8969 1957.7382,-98.0973 1951.8326,-99.2756 1945.5405,-100.4287 1938.8922,-101.5533 1931.9172,-102.6463 1924.6444,-103.7049 1917.1015,-104.726 1909.3153,-105.7068 1901.3111,-106.6448 1893.1128,-107.5373 1884.7429,-108.3818 1876.2223,-109.1761 1867.5704,-109.918 1858.8049,-110.6054 1849.942,-111.2365 1840.9962,-111.8095 1831.9807,-112.3229 1822.9073,-112.7752 1813.7865,-113.1652 1804.6275,-113.4919 1795.4388,-113.7543 1786.2279,-113.9517 1777.0015,-114.0837 1767.7661,-114.1497 1758.5278,-114.1497 1749.2923,-114.0837 1740.066,-113.9517 1730.8551,-113.7543 1721.6664,-113.4919 1712.5074,-113.1652 1703.3866,-112.7752 1694.3132,-112.3229 1685.2977,-111.8095 1676.3519,-111.2365 1667.489,-110.6054 1658.7235,-109.918 1650.0716,-109.1761 1641.551,-108.3818 1633.1811,-107.5373 1624.9828,-106.6448 1616.9786,-105.7068 1609.1923,-104.726 1601.6495,-103.7049 1594.3767,-102.6463 1587.4017,-101.5533 1580.7534,-100.4287 1574.4613,-99.2756 1568.5557,-98.0973 1563.067,-96.8969 1558.0261,-95.6778 1553.4634,-94.4432 1549.4093,-93.1966 1545.8931,-91.9414 1542.9434,-90.6809 1540.5876,-89.4188 1538.8516,-88.1584 1537.7592,-86.9031 1537.3325,-85.6565 1537.5909,-84.4219 1538.5516,-83.2028 1540.2285,-82.0024 1542.6328,-80.8241 1545.7722,-79.6711 1549.6512,-78.5465 1554.2704,-77.4534 1559.6268,-76.3949 1565.7137,-75.3738 1572.5204,-74.3929 1580.0321,-73.4549 1588.2304,-72.5625 1597.0928,-71.7179 1606.593,-70.9236 1616.7008,-70.1817 1627.3827,-69.4943 1638.6014,-68.8633 1650.3165,-68.2902 1662.4846,-67.7769 1675.0594,-67.3246 1687.9919,-66.9345 1701.2312,-66.6079 1714.7241,-66.3455 1728.4159,-66.148 1742.2509,-66.0161 1756.172,-65.95 1770.1219,-65.95 1784.043,-66.0161"/>
<text text-anchor="middle" x="1763.1469" y="-83.8499" font-family="Times,serif" font-size="24.00" fill="#ffffff">Continuous Integration</text>
</g>
<!-- Automated Testing&#45;&gt;Continuous Integration -->
<g id="edge1" class="edge">
<title>Automated Testing&#45;&gt;Continuous Integration</title>
<g id="a_edge1"><a xlink:title="Automated Testing &#160;reduces the failure rate of &#160;Continuous Integration">
<path fill="none" stroke="#d72879" d="M1422.8853,-40.5767C1480.4737,-48.9499 1551.1506,-59.2262 1613.14,-68.2393"/>
<polygon fill="#d72879" stroke="#d72879" points="1613.0087,-71.7569 1623.4083,-69.7322 1614.016,-64.8297 1613.0087,-71.7569"/>
</a>
</g>
</g>
<!-- Unit Testing -->
<g id="node2" class="node">
<title>Unit Testing</title>
<polygon fill="#2f28d7" stroke="#000000" stroke-width="3" points="1320.786,-66.0161 1328.4446,-66.148 1336.024,-66.3455 1343.4933,-66.6079 1350.8221,-66.9345 1357.9812,-67.3246 1364.9422,-67.7769 1371.6781,-68.2902 1378.1632,-68.8633 1384.3735,-69.4943 1390.2867,-70.1817 1395.8821,-70.9236 1401.1411,-71.7179 1406.047,-72.5625 1410.5853,-73.4549 1414.7436,-74.3929 1418.5116,-75.3738 1421.8811,-76.3949 1424.8463,-77.4534 1427.4033,-78.5465 1429.5506,-79.6711 1431.2885,-80.8241 1432.6194,-82.0024 1433.5477,-83.2028 1434.0795,-84.4219 1434.2226,-85.6565 1433.9863,-86.9031 1433.3816,-88.1584 1432.4206,-89.4188 1431.1165,-90.6809 1429.4837,-91.9414 1427.5372,-93.1966 1425.293,-94.4432 1422.7672,-95.6778 1419.9767,-96.8969 1416.9383,-98.0973 1413.6692,-99.2756 1410.1861,-100.4287 1406.5058,-101.5533 1402.6446,-102.6463 1398.6186,-103.7049 1394.4431,-104.726 1390.1329,-105.7068 1385.702,-106.6448 1381.1637,-107.5373 1376.5304,-108.3818 1371.8136,-109.1761 1367.0242,-109.918 1362.1719,-110.6054 1357.2656,-111.2365 1352.3135,-111.8095 1347.3228,-112.3229 1342.3001,-112.7752 1337.2511,-113.1652 1332.181,-113.4919 1327.0944,-113.7543 1321.9955,-113.9517 1316.8881,-114.0837 1311.7756,-114.1497 1306.6615,-114.1497 1301.5491,-114.0837 1296.4417,-113.9517 1291.3428,-113.7543 1286.2562,-113.4919 1281.1861,-113.1652 1276.1371,-112.7752 1271.1143,-112.3229 1266.1236,-111.8095 1261.1715,-111.2365 1256.2652,-110.6054 1251.4129,-109.918 1246.6235,-109.1761 1241.9068,-108.3818 1237.2735,-107.5373 1232.7351,-106.6448 1228.3042,-105.7068 1223.994,-104.726 1219.8185,-103.7049 1215.7925,-102.6463 1211.9314,-101.5533 1208.2511,-100.4287 1204.768,-99.2756 1201.4988,-98.0973 1198.4605,-96.8969 1195.67,-95.6778 1193.1442,-94.4432 1190.8999,-93.1966 1188.9535,-91.9414 1187.3206,-90.6809 1186.0165,-89.4188 1185.0555,-88.1584 1184.4508,-86.9031 1184.2146,-85.6565 1184.3577,-84.4219 1184.8894,-83.2028 1185.8177,-82.0024 1187.1487,-80.8241 1188.8866,-79.6711 1191.0339,-78.5465 1193.5909,-77.4534 1196.5561,-76.3949 1199.9256,-75.3738 1203.6935,-74.3929 1207.8518,-73.4549 1212.3902,-72.5625 1217.2961,-71.7179 1222.5551,-70.9236 1228.1505,-70.1817 1234.0636,-69.4943 1240.274,-68.8633 1246.7591,-68.2902 1253.495,-67.7769 1260.456,-67.3246 1267.6151,-66.9345 1274.9439,-66.6079 1282.4131,-66.3455 1289.9926,-66.148 1297.6511,-66.0161 1305.3575,-65.95 1313.0797,-65.95 1320.786,-66.0161"/>
<text text-anchor="middle" x="1309.2186" y="-83.8499" font-family="Times,serif" font-size="24.00" fill="#ffffff">Unit Testing</text>
</g>
<!-- Unit Testing&#45;&gt;Continuous Integration -->
<g id="edge3" class="edge">
<title>Unit Testing&#45;&gt;Continuous Integration</title>
<g id="a_edge3"><a xlink:title="Unit Testing &#160;enables &#160;&#160;Continuous Integration">
<path fill="none" stroke="#28d786" d="M1432.0581,-90.0499C1462.8858,-90.0499 1496.9856,-90.0499 1531.2356,-90.0499"/>
<polygon fill="#28d786" stroke="#28d786" points="1531.3798,-93.55 1541.3798,-90.0499 1531.3797,-86.55 1531.3798,-93.55"/>
</a>
</g>
</g>
<!-- Agile Work ( Kanban/Scrum ) -->
<g id="node3" class="node">
<title>Agile Work ( Kanban/Scrum )</title>
<polygon fill="#2f28d7" stroke="#000000" stroke-width="3" points="304.4123,-92.0161 321.4897,-92.148 338.3905,-92.3455 355.0457,-92.6079 371.3878,-92.9345 387.3513,-93.3246 402.8731,-93.7769 417.893,-94.2902 432.3538,-94.8633 446.2018,-95.4943 459.3871,-96.1817 471.8639,-96.9236 483.5906,-97.7179 494.53,-98.5625 504.6497,-99.4549 513.922,-100.3929 522.3239,-101.3738 529.8373,-102.3949 536.4492,-103.4534 542.151,-104.5465 546.939,-105.6711 550.8142,-106.8241 553.782,-108.0024 555.852,-109.2028 557.0378,-110.4219 557.3568,-111.6565 556.83,-112.9031 555.4817,-114.1584 553.3387,-115.4188 550.4308,-116.6809 546.7899,-117.9414 542.4496,-119.1966 537.4452,-120.4432 531.8132,-121.6778 525.5909,-122.8969 518.8159,-124.0973 511.5261,-125.2756 503.7594,-126.4287 495.5529,-127.5533 486.9433,-128.6463 477.966,-129.7049 468.6553,-130.726 459.0443,-131.7068 449.1641,-132.6448 439.0444,-133.5373 428.7129,-134.3818 418.1954,-135.1761 407.5158,-135.918 396.6959,-136.6054 385.7558,-137.2365 374.7134,-137.8095 363.585,-138.3229 352.3851,-138.7752 341.1267,-139.1652 329.8212,-139.4919 318.479,-139.7543 307.1093,-139.9517 295.7206,-140.0837 284.3207,-140.1497 272.9171,-140.1497 261.5173,-140.0837 250.1286,-139.9517 238.7589,-139.7543 227.4167,-139.4919 216.1112,-139.1652 204.8527,-138.7752 193.6528,-138.3229 182.5244,-137.8095 171.482,-137.2365 160.5419,-136.6054 149.7221,-135.918 139.0425,-135.1761 128.525,-134.3818 118.1934,-133.5373 108.0737,-132.6448 98.1936,-131.7068 88.5825,-130.726 79.2719,-129.7049 70.2945,-128.6463 61.6849,-127.5533 53.4784,-126.4287 45.7117,-125.2756 38.422,-124.0973 31.647,-122.8969 25.4246,-121.6778 19.7926,-120.4432 14.7882,-119.1966 10.4479,-117.9414 6.807,-116.6809 3.8991,-115.4188 1.7562,-114.1584 .4078,-112.9031 -.119,-111.6565 .2001,-110.4219 1.3858,-109.2028 3.4558,-108.0024 6.4236,-106.8241 10.2988,-105.6711 15.0869,-104.5465 20.7886,-103.4534 27.4005,-102.3949 34.9139,-101.3738 43.3158,-100.3929 52.5881,-99.4549 62.7078,-98.5625 73.6472,-97.7179 85.3739,-96.9236 97.8507,-96.1817 111.036,-95.4943 124.884,-94.8633 139.3448,-94.2902 154.3647,-93.7769 169.8865,-93.3246 185.8501,-92.9345 202.1921,-92.6079 218.8473,-92.3455 235.7481,-92.148 252.8255,-92.0161 270.0093,-91.95 287.2286,-91.95 304.4123,-92.0161"/>
<text text-anchor="middle" x="278.6189" y="-109.8499" font-family="Times,serif" font-size="24.00" fill="#ffffff">Agile Work ( Kanban/Scrum )</text>
</g>
<!-- Branching Strategy -->
<g id="node4" class="node">
<title>Branching Strategy</title>
<polygon fill="#2f28d7" stroke="#000000" stroke-width="3" points="1326.9895,-132.0161 1338.7553,-132.148 1350.3995,-132.3455 1361.8744,-132.6079 1373.1336,-132.9345 1384.132,-133.3246 1394.8261,-133.7769 1405.1744,-134.2902 1415.1375,-134.8633 1424.6783,-135.4943 1433.7626,-136.1817 1442.3588,-136.9236 1450.4381,-137.7179 1457.975,-138.5625 1464.9472,-139.4549 1471.3355,-140.3929 1477.1242,-141.3738 1482.3008,-142.3949 1486.8561,-143.4534 1490.7845,-144.5465 1494.0833,-145.6711 1496.7532,-146.8241 1498.798,-148.0024 1500.2241,-149.2028 1501.0411,-150.4219 1501.2609,-151.6565 1500.8979,-152.9031 1499.969,-154.1584 1498.4925,-155.4188 1496.4891,-156.6809 1493.9806,-157.9414 1490.9902,-159.1966 1487.5424,-160.4432 1483.6621,-161.6778 1479.3751,-162.8969 1474.7073,-164.0973 1469.6849,-165.2756 1464.3338,-166.4287 1458.6798,-167.5533 1452.748,-168.6463 1446.5629,-169.7049 1440.1481,-170.726 1433.5264,-171.7068 1426.7192,-172.6448 1419.7471,-173.5373 1412.6289,-174.3818 1405.3827,-175.1761 1398.0248,-175.918 1390.5702,-176.6054 1383.0328,-177.2365 1375.4249,-177.8095 1367.7578,-178.3229 1360.0413,-178.7752 1352.2846,-179.1652 1344.4954,-179.4919 1336.681,-179.7543 1328.8476,-179.9517 1321.0011,-180.0837 1313.1469,-180.1497 1305.2902,-180.1497 1297.436,-180.0837 1289.5896,-179.9517 1281.7562,-179.7543 1273.9417,-179.4919 1266.1526,-179.1652 1258.3958,-178.7752 1250.6794,-178.3229 1243.0123,-177.8095 1235.4044,-177.2365 1227.867,-176.6054 1220.4124,-175.918 1213.0545,-175.1761 1205.8082,-174.3818 1198.6901,-173.5373 1191.7179,-172.6448 1184.9108,-171.7068 1178.289,-170.726 1171.8743,-169.7049 1165.6892,-168.6463 1159.7573,-167.5533 1154.1033,-166.4287 1148.7523,-165.2756 1143.7299,-164.0973 1139.0621,-162.8969 1134.7751,-161.6778 1130.8948,-160.4432 1127.4469,-159.1966 1124.4566,-157.9414 1121.9481,-156.6809 1119.9446,-155.4188 1118.4682,-154.1584 1117.5392,-152.9031 1117.1763,-151.6565 1117.3961,-150.4219 1118.2131,-149.2028 1119.6392,-148.0024 1121.6839,-146.8241 1124.3538,-145.6711 1127.6527,-144.5465 1131.581,-143.4534 1136.1364,-142.3949 1141.3129,-141.3738 1147.1016,-140.3929 1153.4899,-139.4549 1160.4621,-138.5625 1167.9991,-137.7179 1176.0784,-136.9236 1184.6745,-136.1817 1193.7588,-135.4943 1203.2997,-134.8633 1213.2628,-134.2902 1223.611,-133.7769 1234.3051,-133.3246 1245.3035,-132.9345 1256.5628,-132.6079 1268.0377,-132.3455 1279.6818,-132.148 1291.4477,-132.0161 1303.2868,-131.95 1315.1504,-131.95 1326.9895,-132.0161"/>
<text text-anchor="middle" x="1309.2186" y="-149.8499" font-family="Times,serif" font-size="24.00" fill="#ffffff">Branching Strategy</text>
</g>
<!-- Agile Work ( Kanban/Scrum )&#45;&gt;Branching Strategy -->
<g id="edge4" class="edge">
<title>Agile Work ( Kanban/Scrum )&#45;&gt;Branching Strategy</title>
<g id="a_edge4"><a xlink:title="Agile Work ( Kanban/Scrum ) &#160;enables &#160;&#160;Branching Strategy">
<path fill="none" stroke="#28d786" d="M512.4779,-125.1265C692.1136,-132.0986 937.5728,-141.6254 1108.3876,-148.2551"/>
<polygon fill="#28d786" stroke="#28d786" points="1108.3775,-151.7573 1118.5057,-148.6479 1108.649,-144.7626 1108.3775,-151.7573"/>
</a>
</g>
</g>
<!-- Test Driven Development -->
<g id="node9" class="node">
<title>Test Driven Development</title>
<polygon fill="#2f28d7" stroke="#000000" stroke-width="3" points="859.7928,-66.0161 874.7394,-66.148 889.5315,-66.3455 904.1086,-66.6079 918.4117,-66.9345 932.3834,-67.3246 945.9686,-67.7769 959.1144,-68.2902 971.771,-68.8633 983.8911,-69.4943 995.4313,-70.1817 1006.3514,-70.9236 1016.6149,-71.7179 1026.1894,-72.5625 1035.0465,-73.4549 1043.1618,-74.3929 1050.5154,-75.3738 1057.0914,-76.3949 1062.8783,-77.4534 1067.8686,-78.5465 1072.0593,-79.6711 1075.451,-80.8241 1078.0485,-82.0024 1079.8602,-83.2028 1080.898,-84.4219 1081.1772,-85.6565 1080.7162,-86.9031 1079.5361,-88.1584 1077.6605,-89.4188 1075.1154,-90.6809 1071.9288,-91.9414 1068.13,-93.1966 1063.7501,-94.4432 1058.8208,-95.6778 1053.3748,-96.8969 1047.4451,-98.0973 1041.0649,-99.2756 1034.2672,-100.4287 1027.0847,-101.5533 1019.5493,-102.6463 1011.6921,-103.7049 1003.5431,-104.726 995.1312,-105.7068 986.4838,-106.6448 977.6267,-107.5373 968.5843,-108.3818 959.3791,-109.1761 950.032,-109.918 940.5621,-110.6054 930.987,-111.2365 921.3224,-111.8095 911.5825,-112.3229 901.78,-112.7752 891.9263,-113.1652 882.0314,-113.4919 872.1043,-113.7543 862.1532,-113.9517 852.1855,-114.0837 842.208,-114.1497 832.2273,-114.1497 822.2498,-114.0837 812.282,-113.9517 802.3309,-113.7543 792.4039,-113.4919 782.509,-113.1652 772.6553,-112.7752 762.8528,-112.3229 753.1129,-111.8095 743.4483,-111.2365 733.8731,-110.6054 724.4033,-109.918 715.0562,-109.1761 705.851,-108.3818 696.8085,-107.5373 687.9515,-106.6448 679.304,-105.7068 670.8921,-104.726 662.7432,-103.7049 654.886,-102.6463 647.3506,-101.5533 640.168,-100.4287 633.3704,-99.2756 626.9902,-98.0973 621.0605,-96.8969 615.6145,-95.6778 610.6852,-94.4432 606.3052,-93.1966 602.5065,-91.9414 599.3198,-90.6809 596.7748,-89.4188 594.8992,-88.1584 593.7191,-86.9031 593.258,-85.6565 593.5372,-84.4219 594.5751,-83.2028 596.3868,-82.0024 598.9843,-80.8241 602.376,-79.6711 606.5666,-78.5465 611.557,-77.4534 617.3438,-76.3949 623.9199,-75.3738 631.2734,-74.3929 639.3888,-73.4549 648.2459,-72.5625 657.8204,-71.7179 668.0839,-70.9236 679.0039,-70.1817 690.5441,-69.4943 702.6643,-68.8633 715.3208,-68.2902 728.4667,-67.7769 742.0519,-67.3246 756.0236,-66.9345 770.3267,-66.6079 784.9038,-66.3455 799.6958,-66.148 814.6425,-66.0161 829.6822,-65.95 844.7531,-65.95 859.7928,-66.0161"/>
<text text-anchor="middle" x="837.2176" y="-83.8499" font-family="Times,serif" font-size="24.00" fill="#ffffff">Test Driven Development</text>
</g>
<!-- Agile Work ( Kanban/Scrum )&#45;&gt;Test Driven Development -->
<g id="edge5" class="edge">
<title>Agile Work ( Kanban/Scrum )&#45;&gt;Test Driven Development</title>
<g id="a_edge5"><a xlink:title="Agile Work ( Kanban/Scrum ) &#160;reduces the failure rate of &#160;Test Driven Development">
<path fill="none" stroke="#d72879" d="M539.111,-103.9253C567.6096,-102.5988 596.3705,-101.2601 624.1997,-99.9648"/>
<polygon fill="#d72879" stroke="#d72879" points="624.5818,-103.4509 634.4082,-99.4896 624.2563,-96.4585 624.5818,-103.4509"/>
</a>
</g>
</g>
<!-- Infrastructure as Code -->
<g id="node6" class="node">
<title>Infrastructure as Code</title>
<polygon fill="#2f28d7" stroke="#000000" stroke-width="3" points="1783.5764,-186.0161 1797.1024,-186.148 1810.4886,-186.3455 1823.6802,-186.6079 1836.6238,-186.9345 1849.2676,-187.3246 1861.5615,-187.7769 1873.4579,-188.2902 1884.9115,-188.8633 1895.8797,-189.4943 1906.323,-190.1817 1916.2052,-190.9236 1925.4932,-191.7179 1934.1577,-192.5625 1942.1729,-193.4549 1949.5169,-194.3929 1956.1716,-195.3738 1962.1226,-196.3949 1967.3594,-197.4534 1971.8755,-198.5465 1975.6678,-199.6711 1978.7372,-200.8241 1981.0878,-202.0024 1982.7273,-203.2028 1983.6665,-204.4219 1983.9191,-205.6565 1983.5019,-206.9031 1982.434,-208.1584 1980.7367,-209.4188 1978.4335,-210.6809 1975.5497,-211.9414 1972.112,-213.1966 1968.1484,-214.4432 1963.6876,-215.6778 1958.7592,-216.8969 1953.3931,-218.0973 1947.6193,-219.2756 1941.4677,-220.4287 1934.9679,-221.5533 1928.1487,-222.6463 1921.0383,-223.7049 1913.6638,-224.726 1906.0515,-225.7068 1898.226,-226.6448 1890.2107,-227.5373 1882.0277,-228.3818 1873.6974,-229.1761 1865.2387,-229.918 1856.6689,-230.6054 1848.0039,-231.2365 1839.2579,-231.8095 1830.4437,-232.3229 1821.5729,-232.7752 1812.6557,-233.1652 1803.7013,-233.4919 1794.7178,-233.7543 1785.7125,-233.9517 1776.6922,-234.0837 1767.663,-234.1497 1758.6309,-234.1497 1749.6017,-234.0837 1740.5814,-233.9517 1731.5761,-233.7543 1722.5926,-233.4919 1713.6382,-233.1652 1704.721,-232.7752 1695.8502,-232.3229 1687.036,-231.8095 1678.29,-231.2365 1669.625,-230.6054 1661.0552,-229.918 1652.5965,-229.1761 1644.2662,-228.3818 1636.0832,-227.5373 1628.0679,-226.6448 1620.2424,-225.7068 1612.6301,-224.726 1605.2556,-223.7049 1598.1452,-222.6463 1591.326,-221.5533 1584.8262,-220.4287 1578.6746,-219.2756 1572.9008,-218.0973 1567.5347,-216.8969 1562.6063,-215.6778 1558.1455,-214.4432 1554.1819,-213.1966 1550.7442,-211.9414 1547.8604,-210.6809 1545.5572,-209.4188 1543.8599,-208.1584 1542.792,-206.9031 1542.3747,-205.6565 1542.6274,-204.4219 1543.5666,-203.2028 1545.2061,-202.0024 1547.5567,-200.8241 1550.6261,-199.6711 1554.4184,-198.5465 1558.9345,-197.4534 1564.1713,-196.3949 1570.1223,-195.3738 1576.777,-194.3929 1584.121,-193.4549 1592.1362,-192.5625 1600.8007,-191.7179 1610.0887,-190.9236 1619.9709,-190.1817 1630.4142,-189.4943 1641.3824,-188.8633 1652.836,-188.2902 1664.7323,-187.7769 1677.0263,-187.3246 1689.6701,-186.9345 1702.6137,-186.6079 1715.8053,-186.3455 1729.1915,-186.148 1742.7175,-186.0161 1756.3277,-185.95 1769.9662,-185.95 1783.5764,-186.0161"/>
<text text-anchor="middle" x="1763.1469" y="-203.8499" font-family="Times,serif" font-size="24.00" fill="#ffffff">Infrastructure as Code</text>
</g>
<!-- Branching Strategy&#45;&gt;Infrastructure as Code -->
<g id="edge9" class="edge">
<title>Branching Strategy&#45;&gt;Infrastructure as Code</title>
<g id="a_edge9"><a xlink:title="Branching Strategy &#160;reduces the failure rate of &#160;Infrastructure as Code">
<path fill="none" stroke="#d72879" d="M1436.8709,-171.2356C1486.0179,-177.0822 1542.9039,-183.8494 1595.2774,-190.0799"/>
<polygon fill="#d72879" stroke="#d72879" points="1595.0008,-193.5715 1605.3442,-191.2774 1595.8277,-186.6206 1595.0008,-193.5715"/>
</a>
</g>
</g>
<!-- Parametrised Infrastructure as Code -->
<g id="node7" class="node">
<title>Parametrised Infrastructure as Code</title>
<polygon fill="#2f28d7" stroke="#000000" stroke-width="3" points="2405.135,-212.0161 2426.4432,-212.148 2447.5311,-212.3455 2468.3126,-212.6079 2488.7033,-212.9345 2508.6218,-213.3246 2527.9891,-213.7769 2546.7301,-214.2902 2564.7735,-214.8633 2582.0523,-215.4943 2598.5043,-216.1817 2614.0721,-216.9236 2628.704,-217.7179 2642.3537,-218.5625 2654.9805,-219.4549 2666.55,-220.3929 2677.0334,-221.3738 2686.4083,-222.3949 2694.6582,-223.4534 2701.7726,-224.5465 2707.7468,-225.6711 2712.5821,-226.8241 2716.2852,-228.0024 2718.868,-229.2028 2720.3475,-230.4219 2720.7456,-231.6565 2720.0883,-232.9031 2718.4059,-234.1584 2715.732,-235.4188 2712.1037,-236.6809 2707.5608,-237.9414 2702.1452,-239.1966 2695.901,-240.4432 2688.8737,-241.6778 2681.1098,-242.8969 2672.6563,-244.0973 2663.5605,-245.2756 2653.8696,-246.4287 2643.63,-247.5533 2632.8874,-248.6463 2621.686,-249.7049 2610.0686,-250.726 2598.0765,-251.7068 2585.7485,-252.6448 2573.1217,-253.5373 2560.2306,-254.3818 2547.1074,-255.1761 2533.7819,-255.918 2520.2815,-256.6054 2506.631,-257.2365 2492.8529,-257.8095 2478.9675,-258.3229 2464.9929,-258.7752 2450.9451,-259.1652 2436.8388,-259.4919 2422.6865,-259.7543 2408.5001,-259.9517 2394.2898,-260.0837 2380.0657,-260.1497 2365.8369,-260.1497 2351.6128,-260.0837 2337.4026,-259.9517 2323.2161,-259.7543 2309.0639,-259.4919 2294.9575,-259.1652 2280.9098,-258.7752 2266.9351,-258.3229 2253.0497,-257.8095 2239.2716,-257.2365 2225.6211,-256.6054 2212.1207,-255.918 2198.7952,-255.1761 2185.6721,-254.3818 2172.7809,-253.5373 2160.1541,-252.6448 2147.8261,-251.7068 2135.834,-250.726 2124.2167,-249.7049 2113.0152,-248.6463 2102.2726,-247.5533 2092.033,-246.4287 2082.3421,-245.2756 2073.2463,-244.0973 2064.7928,-242.8969 2057.0289,-241.6778 2050.0016,-240.4432 2043.7574,-239.1966 2038.3418,-237.9414 2033.7989,-236.6809 2030.1706,-235.4188 2027.4967,-234.1584 2025.8143,-232.9031 2025.157,-231.6565 2025.5551,-230.4219 2027.0346,-229.2028 2029.6174,-228.0024 2033.3205,-226.8241 2038.1558,-225.6711 2044.13,-224.5465 2051.2444,-223.4534 2059.4943,-222.3949 2068.8692,-221.3738 2079.3527,-220.3929 2090.9221,-219.4549 2103.5489,-218.5625 2117.1986,-217.7179 2131.8305,-216.9236 2147.3983,-216.1817 2163.8503,-215.4943 2181.1291,-214.8633 2199.1725,-214.2902 2217.9135,-213.7769 2237.2808,-213.3246 2257.1993,-212.9345 2277.59,-212.6079 2298.3715,-212.3455 2319.4594,-212.148 2340.7676,-212.0161 2362.2086,-211.95 2383.694,-211.95 2405.135,-212.0161"/>
<text text-anchor="middle" x="2372.9513" y="-229.8499" font-family="Times,serif" font-size="24.00" fill="#ffffff">Parametrised Infrastructure as Code</text>
</g>
<!-- Branching Strategy&#45;&gt;Parametrised Infrastructure as Code -->
<g id="edge7" class="edge">
<title>Branching Strategy&#45;&gt;Parametrised Infrastructure as Code</title>
<g id="a_edge7"><a xlink:title="Branching Strategy &#160;enables &#160;&#160;Parametrised Infrastructure as Code">
<path fill="none" stroke="#28d786" d="M1354.937,-179.2027C1399.9755,-200.6203 1471.4029,-230.9166 1537.2397,-243.0499 1762.4852,-284.5609 2027.7051,-272.2171 2197.9574,-256.6512"/>
<polygon fill="#28d786" stroke="#28d786" points="2198.384,-260.1267 2208.0177,-255.7175 2197.7371,-253.1567 2198.384,-260.1267"/>
</a>
</g>
</g>
<!-- Branching Strategy&#45;&gt;Continuous Integration -->
<g id="edge8" class="edge">
<title>Branching Strategy&#45;&gt;Continuous Integration</title>
<g id="a_edge8"><a xlink:title="Branching Strategy &#160;reduces the failure rate of &#160;Continuous Integration">
<path fill="none" stroke="#d72879" d="M1441.4284,-136.8269C1500.3126,-128.2653 1569.568,-118.1957 1628.7099,-109.5967"/>
<polygon fill="#d72879" stroke="#d72879" points="1629.4764,-113.0221 1638.8687,-108.1196 1628.4692,-106.0949 1629.4764,-113.0221"/>
</a>
</g>
</g>
<!-- Repository composition -->
<g id="node16" class="node">
<title>Repository composition</title>
<ellipse fill="none" stroke="#000000" cx="1763.1469" cy="-150.0499" rx="120.4791" ry="18"/>
<text text-anchor="middle" x="1763.1469" y="-146.3499" font-family="Times,serif" font-size="14.00" fill="#000000">Repository composition</text>
</g>
<!-- Branching Strategy&#45;&gt;Repository composition -->
<g id="edge6" class="edge">
<title>Branching Strategy&#45;&gt;Repository composition</title>
<g id="a_edge6"><a xlink:title="Branching Strategy &#160;enables &#160;&#160;Repository composition">
<path fill="none" stroke="#28d786" d="M1500.7383,-153.5184C1545.3641,-152.9285 1591.8643,-152.3139 1633.107,-151.7687"/>
<polygon fill="#28d786" stroke="#28d786" points="1633.2446,-155.2673 1643.1974,-151.6354 1633.152,-148.2679 1633.2446,-155.2673"/>
</a>
</g>
</g>
<!-- Repository Composition -->
<g id="node5" class="node">
<title>Repository Composition</title>
<polygon fill="#2f28d7" stroke="#000000" stroke-width="3" points="299.8879,-158.0161 313.9698,-158.148 327.9061,-158.3455 341.6398,-158.6079 355.1153,-158.9345 368.2787,-159.3246 381.0779,-159.7769 393.4631,-160.2902 405.3874,-160.8633 416.8063,-161.4943 427.6788,-162.1817 437.9671,-162.9236 447.6368,-163.7179 456.6573,-164.5625 465.0019,-165.4549 472.6478,-166.3929 479.5759,-167.3738 485.7714,-168.3949 491.2235,-169.4534 495.9251,-170.5465 499.8733,-171.6711 503.0688,-172.8241 505.516,-174.0024 507.2229,-175.2028 508.2007,-176.4219 508.4637,-177.6565 508.0294,-178.9031 506.9175,-180.1584 505.1505,-181.4188 502.7526,-182.6809 499.7504,-183.9414 496.1714,-185.1966 492.0448,-186.4432 487.4007,-187.6778 482.2698,-188.8969 476.6832,-190.0973 470.6722,-191.2756 464.2678,-192.4287 457.5008,-193.5533 450.4014,-194.6463 442.9988,-195.7049 435.3213,-196.726 427.3961,-197.7068 419.249,-198.6448 410.9044,-199.5373 402.3851,-200.3818 393.7124,-201.1761 384.9061,-201.918 375.9842,-202.6054 366.9631,-203.2365 357.8576,-203.8095 348.6812,-204.3229 339.4459,-204.7752 330.1623,-205.1652 320.8398,-205.4919 311.4872,-205.7543 302.1118,-205.9517 292.7208,-206.0837 283.3206,-206.1497 273.9173,-206.1497 264.517,-206.0837 255.126,-205.9517 245.7507,-205.7543 236.398,-205.4919 227.0756,-205.1652 217.7919,-204.7752 208.5566,-204.3229 199.3802,-203.8095 190.2748,-203.2365 181.2536,-202.6054 172.3317,-201.918 163.5254,-201.1761 154.8527,-200.3818 146.3335,-199.5373 137.9888,-198.6448 129.8417,-197.7068 121.9165,-196.726 114.2391,-195.7049 106.8365,-194.6463 99.737,-193.5533 92.97,-192.4287 86.5656,-191.2756 80.5546,-190.0973 74.968,-188.8969 69.8371,-187.6778 65.193,-186.4432 61.0664,-185.1966 57.4875,-183.9414 54.4852,-182.6809 52.0874,-181.4188 50.3203,-180.1584 49.2084,-178.9031 48.7741,-177.6565 49.0372,-176.4219 50.0149,-175.2028 51.7218,-174.0024 54.169,-172.8241 57.3645,-171.6711 61.3127,-170.5465 66.0143,-169.4534 71.4664,-168.3949 77.6619,-167.3738 84.5901,-166.3929 92.2359,-165.4549 100.5805,-164.5625 109.6011,-163.7179 119.2708,-162.9236 129.559,-162.1817 140.4315,-161.4943 151.8505,-160.8633 163.7747,-160.2902 176.16,-159.7769 188.9592,-159.3246 202.1225,-158.9345 215.5981,-158.6079 229.3318,-158.3455 243.268,-158.148 257.3499,-158.0161 271.5195,-157.95 285.7184,-157.95 299.8879,-158.0161"/>
<text text-anchor="middle" x="278.6189" y="-175.8499" font-family="Times,serif" font-size="24.00" fill="#ffffff">Repository Composition</text>
</g>
<!-- Infrastructure as Code&#45;&gt;Parametrised Infrastructure as Code -->
<g id="edge11" class="edge">
<title>Infrastructure as Code&#45;&gt;Parametrised Infrastructure as Code</title>
<g id="a_edge11"><a xlink:title="Infrastructure as Code &#160;enables &#160;&#160;Parametrised Infrastructure as Code">
<path fill="none" stroke="#28d786" d="M1973.8609,-212.5788C2014.4964,-214.0492 2057.6069,-215.8 2099.8916,-217.6904"/>
<polygon fill="#28d786" stroke="#28d786" points="2099.8963,-221.194 2110.0437,-218.1476 2100.2113,-214.2011 2099.8963,-221.194"/>
</a>
</g>
</g>
<!-- Infrastructure as Code&#45;&gt;Parametrised Infrastructure as Code -->
<g id="edge13" class="edge">
<title>Infrastructure as Code&#45;&gt;Parametrised Infrastructure as Code</title>
<g id="a_edge13"><a xlink:title="Infrastructure as Code &#160;reduces the failure rate of &#160;Parametrised Infrastructure as Code">
<path fill="none" stroke="#d72879" d="M1925.7623,-223.0322C1955.099,-224.5944 1986.7011,-226.1495 2019.0592,-227.6331"/>
<polygon fill="#d72879" stroke="#d72879" points="2018.9751,-231.1328 2029.1239,-228.0911 2019.2934,-224.14 2018.9751,-231.1328"/>
</a>
</g>
</g>
<!-- Continuous Delivery -->
<g id="node12" class="node">
<title>Continuous Delivery</title>
<polygon fill="#2f28d7" stroke="#000000" stroke-width="3" points="2391.3288,-146.0161 2403.4962,-146.148 2415.5377,-146.3455 2427.4043,-146.6079 2439.0478,-146.9345 2450.4216,-147.3246 2461.4807,-147.7769 2472.1822,-148.2902 2482.4853,-148.8633 2492.3518,-149.4943 2501.7462,-150.1817 2510.6357,-150.9236 2518.9908,-151.7179 2526.785,-152.5625 2533.9952,-153.4549 2540.6015,-154.3929 2546.5878,-155.3738 2551.941,-156.3949 2556.6518,-157.4534 2560.7143,-158.5465 2564.1257,-159.6711 2566.8867,-160.8241 2569.0013,-162.0024 2570.4761,-163.2028 2571.3209,-164.4219 2571.5482,-165.6565 2571.1729,-166.9031 2570.2122,-168.1584 2568.6854,-169.4188 2566.6136,-170.6809 2564.0194,-171.9414 2560.9271,-173.1966 2557.3615,-174.4432 2553.3488,-175.6778 2548.9154,-176.8969 2544.0883,-178.0973 2538.8945,-179.2756 2533.3608,-180.4287 2527.5138,-181.5533 2521.3796,-182.6463 2514.9834,-183.7049 2508.3497,-184.726 2501.5019,-185.7068 2494.4624,-186.6448 2487.2523,-187.5373 2479.8912,-188.3818 2472.3976,-189.1761 2464.7885,-189.918 2457.0796,-190.6054 2449.2849,-191.2365 2441.4173,-191.8095 2433.4885,-192.3229 2425.5087,-192.7752 2417.4872,-193.1652 2409.4322,-193.4919 2401.351,-193.7543 2393.2503,-193.9517 2385.136,-194.0837 2377.0137,-194.1497 2368.8889,-194.1497 2360.7666,-194.0837 2352.6523,-193.9517 2344.5516,-193.7543 2336.4704,-193.4919 2328.4154,-193.1652 2320.3939,-192.7752 2312.4141,-192.3229 2304.4853,-191.8095 2296.6177,-191.2365 2288.823,-190.6054 2281.1141,-189.918 2273.505,-189.1761 2266.0114,-188.3818 2258.6504,-187.5373 2251.4402,-186.6448 2244.4007,-185.7068 2237.553,-184.726 2230.9193,-183.7049 2224.523,-182.6463 2218.3888,-181.5533 2212.5418,-180.4287 2207.0081,-179.2756 2201.8143,-178.0973 2196.9872,-176.8969 2192.5538,-175.6778 2188.5411,-174.4432 2184.9756,-173.1966 2181.8832,-171.9414 2179.289,-170.6809 2177.2172,-169.4188 2175.6904,-168.1584 2174.7297,-166.9031 2174.3544,-165.6565 2174.5817,-164.4219 2175.4265,-163.2028 2176.9014,-162.0024 2179.0159,-160.8241 2181.7769,-159.6711 2185.1883,-158.5465 2189.2508,-157.4534 2193.9616,-156.3949 2199.3148,-155.3738 2205.3011,-154.3929 2211.9074,-153.4549 2219.1176,-152.5625 2226.9118,-151.7179 2235.2669,-150.9236 2244.1564,-150.1817 2253.5508,-149.4943 2263.4173,-148.8633 2273.7204,-148.2902 2284.4219,-147.7769 2295.481,-147.3246 2306.8548,-146.9345 2318.4983,-146.6079 2330.3649,-146.3455 2342.4064,-146.148 2354.5738,-146.0161 2366.817,-145.95 2379.0856,-145.95 2391.3288,-146.0161"/>
<text text-anchor="middle" x="2372.9513" y="-163.8499" font-family="Times,serif" font-size="24.00" fill="#ffffff">Continuous Delivery</text>
</g>
<!-- Infrastructure as Code&#45;&gt;Continuous Delivery -->
<g id="edge10" class="edge">
<title>Infrastructure as Code&#45;&gt;Continuous Delivery</title>
<g id="a_edge10"><a xlink:title="Infrastructure as Code &#160;enables &#160;&#160;Continuous Delivery">
<path fill="none" stroke="#28d786" d="M1935.0406,-192.6312C2012.0569,-186.8305 2103.1556,-180.7993 2182.2635,-176.2479"/>
<polygon fill="#28d786" stroke="#28d786" points="2182.5618,-179.7366 2192.346,-175.6721 2182.1627,-172.748 2182.5618,-179.7366"/>
</a>
</g>
</g>
<!-- Infrastructure as Code&#45;&gt;Continuous Delivery -->
<g id="edge12" class="edge">
<title>Infrastructure as Code&#45;&gt;Continuous Delivery</title>
<g id="a_edge12"><a xlink:title="Infrastructure as Code &#160;reduces the failure rate of &#160;Continuous Delivery">
<path fill="none" stroke="#d72879" d="M1981.5779,-202.2246C2063.0146,-197.3604 2153.4232,-191.2159 2226.8124,-185.4959"/>
<polygon fill="#d72879" stroke="#d72879" points="2227.357,-188.964 2237.0523,-184.6918 2226.8089,-181.9855 2227.357,-188.964"/>
</a>
</g>
</g>
<!-- Dark Launching -->
<g id="node8" class="node">
<title>Dark Launching</title>
<polygon fill="#2f28d7" stroke="#000000" stroke-width="3" points="3509.4526,-245.0161 3519.2419,-245.148 3528.9301,-245.3455 3538.4774,-245.6079 3547.8452,-245.9345 3556.9961,-246.3246 3565.8938,-246.7769 3574.5037,-247.2902 3582.7931,-247.8633 3590.7313,-248.4943 3598.2896,-249.1817 3605.4417,-249.9236 3612.1638,-250.7179 3618.4347,-251.5625 3624.2357,-252.4549 3629.5509,-253.3929 3634.3671,-254.3738 3638.6741,-255.3949 3642.4642,-256.4534 3645.7327,-257.5465 3648.4774,-258.6711 3650.6988,-259.8241 3652.4,-261.0024 3653.5866,-262.2028 3654.2663,-263.4219 3654.4492,-264.6565 3654.1473,-265.9031 3653.3743,-267.1584 3652.1459,-268.4188 3650.479,-269.6809 3648.3919,-270.9414 3645.9039,-272.1966 3643.0352,-273.4432 3639.8068,-274.6778 3636.2399,-275.8969 3632.3562,-277.0973 3628.1775,-278.2756 3623.7253,-279.4287 3619.0211,-280.5533 3614.0857,-281.6463 3608.9396,-282.7049 3603.6024,-283.726 3598.093,-284.7068 3592.4294,-285.6448 3586.6284,-286.5373 3580.706,-287.3818 3574.677,-288.1761 3568.5551,-288.918 3562.3528,-289.6054 3556.0815,-290.2365 3549.7516,-290.8095 3543.3724,-291.3229 3536.9523,-291.7752 3530.4985,-292.1652 3524.0178,-292.4919 3517.5161,-292.7543 3510.9986,-292.9517 3504.4702,-293.0837 3497.9353,-293.1497 3491.3984,-293.1497 3484.8636,-293.0837 3478.3352,-292.9517 3471.8177,-292.7543 3465.316,-292.4919 3458.8352,-292.1652 3452.3815,-291.7752 3445.9613,-291.3229 3439.5821,-290.8095 3433.2523,-290.2365 3426.981,-289.6054 3420.7787,-288.918 3414.6568,-288.1761 3408.6278,-287.3818 3402.7054,-286.5373 3396.9044,-285.6448 3391.2407,-284.7068 3385.7313,-283.726 3380.3942,-282.7049 3375.248,-281.6463 3370.3127,-280.5533 3365.6085,-279.4287 3361.1563,-278.2756 3356.9776,-277.0973 3353.0939,-275.8969 3349.527,-274.6778 3346.2985,-273.4432 3343.4299,-272.1966 3340.9419,-270.9414 3338.8547,-269.6809 3337.1879,-268.4188 3335.9594,-267.1584 3335.1865,-265.9031 3334.8845,-264.6565 3335.0674,-263.4219 3335.7472,-262.2028 3336.9337,-261.0024 3338.635,-259.8241 3340.8564,-258.6711 3343.6011,-257.5465 3346.8695,-256.4534 3350.6597,-255.3949 3354.9666,-254.3738 3359.7829,-253.3929 3365.0981,-252.4549 3370.8991,-251.5625 3377.1699,-250.7179 3383.8921,-249.9236 3391.0442,-249.1817 3398.6025,-248.4943 3406.5406,-247.8633 3414.8301,-247.2902 3423.44,-246.7769 3432.3377,-246.3246 3441.4885,-245.9345 3450.8564,-245.6079 3460.4037,-245.3455 3470.0918,-245.148 3479.8812,-245.0161 3489.7315,-244.95 3499.6022,-244.95 3509.4526,-245.0161"/>
<text text-anchor="middle" x="3494.6669" y="-262.8499" font-family="Times,serif" font-size="24.00" fill="#ffffff">Dark Launching</text>
</g>
<!-- Continuous Deployment -->
<g id="node13" class="node">
<title>Continuous Deployment</title>
<polygon fill="#2f28d7" stroke="#000000" stroke-width="3" points="3011.0818,-212.0161 3025.3489,-212.148 3039.4685,-212.3455 3053.3829,-212.6079 3067.0358,-212.9345 3080.3723,-213.3246 3093.3399,-213.7769 3105.8882,-214.2902 3117.9693,-214.8633 3129.5385,-215.4943 3140.5541,-216.1817 3150.9777,-216.9236 3160.7746,-217.7179 3169.9138,-218.5625 3178.3683,-219.4549 3186.1147,-220.3929 3193.134,-221.3738 3199.411,-222.3949 3204.9348,-223.4534 3209.6983,-224.5465 3213.6985,-225.6711 3216.936,-226.8241 3219.4154,-228.0024 3221.1447,-229.2028 3222.1354,-230.4219 3222.4019,-231.6565 3221.9618,-232.9031 3220.8353,-234.1584 3219.045,-235.4188 3216.6157,-236.6809 3213.5739,-237.9414 3209.9478,-239.1966 3205.767,-240.4432 3201.0618,-241.6778 3195.8634,-242.8969 3190.2032,-244.0973 3184.1131,-245.2756 3177.6245,-246.4287 3170.7684,-247.5533 3163.5756,-248.6463 3156.0756,-249.7049 3148.2971,-250.726 3140.2676,-251.7068 3132.0133,-252.6448 3123.5589,-253.5373 3114.9275,-254.3818 3106.1408,-255.1761 3097.2186,-255.918 3088.1792,-256.6054 3079.0394,-257.2365 3069.8142,-257.8095 3060.517,-258.3229 3051.1602,-258.7752 3041.7544,-259.1652 3032.3093,-259.4919 3022.8336,-259.7543 3013.3349,-259.9517 3003.8203,-260.0837 2994.2964,-260.1497 2984.7694,-260.1497 2975.2455,-260.0837 2965.7309,-259.9517 2956.2322,-259.7543 2946.7564,-259.4919 2937.3113,-259.1652 2927.9056,-258.7752 2918.5487,-258.3229 2909.2516,-257.8095 2900.0263,-257.2365 2890.8865,-256.6054 2881.8472,-255.918 2872.925,-255.1761 2864.1382,-254.3818 2855.5069,-253.5373 2847.0524,-252.6448 2838.7981,-251.7068 2830.7687,-250.726 2822.9902,-249.7049 2815.4902,-248.6463 2808.2973,-247.5533 2801.4413,-246.4287 2794.9526,-245.2756 2788.8625,-244.0973 2783.2024,-242.8969 2778.004,-241.6778 2773.2988,-240.4432 2769.1179,-239.1966 2765.4919,-237.9414 2762.4501,-236.6809 2760.0207,-235.4188 2758.2304,-234.1584 2757.1039,-232.9031 2756.6638,-231.6565 2756.9304,-230.4219 2757.921,-229.2028 2759.6503,-228.0024 2762.1298,-226.8241 2765.3673,-225.6711 2769.3674,-224.5465 2774.1309,-223.4534 2779.6547,-222.3949 2785.9318,-221.3738 2792.9511,-220.3929 2800.6975,-219.4549 2809.1519,-218.5625 2818.2912,-217.7179 2828.0881,-216.9236 2838.5117,-216.1817 2849.5273,-215.4943 2861.0964,-214.8633 2873.1776,-214.2902 2885.7258,-213.7769 2898.6934,-213.3246 2912.03,-212.9345 2925.6828,-212.6079 2939.5972,-212.3455 2953.7169,-212.148 2967.984,-212.0161 2982.34,-211.95 2996.7257,-211.95 3011.0818,-212.0161"/>
<text text-anchor="middle" x="2989.5329" y="-229.8499" font-family="Times,serif" font-size="24.00" fill="#ffffff">Continuous Deployment</text>
</g>
<!-- Dark Launching&#45;&gt;Continuous Deployment -->
<g id="edge14" class="edge">
<title>Dark Launching&#45;&gt;Continuous Deployment</title>
<g id="a_edge14"><a xlink:title="Dark Launching &#160;reduces the failure rate of &#160;Continuous Deployment">
<path fill="none" stroke="#d72879" d="M3335.0236,-264.9469C3275.5265,-261.6267 3208.035,-257.2156 3148.5905,-252.7618"/>
<polygon fill="#d72879" stroke="#d72879" points="3148.593,-249.252 3138.3576,-251.9885 3148.0655,-256.2321 3148.593,-249.252"/>
</a>
</g>
</g>
<!-- Test Driven Development&#45;&gt;Automated Testing -->
<g id="edge16" class="edge">
<title>Test Driven Development&#45;&gt;Automated Testing</title>
<g id="a_edge16"><a xlink:title="Test Driven Development &#160;reduces the failure rate of &#160;Automated Testing">
<path fill="none" stroke="#d72879" d="M984.2972,-69.4837C1048.1126,-60.5604 1122.0882,-50.2164 1183.3193,-41.6544"/>
<polygon fill="#d72879" stroke="#d72879" points="1184.0042,-45.0928 1193.4231,-40.2416 1183.0347,-38.1602 1184.0042,-45.0928"/>
</a>
</g>
</g>
<!-- Test Driven Development&#45;&gt;Unit Testing -->
<g id="edge15" class="edge">
<title>Test Driven Development&#45;&gt;Unit Testing</title>
<g id="a_edge15"><a xlink:title="Test Driven Development &#160;reduces the failure rate of &#160;Unit Testing">
<path fill="none" stroke="#d72879" d="M1076.675,-90.0499C1111.0623,-90.0499 1145.3517,-90.0499 1176.6221,-90.0499"/>
<polygon fill="#d72879" stroke="#d72879" points="1176.6651,-93.55 1186.6651,-90.0499 1176.665,-86.55 1176.6651,-93.55"/>
</a>
</g>
</g>
<!-- Exploratory Testing&#45;&gt;Automated Testing -->
<g id="edge17" class="edge">
<title>Exploratory Testing&#45;&gt;Automated Testing</title>
<g id="a_edge17"><a xlink:title="Exploratory Testing &#160;better together with &#160;Automated Testing">
<path fill="none" stroke="#d0d728" d="M1592.5415,-30.6114C1557.2331,-30.8521 1519.9819,-30.8622 1484.5092,-30.6419"/>
<polygon fill="#d0d728" stroke="#d0d728" points="1484.0839,-27.139 1474.06,-30.5699 1484.0356,-34.1388 1484.0839,-27.139"/>
</a>
</g>
</g>
<!-- Continuous Integration&#45;&gt;Continuous Delivery -->
<g id="edge18" class="edge">
<title>Continuous Integration&#45;&gt;Continuous Delivery</title>
<g id="a_edge18"><a xlink:title="Continuous Integration &#160;enables &#160;&#160;Continuous Delivery">
<path fill="none" stroke="#28d786" d="M1895.0899,-107.3594C1990.6545,-119.8965 2120.0915,-136.8773 2220.1499,-150.0039"/>
<polygon fill="#28d786" stroke="#28d786" points="2219.9821,-153.5118 2230.3524,-151.3424 2220.8927,-146.5713 2219.9821,-153.5118"/>
</a>
</g>
</g>
<!-- Continuous Delivery&#45;&gt;Continuous Deployment -->
<g id="edge19" class="edge">
<title>Continuous Delivery&#45;&gt;Continuous Deployment</title>
<g id="a_edge19"><a xlink:title="Continuous Delivery &#160;enables &#160;&#160;Continuous Deployment">
<path fill="none" stroke="#28d786" d="M2519.4632,-183.0415C2581.6092,-188.7869 2654.8047,-195.8632 2720.8484,-203.0499 2754.6548,-206.7286 2790.8155,-210.9641 2825.299,-215.1477"/>
<polygon fill="#28d786" stroke="#28d786" points="2825.1083,-218.6503 2835.458,-216.3846 2825.9543,-211.7016 2825.1083,-218.6503"/>
</a>
</g>
</g>
<!-- Continuous Deployment&#45;&gt;Dark Launching -->
<g id="edge20" class="edge">
<title>Continuous Deployment&#45;&gt;Dark Launching</title>
<g id="a_edge20"><a xlink:title="Continuous Deployment &#160;enables &#160;&#160;Dark Launching">
<path fill="none" stroke="#28d786" d="M3196.0832,-242.8942C3246.5012,-245.9654 3299.4512,-249.5715 3346.5267,-253.1634"/>
<polygon fill="#28d786" stroke="#28d786" points="3346.5518,-256.6756 3356.791,-253.9536 3347.0892,-249.6963 3346.5518,-256.6756"/>
</a>
</g>
</g>
<!-- Crops not Garden plants -->
<g id="node15" class="node">
<title>Crops not Garden plants</title>
<polygon fill="#2f28d7" stroke="#000000" stroke-width="3" points="3516.5424,-179.0161 3531.0258,-179.148 3545.3595,-179.3455 3559.4849,-179.6079 3573.3447,-179.9345 3586.8834,-180.3246 3600.0476,-180.7769 3612.786,-181.2902 3625.0503,-181.8633 3636.7949,-182.4943 3647.9774,-183.1817 3658.559,-183.9236 3668.5045,-184.7179 3677.7823,-185.5625 3686.3649,-186.4549 3694.2287,-187.3929 3701.3544,-188.3738 3707.7266,-189.3949 3713.3342,-190.4534 3718.1699,-191.5465 3722.2306,-192.6711 3725.5172,-193.8241 3728.0342,-195.0024 3729.7898,-196.2028 3730.7954,-197.4219 3731.066,-198.6565 3730.6193,-199.9031 3729.4757,-201.1584 3727.6583,-202.4188 3725.1921,-203.6809 3722.1042,-204.9414 3718.4231,-206.1966 3714.1789,-207.4432 3709.4024,-208.6778 3704.1252,-209.8969 3698.3793,-211.0973 3692.1968,-212.2756 3685.6098,-213.4287 3678.6498,-214.5533 3671.3479,-215.6463 3663.7342,-216.7049 3655.8378,-217.726 3647.6866,-218.7068 3639.3072,-219.6448 3630.7246,-220.5373 3621.9624,-221.3818 3613.0425,-222.1761 3603.985,-222.918 3594.8087,-223.6054 3585.5303,-224.2365 3576.1652,-224.8095 3566.7271,-225.3229 3557.2284,-225.7752 3547.68,-226.1652 3538.0918,-226.4919 3528.4724,-226.7543 3518.8297,-226.9517 3509.1709,-227.0837 3499.5026,-227.1497 3489.8312,-227.1497 3480.1629,-227.0837 3470.5041,-226.9517 3460.8614,-226.7543 3451.242,-226.4919 3441.6537,-226.1652 3432.1054,-225.7752 3422.6067,-225.3229 3413.1686,-224.8095 3403.8035,-224.2365 3394.5251,-223.6054 3385.3487,-222.918 3376.2913,-222.1761 3367.3714,-221.3818 3358.6092,-220.5373 3350.0266,-219.6448 3341.6471,-218.7068 3333.4959,-217.726 3325.5995,-216.7049 3317.9858,-215.6463 3310.6839,-214.5533 3303.724,-213.4287 3297.137,-212.2756 3290.9545,-211.0973 3285.2086,-209.8969 3279.9314,-208.6778 3275.1548,-207.4432 3270.9106,-206.1966 3267.2296,-204.9414 3264.1417,-203.6809 3261.6755,-202.4188 3259.8581,-201.1584 3258.7145,-199.9031 3258.2677,-198.6565 3258.5383,-197.4219 3259.544,-196.2028 3261.2995,-195.0024 3263.8165,-193.8241 3267.1031,-192.6711 3271.1639,-191.5465 3275.9996,-190.4534 3281.6071,-189.3949 3287.9793,-188.3738 3295.105,-187.3929 3302.9689,-186.4549 3311.5515,-185.5625 3320.8293,-184.7179 3330.7747,-183.9236 3341.3563,-183.1817 3352.5389,-182.4943 3364.2835,-181.8633 3376.5477,-181.2902 3389.2862,-180.7769 3402.4504,-180.3246 3415.9891,-179.9345 3429.8489,-179.6079 3443.9743,-179.3455 3458.3079,-179.148 3472.7913,-179.0161 3487.365,-178.95 3501.9688,-178.95 3516.5424,-179.0161"/>
<text text-anchor="middle" x="3494.6669" y="-196.8499" font-family="Times,serif" font-size="24.00" fill="#ffffff">Crops not Garden plants</text>
</g>
<!-- Continuous Deployment&#45;&gt;Crops not Garden plants -->
<g id="edge21" class="edge">
<title>Continuous Deployment&#45;&gt;Crops not Garden plants</title>
<g id="a_edge21"><a xlink:title="Continuous Deployment &#160;enables &#160;&#160;Crops not Garden plants">
<path fill="none" stroke="#28d786" d="M3165.1408,-218.1141C3200.6802,-215.5199 3238.4672,-212.9731 3275.296,-210.6833"/>
<polygon fill="#28d786" stroke="#28d786" points="3275.89,-214.1534 3285.6556,-210.0444 3275.4591,-207.1667 3275.89,-214.1534"/>
</a>
</g>
</g>
<!-- Chaos Agent -->
<g id="node14" class="node">
<title>Chaos Agent</title>
<polygon fill="#2f28d7" stroke="#000000" stroke-width="3" points="2384.7986,-278.0161 2392.6425,-278.148 2400.4052,-278.3455 2408.0552,-278.6079 2415.5613,-278.9345 2422.8936,-279.3246 2430.023,-279.7769 2436.9218,-280.2902 2443.5639,-280.8633 2449.9245,-281.4943 2455.9807,-282.1817 2461.7114,-282.9236 2467.0976,-283.7179 2472.1223,-284.5625 2476.7704,-285.4549 2481.0293,-286.3929 2484.8884,-287.3738 2488.3394,-288.3949 2491.3763,-289.4534 2493.9952,-290.5465 2496.1945,-291.6711 2497.9744,-292.8241 2499.3376,-294.0024 2500.2883,-295.2028 2500.833,-296.4219 2500.9795,-297.6565 2500.7375,-298.9031 2500.1182,-300.1584 2499.1339,-301.4188 2497.7983,-302.6809 2496.126,-303.9414 2494.1324,-305.1966 2491.8338,-306.4432 2489.247,-307.6778 2486.389,-308.8969 2483.2771,-310.0973 2479.9288,-311.2756 2476.3615,-312.4287 2472.5921,-313.5533 2468.6376,-314.6463 2464.5142,-315.7049 2460.2377,-316.726 2455.8232,-317.7068 2451.2851,-318.6448 2446.637,-319.5373 2441.8915,-320.3818 2437.0607,-321.1761 2432.1554,-321.918 2427.1857,-322.6054 2422.1608,-323.2365 2417.0888,-323.8095 2411.9774,-324.3229 2406.8332,-324.7752 2401.662,-325.1652 2396.4692,-325.4919 2391.2596,-325.7543 2386.0373,-325.9517 2380.8063,-326.0837 2375.5702,-326.1497 2370.3324,-326.1497 2365.0963,-326.0837 2359.8653,-325.9517 2354.643,-325.7543 2349.4334,-325.4919 2344.2406,-325.1652 2339.0695,-324.7752 2333.9252,-324.3229 2328.8138,-323.8095 2323.7418,-323.2365 2318.7169,-322.6054 2313.7472,-321.918 2308.8419,-321.1761 2304.0111,-320.3818 2299.2656,-319.5373 2294.6175,-318.6448 2290.0794,-317.7068 2285.6649,-316.726 2281.3884,-315.7049 2277.265,-314.6463 2273.3105,-313.5533 2269.5411,-312.4287 2265.9738,-311.2756 2262.6255,-310.0973 2259.5136,-308.8969 2256.6556,-307.6778 2254.0688,-306.4432 2251.7702,-305.1966 2249.7766,-303.9414 2248.1043,-302.6809 2246.7687,-301.4188 2245.7844,-300.1584 2245.1651,-298.9031 2244.9231,-297.6565 2245.0696,-296.4219 2245.6143,-295.2028 2246.5651,-294.0024 2247.9282,-292.8241 2249.7081,-291.6711 2251.9074,-290.5465 2254.5263,-289.4534 2257.5632,-288.3949 2261.0142,-287.3738 2264.8733,-286.3929 2269.1322,-285.4549 2273.7803,-284.5625 2278.805,-283.7179 2284.1912,-282.9236 2289.9219,-282.1817 2295.9781,-281.4943 2302.3387,-280.8633 2308.9808,-280.2902 2315.8796,-279.7769 2323.009,-279.3246 2330.3413,-278.9345 2337.8474,-278.6079 2345.4974,-278.3455 2353.2601,-278.148 2361.104,-278.0161 2368.9968,-277.95 2376.9058,-277.95 2384.7986,-278.0161"/>
<text text-anchor="middle" x="2372.9513" y="-295.8499" font-family="Times,serif" font-size="24.00" fill="#ffffff">Chaos Agent</text>
</g>
<!-- Chaos Agent&#45;&gt;Continuous Deployment -->
<g id="edge22" class="edge">
<title>Chaos Agent&#45;&gt;Continuous Deployment</title>
<g id="a_edge22"><a xlink:title="Chaos Agent &#160;reduces the failure rate of &#160;Continuous Deployment">
<path fill="none" stroke="#d72879" d="M2495.8023,-291.2311C2562.4372,-285.1527 2646.21,-277.1718 2720.8484,-269.0499 2760.797,-264.7028 2804.0332,-259.5782 2843.9045,-254.6805"/>
<polygon fill="#d72879" stroke="#d72879" points="2844.4679,-258.1376 2853.9647,-253.4408 2843.6117,-251.1901 2844.4679,-258.1376"/>
</a>
</g>
</g>
<!-- Crops not Garden plants&#45;&gt;Continuous Deployment -->
<g id="edge23" class="edge">
<title>Crops not Garden plants&#45;&gt;Continuous Deployment</title>
<g id="a_edge23"><a xlink:title="Crops not Garden plants &#160;reduces the failure rate of &#160;Continuous Deployment">
<path fill="none" stroke="#d72879" d="M3344.7504,-219.0717C3308.373,-221.8389 3268.572,-224.6105 3229.1905,-227.1354"/>
<polygon fill="#d72879" stroke="#d72879" points="3228.9472,-223.6437 3219.1897,-227.7718 3229.3918,-230.6296 3228.9472,-223.6437"/>
</a>
</g>
</g>
</g>
</svg>
